G04 #@! TF.GenerationSoftware,KiCad,Pcbnew,(5.1.6)-1*
G04 #@! TF.CreationDate,2020-10-13T20:45:12+02:00*
G04 #@! TF.ProjectId,LedAdapter,4c656441-6461-4707-9465-722e6b696361,rev?*
G04 #@! TF.SameCoordinates,PX7a12000PY4c4b400*
G04 #@! TF.FileFunction,Copper,L2,Bot*
G04 #@! TF.FilePolarity,Positive*
%FSLAX46Y46*%
G04 Gerber Fmt 4.6, Leading zero omitted, Abs format (unit mm)*
G04 Created by KiCad (PCBNEW (5.1.6)-1) date 2020-10-13 20:45:12*
%MOMM*%
%LPD*%
G01*
G04 APERTURE LIST*
G04 #@! TA.AperFunction,ComponentPad*
%ADD10C,1.500000*%
G04 #@! TD*
G04 #@! TA.AperFunction,ComponentPad*
%ADD11C,1.900000*%
G04 #@! TD*
G04 #@! TA.AperFunction,Conductor*
%ADD12C,0.250000*%
G04 #@! TD*
G04 #@! TA.AperFunction,Conductor*
%ADD13C,0.254000*%
G04 #@! TD*
G04 APERTURE END LIST*
D10*
X5095000Y-4770000D03*
X6365000Y-2230000D03*
X7635000Y-4770000D03*
X8905000Y-2230000D03*
D11*
X2230000Y-8500000D03*
X4770000Y-8500000D03*
X9230000Y-8500000D03*
X11770000Y-8500000D03*
D12*
X5095000Y-4770000D02*
X3030000Y-4770000D01*
X2230000Y-5570000D02*
X2230000Y-8500000D01*
X3030000Y-4770000D02*
X2230000Y-5570000D01*
X11770000Y-8500000D02*
X11770000Y-1770000D01*
X11770000Y-1770000D02*
X10850000Y-850000D01*
X7745000Y-850000D02*
X6365000Y-2230000D01*
X10850000Y-850000D02*
X7745000Y-850000D01*
X7635000Y-8485000D02*
X7650000Y-8500000D01*
X7635000Y-4770000D02*
X7635000Y-8485000D01*
X4770000Y-8500000D02*
X7650000Y-8500000D01*
X7650000Y-8500000D02*
X9230000Y-8500000D01*
X8905000Y-3500000D02*
X7635000Y-4770000D01*
X8905000Y-2230000D02*
X8905000Y-3500000D01*
D13*
G36*
X6646365Y-873833D02*
G01*
X6501411Y-845000D01*
X6228589Y-845000D01*
X5961011Y-898225D01*
X5708957Y-1002629D01*
X5482114Y-1154201D01*
X5289201Y-1347114D01*
X5137629Y-1573957D01*
X5033225Y-1826011D01*
X4980000Y-2093589D01*
X4980000Y-2366411D01*
X5033225Y-2633989D01*
X5137629Y-2886043D01*
X5289201Y-3112886D01*
X5482114Y-3305799D01*
X5708957Y-3457371D01*
X5961011Y-3561775D01*
X6228589Y-3615000D01*
X6501411Y-3615000D01*
X6768989Y-3561775D01*
X7021043Y-3457371D01*
X7247886Y-3305799D01*
X7366692Y-3186993D01*
X8127612Y-3186993D01*
X8193137Y-3425860D01*
X8440116Y-3541760D01*
X8704960Y-3607250D01*
X8977492Y-3619812D01*
X9247238Y-3578965D01*
X9503832Y-3486277D01*
X9616863Y-3425860D01*
X9682388Y-3186993D01*
X8905000Y-2409605D01*
X8127612Y-3186993D01*
X7366692Y-3186993D01*
X7440799Y-3112886D01*
X7592371Y-2886043D01*
X7633511Y-2786721D01*
X7648723Y-2828832D01*
X7709140Y-2941863D01*
X7948007Y-3007388D01*
X8725395Y-2230000D01*
X8711253Y-2215858D01*
X8890858Y-2036253D01*
X8905000Y-2050395D01*
X8919143Y-2036253D01*
X9098748Y-2215858D01*
X9084605Y-2230000D01*
X9861993Y-3007388D01*
X10100860Y-2941863D01*
X10216760Y-2694884D01*
X10282250Y-2430040D01*
X10294812Y-2157508D01*
X10253965Y-1887762D01*
X10161277Y-1631168D01*
X10149962Y-1610000D01*
X10535198Y-1610000D01*
X11010001Y-2084803D01*
X11010000Y-7101552D01*
X10759621Y-7268850D01*
X10538850Y-7489621D01*
X10450613Y-7621676D01*
X10329752Y-7579853D01*
X9409605Y-8500000D01*
X9423748Y-8514143D01*
X9244143Y-8693748D01*
X9230000Y-8679605D01*
X9215858Y-8693748D01*
X9036253Y-8514143D01*
X9050395Y-8500000D01*
X8130248Y-7579853D01*
X7870958Y-7669579D01*
X7735065Y-7950671D01*
X7656621Y-8252873D01*
X7638641Y-8564573D01*
X7681816Y-8873791D01*
X7784487Y-9168644D01*
X7870958Y-9330421D01*
X7994003Y-9373000D01*
X6005997Y-9373000D01*
X6129042Y-9330421D01*
X6264935Y-9049329D01*
X6343379Y-8747127D01*
X6361359Y-8435427D01*
X6318184Y-8126209D01*
X6215513Y-7831356D01*
X6129042Y-7669579D01*
X5869752Y-7579853D01*
X4949605Y-8500000D01*
X4963748Y-8514143D01*
X4784143Y-8693748D01*
X4770000Y-8679605D01*
X4755858Y-8693748D01*
X4576253Y-8514143D01*
X4590395Y-8500000D01*
X3670248Y-7579853D01*
X3549387Y-7621676D01*
X3461150Y-7489621D01*
X3371777Y-7400248D01*
X3849853Y-7400248D01*
X4770000Y-8320395D01*
X5690147Y-7400248D01*
X8309853Y-7400248D01*
X9230000Y-8320395D01*
X10150147Y-7400248D01*
X10060421Y-7140958D01*
X9779329Y-7005065D01*
X9477127Y-6926621D01*
X9165427Y-6908641D01*
X8856209Y-6951816D01*
X8561356Y-7054487D01*
X8399579Y-7140958D01*
X8309853Y-7400248D01*
X5690147Y-7400248D01*
X5600421Y-7140958D01*
X5319329Y-7005065D01*
X5017127Y-6926621D01*
X4705427Y-6908641D01*
X4396209Y-6951816D01*
X4101356Y-7054487D01*
X3939579Y-7140958D01*
X3849853Y-7400248D01*
X3371777Y-7400248D01*
X3240379Y-7268850D01*
X2990000Y-7101552D01*
X2990000Y-5884801D01*
X3344802Y-5530000D01*
X3937091Y-5530000D01*
X4019201Y-5652886D01*
X4212114Y-5845799D01*
X4438957Y-5997371D01*
X4691011Y-6101775D01*
X4958589Y-6155000D01*
X5231411Y-6155000D01*
X5498989Y-6101775D01*
X5751043Y-5997371D01*
X5977886Y-5845799D01*
X6096692Y-5726993D01*
X6857612Y-5726993D01*
X6923137Y-5965860D01*
X7170116Y-6081760D01*
X7434960Y-6147250D01*
X7707492Y-6159812D01*
X7977238Y-6118965D01*
X8233832Y-6026277D01*
X8346863Y-5965860D01*
X8412388Y-5726993D01*
X7635000Y-4949605D01*
X6857612Y-5726993D01*
X6096692Y-5726993D01*
X6170799Y-5652886D01*
X6322371Y-5426043D01*
X6363511Y-5326721D01*
X6378723Y-5368832D01*
X6439140Y-5481863D01*
X6678007Y-5547388D01*
X7455395Y-4770000D01*
X7814605Y-4770000D01*
X8591993Y-5547388D01*
X8830860Y-5481863D01*
X8946760Y-5234884D01*
X9012250Y-4970040D01*
X9024812Y-4697508D01*
X8983965Y-4427762D01*
X8891277Y-4171168D01*
X8830860Y-4058137D01*
X8591993Y-3992612D01*
X7814605Y-4770000D01*
X7455395Y-4770000D01*
X6678007Y-3992612D01*
X6439140Y-4058137D01*
X6364836Y-4216477D01*
X6322371Y-4113957D01*
X6170799Y-3887114D01*
X6096692Y-3813007D01*
X6857612Y-3813007D01*
X7635000Y-4590395D01*
X8412388Y-3813007D01*
X8346863Y-3574140D01*
X8099884Y-3458240D01*
X7835040Y-3392750D01*
X7562508Y-3380188D01*
X7292762Y-3421035D01*
X7036168Y-3513723D01*
X6923137Y-3574140D01*
X6857612Y-3813007D01*
X6096692Y-3813007D01*
X5977886Y-3694201D01*
X5751043Y-3542629D01*
X5498989Y-3438225D01*
X5231411Y-3385000D01*
X4958589Y-3385000D01*
X4691011Y-3438225D01*
X4438957Y-3542629D01*
X4212114Y-3694201D01*
X4019201Y-3887114D01*
X3937091Y-4010000D01*
X3067323Y-4010000D01*
X3030000Y-4006324D01*
X2992677Y-4010000D01*
X2992667Y-4010000D01*
X2881014Y-4020997D01*
X2737753Y-4064454D01*
X2605724Y-4135026D01*
X2489999Y-4229999D01*
X2466201Y-4258998D01*
X1719002Y-5006197D01*
X1689999Y-5029999D01*
X1634871Y-5097174D01*
X1595026Y-5145724D01*
X1547369Y-5234884D01*
X1524454Y-5277754D01*
X1480997Y-5421015D01*
X1470000Y-5532668D01*
X1470000Y-5532678D01*
X1466324Y-5570000D01*
X1470000Y-5607323D01*
X1470001Y-7101552D01*
X1219621Y-7268850D01*
X998850Y-7489621D01*
X825391Y-7749221D01*
X705911Y-8037673D01*
X660000Y-8268481D01*
X660000Y-660000D01*
X6860198Y-660000D01*
X6646365Y-873833D01*
G37*
X6646365Y-873833D02*
X6501411Y-845000D01*
X6228589Y-845000D01*
X5961011Y-898225D01*
X5708957Y-1002629D01*
X5482114Y-1154201D01*
X5289201Y-1347114D01*
X5137629Y-1573957D01*
X5033225Y-1826011D01*
X4980000Y-2093589D01*
X4980000Y-2366411D01*
X5033225Y-2633989D01*
X5137629Y-2886043D01*
X5289201Y-3112886D01*
X5482114Y-3305799D01*
X5708957Y-3457371D01*
X5961011Y-3561775D01*
X6228589Y-3615000D01*
X6501411Y-3615000D01*
X6768989Y-3561775D01*
X7021043Y-3457371D01*
X7247886Y-3305799D01*
X7366692Y-3186993D01*
X8127612Y-3186993D01*
X8193137Y-3425860D01*
X8440116Y-3541760D01*
X8704960Y-3607250D01*
X8977492Y-3619812D01*
X9247238Y-3578965D01*
X9503832Y-3486277D01*
X9616863Y-3425860D01*
X9682388Y-3186993D01*
X8905000Y-2409605D01*
X8127612Y-3186993D01*
X7366692Y-3186993D01*
X7440799Y-3112886D01*
X7592371Y-2886043D01*
X7633511Y-2786721D01*
X7648723Y-2828832D01*
X7709140Y-2941863D01*
X7948007Y-3007388D01*
X8725395Y-2230000D01*
X8711253Y-2215858D01*
X8890858Y-2036253D01*
X8905000Y-2050395D01*
X8919143Y-2036253D01*
X9098748Y-2215858D01*
X9084605Y-2230000D01*
X9861993Y-3007388D01*
X10100860Y-2941863D01*
X10216760Y-2694884D01*
X10282250Y-2430040D01*
X10294812Y-2157508D01*
X10253965Y-1887762D01*
X10161277Y-1631168D01*
X10149962Y-1610000D01*
X10535198Y-1610000D01*
X11010001Y-2084803D01*
X11010000Y-7101552D01*
X10759621Y-7268850D01*
X10538850Y-7489621D01*
X10450613Y-7621676D01*
X10329752Y-7579853D01*
X9409605Y-8500000D01*
X9423748Y-8514143D01*
X9244143Y-8693748D01*
X9230000Y-8679605D01*
X9215858Y-8693748D01*
X9036253Y-8514143D01*
X9050395Y-8500000D01*
X8130248Y-7579853D01*
X7870958Y-7669579D01*
X7735065Y-7950671D01*
X7656621Y-8252873D01*
X7638641Y-8564573D01*
X7681816Y-8873791D01*
X7784487Y-9168644D01*
X7870958Y-9330421D01*
X7994003Y-9373000D01*
X6005997Y-9373000D01*
X6129042Y-9330421D01*
X6264935Y-9049329D01*
X6343379Y-8747127D01*
X6361359Y-8435427D01*
X6318184Y-8126209D01*
X6215513Y-7831356D01*
X6129042Y-7669579D01*
X5869752Y-7579853D01*
X4949605Y-8500000D01*
X4963748Y-8514143D01*
X4784143Y-8693748D01*
X4770000Y-8679605D01*
X4755858Y-8693748D01*
X4576253Y-8514143D01*
X4590395Y-8500000D01*
X3670248Y-7579853D01*
X3549387Y-7621676D01*
X3461150Y-7489621D01*
X3371777Y-7400248D01*
X3849853Y-7400248D01*
X4770000Y-8320395D01*
X5690147Y-7400248D01*
X8309853Y-7400248D01*
X9230000Y-8320395D01*
X10150147Y-7400248D01*
X10060421Y-7140958D01*
X9779329Y-7005065D01*
X9477127Y-6926621D01*
X9165427Y-6908641D01*
X8856209Y-6951816D01*
X8561356Y-7054487D01*
X8399579Y-7140958D01*
X8309853Y-7400248D01*
X5690147Y-7400248D01*
X5600421Y-7140958D01*
X5319329Y-7005065D01*
X5017127Y-6926621D01*
X4705427Y-6908641D01*
X4396209Y-6951816D01*
X4101356Y-7054487D01*
X3939579Y-7140958D01*
X3849853Y-7400248D01*
X3371777Y-7400248D01*
X3240379Y-7268850D01*
X2990000Y-7101552D01*
X2990000Y-5884801D01*
X3344802Y-5530000D01*
X3937091Y-5530000D01*
X4019201Y-5652886D01*
X4212114Y-5845799D01*
X4438957Y-5997371D01*
X4691011Y-6101775D01*
X4958589Y-6155000D01*
X5231411Y-6155000D01*
X5498989Y-6101775D01*
X5751043Y-5997371D01*
X5977886Y-5845799D01*
X6096692Y-5726993D01*
X6857612Y-5726993D01*
X6923137Y-5965860D01*
X7170116Y-6081760D01*
X7434960Y-6147250D01*
X7707492Y-6159812D01*
X7977238Y-6118965D01*
X8233832Y-6026277D01*
X8346863Y-5965860D01*
X8412388Y-5726993D01*
X7635000Y-4949605D01*
X6857612Y-5726993D01*
X6096692Y-5726993D01*
X6170799Y-5652886D01*
X6322371Y-5426043D01*
X6363511Y-5326721D01*
X6378723Y-5368832D01*
X6439140Y-5481863D01*
X6678007Y-5547388D01*
X7455395Y-4770000D01*
X7814605Y-4770000D01*
X8591993Y-5547388D01*
X8830860Y-5481863D01*
X8946760Y-5234884D01*
X9012250Y-4970040D01*
X9024812Y-4697508D01*
X8983965Y-4427762D01*
X8891277Y-4171168D01*
X8830860Y-4058137D01*
X8591993Y-3992612D01*
X7814605Y-4770000D01*
X7455395Y-4770000D01*
X6678007Y-3992612D01*
X6439140Y-4058137D01*
X6364836Y-4216477D01*
X6322371Y-4113957D01*
X6170799Y-3887114D01*
X6096692Y-3813007D01*
X6857612Y-3813007D01*
X7635000Y-4590395D01*
X8412388Y-3813007D01*
X8346863Y-3574140D01*
X8099884Y-3458240D01*
X7835040Y-3392750D01*
X7562508Y-3380188D01*
X7292762Y-3421035D01*
X7036168Y-3513723D01*
X6923137Y-3574140D01*
X6857612Y-3813007D01*
X6096692Y-3813007D01*
X5977886Y-3694201D01*
X5751043Y-3542629D01*
X5498989Y-3438225D01*
X5231411Y-3385000D01*
X4958589Y-3385000D01*
X4691011Y-3438225D01*
X4438957Y-3542629D01*
X4212114Y-3694201D01*
X4019201Y-3887114D01*
X3937091Y-4010000D01*
X3067323Y-4010000D01*
X3030000Y-4006324D01*
X2992677Y-4010000D01*
X2992667Y-4010000D01*
X2881014Y-4020997D01*
X2737753Y-4064454D01*
X2605724Y-4135026D01*
X2489999Y-4229999D01*
X2466201Y-4258998D01*
X1719002Y-5006197D01*
X1689999Y-5029999D01*
X1634871Y-5097174D01*
X1595026Y-5145724D01*
X1547369Y-5234884D01*
X1524454Y-5277754D01*
X1480997Y-5421015D01*
X1470000Y-5532668D01*
X1470000Y-5532678D01*
X1466324Y-5570000D01*
X1470000Y-5607323D01*
X1470001Y-7101552D01*
X1219621Y-7268850D01*
X998850Y-7489621D01*
X825391Y-7749221D01*
X705911Y-8037673D01*
X660000Y-8268481D01*
X660000Y-660000D01*
X6860198Y-660000D01*
X6646365Y-873833D01*
M02*
