%TF.GenerationSoftware,KiCad,Pcbnew,(5.1.6)-1*%
%TF.CreationDate,2020-10-13T17:40:21+02:00*%
%TF.ProjectId,LedAdapter,4c656441-6461-4707-9465-722e6b696361,rev?*%
%TF.SameCoordinates,Original*%
%TF.FileFunction,Legend,Top*%
%TF.FilePolarity,Positive*%
%FSLAX46Y46*%
G04 Gerber Fmt 4.6, Leading zero omitted, Abs format (unit mm)*
G04 Created by KiCad (PCBNEW (5.1.6)-1) date 2020-10-13 17:40:21*
%MOMM*%
%LPD*%
G01*
G04 APERTURE LIST*
%ADD10C,0.300000*%
%ADD11C,0.120000*%
%ADD12C,0.150000*%
%ADD13C,0.304800*%
G04 APERTURE END LIST*
D10*
X129821428Y-91357142D02*
X128678571Y-91357142D01*
X129250000Y-91928571D02*
X129250000Y-90785714D01*
X141321428Y-91357142D02*
X140178571Y-91357142D01*
X140750000Y-91928571D02*
X140750000Y-90785714D01*
X135571428Y-91107142D02*
X134428571Y-91107142D01*
D11*
%TO.C,J1*%
X131495000Y-86300000D02*
X130845000Y-85700000D01*
X139195000Y-83700000D02*
X139195000Y-80700000D01*
X131495000Y-86300000D02*
X134495000Y-86300000D01*
X136195000Y-80700000D02*
X139195000Y-80700000D01*
X130845000Y-85700000D02*
X130845000Y-82700000D01*
%TO.C,VIS_M5_space*%
X138150000Y-95000000D02*
G75*
G03*
X138150000Y-95000000I-3150000J0D01*
G01*
%TO.C,J2*%
X128325000Y-86595000D02*
X134675000Y-86595000D01*
X134675000Y-86595000D02*
X134675000Y-90405000D01*
X134675000Y-90405000D02*
X128325000Y-90405000D01*
X128325000Y-90405000D02*
X128325000Y-86595000D01*
%TO.C,J3*%
X141675000Y-86595000D02*
X141675000Y-90405000D01*
X135325000Y-86595000D02*
X141675000Y-86595000D01*
X135325000Y-90405000D02*
X135325000Y-86595000D01*
X141675000Y-90405000D02*
X135325000Y-90405000D01*
%TO.C,J1*%
D12*
X139666666Y-84452380D02*
X139666666Y-85166666D01*
X139619047Y-85309523D01*
X139523809Y-85404761D01*
X139380952Y-85452380D01*
X139285714Y-85452380D01*
X140666666Y-85452380D02*
X140095238Y-85452380D01*
X140380952Y-85452380D02*
X140380952Y-84452380D01*
X140285714Y-84595238D01*
X140190476Y-84690476D01*
X140095238Y-84738095D01*
%TO.C,VIS_M5_space*%
D13*
%TO.C,J2*%
D12*
X130666666Y-90952380D02*
X130666666Y-91666666D01*
X130619047Y-91809523D01*
X130523809Y-91904761D01*
X130380952Y-91952380D01*
X130285714Y-91952380D01*
X131095238Y-91047619D02*
X131142857Y-91000000D01*
X131238095Y-90952380D01*
X131476190Y-90952380D01*
X131571428Y-91000000D01*
X131619047Y-91047619D01*
X131666666Y-91142857D01*
X131666666Y-91238095D01*
X131619047Y-91380952D01*
X131047619Y-91952380D01*
X131666666Y-91952380D01*
%TO.C,J3*%
X138666666Y-90952380D02*
X138666666Y-91666666D01*
X138619047Y-91809523D01*
X138523809Y-91904761D01*
X138380952Y-91952380D01*
X138285714Y-91952380D01*
X139047619Y-90952380D02*
X139666666Y-90952380D01*
X139333333Y-91333333D01*
X139476190Y-91333333D01*
X139571428Y-91380952D01*
X139619047Y-91428571D01*
X139666666Y-91523809D01*
X139666666Y-91761904D01*
X139619047Y-91857142D01*
X139571428Y-91904761D01*
X139476190Y-91952380D01*
X139190476Y-91952380D01*
X139095238Y-91904761D01*
X139047619Y-91857142D01*
%TD*%
M02*
