G04 #@! TF.GenerationSoftware,KiCad,Pcbnew,(5.1.6)-1*
G04 #@! TF.CreationDate,2020-10-13T20:45:12+02:00*
G04 #@! TF.ProjectId,LedAdapter,4c656441-6461-4707-9465-722e6b696361,rev?*
G04 #@! TF.SameCoordinates,PX7a12000PY4c4b400*
G04 #@! TF.FileFunction,Legend,Top*
G04 #@! TF.FilePolarity,Positive*
%FSLAX46Y46*%
G04 Gerber Fmt 4.6, Leading zero omitted, Abs format (unit mm)*
G04 Created by KiCad (PCBNEW (5.1.6)-1) date 2020-10-13 20:45:12*
%MOMM*%
%LPD*%
G01*
G04 APERTURE LIST*
%ADD10C,0.300000*%
%ADD11C,0.120000*%
%ADD12C,0.150000*%
%ADD13C,0.304800*%
G04 APERTURE END LIST*
D10*
X1821428Y-11357142D02*
X678571Y-11357142D01*
X1250000Y-11928571D02*
X1250000Y-10785714D01*
X13321428Y-11357142D02*
X12178571Y-11357142D01*
X12750000Y-11928571D02*
X12750000Y-10785714D01*
X7571428Y-11107142D02*
X6428571Y-11107142D01*
D11*
X3495000Y-6300000D02*
X2845000Y-5700000D01*
X11195000Y-3700000D02*
X11195000Y-700000D01*
X3495000Y-6300000D02*
X6495000Y-6300000D01*
X8195000Y-700000D02*
X11195000Y-700000D01*
X2845000Y-5700000D02*
X2845000Y-2700000D01*
X10150000Y-15000000D02*
G75*
G03*
X10150000Y-15000000I-3150000J0D01*
G01*
X325000Y-6595000D02*
X6675000Y-6595000D01*
X6675000Y-6595000D02*
X6675000Y-10405000D01*
X6675000Y-10405000D02*
X325000Y-10405000D01*
X325000Y-10405000D02*
X325000Y-6595000D01*
X13675000Y-6595000D02*
X13675000Y-10405000D01*
X7325000Y-6595000D02*
X13675000Y-6595000D01*
X7325000Y-10405000D02*
X7325000Y-6595000D01*
X13675000Y-10405000D02*
X7325000Y-10405000D01*
D12*
X11666666Y-4452380D02*
X11666666Y-5166666D01*
X11619047Y-5309523D01*
X11523809Y-5404761D01*
X11380952Y-5452380D01*
X11285714Y-5452380D01*
X12666666Y-5452380D02*
X12095238Y-5452380D01*
X12380952Y-5452380D02*
X12380952Y-4452380D01*
X12285714Y-4595238D01*
X12190476Y-4690476D01*
X12095238Y-4738095D01*
D13*
D12*
X2666666Y-10952380D02*
X2666666Y-11666666D01*
X2619047Y-11809523D01*
X2523809Y-11904761D01*
X2380952Y-11952380D01*
X2285714Y-11952380D01*
X3095238Y-11047619D02*
X3142857Y-11000000D01*
X3238095Y-10952380D01*
X3476190Y-10952380D01*
X3571428Y-11000000D01*
X3619047Y-11047619D01*
X3666666Y-11142857D01*
X3666666Y-11238095D01*
X3619047Y-11380952D01*
X3047619Y-11952380D01*
X3666666Y-11952380D01*
X10666666Y-10952380D02*
X10666666Y-11666666D01*
X10619047Y-11809523D01*
X10523809Y-11904761D01*
X10380952Y-11952380D01*
X10285714Y-11952380D01*
X11047619Y-10952380D02*
X11666666Y-10952380D01*
X11333333Y-11333333D01*
X11476190Y-11333333D01*
X11571428Y-11380952D01*
X11619047Y-11428571D01*
X11666666Y-11523809D01*
X11666666Y-11761904D01*
X11619047Y-11857142D01*
X11571428Y-11904761D01*
X11476190Y-11952380D01*
X11190476Y-11952380D01*
X11095238Y-11904761D01*
X11047619Y-11857142D01*
M02*
