%TF.GenerationSoftware,KiCad,Pcbnew,(5.1.6)-1*%
%TF.CreationDate,2020-10-13T17:40:21+02:00*%
%TF.ProjectId,LedAdapter,4c656441-6461-4707-9465-722e6b696361,rev?*%
%TF.SameCoordinates,Original*%
%TF.FileFunction,Copper,L2,Bot*%
%TF.FilePolarity,Positive*%
%FSLAX46Y46*%
G04 Gerber Fmt 4.6, Leading zero omitted, Abs format (unit mm)*
G04 Created by KiCad (PCBNEW (5.1.6)-1) date 2020-10-13 17:40:21*
%MOMM*%
%LPD*%
G01*
G04 APERTURE LIST*
%TA.AperFunction,ComponentPad*%
%ADD10C,1.500000*%
%TD*%
%TA.AperFunction,ComponentPad*%
%ADD11C,1.900000*%
%TD*%
%TA.AperFunction,Conductor*%
%ADD12C,0.250000*%
%TD*%
%TA.AperFunction,Conductor*%
%ADD13C,0.254000*%
%TD*%
G04 APERTURE END LIST*
D10*
%TO.P,J1,1*%
%TO.N,/LED1*%
X133095000Y-84770000D03*
%TO.P,J1,2*%
%TO.N,/LED2*%
X134365000Y-82230000D03*
%TO.P,J1,3*%
%TO.N,/GND*%
X135635000Y-84770000D03*
%TO.P,J1,4*%
X136905000Y-82230000D03*
%TD*%
D11*
%TO.P,J2,1*%
%TO.N,/LED1*%
X130230000Y-88500000D03*
%TO.P,J2,2*%
%TO.N,/GND*%
X132770000Y-88500000D03*
%TD*%
%TO.P,J3,2*%
%TO.N,/GND*%
X137230000Y-88500000D03*
%TO.P,J3,1*%
%TO.N,/LED2*%
X139770000Y-88500000D03*
%TD*%
D12*
%TO.N,/LED1*%
X133095000Y-84770000D02*
X131030000Y-84770000D01*
X130230000Y-85570000D02*
X130230000Y-88500000D01*
X131030000Y-84770000D02*
X130230000Y-85570000D01*
%TO.N,/LED2*%
X139770000Y-88500000D02*
X139770000Y-81770000D01*
X139770000Y-81770000D02*
X138850000Y-80850000D01*
X135745000Y-80850000D02*
X134365000Y-82230000D01*
X138850000Y-80850000D02*
X135745000Y-80850000D01*
%TO.N,/GND*%
X135635000Y-88485000D02*
X135650000Y-88500000D01*
X135635000Y-84770000D02*
X135635000Y-88485000D01*
X132770000Y-88500000D02*
X135650000Y-88500000D01*
X135650000Y-88500000D02*
X137230000Y-88500000D01*
X136905000Y-83500000D02*
X135635000Y-84770000D01*
X136905000Y-82230000D02*
X136905000Y-83500000D01*
%TD*%
D13*
%TO.N,/GND*%
G36*
X134646365Y-80873833D02*
G01*
X134501411Y-80845000D01*
X134228589Y-80845000D01*
X133961011Y-80898225D01*
X133708957Y-81002629D01*
X133482114Y-81154201D01*
X133289201Y-81347114D01*
X133137629Y-81573957D01*
X133033225Y-81826011D01*
X132980000Y-82093589D01*
X132980000Y-82366411D01*
X133033225Y-82633989D01*
X133137629Y-82886043D01*
X133289201Y-83112886D01*
X133482114Y-83305799D01*
X133708957Y-83457371D01*
X133961011Y-83561775D01*
X134228589Y-83615000D01*
X134501411Y-83615000D01*
X134768989Y-83561775D01*
X135021043Y-83457371D01*
X135247886Y-83305799D01*
X135366692Y-83186993D01*
X136127612Y-83186993D01*
X136193137Y-83425860D01*
X136440116Y-83541760D01*
X136704960Y-83607250D01*
X136977492Y-83619812D01*
X137247238Y-83578965D01*
X137503832Y-83486277D01*
X137616863Y-83425860D01*
X137682388Y-83186993D01*
X136905000Y-82409605D01*
X136127612Y-83186993D01*
X135366692Y-83186993D01*
X135440799Y-83112886D01*
X135592371Y-82886043D01*
X135633511Y-82786721D01*
X135648723Y-82828832D01*
X135709140Y-82941863D01*
X135948007Y-83007388D01*
X136725395Y-82230000D01*
X136711253Y-82215858D01*
X136890858Y-82036253D01*
X136905000Y-82050395D01*
X136919143Y-82036253D01*
X137098748Y-82215858D01*
X137084605Y-82230000D01*
X137861993Y-83007388D01*
X138100860Y-82941863D01*
X138216760Y-82694884D01*
X138282250Y-82430040D01*
X138294812Y-82157508D01*
X138253965Y-81887762D01*
X138161277Y-81631168D01*
X138149962Y-81610000D01*
X138535198Y-81610000D01*
X139010001Y-82084803D01*
X139010000Y-87101552D01*
X138759621Y-87268850D01*
X138538850Y-87489621D01*
X138450613Y-87621676D01*
X138329752Y-87579853D01*
X137409605Y-88500000D01*
X137423748Y-88514143D01*
X137244143Y-88693748D01*
X137230000Y-88679605D01*
X137215858Y-88693748D01*
X137036253Y-88514143D01*
X137050395Y-88500000D01*
X136130248Y-87579853D01*
X135870958Y-87669579D01*
X135735065Y-87950671D01*
X135656621Y-88252873D01*
X135638641Y-88564573D01*
X135681816Y-88873791D01*
X135784487Y-89168644D01*
X135870958Y-89330421D01*
X135994003Y-89373000D01*
X134005997Y-89373000D01*
X134129042Y-89330421D01*
X134264935Y-89049329D01*
X134343379Y-88747127D01*
X134361359Y-88435427D01*
X134318184Y-88126209D01*
X134215513Y-87831356D01*
X134129042Y-87669579D01*
X133869752Y-87579853D01*
X132949605Y-88500000D01*
X132963748Y-88514143D01*
X132784143Y-88693748D01*
X132770000Y-88679605D01*
X132755858Y-88693748D01*
X132576253Y-88514143D01*
X132590395Y-88500000D01*
X131670248Y-87579853D01*
X131549387Y-87621676D01*
X131461150Y-87489621D01*
X131371777Y-87400248D01*
X131849853Y-87400248D01*
X132770000Y-88320395D01*
X133690147Y-87400248D01*
X136309853Y-87400248D01*
X137230000Y-88320395D01*
X138150147Y-87400248D01*
X138060421Y-87140958D01*
X137779329Y-87005065D01*
X137477127Y-86926621D01*
X137165427Y-86908641D01*
X136856209Y-86951816D01*
X136561356Y-87054487D01*
X136399579Y-87140958D01*
X136309853Y-87400248D01*
X133690147Y-87400248D01*
X133600421Y-87140958D01*
X133319329Y-87005065D01*
X133017127Y-86926621D01*
X132705427Y-86908641D01*
X132396209Y-86951816D01*
X132101356Y-87054487D01*
X131939579Y-87140958D01*
X131849853Y-87400248D01*
X131371777Y-87400248D01*
X131240379Y-87268850D01*
X130990000Y-87101552D01*
X130990000Y-85884801D01*
X131344802Y-85530000D01*
X131937091Y-85530000D01*
X132019201Y-85652886D01*
X132212114Y-85845799D01*
X132438957Y-85997371D01*
X132691011Y-86101775D01*
X132958589Y-86155000D01*
X133231411Y-86155000D01*
X133498989Y-86101775D01*
X133751043Y-85997371D01*
X133977886Y-85845799D01*
X134096692Y-85726993D01*
X134857612Y-85726993D01*
X134923137Y-85965860D01*
X135170116Y-86081760D01*
X135434960Y-86147250D01*
X135707492Y-86159812D01*
X135977238Y-86118965D01*
X136233832Y-86026277D01*
X136346863Y-85965860D01*
X136412388Y-85726993D01*
X135635000Y-84949605D01*
X134857612Y-85726993D01*
X134096692Y-85726993D01*
X134170799Y-85652886D01*
X134322371Y-85426043D01*
X134363511Y-85326721D01*
X134378723Y-85368832D01*
X134439140Y-85481863D01*
X134678007Y-85547388D01*
X135455395Y-84770000D01*
X135814605Y-84770000D01*
X136591993Y-85547388D01*
X136830860Y-85481863D01*
X136946760Y-85234884D01*
X137012250Y-84970040D01*
X137024812Y-84697508D01*
X136983965Y-84427762D01*
X136891277Y-84171168D01*
X136830860Y-84058137D01*
X136591993Y-83992612D01*
X135814605Y-84770000D01*
X135455395Y-84770000D01*
X134678007Y-83992612D01*
X134439140Y-84058137D01*
X134364836Y-84216477D01*
X134322371Y-84113957D01*
X134170799Y-83887114D01*
X134096692Y-83813007D01*
X134857612Y-83813007D01*
X135635000Y-84590395D01*
X136412388Y-83813007D01*
X136346863Y-83574140D01*
X136099884Y-83458240D01*
X135835040Y-83392750D01*
X135562508Y-83380188D01*
X135292762Y-83421035D01*
X135036168Y-83513723D01*
X134923137Y-83574140D01*
X134857612Y-83813007D01*
X134096692Y-83813007D01*
X133977886Y-83694201D01*
X133751043Y-83542629D01*
X133498989Y-83438225D01*
X133231411Y-83385000D01*
X132958589Y-83385000D01*
X132691011Y-83438225D01*
X132438957Y-83542629D01*
X132212114Y-83694201D01*
X132019201Y-83887114D01*
X131937091Y-84010000D01*
X131067323Y-84010000D01*
X131030000Y-84006324D01*
X130992677Y-84010000D01*
X130992667Y-84010000D01*
X130881014Y-84020997D01*
X130737753Y-84064454D01*
X130605724Y-84135026D01*
X130489999Y-84229999D01*
X130466201Y-84258998D01*
X129719002Y-85006197D01*
X129689999Y-85029999D01*
X129634871Y-85097174D01*
X129595026Y-85145724D01*
X129547369Y-85234884D01*
X129524454Y-85277754D01*
X129480997Y-85421015D01*
X129470000Y-85532668D01*
X129470000Y-85532678D01*
X129466324Y-85570000D01*
X129470000Y-85607323D01*
X129470001Y-87101552D01*
X129219621Y-87268850D01*
X128998850Y-87489621D01*
X128825391Y-87749221D01*
X128705911Y-88037673D01*
X128660000Y-88268481D01*
X128660000Y-80660000D01*
X134860198Y-80660000D01*
X134646365Y-80873833D01*
G37*
X134646365Y-80873833D02*
X134501411Y-80845000D01*
X134228589Y-80845000D01*
X133961011Y-80898225D01*
X133708957Y-81002629D01*
X133482114Y-81154201D01*
X133289201Y-81347114D01*
X133137629Y-81573957D01*
X133033225Y-81826011D01*
X132980000Y-82093589D01*
X132980000Y-82366411D01*
X133033225Y-82633989D01*
X133137629Y-82886043D01*
X133289201Y-83112886D01*
X133482114Y-83305799D01*
X133708957Y-83457371D01*
X133961011Y-83561775D01*
X134228589Y-83615000D01*
X134501411Y-83615000D01*
X134768989Y-83561775D01*
X135021043Y-83457371D01*
X135247886Y-83305799D01*
X135366692Y-83186993D01*
X136127612Y-83186993D01*
X136193137Y-83425860D01*
X136440116Y-83541760D01*
X136704960Y-83607250D01*
X136977492Y-83619812D01*
X137247238Y-83578965D01*
X137503832Y-83486277D01*
X137616863Y-83425860D01*
X137682388Y-83186993D01*
X136905000Y-82409605D01*
X136127612Y-83186993D01*
X135366692Y-83186993D01*
X135440799Y-83112886D01*
X135592371Y-82886043D01*
X135633511Y-82786721D01*
X135648723Y-82828832D01*
X135709140Y-82941863D01*
X135948007Y-83007388D01*
X136725395Y-82230000D01*
X136711253Y-82215858D01*
X136890858Y-82036253D01*
X136905000Y-82050395D01*
X136919143Y-82036253D01*
X137098748Y-82215858D01*
X137084605Y-82230000D01*
X137861993Y-83007388D01*
X138100860Y-82941863D01*
X138216760Y-82694884D01*
X138282250Y-82430040D01*
X138294812Y-82157508D01*
X138253965Y-81887762D01*
X138161277Y-81631168D01*
X138149962Y-81610000D01*
X138535198Y-81610000D01*
X139010001Y-82084803D01*
X139010000Y-87101552D01*
X138759621Y-87268850D01*
X138538850Y-87489621D01*
X138450613Y-87621676D01*
X138329752Y-87579853D01*
X137409605Y-88500000D01*
X137423748Y-88514143D01*
X137244143Y-88693748D01*
X137230000Y-88679605D01*
X137215858Y-88693748D01*
X137036253Y-88514143D01*
X137050395Y-88500000D01*
X136130248Y-87579853D01*
X135870958Y-87669579D01*
X135735065Y-87950671D01*
X135656621Y-88252873D01*
X135638641Y-88564573D01*
X135681816Y-88873791D01*
X135784487Y-89168644D01*
X135870958Y-89330421D01*
X135994003Y-89373000D01*
X134005997Y-89373000D01*
X134129042Y-89330421D01*
X134264935Y-89049329D01*
X134343379Y-88747127D01*
X134361359Y-88435427D01*
X134318184Y-88126209D01*
X134215513Y-87831356D01*
X134129042Y-87669579D01*
X133869752Y-87579853D01*
X132949605Y-88500000D01*
X132963748Y-88514143D01*
X132784143Y-88693748D01*
X132770000Y-88679605D01*
X132755858Y-88693748D01*
X132576253Y-88514143D01*
X132590395Y-88500000D01*
X131670248Y-87579853D01*
X131549387Y-87621676D01*
X131461150Y-87489621D01*
X131371777Y-87400248D01*
X131849853Y-87400248D01*
X132770000Y-88320395D01*
X133690147Y-87400248D01*
X136309853Y-87400248D01*
X137230000Y-88320395D01*
X138150147Y-87400248D01*
X138060421Y-87140958D01*
X137779329Y-87005065D01*
X137477127Y-86926621D01*
X137165427Y-86908641D01*
X136856209Y-86951816D01*
X136561356Y-87054487D01*
X136399579Y-87140958D01*
X136309853Y-87400248D01*
X133690147Y-87400248D01*
X133600421Y-87140958D01*
X133319329Y-87005065D01*
X133017127Y-86926621D01*
X132705427Y-86908641D01*
X132396209Y-86951816D01*
X132101356Y-87054487D01*
X131939579Y-87140958D01*
X131849853Y-87400248D01*
X131371777Y-87400248D01*
X131240379Y-87268850D01*
X130990000Y-87101552D01*
X130990000Y-85884801D01*
X131344802Y-85530000D01*
X131937091Y-85530000D01*
X132019201Y-85652886D01*
X132212114Y-85845799D01*
X132438957Y-85997371D01*
X132691011Y-86101775D01*
X132958589Y-86155000D01*
X133231411Y-86155000D01*
X133498989Y-86101775D01*
X133751043Y-85997371D01*
X133977886Y-85845799D01*
X134096692Y-85726993D01*
X134857612Y-85726993D01*
X134923137Y-85965860D01*
X135170116Y-86081760D01*
X135434960Y-86147250D01*
X135707492Y-86159812D01*
X135977238Y-86118965D01*
X136233832Y-86026277D01*
X136346863Y-85965860D01*
X136412388Y-85726993D01*
X135635000Y-84949605D01*
X134857612Y-85726993D01*
X134096692Y-85726993D01*
X134170799Y-85652886D01*
X134322371Y-85426043D01*
X134363511Y-85326721D01*
X134378723Y-85368832D01*
X134439140Y-85481863D01*
X134678007Y-85547388D01*
X135455395Y-84770000D01*
X135814605Y-84770000D01*
X136591993Y-85547388D01*
X136830860Y-85481863D01*
X136946760Y-85234884D01*
X137012250Y-84970040D01*
X137024812Y-84697508D01*
X136983965Y-84427762D01*
X136891277Y-84171168D01*
X136830860Y-84058137D01*
X136591993Y-83992612D01*
X135814605Y-84770000D01*
X135455395Y-84770000D01*
X134678007Y-83992612D01*
X134439140Y-84058137D01*
X134364836Y-84216477D01*
X134322371Y-84113957D01*
X134170799Y-83887114D01*
X134096692Y-83813007D01*
X134857612Y-83813007D01*
X135635000Y-84590395D01*
X136412388Y-83813007D01*
X136346863Y-83574140D01*
X136099884Y-83458240D01*
X135835040Y-83392750D01*
X135562508Y-83380188D01*
X135292762Y-83421035D01*
X135036168Y-83513723D01*
X134923137Y-83574140D01*
X134857612Y-83813007D01*
X134096692Y-83813007D01*
X133977886Y-83694201D01*
X133751043Y-83542629D01*
X133498989Y-83438225D01*
X133231411Y-83385000D01*
X132958589Y-83385000D01*
X132691011Y-83438225D01*
X132438957Y-83542629D01*
X132212114Y-83694201D01*
X132019201Y-83887114D01*
X131937091Y-84010000D01*
X131067323Y-84010000D01*
X131030000Y-84006324D01*
X130992677Y-84010000D01*
X130992667Y-84010000D01*
X130881014Y-84020997D01*
X130737753Y-84064454D01*
X130605724Y-84135026D01*
X130489999Y-84229999D01*
X130466201Y-84258998D01*
X129719002Y-85006197D01*
X129689999Y-85029999D01*
X129634871Y-85097174D01*
X129595026Y-85145724D01*
X129547369Y-85234884D01*
X129524454Y-85277754D01*
X129480997Y-85421015D01*
X129470000Y-85532668D01*
X129470000Y-85532678D01*
X129466324Y-85570000D01*
X129470000Y-85607323D01*
X129470001Y-87101552D01*
X129219621Y-87268850D01*
X128998850Y-87489621D01*
X128825391Y-87749221D01*
X128705911Y-88037673D01*
X128660000Y-88268481D01*
X128660000Y-80660000D01*
X134860198Y-80660000D01*
X134646365Y-80873833D01*
%TD*%
M02*
