M48
; DRILL file {KiCad (5.1.6)-1} date 10/13/20 20:40:02
; FORMAT={-:-/ absolute / inch / decimal}
; #@! TF.CreationDate,2020-10-13T20:40:02+02:00
; #@! TF.GenerationSoftware,Kicad,Pcbnew,(5.1.6)-1
; #@! TF.FileFunction,Plated,1,2,PTH
FMAT,2
INCH
T1C0.0157
T2C0.0315
T3C0.0433
T4C0.0750
%
G90
G05
T1
X1.0433Y-0.0689
X1.0433Y-0.1181
X1.0433Y-0.1575
X1.0827Y-0.0689
X1.0827Y-0.1181
X1.0827Y-0.1575
X1.122Y-0.0689
X1.122Y-0.1181
X1.122Y-0.1575
X1.122Y-0.5217
X1.1614Y-0.0689
X1.1614Y-0.1181
X1.1614Y-0.5217
X1.2008Y-0.0689
X1.2008Y-0.1181
X1.2008Y-0.3543
X1.2008Y-0.4626
X1.2008Y-0.5217
X1.2402Y-0.5217
X1.2795Y-0.5217
X1.3091Y-0.1673
X1.3091Y-0.2067
X1.378Y-0.4528
X1.4173Y-0.4528
X1.4567Y-0.4528
X1.4823Y-0.3917
X1.5315Y-0.1378
X1.5906Y-0.1457
X1.624Y-0.3445
X1.6772Y-0.4921
X1.8445Y-0.3169
X2.3031Y-0.1988
X2.3031Y-0.4311
X2.4016Y-0.1063
X2.4764Y-0.1909
X2.4764Y-0.3228
X2.565Y-0.1831
X2.565Y-0.3642
X2.5689Y-0.4843
X2.6181Y-0.1831
X2.6181Y-0.3642
X2.7343Y-0.2382
X3.1299Y-0.1378
X3.1299Y-0.1772
X3.1299Y-0.4134
X3.1299Y-0.4528
X3.1693Y-0.1378
X3.1693Y-0.1772
X3.1693Y-0.4134
X3.1693Y-0.4528
X3.2087Y-0.1378
X3.2087Y-0.1772
X3.2087Y-0.4134
X3.2087Y-0.4528
X3.248Y-0.1378
X3.248Y-0.1772
X3.248Y-0.4134
X3.248Y-0.4528
X3.2874Y-0.1378
X3.2874Y-0.1772
X3.2874Y-0.4134
X3.2874Y-0.4528
X3.3268Y-0.1378
X3.3268Y-0.1772
X3.3268Y-0.4134
X3.3268Y-0.4528
X3.3661Y-0.1378
X3.3661Y-0.1772
X3.3661Y-0.4134
X3.3661Y-0.4528
T2
X1.9185Y-0.1703
X1.9185Y-0.2703
X1.9185Y-0.3703
X2.0185Y-0.2203
X2.0185Y-0.3203
X2.0185Y-0.4203
T3
X2.1654Y-0.2453
X2.1654Y-0.3453
T4
X0.6331Y-0.2953
X0.9331Y-0.1953
X0.9331Y-0.3953
X2.8228Y-0.1953
X2.8228Y-0.3953
X3.0039Y-0.1953
X3.0039Y-0.3953
X3.1228Y-0.2953
X3.3039Y-0.2953
T0
M30
