%TF.GenerationSoftware,KiCad,Pcbnew,(5.1.6)-1*%
%TF.CreationDate,2020-10-13T17:41:20+02:00*%
%TF.ProjectId,ChargerModule,43686172-6765-4724-9d6f-64756c652e6b,00*%
%TF.SameCoordinates,Original*%
%TF.FileFunction,Soldermask,Top*%
%TF.FilePolarity,Negative*%
%FSLAX46Y46*%
G04 Gerber Fmt 4.6, Leading zero omitted, Abs format (unit mm)*
G04 Created by KiCad (PCBNEW (5.1.6)-1) date 2020-10-13 17:41:20*
%MOMM*%
%LPD*%
G01*
G04 APERTURE LIST*
%ADD10C,5.600000*%
%ADD11C,2.000000*%
%ADD12C,1.600000*%
%ADD13R,1.800000X0.900000*%
%ADD14C,3.148000*%
%ADD15R,1.600000X1.350000*%
%ADD16R,1.660000X0.750000*%
%ADD17R,1.700000X2.100000*%
%ADD18R,1.500000X1.100000*%
%ADD19R,1.100000X1.400000*%
%ADD20R,1.400000X1.100000*%
%ADD21R,2.130000X2.750000*%
G04 APERTURE END LIST*
D10*
%TO.C,VIS_M3_88mm_space*%
X194000000Y-107500000D03*
X106000000Y-107500000D03*
%TD*%
D11*
%TO.C,J2*%
X155000000Y-108770000D03*
X155000000Y-106230000D03*
%TD*%
D12*
%TO.C,J1*%
X151270000Y-110675000D03*
X148730000Y-109405000D03*
X151270000Y-108135000D03*
X148730000Y-106865000D03*
X151270000Y-105595000D03*
X148730000Y-104325000D03*
%TD*%
D13*
%TO.C,T2*%
X162900000Y-106000000D03*
X160100000Y-106950000D03*
X160100000Y-105050000D03*
%TD*%
D14*
%TO.C,V1*%
X179320000Y-107500000D03*
X171700000Y-104960000D03*
X171700000Y-110040000D03*
X183920000Y-107500000D03*
X176300000Y-104960000D03*
X176300000Y-110040000D03*
X123700000Y-110040000D03*
X123700000Y-104960000D03*
X116080000Y-107500000D03*
%TD*%
D15*
%TO.C,C3*%
X142750000Y-103000000D03*
X145250000Y-103000000D03*
%TD*%
D13*
%TO.C,U3*%
X145400000Y-106000000D03*
X142600000Y-106950000D03*
X142600000Y-105050000D03*
%TD*%
%TO.C,T1*%
X142600000Y-110000000D03*
X145400000Y-109050000D03*
X145400000Y-110950000D03*
%TD*%
%TO.C,T3*%
X162900000Y-110000000D03*
X160100000Y-110950000D03*
X160100000Y-109050000D03*
%TD*%
D15*
%TO.C,C4*%
X165250000Y-111000000D03*
X167750000Y-111000000D03*
%TD*%
D16*
%TO.C,U2*%
X167850000Y-106050000D03*
X167850000Y-107950000D03*
X165150000Y-107950000D03*
X165150000Y-107000000D03*
X165150000Y-106050000D03*
%TD*%
D17*
%TO.C,C2*%
X128500000Y-111000000D03*
X128500000Y-107000000D03*
%TD*%
%TO.C,C1*%
X139500000Y-111000000D03*
X139500000Y-107000000D03*
%TD*%
D18*
%TO.C,P1*%
X137125000Y-103500000D03*
X134875000Y-103500000D03*
%TD*%
D19*
%TO.C,R1*%
X132000000Y-105550000D03*
X132000000Y-103450000D03*
%TD*%
D20*
%TO.C,Rch1*%
X134950000Y-106000000D03*
X137050000Y-106000000D03*
%TD*%
D16*
%TO.C,U1*%
X134850000Y-108050000D03*
X134850000Y-109950000D03*
X132150000Y-109950000D03*
X132150000Y-109000000D03*
X132150000Y-108050000D03*
%TD*%
D21*
%TO.C,F1*%
X119750000Y-106660000D03*
X119750000Y-110840000D03*
%TD*%
M02*
