G04 #@! TF.GenerationSoftware,KiCad,Pcbnew,(5.1.6)-1*
G04 #@! TF.CreationDate,2020-10-13T20:39:59+02:00*
G04 #@! TF.ProjectId,ChargerModule,43686172-6765-4724-9d6f-64756c652e6b,00*
G04 #@! TF.SameCoordinates,PX5f5e100PY5f5e100*
G04 #@! TF.FileFunction,Copper,L2,Bot*
G04 #@! TF.FilePolarity,Positive*
%FSLAX46Y46*%
G04 Gerber Fmt 4.6, Leading zero omitted, Abs format (unit mm)*
G04 Created by KiCad (PCBNEW (5.1.6)-1) date 2020-10-13 20:39:59*
%MOMM*%
%LPD*%
G01*
G04 APERTURE LIST*
G04 #@! TA.AperFunction,ComponentPad*
%ADD10C,1.900000*%
G04 #@! TD*
G04 #@! TA.AperFunction,ComponentPad*
%ADD11C,1.500000*%
G04 #@! TD*
G04 #@! TA.AperFunction,ComponentPad*
%ADD12C,3.048000*%
G04 #@! TD*
G04 #@! TA.AperFunction,SMDPad,CuDef*
%ADD13R,1.000000X1.300000*%
G04 #@! TD*
G04 #@! TA.AperFunction,SMDPad,CuDef*
%ADD14R,1.300000X1.500000*%
G04 #@! TD*
G04 #@! TA.AperFunction,ViaPad*
%ADD15C,0.800000*%
G04 #@! TD*
G04 #@! TA.AperFunction,Conductor*
%ADD16C,0.250000*%
G04 #@! TD*
G04 APERTURE END LIST*
D10*
X55000000Y-8770000D03*
X55000000Y-6230000D03*
D11*
X51270000Y-10675000D03*
X48730000Y-9405000D03*
X51270000Y-8135000D03*
X48730000Y-6865000D03*
X51270000Y-5595000D03*
X48730000Y-4325000D03*
D12*
X79320000Y-7500000D03*
X71700000Y-4960000D03*
X71700000Y-10040000D03*
X83920000Y-7500000D03*
X76300000Y-4960000D03*
X76300000Y-10040000D03*
X23700000Y-10040000D03*
X23700000Y-4960000D03*
X16080000Y-7500000D03*
D13*
X58500000Y-9050000D03*
X58500000Y-6950000D03*
D14*
X61000000Y-9350000D03*
X61000000Y-6650000D03*
D15*
X38900000Y-3500000D03*
X37650000Y-9950000D03*
X42600000Y-12500000D03*
X58500000Y-10950000D03*
X61000000Y-2700000D03*
X69450000Y-6050000D03*
X65250000Y-12300000D03*
X66500000Y-4650000D03*
X66500000Y-9250000D03*
X65150000Y-9250000D03*
X65150000Y-4650000D03*
X40400000Y-3700000D03*
X58500000Y-5050000D03*
X62900000Y-8200000D03*
X62900000Y-4850000D03*
X26500000Y-3000000D03*
X27500000Y-3000000D03*
X28500000Y-3000000D03*
X29500000Y-3000000D03*
X30500000Y-3000000D03*
X26500000Y-4000000D03*
X27500000Y-4000000D03*
X28500000Y-4000000D03*
X35000000Y-11500000D03*
X30500000Y-9000000D03*
X36000000Y-11500000D03*
X37000000Y-11500000D03*
X33250000Y-5250000D03*
X33250000Y-4250000D03*
X30500000Y-11750000D03*
X30500000Y-13250000D03*
X31500000Y-13250000D03*
X32500000Y-13250000D03*
X29500000Y-13250000D03*
X28500000Y-13250000D03*
X26500000Y-1750000D03*
X27500000Y-1750000D03*
X28500000Y-1750000D03*
X29500000Y-1750000D03*
X30500000Y-1750000D03*
X79500000Y-3500000D03*
X80500000Y-3500000D03*
X81500000Y-3500000D03*
X82500000Y-3500000D03*
X83500000Y-3500000D03*
X84500000Y-3500000D03*
X85500000Y-3500000D03*
X81500000Y-4500000D03*
X82500000Y-4500000D03*
X83500000Y-4500000D03*
X84500000Y-4500000D03*
X85500000Y-4500000D03*
X80500000Y-4500000D03*
X79500000Y-4500000D03*
X83500000Y-10500000D03*
X85500000Y-11500000D03*
X82500000Y-10500000D03*
X84500000Y-11500000D03*
X83500000Y-11500000D03*
X84500000Y-10500000D03*
X80500000Y-10500000D03*
X82500000Y-11500000D03*
X80500000Y-11500000D03*
X81500000Y-10500000D03*
X81500000Y-11500000D03*
X79500000Y-11500000D03*
X79500000Y-10500000D03*
X85500000Y-10500000D03*
X41250000Y-8750000D03*
X46850000Y-8050000D03*
D16*
X38900000Y-3500000D02*
X38900000Y-7950000D01*
X38900000Y-7950000D02*
X37650000Y-9200000D01*
X37650000Y-9200000D02*
X37650000Y-9950000D01*
X38900000Y-3500000D02*
X39600000Y-2800000D01*
X39600000Y-2800000D02*
X40750000Y-2800000D01*
X42275000Y-4325000D02*
X48730000Y-4325000D01*
X40750000Y-2800000D02*
X42275000Y-4325000D01*
X53095000Y-4325000D02*
X55000000Y-6230000D01*
X48730000Y-4325000D02*
X53095000Y-4325000D01*
X42600000Y-12500000D02*
X47600000Y-12500000D01*
X48730000Y-11370000D02*
X48730000Y-9405000D01*
X47600000Y-12500000D02*
X48730000Y-11370000D01*
X61000000Y-6650000D02*
X60000000Y-6650000D01*
X60000000Y-6650000D02*
X59700000Y-6950000D01*
X59700000Y-6950000D02*
X59700000Y-8650000D01*
X59300000Y-9050000D02*
X58500000Y-9050000D01*
X59700000Y-8650000D02*
X59300000Y-9050000D01*
X58500000Y-10950000D02*
X58500000Y-9050000D01*
X61000000Y-2700000D02*
X61000000Y-6650000D01*
X65250000Y-12300000D02*
X67400000Y-10150000D01*
X67400000Y-10150000D02*
X67400000Y-6700000D01*
X68050000Y-6050000D02*
X69450000Y-6050000D01*
X67400000Y-6700000D02*
X68050000Y-6050000D01*
X66500000Y-4650000D02*
X66500000Y-9250000D01*
X52335000Y-6865000D02*
X48730000Y-6865000D01*
X52950000Y-7480000D02*
X52335000Y-6865000D01*
X52950000Y-11650000D02*
X52950000Y-7480000D01*
X53700000Y-12400000D02*
X52950000Y-11650000D01*
X63350000Y-12400000D02*
X53700000Y-12400000D01*
X66500000Y-9250000D02*
X63350000Y-12400000D01*
X65150000Y-9250000D02*
X65150000Y-4650000D01*
X40400000Y-3700000D02*
X40400000Y-5500000D01*
X40400000Y-5500000D02*
X42050000Y-7150000D01*
X47023002Y-7150000D02*
X48023002Y-8150000D01*
X42050000Y-7150000D02*
X47023002Y-7150000D01*
X51255000Y-8150000D02*
X51270000Y-8135000D01*
X48023002Y-8150000D02*
X51255000Y-8150000D01*
X58500000Y-6950000D02*
X58500000Y-5050000D01*
X62900000Y-8950000D02*
X62900000Y-8200000D01*
X62500000Y-9350000D02*
X62900000Y-8950000D01*
X61000000Y-9350000D02*
X62500000Y-9350000D01*
X62900000Y-4850000D02*
X62900000Y-8200000D01*
X41250000Y-8750000D02*
X44100000Y-8750000D01*
X44100000Y-8750000D02*
X44800000Y-8050000D01*
X44800000Y-8050000D02*
X46850000Y-8050000D01*
M02*
