G04 #@! TF.GenerationSoftware,KiCad,Pcbnew,(5.1.6)-1*
G04 #@! TF.CreationDate,2020-10-13T20:39:59+02:00*
G04 #@! TF.ProjectId,ChargerModule,43686172-6765-4724-9d6f-64756c652e6b,00*
G04 #@! TF.SameCoordinates,PX5f5e100PY5f5e100*
G04 #@! TF.FileFunction,Legend,Bot*
G04 #@! TF.FilePolarity,Positive*
%FSLAX46Y46*%
G04 Gerber Fmt 4.6, Leading zero omitted, Abs format (unit mm)*
G04 Created by KiCad (PCBNEW (5.1.6)-1) date 2020-10-13 20:39:59*
%MOMM*%
%LPD*%
G01*
G04 APERTURE LIST*
%ADD10C,0.150000*%
%ADD11C,0.120000*%
%ADD12C,0.100000*%
%ADD13C,0.304800*%
%ADD14C,0.250000*%
G04 APERTURE END LIST*
D10*
X43583333Y-5052380D02*
X43583333Y-4052380D01*
X43202380Y-4052380D01*
X43107142Y-4100000D01*
X43059523Y-4147619D01*
X43011904Y-4242857D01*
X43011904Y-4385714D01*
X43059523Y-4480952D01*
X43107142Y-4528571D01*
X43202380Y-4576190D01*
X43583333Y-4576190D01*
X42440476Y-5052380D02*
X42535714Y-5004761D01*
X42583333Y-4957142D01*
X42630952Y-4861904D01*
X42630952Y-4576190D01*
X42583333Y-4480952D01*
X42535714Y-4433333D01*
X42440476Y-4385714D01*
X42297619Y-4385714D01*
X42202380Y-4433333D01*
X42154761Y-4480952D01*
X42107142Y-4576190D01*
X42107142Y-4861904D01*
X42154761Y-4957142D01*
X42202380Y-5004761D01*
X42297619Y-5052380D01*
X42440476Y-5052380D01*
X41773809Y-4385714D02*
X41583333Y-5052380D01*
X41392857Y-4576190D01*
X41202380Y-5052380D01*
X41011904Y-4385714D01*
X40250000Y-5004761D02*
X40345238Y-5052380D01*
X40535714Y-5052380D01*
X40630952Y-5004761D01*
X40678571Y-4909523D01*
X40678571Y-4528571D01*
X40630952Y-4433333D01*
X40535714Y-4385714D01*
X40345238Y-4385714D01*
X40250000Y-4433333D01*
X40202380Y-4528571D01*
X40202380Y-4623809D01*
X40678571Y-4719047D01*
X39773809Y-5052380D02*
X39773809Y-4385714D01*
X39773809Y-4576190D02*
X39726190Y-4480952D01*
X39678571Y-4433333D01*
X39583333Y-4385714D01*
X39488095Y-4385714D01*
X38440476Y-5004761D02*
X38297619Y-5052380D01*
X38059523Y-5052380D01*
X37964285Y-5004761D01*
X37916666Y-4957142D01*
X37869047Y-4861904D01*
X37869047Y-4766666D01*
X37916666Y-4671428D01*
X37964285Y-4623809D01*
X38059523Y-4576190D01*
X38250000Y-4528571D01*
X38345238Y-4480952D01*
X38392857Y-4433333D01*
X38440476Y-4338095D01*
X38440476Y-4242857D01*
X38392857Y-4147619D01*
X38345238Y-4100000D01*
X38250000Y-4052380D01*
X38011904Y-4052380D01*
X37869047Y-4100000D01*
X37011904Y-4385714D02*
X37011904Y-5052380D01*
X37440476Y-4385714D02*
X37440476Y-4909523D01*
X37392857Y-5004761D01*
X37297619Y-5052380D01*
X37154761Y-5052380D01*
X37059523Y-5004761D01*
X37011904Y-4957142D01*
X36535714Y-4385714D02*
X36535714Y-5385714D01*
X36535714Y-4433333D02*
X36440476Y-4385714D01*
X36250000Y-4385714D01*
X36154761Y-4433333D01*
X36107142Y-4480952D01*
X36059523Y-4576190D01*
X36059523Y-4861904D01*
X36107142Y-4957142D01*
X36154761Y-5004761D01*
X36250000Y-5052380D01*
X36440476Y-5052380D01*
X36535714Y-5004761D01*
X35630952Y-4385714D02*
X35630952Y-5385714D01*
X35630952Y-4433333D02*
X35535714Y-4385714D01*
X35345238Y-4385714D01*
X35250000Y-4433333D01*
X35202380Y-4480952D01*
X35154761Y-4576190D01*
X35154761Y-4861904D01*
X35202380Y-4957142D01*
X35250000Y-5004761D01*
X35345238Y-5052380D01*
X35535714Y-5052380D01*
X35630952Y-5004761D01*
X34583333Y-5052380D02*
X34678571Y-5004761D01*
X34726190Y-4909523D01*
X34726190Y-4052380D01*
X34297619Y-4385714D02*
X34059523Y-5052380D01*
X33821428Y-4385714D02*
X34059523Y-5052380D01*
X34154761Y-5290476D01*
X34202380Y-5338095D01*
X34297619Y-5385714D01*
X32678571Y-5052380D02*
X32678571Y-4052380D01*
X32345238Y-4766666D01*
X32011904Y-4052380D01*
X32011904Y-5052380D01*
X31392857Y-5052380D02*
X31488095Y-5004761D01*
X31535714Y-4957142D01*
X31583333Y-4861904D01*
X31583333Y-4576190D01*
X31535714Y-4480952D01*
X31488095Y-4433333D01*
X31392857Y-4385714D01*
X31250000Y-4385714D01*
X31154761Y-4433333D01*
X31107142Y-4480952D01*
X31059523Y-4576190D01*
X31059523Y-4861904D01*
X31107142Y-4957142D01*
X31154761Y-5004761D01*
X31250000Y-5052380D01*
X31392857Y-5052380D01*
X30202380Y-5052380D02*
X30202380Y-4052380D01*
X30202380Y-5004761D02*
X30297619Y-5052380D01*
X30488095Y-5052380D01*
X30583333Y-5004761D01*
X30630952Y-4957142D01*
X30678571Y-4861904D01*
X30678571Y-4576190D01*
X30630952Y-4480952D01*
X30583333Y-4433333D01*
X30488095Y-4385714D01*
X30297619Y-4385714D01*
X30202380Y-4433333D01*
X29297619Y-4385714D02*
X29297619Y-5052380D01*
X29726190Y-4385714D02*
X29726190Y-4909523D01*
X29678571Y-5004761D01*
X29583333Y-5052380D01*
X29440476Y-5052380D01*
X29345238Y-5004761D01*
X29297619Y-4957142D01*
X28678571Y-5052380D02*
X28773809Y-5004761D01*
X28821428Y-4909523D01*
X28821428Y-4052380D01*
X27916666Y-5004761D02*
X28011904Y-5052380D01*
X28202380Y-5052380D01*
X28297619Y-5004761D01*
X28345238Y-4909523D01*
X28345238Y-4528571D01*
X28297619Y-4433333D01*
X28202380Y-4385714D01*
X28011904Y-4385714D01*
X27916666Y-4433333D01*
X27869047Y-4528571D01*
X27869047Y-4623809D01*
X28345238Y-4719047D01*
X41416666Y-6178571D02*
X41083333Y-6178571D01*
X40940476Y-6702380D02*
X41416666Y-6702380D01*
X41416666Y-5702380D01*
X40940476Y-5702380D01*
X40559523Y-6654761D02*
X40464285Y-6702380D01*
X40273809Y-6702380D01*
X40178571Y-6654761D01*
X40130952Y-6559523D01*
X40130952Y-6511904D01*
X40178571Y-6416666D01*
X40273809Y-6369047D01*
X40416666Y-6369047D01*
X40511904Y-6321428D01*
X40559523Y-6226190D01*
X40559523Y-6178571D01*
X40511904Y-6083333D01*
X40416666Y-6035714D01*
X40273809Y-6035714D01*
X40178571Y-6083333D01*
X39750000Y-6654761D02*
X39654761Y-6702380D01*
X39464285Y-6702380D01*
X39369047Y-6654761D01*
X39321428Y-6559523D01*
X39321428Y-6511904D01*
X39369047Y-6416666D01*
X39464285Y-6369047D01*
X39607142Y-6369047D01*
X39702380Y-6321428D01*
X39750000Y-6226190D01*
X39750000Y-6178571D01*
X39702380Y-6083333D01*
X39607142Y-6035714D01*
X39464285Y-6035714D01*
X39369047Y-6083333D01*
X38511904Y-6654761D02*
X38607142Y-6702380D01*
X38797619Y-6702380D01*
X38892857Y-6654761D01*
X38940476Y-6559523D01*
X38940476Y-6178571D01*
X38892857Y-6083333D01*
X38797619Y-6035714D01*
X38607142Y-6035714D01*
X38511904Y-6083333D01*
X38464285Y-6178571D01*
X38464285Y-6273809D01*
X38940476Y-6369047D01*
X38035714Y-6702380D02*
X38035714Y-6035714D01*
X38035714Y-5702380D02*
X38083333Y-5750000D01*
X38035714Y-5797619D01*
X37988095Y-5750000D01*
X38035714Y-5702380D01*
X38035714Y-5797619D01*
X37654761Y-6035714D02*
X37416666Y-6702380D01*
X37178571Y-6035714D01*
X36369047Y-6702380D02*
X36369047Y-6178571D01*
X36416666Y-6083333D01*
X36511904Y-6035714D01*
X36702380Y-6035714D01*
X36797619Y-6083333D01*
X36369047Y-6654761D02*
X36464285Y-6702380D01*
X36702380Y-6702380D01*
X36797619Y-6654761D01*
X36845238Y-6559523D01*
X36845238Y-6464285D01*
X36797619Y-6369047D01*
X36702380Y-6321428D01*
X36464285Y-6321428D01*
X36369047Y-6273809D01*
X35130952Y-6702380D02*
X35130952Y-5702380D01*
X34559523Y-6702380D01*
X34559523Y-5702380D01*
X34083333Y-6702380D02*
X34083333Y-6035714D01*
X34083333Y-5702380D02*
X34130952Y-5750000D01*
X34083333Y-5797619D01*
X34035714Y-5750000D01*
X34083333Y-5702380D01*
X34083333Y-5797619D01*
X33178571Y-6654761D02*
X33273809Y-6702380D01*
X33464285Y-6702380D01*
X33559523Y-6654761D01*
X33607142Y-6607142D01*
X33654761Y-6511904D01*
X33654761Y-6226190D01*
X33607142Y-6130952D01*
X33559523Y-6083333D01*
X33464285Y-6035714D01*
X33273809Y-6035714D01*
X33178571Y-6083333D01*
X32607142Y-6702380D02*
X32702380Y-6654761D01*
X32750000Y-6607142D01*
X32797619Y-6511904D01*
X32797619Y-6226190D01*
X32750000Y-6130952D01*
X32702380Y-6083333D01*
X32607142Y-6035714D01*
X32464285Y-6035714D01*
X32369047Y-6083333D01*
X32321428Y-6130952D01*
X32273809Y-6226190D01*
X32273809Y-6511904D01*
X32321428Y-6607142D01*
X32369047Y-6654761D01*
X32464285Y-6702380D01*
X32607142Y-6702380D01*
X31702380Y-6702380D02*
X31797619Y-6654761D01*
X31845238Y-6559523D01*
X31845238Y-5702380D01*
X30892857Y-6702380D02*
X30892857Y-6178571D01*
X30940476Y-6083333D01*
X31035714Y-6035714D01*
X31226190Y-6035714D01*
X31321428Y-6083333D01*
X30892857Y-6654761D02*
X30988095Y-6702380D01*
X31226190Y-6702380D01*
X31321428Y-6654761D01*
X31369047Y-6559523D01*
X31369047Y-6464285D01*
X31321428Y-6369047D01*
X31226190Y-6321428D01*
X30988095Y-6321428D01*
X30892857Y-6273809D01*
X30464285Y-6654761D02*
X30369047Y-6702380D01*
X30178571Y-6702380D01*
X30083333Y-6654761D01*
X30035714Y-6559523D01*
X30035714Y-6511904D01*
X30083333Y-6416666D01*
X30178571Y-6369047D01*
X30321428Y-6369047D01*
X30416666Y-6321428D01*
X30464285Y-6226190D01*
X30464285Y-6178571D01*
X30416666Y-6083333D01*
X30321428Y-6035714D01*
X30178571Y-6035714D01*
X30083333Y-6083333D01*
X42202380Y-7447619D02*
X42154761Y-7400000D01*
X42059523Y-7352380D01*
X41821428Y-7352380D01*
X41726190Y-7400000D01*
X41678571Y-7447619D01*
X41630952Y-7542857D01*
X41630952Y-7638095D01*
X41678571Y-7780952D01*
X42250000Y-8352380D01*
X41630952Y-8352380D01*
X40678571Y-8352380D02*
X41250000Y-8352380D01*
X40964285Y-8352380D02*
X40964285Y-7352380D01*
X41059523Y-7495238D01*
X41154761Y-7590476D01*
X41250000Y-7638095D01*
X40059523Y-7352380D02*
X39964285Y-7352380D01*
X39869047Y-7400000D01*
X39821428Y-7447619D01*
X39773809Y-7542857D01*
X39726190Y-7733333D01*
X39726190Y-7971428D01*
X39773809Y-8161904D01*
X39821428Y-8257142D01*
X39869047Y-8304761D01*
X39964285Y-8352380D01*
X40059523Y-8352380D01*
X40154761Y-8304761D01*
X40202380Y-8257142D01*
X40250000Y-8161904D01*
X40297619Y-7971428D01*
X40297619Y-7733333D01*
X40250000Y-7542857D01*
X40202380Y-7447619D01*
X40154761Y-7400000D01*
X40059523Y-7352380D01*
X39250000Y-8352380D02*
X39059523Y-8352380D01*
X38964285Y-8304761D01*
X38916666Y-8257142D01*
X38821428Y-8114285D01*
X38773809Y-7923809D01*
X38773809Y-7542857D01*
X38821428Y-7447619D01*
X38869047Y-7400000D01*
X38964285Y-7352380D01*
X39154761Y-7352380D01*
X39250000Y-7400000D01*
X39297619Y-7447619D01*
X39345238Y-7542857D01*
X39345238Y-7780952D01*
X39297619Y-7876190D01*
X39250000Y-7923809D01*
X39154761Y-7971428D01*
X38964285Y-7971428D01*
X38869047Y-7923809D01*
X38821428Y-7876190D01*
X38773809Y-7780952D01*
X38392857Y-7447619D02*
X38345238Y-7400000D01*
X38250000Y-7352380D01*
X38011904Y-7352380D01*
X37916666Y-7400000D01*
X37869047Y-7447619D01*
X37821428Y-7542857D01*
X37821428Y-7638095D01*
X37869047Y-7780952D01*
X38440476Y-8352380D01*
X37821428Y-8352380D01*
X37202380Y-7352380D02*
X37107142Y-7352380D01*
X37011904Y-7400000D01*
X36964285Y-7447619D01*
X36916666Y-7542857D01*
X36869047Y-7733333D01*
X36869047Y-7971428D01*
X36916666Y-8161904D01*
X36964285Y-8257142D01*
X37011904Y-8304761D01*
X37107142Y-8352380D01*
X37202380Y-8352380D01*
X37297619Y-8304761D01*
X37345238Y-8257142D01*
X37392857Y-8161904D01*
X37440476Y-7971428D01*
X37440476Y-7733333D01*
X37392857Y-7542857D01*
X37345238Y-7447619D01*
X37297619Y-7400000D01*
X37202380Y-7352380D01*
X36488095Y-7447619D02*
X36440476Y-7400000D01*
X36345238Y-7352380D01*
X36107142Y-7352380D01*
X36011904Y-7400000D01*
X35964285Y-7447619D01*
X35916666Y-7542857D01*
X35916666Y-7638095D01*
X35964285Y-7780952D01*
X36535714Y-8352380D01*
X35916666Y-8352380D01*
X35297619Y-7352380D02*
X35202380Y-7352380D01*
X35107142Y-7400000D01*
X35059523Y-7447619D01*
X35011904Y-7542857D01*
X34964285Y-7733333D01*
X34964285Y-7971428D01*
X35011904Y-8161904D01*
X35059523Y-8257142D01*
X35107142Y-8304761D01*
X35202380Y-8352380D01*
X35297619Y-8352380D01*
X35392857Y-8304761D01*
X35440476Y-8257142D01*
X35488095Y-8161904D01*
X35535714Y-7971428D01*
X35535714Y-7733333D01*
X35488095Y-7542857D01*
X35440476Y-7447619D01*
X35392857Y-7400000D01*
X35297619Y-7352380D01*
X33773809Y-7971428D02*
X33011904Y-7971428D01*
X31202380Y-8352380D02*
X31535714Y-7876190D01*
X31773809Y-8352380D02*
X31773809Y-7352380D01*
X31392857Y-7352380D01*
X31297619Y-7400000D01*
X31250000Y-7447619D01*
X31202380Y-7542857D01*
X31202380Y-7685714D01*
X31250000Y-7780952D01*
X31297619Y-7828571D01*
X31392857Y-7876190D01*
X31773809Y-7876190D01*
X30583333Y-7352380D02*
X30488095Y-7352380D01*
X30392857Y-7400000D01*
X30345238Y-7447619D01*
X30297619Y-7542857D01*
X30250000Y-7733333D01*
X30250000Y-7971428D01*
X30297619Y-8161904D01*
X30345238Y-8257142D01*
X30392857Y-8304761D01*
X30488095Y-8352380D01*
X30583333Y-8352380D01*
X30678571Y-8304761D01*
X30726190Y-8257142D01*
X30773809Y-8161904D01*
X30821428Y-7971428D01*
X30821428Y-7733333D01*
X30773809Y-7542857D01*
X30726190Y-7447619D01*
X30678571Y-7400000D01*
X30583333Y-7352380D01*
X29630952Y-7352380D02*
X29535714Y-7352380D01*
X29440476Y-7400000D01*
X29392857Y-7447619D01*
X29345238Y-7542857D01*
X29297619Y-7733333D01*
X29297619Y-7971428D01*
X29345238Y-8161904D01*
X29392857Y-8257142D01*
X29440476Y-8304761D01*
X29535714Y-8352380D01*
X29630952Y-8352380D01*
X29726190Y-8304761D01*
X29773809Y-8257142D01*
X29821428Y-8161904D01*
X29869047Y-7971428D01*
X29869047Y-7733333D01*
X29821428Y-7542857D01*
X29773809Y-7447619D01*
X29726190Y-7400000D01*
X29630952Y-7352380D01*
D11*
X10250000Y-7500000D02*
G75*
G03*
X10250000Y-7500000I-4250000J0D01*
G01*
X98250000Y-7500000D02*
G75*
G03*
X98250000Y-7500000I-4250000J0D01*
G01*
D12*
G36*
X69304000Y-12580000D02*
G01*
X69304000Y-2420000D01*
X67780000Y-2420000D01*
X67780000Y-12580000D01*
X69304000Y-12580000D01*
G37*
X69304000Y-12580000D02*
X69304000Y-2420000D01*
X67780000Y-2420000D01*
X67780000Y-12580000D01*
X69304000Y-12580000D01*
D10*
X73230000Y-2420000D02*
X26240000Y-2420000D01*
X26240000Y-12580000D02*
X73230000Y-12580000D01*
D11*
X57820000Y-7500000D02*
X57820000Y-8500000D01*
X59180000Y-8500000D02*
X59180000Y-7500000D01*
X60120000Y-7400000D02*
X60120000Y-8600000D01*
X61880000Y-8600000D02*
X61880000Y-7400000D01*
D13*
D10*
X34809523Y-12952380D02*
X34476190Y-13952380D01*
X34142857Y-12952380D01*
X33285714Y-13952380D02*
X33857142Y-13952380D01*
X33571428Y-13952380D02*
X33571428Y-12952380D01*
X33666666Y-13095238D01*
X33761904Y-13190476D01*
X33857142Y-13238095D01*
D14*
X66354857Y-11774095D02*
X66354857Y-10225904D01*
X32274095Y-11145142D02*
X30725904Y-11145142D01*
X31500000Y-11919238D02*
X31500000Y-10371047D01*
D10*
X58666666Y-5702380D02*
X59000000Y-5226190D01*
X59238095Y-5702380D02*
X59238095Y-4702380D01*
X58857142Y-4702380D01*
X58761904Y-4750000D01*
X58714285Y-4797619D01*
X58666666Y-4892857D01*
X58666666Y-5035714D01*
X58714285Y-5130952D01*
X58761904Y-5178571D01*
X58857142Y-5226190D01*
X59238095Y-5226190D01*
X58285714Y-4797619D02*
X58238095Y-4750000D01*
X58142857Y-4702380D01*
X57904761Y-4702380D01*
X57809523Y-4750000D01*
X57761904Y-4797619D01*
X57714285Y-4892857D01*
X57714285Y-4988095D01*
X57761904Y-5130952D01*
X58333333Y-5702380D01*
X57714285Y-5702380D01*
X61166666Y-5202380D02*
X61500000Y-4726190D01*
X61738095Y-5202380D02*
X61738095Y-4202380D01*
X61357142Y-4202380D01*
X61261904Y-4250000D01*
X61214285Y-4297619D01*
X61166666Y-4392857D01*
X61166666Y-4535714D01*
X61214285Y-4630952D01*
X61261904Y-4678571D01*
X61357142Y-4726190D01*
X61738095Y-4726190D01*
X60833333Y-4202380D02*
X60214285Y-4202380D01*
X60547619Y-4583333D01*
X60404761Y-4583333D01*
X60309523Y-4630952D01*
X60261904Y-4678571D01*
X60214285Y-4773809D01*
X60214285Y-5011904D01*
X60261904Y-5107142D01*
X60309523Y-5154761D01*
X60404761Y-5202380D01*
X60690476Y-5202380D01*
X60785714Y-5154761D01*
X60833333Y-5107142D01*
M02*
