%TF.GenerationSoftware,KiCad,Pcbnew,(5.1.6)-1*%
%TF.CreationDate,2020-09-21T14:14:19+02:00*%
%TF.ProjectId,ChargerModule,43686172-6765-4724-9d6f-64756c652e6b,00*%
%TF.SameCoordinates,Original*%
%TF.FileFunction,Legend,Bot*%
%TF.FilePolarity,Positive*%
%FSLAX46Y46*%
G04 Gerber Fmt 4.6, Leading zero omitted, Abs format (unit mm)*
G04 Created by KiCad (PCBNEW (5.1.6)-1) date 2020-09-21 14:14:19*
%MOMM*%
%LPD*%
G01*
G04 APERTURE LIST*
%ADD10C,0.150000*%
%ADD11C,0.120000*%
%ADD12C,0.100000*%
%ADD13C,0.304800*%
%ADD14C,0.250000*%
G04 APERTURE END LIST*
D10*
X143583333Y-105052380D02*
X143583333Y-104052380D01*
X143202380Y-104052380D01*
X143107142Y-104100000D01*
X143059523Y-104147619D01*
X143011904Y-104242857D01*
X143011904Y-104385714D01*
X143059523Y-104480952D01*
X143107142Y-104528571D01*
X143202380Y-104576190D01*
X143583333Y-104576190D01*
X142440476Y-105052380D02*
X142535714Y-105004761D01*
X142583333Y-104957142D01*
X142630952Y-104861904D01*
X142630952Y-104576190D01*
X142583333Y-104480952D01*
X142535714Y-104433333D01*
X142440476Y-104385714D01*
X142297619Y-104385714D01*
X142202380Y-104433333D01*
X142154761Y-104480952D01*
X142107142Y-104576190D01*
X142107142Y-104861904D01*
X142154761Y-104957142D01*
X142202380Y-105004761D01*
X142297619Y-105052380D01*
X142440476Y-105052380D01*
X141773809Y-104385714D02*
X141583333Y-105052380D01*
X141392857Y-104576190D01*
X141202380Y-105052380D01*
X141011904Y-104385714D01*
X140250000Y-105004761D02*
X140345238Y-105052380D01*
X140535714Y-105052380D01*
X140630952Y-105004761D01*
X140678571Y-104909523D01*
X140678571Y-104528571D01*
X140630952Y-104433333D01*
X140535714Y-104385714D01*
X140345238Y-104385714D01*
X140250000Y-104433333D01*
X140202380Y-104528571D01*
X140202380Y-104623809D01*
X140678571Y-104719047D01*
X139773809Y-105052380D02*
X139773809Y-104385714D01*
X139773809Y-104576190D02*
X139726190Y-104480952D01*
X139678571Y-104433333D01*
X139583333Y-104385714D01*
X139488095Y-104385714D01*
X138440476Y-105004761D02*
X138297619Y-105052380D01*
X138059523Y-105052380D01*
X137964285Y-105004761D01*
X137916666Y-104957142D01*
X137869047Y-104861904D01*
X137869047Y-104766666D01*
X137916666Y-104671428D01*
X137964285Y-104623809D01*
X138059523Y-104576190D01*
X138250000Y-104528571D01*
X138345238Y-104480952D01*
X138392857Y-104433333D01*
X138440476Y-104338095D01*
X138440476Y-104242857D01*
X138392857Y-104147619D01*
X138345238Y-104100000D01*
X138250000Y-104052380D01*
X138011904Y-104052380D01*
X137869047Y-104100000D01*
X137011904Y-104385714D02*
X137011904Y-105052380D01*
X137440476Y-104385714D02*
X137440476Y-104909523D01*
X137392857Y-105004761D01*
X137297619Y-105052380D01*
X137154761Y-105052380D01*
X137059523Y-105004761D01*
X137011904Y-104957142D01*
X136535714Y-104385714D02*
X136535714Y-105385714D01*
X136535714Y-104433333D02*
X136440476Y-104385714D01*
X136250000Y-104385714D01*
X136154761Y-104433333D01*
X136107142Y-104480952D01*
X136059523Y-104576190D01*
X136059523Y-104861904D01*
X136107142Y-104957142D01*
X136154761Y-105004761D01*
X136250000Y-105052380D01*
X136440476Y-105052380D01*
X136535714Y-105004761D01*
X135630952Y-104385714D02*
X135630952Y-105385714D01*
X135630952Y-104433333D02*
X135535714Y-104385714D01*
X135345238Y-104385714D01*
X135250000Y-104433333D01*
X135202380Y-104480952D01*
X135154761Y-104576190D01*
X135154761Y-104861904D01*
X135202380Y-104957142D01*
X135250000Y-105004761D01*
X135345238Y-105052380D01*
X135535714Y-105052380D01*
X135630952Y-105004761D01*
X134583333Y-105052380D02*
X134678571Y-105004761D01*
X134726190Y-104909523D01*
X134726190Y-104052380D01*
X134297619Y-104385714D02*
X134059523Y-105052380D01*
X133821428Y-104385714D02*
X134059523Y-105052380D01*
X134154761Y-105290476D01*
X134202380Y-105338095D01*
X134297619Y-105385714D01*
X132678571Y-105052380D02*
X132678571Y-104052380D01*
X132345238Y-104766666D01*
X132011904Y-104052380D01*
X132011904Y-105052380D01*
X131392857Y-105052380D02*
X131488095Y-105004761D01*
X131535714Y-104957142D01*
X131583333Y-104861904D01*
X131583333Y-104576190D01*
X131535714Y-104480952D01*
X131488095Y-104433333D01*
X131392857Y-104385714D01*
X131250000Y-104385714D01*
X131154761Y-104433333D01*
X131107142Y-104480952D01*
X131059523Y-104576190D01*
X131059523Y-104861904D01*
X131107142Y-104957142D01*
X131154761Y-105004761D01*
X131250000Y-105052380D01*
X131392857Y-105052380D01*
X130202380Y-105052380D02*
X130202380Y-104052380D01*
X130202380Y-105004761D02*
X130297619Y-105052380D01*
X130488095Y-105052380D01*
X130583333Y-105004761D01*
X130630952Y-104957142D01*
X130678571Y-104861904D01*
X130678571Y-104576190D01*
X130630952Y-104480952D01*
X130583333Y-104433333D01*
X130488095Y-104385714D01*
X130297619Y-104385714D01*
X130202380Y-104433333D01*
X129297619Y-104385714D02*
X129297619Y-105052380D01*
X129726190Y-104385714D02*
X129726190Y-104909523D01*
X129678571Y-105004761D01*
X129583333Y-105052380D01*
X129440476Y-105052380D01*
X129345238Y-105004761D01*
X129297619Y-104957142D01*
X128678571Y-105052380D02*
X128773809Y-105004761D01*
X128821428Y-104909523D01*
X128821428Y-104052380D01*
X127916666Y-105004761D02*
X128011904Y-105052380D01*
X128202380Y-105052380D01*
X128297619Y-105004761D01*
X128345238Y-104909523D01*
X128345238Y-104528571D01*
X128297619Y-104433333D01*
X128202380Y-104385714D01*
X128011904Y-104385714D01*
X127916666Y-104433333D01*
X127869047Y-104528571D01*
X127869047Y-104623809D01*
X128345238Y-104719047D01*
X141416666Y-106178571D02*
X141083333Y-106178571D01*
X140940476Y-106702380D02*
X141416666Y-106702380D01*
X141416666Y-105702380D01*
X140940476Y-105702380D01*
X140559523Y-106654761D02*
X140464285Y-106702380D01*
X140273809Y-106702380D01*
X140178571Y-106654761D01*
X140130952Y-106559523D01*
X140130952Y-106511904D01*
X140178571Y-106416666D01*
X140273809Y-106369047D01*
X140416666Y-106369047D01*
X140511904Y-106321428D01*
X140559523Y-106226190D01*
X140559523Y-106178571D01*
X140511904Y-106083333D01*
X140416666Y-106035714D01*
X140273809Y-106035714D01*
X140178571Y-106083333D01*
X139750000Y-106654761D02*
X139654761Y-106702380D01*
X139464285Y-106702380D01*
X139369047Y-106654761D01*
X139321428Y-106559523D01*
X139321428Y-106511904D01*
X139369047Y-106416666D01*
X139464285Y-106369047D01*
X139607142Y-106369047D01*
X139702380Y-106321428D01*
X139750000Y-106226190D01*
X139750000Y-106178571D01*
X139702380Y-106083333D01*
X139607142Y-106035714D01*
X139464285Y-106035714D01*
X139369047Y-106083333D01*
X138511904Y-106654761D02*
X138607142Y-106702380D01*
X138797619Y-106702380D01*
X138892857Y-106654761D01*
X138940476Y-106559523D01*
X138940476Y-106178571D01*
X138892857Y-106083333D01*
X138797619Y-106035714D01*
X138607142Y-106035714D01*
X138511904Y-106083333D01*
X138464285Y-106178571D01*
X138464285Y-106273809D01*
X138940476Y-106369047D01*
X138035714Y-106702380D02*
X138035714Y-106035714D01*
X138035714Y-105702380D02*
X138083333Y-105750000D01*
X138035714Y-105797619D01*
X137988095Y-105750000D01*
X138035714Y-105702380D01*
X138035714Y-105797619D01*
X137654761Y-106035714D02*
X137416666Y-106702380D01*
X137178571Y-106035714D01*
X136369047Y-106702380D02*
X136369047Y-106178571D01*
X136416666Y-106083333D01*
X136511904Y-106035714D01*
X136702380Y-106035714D01*
X136797619Y-106083333D01*
X136369047Y-106654761D02*
X136464285Y-106702380D01*
X136702380Y-106702380D01*
X136797619Y-106654761D01*
X136845238Y-106559523D01*
X136845238Y-106464285D01*
X136797619Y-106369047D01*
X136702380Y-106321428D01*
X136464285Y-106321428D01*
X136369047Y-106273809D01*
X135130952Y-106702380D02*
X135130952Y-105702380D01*
X134559523Y-106702380D01*
X134559523Y-105702380D01*
X134083333Y-106702380D02*
X134083333Y-106035714D01*
X134083333Y-105702380D02*
X134130952Y-105750000D01*
X134083333Y-105797619D01*
X134035714Y-105750000D01*
X134083333Y-105702380D01*
X134083333Y-105797619D01*
X133178571Y-106654761D02*
X133273809Y-106702380D01*
X133464285Y-106702380D01*
X133559523Y-106654761D01*
X133607142Y-106607142D01*
X133654761Y-106511904D01*
X133654761Y-106226190D01*
X133607142Y-106130952D01*
X133559523Y-106083333D01*
X133464285Y-106035714D01*
X133273809Y-106035714D01*
X133178571Y-106083333D01*
X132607142Y-106702380D02*
X132702380Y-106654761D01*
X132750000Y-106607142D01*
X132797619Y-106511904D01*
X132797619Y-106226190D01*
X132750000Y-106130952D01*
X132702380Y-106083333D01*
X132607142Y-106035714D01*
X132464285Y-106035714D01*
X132369047Y-106083333D01*
X132321428Y-106130952D01*
X132273809Y-106226190D01*
X132273809Y-106511904D01*
X132321428Y-106607142D01*
X132369047Y-106654761D01*
X132464285Y-106702380D01*
X132607142Y-106702380D01*
X131702380Y-106702380D02*
X131797619Y-106654761D01*
X131845238Y-106559523D01*
X131845238Y-105702380D01*
X130892857Y-106702380D02*
X130892857Y-106178571D01*
X130940476Y-106083333D01*
X131035714Y-106035714D01*
X131226190Y-106035714D01*
X131321428Y-106083333D01*
X130892857Y-106654761D02*
X130988095Y-106702380D01*
X131226190Y-106702380D01*
X131321428Y-106654761D01*
X131369047Y-106559523D01*
X131369047Y-106464285D01*
X131321428Y-106369047D01*
X131226190Y-106321428D01*
X130988095Y-106321428D01*
X130892857Y-106273809D01*
X130464285Y-106654761D02*
X130369047Y-106702380D01*
X130178571Y-106702380D01*
X130083333Y-106654761D01*
X130035714Y-106559523D01*
X130035714Y-106511904D01*
X130083333Y-106416666D01*
X130178571Y-106369047D01*
X130321428Y-106369047D01*
X130416666Y-106321428D01*
X130464285Y-106226190D01*
X130464285Y-106178571D01*
X130416666Y-106083333D01*
X130321428Y-106035714D01*
X130178571Y-106035714D01*
X130083333Y-106083333D01*
X142202380Y-107447619D02*
X142154761Y-107400000D01*
X142059523Y-107352380D01*
X141821428Y-107352380D01*
X141726190Y-107400000D01*
X141678571Y-107447619D01*
X141630952Y-107542857D01*
X141630952Y-107638095D01*
X141678571Y-107780952D01*
X142250000Y-108352380D01*
X141630952Y-108352380D01*
X140678571Y-108352380D02*
X141250000Y-108352380D01*
X140964285Y-108352380D02*
X140964285Y-107352380D01*
X141059523Y-107495238D01*
X141154761Y-107590476D01*
X141250000Y-107638095D01*
X140059523Y-107352380D02*
X139964285Y-107352380D01*
X139869047Y-107400000D01*
X139821428Y-107447619D01*
X139773809Y-107542857D01*
X139726190Y-107733333D01*
X139726190Y-107971428D01*
X139773809Y-108161904D01*
X139821428Y-108257142D01*
X139869047Y-108304761D01*
X139964285Y-108352380D01*
X140059523Y-108352380D01*
X140154761Y-108304761D01*
X140202380Y-108257142D01*
X140250000Y-108161904D01*
X140297619Y-107971428D01*
X140297619Y-107733333D01*
X140250000Y-107542857D01*
X140202380Y-107447619D01*
X140154761Y-107400000D01*
X140059523Y-107352380D01*
X139250000Y-108352380D02*
X139059523Y-108352380D01*
X138964285Y-108304761D01*
X138916666Y-108257142D01*
X138821428Y-108114285D01*
X138773809Y-107923809D01*
X138773809Y-107542857D01*
X138821428Y-107447619D01*
X138869047Y-107400000D01*
X138964285Y-107352380D01*
X139154761Y-107352380D01*
X139250000Y-107400000D01*
X139297619Y-107447619D01*
X139345238Y-107542857D01*
X139345238Y-107780952D01*
X139297619Y-107876190D01*
X139250000Y-107923809D01*
X139154761Y-107971428D01*
X138964285Y-107971428D01*
X138869047Y-107923809D01*
X138821428Y-107876190D01*
X138773809Y-107780952D01*
X138392857Y-107447619D02*
X138345238Y-107400000D01*
X138250000Y-107352380D01*
X138011904Y-107352380D01*
X137916666Y-107400000D01*
X137869047Y-107447619D01*
X137821428Y-107542857D01*
X137821428Y-107638095D01*
X137869047Y-107780952D01*
X138440476Y-108352380D01*
X137821428Y-108352380D01*
X137202380Y-107352380D02*
X137107142Y-107352380D01*
X137011904Y-107400000D01*
X136964285Y-107447619D01*
X136916666Y-107542857D01*
X136869047Y-107733333D01*
X136869047Y-107971428D01*
X136916666Y-108161904D01*
X136964285Y-108257142D01*
X137011904Y-108304761D01*
X137107142Y-108352380D01*
X137202380Y-108352380D01*
X137297619Y-108304761D01*
X137345238Y-108257142D01*
X137392857Y-108161904D01*
X137440476Y-107971428D01*
X137440476Y-107733333D01*
X137392857Y-107542857D01*
X137345238Y-107447619D01*
X137297619Y-107400000D01*
X137202380Y-107352380D01*
X136488095Y-107447619D02*
X136440476Y-107400000D01*
X136345238Y-107352380D01*
X136107142Y-107352380D01*
X136011904Y-107400000D01*
X135964285Y-107447619D01*
X135916666Y-107542857D01*
X135916666Y-107638095D01*
X135964285Y-107780952D01*
X136535714Y-108352380D01*
X135916666Y-108352380D01*
X135297619Y-107352380D02*
X135202380Y-107352380D01*
X135107142Y-107400000D01*
X135059523Y-107447619D01*
X135011904Y-107542857D01*
X134964285Y-107733333D01*
X134964285Y-107971428D01*
X135011904Y-108161904D01*
X135059523Y-108257142D01*
X135107142Y-108304761D01*
X135202380Y-108352380D01*
X135297619Y-108352380D01*
X135392857Y-108304761D01*
X135440476Y-108257142D01*
X135488095Y-108161904D01*
X135535714Y-107971428D01*
X135535714Y-107733333D01*
X135488095Y-107542857D01*
X135440476Y-107447619D01*
X135392857Y-107400000D01*
X135297619Y-107352380D01*
X133773809Y-107971428D02*
X133011904Y-107971428D01*
X131202380Y-108352380D02*
X131535714Y-107876190D01*
X131773809Y-108352380D02*
X131773809Y-107352380D01*
X131392857Y-107352380D01*
X131297619Y-107400000D01*
X131250000Y-107447619D01*
X131202380Y-107542857D01*
X131202380Y-107685714D01*
X131250000Y-107780952D01*
X131297619Y-107828571D01*
X131392857Y-107876190D01*
X131773809Y-107876190D01*
X130583333Y-107352380D02*
X130488095Y-107352380D01*
X130392857Y-107400000D01*
X130345238Y-107447619D01*
X130297619Y-107542857D01*
X130250000Y-107733333D01*
X130250000Y-107971428D01*
X130297619Y-108161904D01*
X130345238Y-108257142D01*
X130392857Y-108304761D01*
X130488095Y-108352380D01*
X130583333Y-108352380D01*
X130678571Y-108304761D01*
X130726190Y-108257142D01*
X130773809Y-108161904D01*
X130821428Y-107971428D01*
X130821428Y-107733333D01*
X130773809Y-107542857D01*
X130726190Y-107447619D01*
X130678571Y-107400000D01*
X130583333Y-107352380D01*
X129630952Y-107352380D02*
X129535714Y-107352380D01*
X129440476Y-107400000D01*
X129392857Y-107447619D01*
X129345238Y-107542857D01*
X129297619Y-107733333D01*
X129297619Y-107971428D01*
X129345238Y-108161904D01*
X129392857Y-108257142D01*
X129440476Y-108304761D01*
X129535714Y-108352380D01*
X129630952Y-108352380D01*
X129726190Y-108304761D01*
X129773809Y-108257142D01*
X129821428Y-108161904D01*
X129869047Y-107971428D01*
X129869047Y-107733333D01*
X129821428Y-107542857D01*
X129773809Y-107447619D01*
X129726190Y-107400000D01*
X129630952Y-107352380D01*
D11*
%TO.C,VIS_M3_88mm_space*%
X109150000Y-107500000D02*
G75*
G03*
X109150000Y-107500000I-3150000J0D01*
G01*
X197150000Y-107500000D02*
G75*
G03*
X197150000Y-107500000I-3150000J0D01*
G01*
D10*
%TO.C,V1*%
X126240000Y-112580000D02*
X173230000Y-112580000D01*
X173230000Y-102420000D02*
X126240000Y-102420000D01*
D12*
G36*
X169304000Y-112580000D02*
G01*
X169304000Y-102420000D01*
X167780000Y-102420000D01*
X167780000Y-112580000D01*
X169304000Y-112580000D01*
G37*
X169304000Y-112580000D02*
X169304000Y-102420000D01*
X167780000Y-102420000D01*
X167780000Y-112580000D01*
X169304000Y-112580000D01*
D11*
%TO.C,R2*%
X159180000Y-108500000D02*
X159180000Y-107500000D01*
X157820000Y-107500000D02*
X157820000Y-108500000D01*
%TO.C,R3*%
X161880000Y-108600000D02*
X161880000Y-107400000D01*
X160120000Y-107400000D02*
X160120000Y-108600000D01*
%TO.C,VIS_M3_88mm_space*%
D13*
%TO.C,V1*%
D10*
X134809523Y-112952380D02*
X134476190Y-113952380D01*
X134142857Y-112952380D01*
X133285714Y-113952380D02*
X133857142Y-113952380D01*
X133571428Y-113952380D02*
X133571428Y-112952380D01*
X133666666Y-113095238D01*
X133761904Y-113190476D01*
X133857142Y-113238095D01*
D14*
X166354857Y-111774095D02*
X166354857Y-110225904D01*
X132274095Y-111145142D02*
X130725904Y-111145142D01*
X131500000Y-111919238D02*
X131500000Y-110371047D01*
%TO.C,R2*%
D10*
X158666666Y-105702380D02*
X159000000Y-105226190D01*
X159238095Y-105702380D02*
X159238095Y-104702380D01*
X158857142Y-104702380D01*
X158761904Y-104750000D01*
X158714285Y-104797619D01*
X158666666Y-104892857D01*
X158666666Y-105035714D01*
X158714285Y-105130952D01*
X158761904Y-105178571D01*
X158857142Y-105226190D01*
X159238095Y-105226190D01*
X158285714Y-104797619D02*
X158238095Y-104750000D01*
X158142857Y-104702380D01*
X157904761Y-104702380D01*
X157809523Y-104750000D01*
X157761904Y-104797619D01*
X157714285Y-104892857D01*
X157714285Y-104988095D01*
X157761904Y-105130952D01*
X158333333Y-105702380D01*
X157714285Y-105702380D01*
%TO.C,R3*%
X161166666Y-105202380D02*
X161500000Y-104726190D01*
X161738095Y-105202380D02*
X161738095Y-104202380D01*
X161357142Y-104202380D01*
X161261904Y-104250000D01*
X161214285Y-104297619D01*
X161166666Y-104392857D01*
X161166666Y-104535714D01*
X161214285Y-104630952D01*
X161261904Y-104678571D01*
X161357142Y-104726190D01*
X161738095Y-104726190D01*
X160833333Y-104202380D02*
X160214285Y-104202380D01*
X160547619Y-104583333D01*
X160404761Y-104583333D01*
X160309523Y-104630952D01*
X160261904Y-104678571D01*
X160214285Y-104773809D01*
X160214285Y-105011904D01*
X160261904Y-105107142D01*
X160309523Y-105154761D01*
X160404761Y-105202380D01*
X160690476Y-105202380D01*
X160785714Y-105154761D01*
X160833333Y-105107142D01*
%TD*%
M02*
