G04 #@! TF.GenerationSoftware,KiCad,Pcbnew,(5.1.6)-1*
G04 #@! TF.CreationDate,2020-10-13T20:39:59+02:00*
G04 #@! TF.ProjectId,ChargerModule,43686172-6765-4724-9d6f-64756c652e6b,00*
G04 #@! TF.SameCoordinates,PX5f5e100PY5f5e100*
G04 #@! TF.FileFunction,Copper,L1,Top*
G04 #@! TF.FilePolarity,Positive*
%FSLAX46Y46*%
G04 Gerber Fmt 4.6, Leading zero omitted, Abs format (unit mm)*
G04 Created by KiCad (PCBNEW (5.1.6)-1) date 2020-10-13 20:39:59*
%MOMM*%
%LPD*%
G01*
G04 APERTURE LIST*
G04 #@! TA.AperFunction,ComponentPad*
%ADD10C,1.900000*%
G04 #@! TD*
G04 #@! TA.AperFunction,ComponentPad*
%ADD11C,1.500000*%
G04 #@! TD*
G04 #@! TA.AperFunction,SMDPad,CuDef*
%ADD12R,1.700000X0.800000*%
G04 #@! TD*
G04 #@! TA.AperFunction,ComponentPad*
%ADD13C,3.048000*%
G04 #@! TD*
G04 #@! TA.AperFunction,SMDPad,CuDef*
%ADD14R,1.500000X1.250000*%
G04 #@! TD*
G04 #@! TA.AperFunction,SMDPad,CuDef*
%ADD15R,1.560000X0.650000*%
G04 #@! TD*
G04 #@! TA.AperFunction,SMDPad,CuDef*
%ADD16R,1.600000X2.000000*%
G04 #@! TD*
G04 #@! TA.AperFunction,SMDPad,CuDef*
%ADD17R,1.400000X1.000000*%
G04 #@! TD*
G04 #@! TA.AperFunction,SMDPad,CuDef*
%ADD18R,1.000000X1.300000*%
G04 #@! TD*
G04 #@! TA.AperFunction,SMDPad,CuDef*
%ADD19R,1.300000X1.000000*%
G04 #@! TD*
G04 #@! TA.AperFunction,SMDPad,CuDef*
%ADD20R,2.030000X2.650000*%
G04 #@! TD*
G04 #@! TA.AperFunction,ViaPad*
%ADD21C,0.800000*%
G04 #@! TD*
G04 #@! TA.AperFunction,Conductor*
%ADD22C,0.250000*%
G04 #@! TD*
G04 #@! TA.AperFunction,Conductor*
%ADD23C,0.254000*%
G04 #@! TD*
G04 APERTURE END LIST*
D10*
X55000000Y-8770000D03*
X55000000Y-6230000D03*
D11*
X51270000Y-10675000D03*
X48730000Y-9405000D03*
X51270000Y-8135000D03*
X48730000Y-6865000D03*
X51270000Y-5595000D03*
X48730000Y-4325000D03*
D12*
X62900000Y-6000000D03*
X60100000Y-6950000D03*
X60100000Y-5050000D03*
D13*
X79320000Y-7500000D03*
X71700000Y-4960000D03*
X71700000Y-10040000D03*
X83920000Y-7500000D03*
X76300000Y-4960000D03*
X76300000Y-10040000D03*
X23700000Y-10040000D03*
X23700000Y-4960000D03*
X16080000Y-7500000D03*
D14*
X42750000Y-3000000D03*
X45250000Y-3000000D03*
D12*
X45400000Y-6000000D03*
X42600000Y-6950000D03*
X42600000Y-5050000D03*
X42600000Y-10000000D03*
X45400000Y-9050000D03*
X45400000Y-10950000D03*
X62900000Y-10000000D03*
X60100000Y-10950000D03*
X60100000Y-9050000D03*
D14*
X65250000Y-11000000D03*
X67750000Y-11000000D03*
D15*
X67850000Y-6050000D03*
X67850000Y-7950000D03*
X65150000Y-7950000D03*
X65150000Y-7000000D03*
X65150000Y-6050000D03*
D16*
X28500000Y-11000000D03*
X28500000Y-7000000D03*
X39500000Y-11000000D03*
X39500000Y-7000000D03*
D17*
X37125000Y-3500000D03*
X34875000Y-3500000D03*
D18*
X32000000Y-5550000D03*
X32000000Y-3450000D03*
D19*
X34950000Y-6000000D03*
X37050000Y-6000000D03*
D15*
X34850000Y-8050000D03*
X34850000Y-9950000D03*
X32150000Y-9950000D03*
X32150000Y-9000000D03*
X32150000Y-8050000D03*
D20*
X19750000Y-6660000D03*
X19750000Y-10840000D03*
D21*
X38900000Y-3500000D03*
X37650000Y-9950000D03*
X42600000Y-12500000D03*
X58500000Y-10950000D03*
X61000000Y-2700000D03*
X69450000Y-6050000D03*
X65250000Y-12300000D03*
X66500000Y-4650000D03*
X66500000Y-9250000D03*
X65150000Y-9250000D03*
X65150000Y-4650000D03*
X40400000Y-3700000D03*
X58500000Y-5050000D03*
X62900000Y-8200000D03*
X62900000Y-4850000D03*
X26500000Y-3000000D03*
X27500000Y-3000000D03*
X28500000Y-3000000D03*
X29500000Y-3000000D03*
X30500000Y-3000000D03*
X26500000Y-4000000D03*
X27500000Y-4000000D03*
X28500000Y-4000000D03*
X35000000Y-11500000D03*
X30500000Y-9000000D03*
X36000000Y-11500000D03*
X37000000Y-11500000D03*
X33250000Y-5250000D03*
X33250000Y-4250000D03*
X30500000Y-11750000D03*
X30500000Y-13250000D03*
X31500000Y-13250000D03*
X32500000Y-13250000D03*
X29500000Y-13250000D03*
X28500000Y-13250000D03*
X26500000Y-1750000D03*
X27500000Y-1750000D03*
X28500000Y-1750000D03*
X29500000Y-1750000D03*
X30500000Y-1750000D03*
X79500000Y-3500000D03*
X80500000Y-3500000D03*
X81500000Y-3500000D03*
X82500000Y-3500000D03*
X83500000Y-3500000D03*
X84500000Y-3500000D03*
X85500000Y-3500000D03*
X81500000Y-4500000D03*
X82500000Y-4500000D03*
X83500000Y-4500000D03*
X84500000Y-4500000D03*
X85500000Y-4500000D03*
X80500000Y-4500000D03*
X79500000Y-4500000D03*
X83500000Y-10500000D03*
X85500000Y-11500000D03*
X82500000Y-10500000D03*
X84500000Y-11500000D03*
X83500000Y-11500000D03*
X84500000Y-10500000D03*
X80500000Y-10500000D03*
X82500000Y-11500000D03*
X80500000Y-11500000D03*
X81500000Y-10500000D03*
X81500000Y-11500000D03*
X79500000Y-11500000D03*
X79500000Y-10500000D03*
X85500000Y-10500000D03*
X41250000Y-8750000D03*
X46850000Y-8050000D03*
D22*
X36750000Y-9950000D02*
X34850000Y-9950000D01*
X37125000Y-3500000D02*
X38900000Y-3500000D01*
X37650000Y-9950000D02*
X36750000Y-9950000D01*
X37650000Y-9950000D02*
X37650000Y-10650000D01*
X38000000Y-11000000D02*
X39500000Y-11000000D01*
X37650000Y-10650000D02*
X38000000Y-11000000D01*
X30850000Y-9950000D02*
X29800000Y-11000000D01*
X32150000Y-9950000D02*
X30850000Y-9950000D01*
X29800000Y-11000000D02*
X28500000Y-11000000D01*
X27050000Y-11000000D02*
X28500000Y-11000000D01*
X27000000Y-11000000D02*
X27050000Y-11000000D01*
X26000000Y-12000000D02*
X27000000Y-11000000D01*
X19750000Y-10840000D02*
X19750000Y-12250000D01*
X19750000Y-12250000D02*
X20000000Y-12500000D01*
X25500000Y-12500000D02*
X26000000Y-12000000D01*
X20000000Y-12500000D02*
X25500000Y-12500000D01*
X42600000Y-10000000D02*
X42600000Y-12500000D01*
X32150000Y-10850000D02*
X32150000Y-9950000D01*
X42600000Y-12500000D02*
X33800000Y-12500000D01*
X33800000Y-12500000D02*
X32150000Y-10850000D01*
X34825000Y-3450000D02*
X34875000Y-3500000D01*
X32000000Y-3450000D02*
X34825000Y-3450000D01*
X32150000Y-5700000D02*
X32000000Y-5550000D01*
X32150000Y-8050000D02*
X32150000Y-5700000D01*
X34850000Y-6100000D02*
X34950000Y-6000000D01*
X34850000Y-8050000D02*
X34850000Y-6100000D01*
X60100000Y-10950000D02*
X58500000Y-10950000D01*
X42600000Y-6950000D02*
X42600000Y-8150000D01*
X43500000Y-9050000D02*
X45400000Y-9050000D01*
X42600000Y-8150000D02*
X43500000Y-9050000D01*
X43650000Y-6950000D02*
X42600000Y-6950000D01*
X44000000Y-6600000D02*
X43650000Y-6950000D01*
X44000000Y-3200000D02*
X44000000Y-6600000D01*
X42750000Y-3000000D02*
X43800000Y-3000000D01*
X43800000Y-3000000D02*
X44000000Y-3200000D01*
X42750000Y-3000000D02*
X42750000Y-1900000D01*
X42750000Y-1900000D02*
X43050000Y-1600000D01*
X43050000Y-1600000D02*
X58700000Y-1600000D01*
X58700000Y-1600000D02*
X59800000Y-2700000D01*
X59800000Y-2700000D02*
X61000000Y-2700000D01*
X67850000Y-6050000D02*
X69450000Y-6050000D01*
X65250000Y-11000000D02*
X65250000Y-12300000D01*
X67850000Y-4400000D02*
X67850000Y-6050000D01*
X51270000Y-5595000D02*
X53439999Y-3425001D01*
X66875001Y-3425001D02*
X67850000Y-4400000D01*
X53439999Y-3425001D02*
X66875001Y-3425001D01*
X23700000Y-10040000D02*
X23700000Y-4960000D01*
X16080000Y-7500000D02*
X16080000Y-5670000D01*
X16080000Y-5670000D02*
X16790000Y-4960000D01*
X19750000Y-5000000D02*
X19710000Y-4960000D01*
X19750000Y-6660000D02*
X19750000Y-5000000D01*
X16790000Y-4960000D02*
X19710000Y-4960000D01*
X19710000Y-4960000D02*
X23700000Y-4960000D01*
X65150000Y-6050000D02*
X66300000Y-6050000D01*
X66300000Y-6050000D02*
X66500000Y-5850000D01*
X66500000Y-5850000D02*
X66500000Y-4650000D01*
X64850000Y-10000000D02*
X65750000Y-10000000D01*
X64850000Y-10000000D02*
X62900000Y-10000000D01*
X65750000Y-10000000D02*
X66500000Y-9250000D01*
X65150000Y-7950000D02*
X65150000Y-9250000D01*
X65150000Y-4650000D02*
X64300000Y-4650000D01*
X64300000Y-4650000D02*
X63750000Y-4100000D01*
X63750000Y-4100000D02*
X62500000Y-4100000D01*
X61550000Y-5050000D02*
X60100000Y-5050000D01*
X62500000Y-4100000D02*
X61550000Y-5050000D01*
X42600000Y-5050000D02*
X40850000Y-5050000D01*
X40850000Y-5050000D02*
X40400000Y-4600000D01*
X40400000Y-4600000D02*
X40400000Y-3700000D01*
X58500000Y-5050000D02*
X60100000Y-5050000D01*
X51270000Y-8135000D02*
X53000000Y-6405000D01*
X53000000Y-6405000D02*
X53000000Y-5000000D01*
X53000000Y-5000000D02*
X53850000Y-4150000D01*
X53850000Y-4150000D02*
X56400000Y-4150000D01*
X57300000Y-5050000D02*
X58500000Y-5050000D01*
X56400000Y-4150000D02*
X57300000Y-5050000D01*
X62050000Y-9050000D02*
X62900000Y-8200000D01*
X60100000Y-9050000D02*
X62050000Y-9050000D01*
X62900000Y-6000000D02*
X62900000Y-4850000D01*
X32150000Y-9000000D02*
X36400000Y-9000000D01*
X36400000Y-9000000D02*
X37050000Y-8350000D01*
X37100000Y-7000000D02*
X37050000Y-6950000D01*
X39500000Y-7000000D02*
X37100000Y-7000000D01*
X37050000Y-6000000D02*
X37050000Y-6950000D01*
X37050000Y-6950000D02*
X37050000Y-8350000D01*
X71700000Y-4960000D02*
X76300000Y-4960000D01*
X76300000Y-4960000D02*
X78840000Y-7500000D01*
X79320000Y-7500000D02*
X83920000Y-7500000D01*
X71700000Y-10040000D02*
X76300000Y-10040000D01*
X78840000Y-7500000D02*
X79320000Y-7500000D01*
X76300000Y-10040000D02*
X78840000Y-7500000D01*
X60150000Y-7000000D02*
X60100000Y-6950000D01*
X65150000Y-7000000D02*
X60150000Y-7000000D01*
X65150000Y-7000000D02*
X67600000Y-7000000D01*
X67850000Y-7250000D02*
X67850000Y-7950000D01*
X67600000Y-7000000D02*
X67850000Y-7250000D01*
X67750000Y-8050000D02*
X67850000Y-7950000D01*
X67750000Y-11000000D02*
X67750000Y-8050000D01*
X32150000Y-9000000D02*
X29200000Y-9000000D01*
X28500000Y-8300000D02*
X28500000Y-7000000D01*
X29200000Y-9000000D02*
X28500000Y-8300000D01*
X70740000Y-11000000D02*
X71700000Y-10040000D01*
X67750000Y-11000000D02*
X70740000Y-11000000D01*
X45400000Y-10950000D02*
X46500000Y-10950000D01*
X46500000Y-10950000D02*
X46900000Y-10550000D01*
X46550000Y-3000000D02*
X45250000Y-3000000D01*
X46900000Y-3350000D02*
X46550000Y-3000000D01*
X45400000Y-6000000D02*
X46900000Y-6000000D01*
X46900000Y-6000000D02*
X46900000Y-3350000D01*
X39500000Y-7000000D02*
X39500000Y-7200000D01*
X46900000Y-10550000D02*
X46900000Y-8100000D01*
X46900000Y-8100000D02*
X46900000Y-6000000D01*
X39500000Y-7000000D02*
X39500000Y-8400000D01*
X39500000Y-8400000D02*
X39500000Y-8450000D01*
X39500000Y-8450000D02*
X39800000Y-8750000D01*
X39800000Y-8750000D02*
X41250000Y-8750000D01*
X50995000Y-10950000D02*
X51270000Y-10675000D01*
X45400000Y-10950000D02*
X50995000Y-10950000D01*
X53095000Y-10675000D02*
X55000000Y-8770000D01*
X51270000Y-10675000D02*
X53095000Y-10675000D01*
X56820000Y-6950000D02*
X60100000Y-6950000D01*
X55000000Y-8770000D02*
X56820000Y-6950000D01*
D23*
G36*
X87873000Y-14594000D02*
G01*
X12127000Y-14594000D01*
X12127000Y-9515000D01*
X18352157Y-9515000D01*
X18352157Y-12165000D01*
X18359513Y-12239689D01*
X18381299Y-12311508D01*
X18416678Y-12377696D01*
X18464289Y-12435711D01*
X18522304Y-12483322D01*
X18588492Y-12518701D01*
X18660311Y-12540487D01*
X18735000Y-12547843D01*
X19339851Y-12547843D01*
X19390474Y-12609527D01*
X19409781Y-12625372D01*
X19624624Y-12840215D01*
X19640473Y-12859527D01*
X19717521Y-12922759D01*
X19805425Y-12969745D01*
X19878607Y-12991944D01*
X19900806Y-12998678D01*
X19910694Y-12999652D01*
X19975146Y-13006000D01*
X19975153Y-13006000D01*
X19999999Y-13008447D01*
X20024845Y-13006000D01*
X25475154Y-13006000D01*
X25500000Y-13008447D01*
X25524846Y-13006000D01*
X25524854Y-13006000D01*
X25599193Y-12998678D01*
X25694575Y-12969745D01*
X25782479Y-12922759D01*
X25859527Y-12859527D01*
X25875376Y-12840215D01*
X26375370Y-12340222D01*
X26375374Y-12340217D01*
X27209592Y-11506000D01*
X27317157Y-11506000D01*
X27317157Y-12000000D01*
X27324513Y-12074689D01*
X27346299Y-12146508D01*
X27381678Y-12212696D01*
X27429289Y-12270711D01*
X27487304Y-12318322D01*
X27553492Y-12353701D01*
X27625311Y-12375487D01*
X27700000Y-12382843D01*
X29300000Y-12382843D01*
X29374689Y-12375487D01*
X29446508Y-12353701D01*
X29512696Y-12318322D01*
X29570711Y-12270711D01*
X29618322Y-12212696D01*
X29653701Y-12146508D01*
X29675487Y-12074689D01*
X29682843Y-12000000D01*
X29682843Y-11506000D01*
X29775154Y-11506000D01*
X29800000Y-11508447D01*
X29824846Y-11506000D01*
X29824854Y-11506000D01*
X29899193Y-11498678D01*
X29994575Y-11469745D01*
X30082479Y-11422759D01*
X30159527Y-11359527D01*
X30175376Y-11340215D01*
X31043394Y-10472198D01*
X31051678Y-10487696D01*
X31099289Y-10545711D01*
X31157304Y-10593322D01*
X31223492Y-10628701D01*
X31295311Y-10650487D01*
X31370000Y-10657843D01*
X31644000Y-10657843D01*
X31644000Y-10825153D01*
X31641553Y-10850000D01*
X31644000Y-10874846D01*
X31644000Y-10874853D01*
X31651322Y-10949192D01*
X31680255Y-11044574D01*
X31727241Y-11132479D01*
X31790473Y-11209527D01*
X31809785Y-11225376D01*
X33424628Y-12840220D01*
X33440473Y-12859527D01*
X33517521Y-12922759D01*
X33605425Y-12969745D01*
X33678607Y-12991944D01*
X33700806Y-12998678D01*
X33710694Y-12999652D01*
X33775146Y-13006000D01*
X33775153Y-13006000D01*
X33799999Y-13008447D01*
X33824845Y-13006000D01*
X42001499Y-13006000D01*
X42102141Y-13106642D01*
X42230058Y-13192113D01*
X42372191Y-13250987D01*
X42523078Y-13281000D01*
X42676922Y-13281000D01*
X42827809Y-13250987D01*
X42969942Y-13192113D01*
X43097859Y-13106642D01*
X43206642Y-12997859D01*
X43292113Y-12869942D01*
X43350987Y-12727809D01*
X43381000Y-12576922D01*
X43381000Y-12423078D01*
X43350987Y-12272191D01*
X43292113Y-12130058D01*
X43206642Y-12002141D01*
X43106000Y-11901499D01*
X43106000Y-11350000D01*
X43911928Y-11350000D01*
X43924188Y-11474482D01*
X43960498Y-11594180D01*
X44019463Y-11704494D01*
X44098815Y-11801185D01*
X44195506Y-11880537D01*
X44305820Y-11939502D01*
X44425518Y-11975812D01*
X44550000Y-11988072D01*
X45114250Y-11985000D01*
X45273000Y-11826250D01*
X45273000Y-11077000D01*
X45527000Y-11077000D01*
X45527000Y-11826250D01*
X45685750Y-11985000D01*
X46250000Y-11988072D01*
X46374482Y-11975812D01*
X46494180Y-11939502D01*
X46604494Y-11880537D01*
X46701185Y-11801185D01*
X46780537Y-11704494D01*
X46819290Y-11631993D01*
X50492612Y-11631993D01*
X50558137Y-11870860D01*
X50805116Y-11986760D01*
X51069960Y-12052250D01*
X51342492Y-12064812D01*
X51612238Y-12023965D01*
X51868832Y-11931277D01*
X51981863Y-11870860D01*
X52047388Y-11631993D01*
X51270000Y-10854605D01*
X50492612Y-11631993D01*
X46819290Y-11631993D01*
X46839502Y-11594180D01*
X46875812Y-11474482D01*
X46888072Y-11350000D01*
X46885000Y-11235750D01*
X46726250Y-11077000D01*
X45527000Y-11077000D01*
X45273000Y-11077000D01*
X44073750Y-11077000D01*
X43915000Y-11235750D01*
X43911928Y-11350000D01*
X43106000Y-11350000D01*
X43106000Y-10782843D01*
X43450000Y-10782843D01*
X43524689Y-10775487D01*
X43596508Y-10753701D01*
X43662696Y-10718322D01*
X43720711Y-10670711D01*
X43768322Y-10612696D01*
X43801834Y-10550000D01*
X43911928Y-10550000D01*
X43915000Y-10664250D01*
X44073750Y-10823000D01*
X45273000Y-10823000D01*
X45273000Y-10073750D01*
X45527000Y-10073750D01*
X45527000Y-10823000D01*
X46726250Y-10823000D01*
X46801758Y-10747492D01*
X49880188Y-10747492D01*
X49921035Y-11017238D01*
X50013723Y-11273832D01*
X50074140Y-11386863D01*
X50313007Y-11452388D01*
X51090395Y-10675000D01*
X51449605Y-10675000D01*
X52226993Y-11452388D01*
X52465860Y-11386863D01*
X52581760Y-11139884D01*
X52647250Y-10875040D01*
X52647340Y-10873078D01*
X57719000Y-10873078D01*
X57719000Y-11026922D01*
X57749013Y-11177809D01*
X57807887Y-11319942D01*
X57893358Y-11447859D01*
X58002141Y-11556642D01*
X58130058Y-11642113D01*
X58272191Y-11700987D01*
X58423078Y-11731000D01*
X58576922Y-11731000D01*
X58727809Y-11700987D01*
X58869942Y-11642113D01*
X58951907Y-11587346D01*
X58979289Y-11620711D01*
X59037304Y-11668322D01*
X59103492Y-11703701D01*
X59175311Y-11725487D01*
X59250000Y-11732843D01*
X60950000Y-11732843D01*
X61024689Y-11725487D01*
X61096508Y-11703701D01*
X61162696Y-11668322D01*
X61220711Y-11620711D01*
X61268322Y-11562696D01*
X61303701Y-11496508D01*
X61325487Y-11424689D01*
X61332843Y-11350000D01*
X61332843Y-10550000D01*
X61325487Y-10475311D01*
X61303701Y-10403492D01*
X61268322Y-10337304D01*
X61220711Y-10279289D01*
X61162696Y-10231678D01*
X61096508Y-10196299D01*
X61024689Y-10174513D01*
X60950000Y-10167157D01*
X59250000Y-10167157D01*
X59175311Y-10174513D01*
X59103492Y-10196299D01*
X59037304Y-10231678D01*
X58979289Y-10279289D01*
X58951907Y-10312654D01*
X58869942Y-10257887D01*
X58727809Y-10199013D01*
X58576922Y-10169000D01*
X58423078Y-10169000D01*
X58272191Y-10199013D01*
X58130058Y-10257887D01*
X58002141Y-10343358D01*
X57893358Y-10452141D01*
X57807887Y-10580058D01*
X57749013Y-10722191D01*
X57719000Y-10873078D01*
X52647340Y-10873078D01*
X52659812Y-10602508D01*
X52618965Y-10332762D01*
X52526277Y-10076168D01*
X52465860Y-9963137D01*
X52226993Y-9897612D01*
X51449605Y-10675000D01*
X51090395Y-10675000D01*
X50313007Y-9897612D01*
X50074140Y-9963137D01*
X49958240Y-10210116D01*
X49892750Y-10474960D01*
X49880188Y-10747492D01*
X46801758Y-10747492D01*
X46885000Y-10664250D01*
X46888072Y-10550000D01*
X46875812Y-10425518D01*
X46839502Y-10305820D01*
X46780537Y-10195506D01*
X46701185Y-10098815D01*
X46604494Y-10019463D01*
X46494180Y-9960498D01*
X46374482Y-9924188D01*
X46250000Y-9911928D01*
X45685750Y-9915000D01*
X45527000Y-10073750D01*
X45273000Y-10073750D01*
X45114250Y-9915000D01*
X44550000Y-9911928D01*
X44425518Y-9924188D01*
X44305820Y-9960498D01*
X44195506Y-10019463D01*
X44098815Y-10098815D01*
X44019463Y-10195506D01*
X43960498Y-10305820D01*
X43924188Y-10425518D01*
X43911928Y-10550000D01*
X43801834Y-10550000D01*
X43803701Y-10546508D01*
X43825487Y-10474689D01*
X43832843Y-10400000D01*
X43832843Y-9600000D01*
X43828510Y-9556000D01*
X44184011Y-9556000D01*
X44196299Y-9596508D01*
X44231678Y-9662696D01*
X44279289Y-9720711D01*
X44337304Y-9768322D01*
X44403492Y-9803701D01*
X44475311Y-9825487D01*
X44550000Y-9832843D01*
X46250000Y-9832843D01*
X46324689Y-9825487D01*
X46396508Y-9803701D01*
X46462696Y-9768322D01*
X46520711Y-9720711D01*
X46568322Y-9662696D01*
X46603701Y-9596508D01*
X46625487Y-9524689D01*
X46632843Y-9450000D01*
X46632843Y-9293606D01*
X47599000Y-9293606D01*
X47599000Y-9516394D01*
X47642464Y-9734900D01*
X47727721Y-9940729D01*
X47851495Y-10125970D01*
X48009030Y-10283505D01*
X48194271Y-10407279D01*
X48400100Y-10492536D01*
X48618606Y-10536000D01*
X48841394Y-10536000D01*
X49059900Y-10492536D01*
X49265729Y-10407279D01*
X49450970Y-10283505D01*
X49608505Y-10125970D01*
X49732279Y-9940729D01*
X49817536Y-9734900D01*
X49820896Y-9718007D01*
X50492612Y-9718007D01*
X51270000Y-10495395D01*
X51895643Y-9869752D01*
X54079853Y-9869752D01*
X54169579Y-10129042D01*
X54450671Y-10264935D01*
X54752873Y-10343379D01*
X55064573Y-10361359D01*
X55373791Y-10318184D01*
X55668644Y-10215513D01*
X55830421Y-10129042D01*
X55920147Y-9869752D01*
X55000000Y-8949605D01*
X54079853Y-9869752D01*
X51895643Y-9869752D01*
X52047388Y-9718007D01*
X51981863Y-9479140D01*
X51734884Y-9363240D01*
X51470040Y-9297750D01*
X51197508Y-9285188D01*
X50927762Y-9326035D01*
X50671168Y-9418723D01*
X50558137Y-9479140D01*
X50492612Y-9718007D01*
X49820896Y-9718007D01*
X49861000Y-9516394D01*
X49861000Y-9293606D01*
X49817536Y-9075100D01*
X49732279Y-8869271D01*
X49608505Y-8684030D01*
X49450970Y-8526495D01*
X49265729Y-8402721D01*
X49059900Y-8317464D01*
X48841394Y-8274000D01*
X48618606Y-8274000D01*
X48400100Y-8317464D01*
X48194271Y-8402721D01*
X48009030Y-8526495D01*
X47851495Y-8684030D01*
X47727721Y-8869271D01*
X47642464Y-9075100D01*
X47599000Y-9293606D01*
X46632843Y-9293606D01*
X46632843Y-8650000D01*
X46625487Y-8575311D01*
X46603701Y-8503492D01*
X46568322Y-8437304D01*
X46520711Y-8379289D01*
X46462696Y-8331678D01*
X46396508Y-8296299D01*
X46324689Y-8274513D01*
X46250000Y-8267157D01*
X44550000Y-8267157D01*
X44475311Y-8274513D01*
X44403492Y-8296299D01*
X44337304Y-8331678D01*
X44279289Y-8379289D01*
X44231678Y-8437304D01*
X44196299Y-8503492D01*
X44184011Y-8544000D01*
X43709592Y-8544000D01*
X43106000Y-7940409D01*
X43106000Y-7732843D01*
X43450000Y-7732843D01*
X43524689Y-7725487D01*
X43596508Y-7703701D01*
X43662696Y-7668322D01*
X43720711Y-7620711D01*
X43768322Y-7562696D01*
X43803701Y-7496508D01*
X43825204Y-7425621D01*
X43844575Y-7419745D01*
X43932479Y-7372759D01*
X44009527Y-7309527D01*
X44025376Y-7290215D01*
X44321372Y-6994220D01*
X44425518Y-7025812D01*
X44550000Y-7038072D01*
X45114250Y-7035000D01*
X45273000Y-6876250D01*
X45273000Y-6127000D01*
X45527000Y-6127000D01*
X45527000Y-6876250D01*
X45685750Y-7035000D01*
X46250000Y-7038072D01*
X46374482Y-7025812D01*
X46494180Y-6989502D01*
X46604494Y-6930537D01*
X46701185Y-6851185D01*
X46780537Y-6754494D01*
X46781011Y-6753606D01*
X47599000Y-6753606D01*
X47599000Y-6976394D01*
X47642464Y-7194900D01*
X47727721Y-7400729D01*
X47851495Y-7585970D01*
X48009030Y-7743505D01*
X48194271Y-7867279D01*
X48400100Y-7952536D01*
X48618606Y-7996000D01*
X48841394Y-7996000D01*
X49059900Y-7952536D01*
X49265729Y-7867279D01*
X49450970Y-7743505D01*
X49608505Y-7585970D01*
X49732279Y-7400729D01*
X49817536Y-7194900D01*
X49861000Y-6976394D01*
X49861000Y-6753606D01*
X49817536Y-6535100D01*
X49732279Y-6329271D01*
X49608505Y-6144030D01*
X49450970Y-5986495D01*
X49265729Y-5862721D01*
X49059900Y-5777464D01*
X48841394Y-5734000D01*
X48618606Y-5734000D01*
X48400100Y-5777464D01*
X48194271Y-5862721D01*
X48009030Y-5986495D01*
X47851495Y-6144030D01*
X47727721Y-6329271D01*
X47642464Y-6535100D01*
X47599000Y-6753606D01*
X46781011Y-6753606D01*
X46839502Y-6644180D01*
X46875812Y-6524482D01*
X46888072Y-6400000D01*
X46885000Y-6285750D01*
X46726250Y-6127000D01*
X45527000Y-6127000D01*
X45273000Y-6127000D01*
X45253000Y-6127000D01*
X45253000Y-5873000D01*
X45273000Y-5873000D01*
X45273000Y-5123750D01*
X45527000Y-5123750D01*
X45527000Y-5873000D01*
X46726250Y-5873000D01*
X46885000Y-5714250D01*
X46888072Y-5600000D01*
X46875812Y-5475518D01*
X46839502Y-5355820D01*
X46780537Y-5245506D01*
X46701185Y-5148815D01*
X46604494Y-5069463D01*
X46494180Y-5010498D01*
X46374482Y-4974188D01*
X46250000Y-4961928D01*
X45685750Y-4965000D01*
X45527000Y-5123750D01*
X45273000Y-5123750D01*
X45114250Y-4965000D01*
X44550000Y-4961928D01*
X44506000Y-4966261D01*
X44506000Y-4263032D01*
X44964250Y-4260000D01*
X45123000Y-4101250D01*
X45123000Y-3127000D01*
X45377000Y-3127000D01*
X45377000Y-4101250D01*
X45535750Y-4260000D01*
X46000000Y-4263072D01*
X46124482Y-4250812D01*
X46244180Y-4214502D01*
X46245856Y-4213606D01*
X47599000Y-4213606D01*
X47599000Y-4436394D01*
X47642464Y-4654900D01*
X47727721Y-4860729D01*
X47851495Y-5045970D01*
X48009030Y-5203505D01*
X48194271Y-5327279D01*
X48400100Y-5412536D01*
X48618606Y-5456000D01*
X48841394Y-5456000D01*
X49059900Y-5412536D01*
X49265729Y-5327279D01*
X49450970Y-5203505D01*
X49608505Y-5045970D01*
X49732279Y-4860729D01*
X49817536Y-4654900D01*
X49861000Y-4436394D01*
X49861000Y-4213606D01*
X49817536Y-3995100D01*
X49732279Y-3789271D01*
X49608505Y-3604030D01*
X49450970Y-3446495D01*
X49265729Y-3322721D01*
X49059900Y-3237464D01*
X48841394Y-3194000D01*
X48618606Y-3194000D01*
X48400100Y-3237464D01*
X48194271Y-3322721D01*
X48009030Y-3446495D01*
X47851495Y-3604030D01*
X47727721Y-3789271D01*
X47642464Y-3995100D01*
X47599000Y-4213606D01*
X46245856Y-4213606D01*
X46354494Y-4155537D01*
X46451185Y-4076185D01*
X46530537Y-3979494D01*
X46589502Y-3869180D01*
X46625812Y-3749482D01*
X46638072Y-3625000D01*
X46635000Y-3285750D01*
X46476250Y-3127000D01*
X45377000Y-3127000D01*
X45123000Y-3127000D01*
X45103000Y-3127000D01*
X45103000Y-2873000D01*
X45123000Y-2873000D01*
X45123000Y-2853000D01*
X45377000Y-2853000D01*
X45377000Y-2873000D01*
X46476250Y-2873000D01*
X46635000Y-2714250D01*
X46638072Y-2375000D01*
X46625812Y-2250518D01*
X46589502Y-2130820D01*
X46576235Y-2106000D01*
X58490409Y-2106000D01*
X59303409Y-2919001D01*
X53464844Y-2919001D01*
X53439998Y-2916554D01*
X53415152Y-2919001D01*
X53415145Y-2919001D01*
X53340806Y-2926323D01*
X53245424Y-2955256D01*
X53157520Y-3002242D01*
X53080472Y-3065474D01*
X53064627Y-3084781D01*
X51629630Y-4519779D01*
X51599900Y-4507464D01*
X51381394Y-4464000D01*
X51158606Y-4464000D01*
X50940100Y-4507464D01*
X50734271Y-4592721D01*
X50549030Y-4716495D01*
X50391495Y-4874030D01*
X50267721Y-5059271D01*
X50182464Y-5265100D01*
X50139000Y-5483606D01*
X50139000Y-5706394D01*
X50182464Y-5924900D01*
X50267721Y-6130729D01*
X50391495Y-6315970D01*
X50549030Y-6473505D01*
X50734271Y-6597279D01*
X50940100Y-6682536D01*
X51158606Y-6726000D01*
X51381394Y-6726000D01*
X51599900Y-6682536D01*
X51805729Y-6597279D01*
X51990970Y-6473505D01*
X52148505Y-6315970D01*
X52272279Y-6130729D01*
X52357536Y-5924900D01*
X52401000Y-5706394D01*
X52401000Y-5483606D01*
X52357536Y-5265100D01*
X52345221Y-5235370D01*
X52494001Y-5086590D01*
X52494000Y-6195408D01*
X51629630Y-7059779D01*
X51599900Y-7047464D01*
X51381394Y-7004000D01*
X51158606Y-7004000D01*
X50940100Y-7047464D01*
X50734271Y-7132721D01*
X50549030Y-7256495D01*
X50391495Y-7414030D01*
X50267721Y-7599271D01*
X50182464Y-7805100D01*
X50139000Y-8023606D01*
X50139000Y-8246394D01*
X50182464Y-8464900D01*
X50267721Y-8670729D01*
X50391495Y-8855970D01*
X50549030Y-9013505D01*
X50734271Y-9137279D01*
X50940100Y-9222536D01*
X51158606Y-9266000D01*
X51381394Y-9266000D01*
X51599900Y-9222536D01*
X51805729Y-9137279D01*
X51990970Y-9013505D01*
X52148505Y-8855970D01*
X52162802Y-8834573D01*
X53408641Y-8834573D01*
X53451816Y-9143791D01*
X53554487Y-9438644D01*
X53640958Y-9600421D01*
X53900248Y-9690147D01*
X54820395Y-8770000D01*
X55179605Y-8770000D01*
X56099752Y-9690147D01*
X56359042Y-9600421D01*
X56494935Y-9319329D01*
X56573379Y-9017127D01*
X56591359Y-8705427D01*
X56583620Y-8650000D01*
X58867157Y-8650000D01*
X58867157Y-9450000D01*
X58874513Y-9524689D01*
X58896299Y-9596508D01*
X58931678Y-9662696D01*
X58979289Y-9720711D01*
X59037304Y-9768322D01*
X59103492Y-9803701D01*
X59175311Y-9825487D01*
X59250000Y-9832843D01*
X60950000Y-9832843D01*
X61024689Y-9825487D01*
X61096508Y-9803701D01*
X61162696Y-9768322D01*
X61220711Y-9720711D01*
X61268322Y-9662696D01*
X61303701Y-9596508D01*
X61315989Y-9556000D01*
X61671490Y-9556000D01*
X61667157Y-9600000D01*
X61667157Y-10400000D01*
X61674513Y-10474689D01*
X61696299Y-10546508D01*
X61731678Y-10612696D01*
X61779289Y-10670711D01*
X61837304Y-10718322D01*
X61903492Y-10753701D01*
X61975311Y-10775487D01*
X62050000Y-10782843D01*
X63750000Y-10782843D01*
X63824689Y-10775487D01*
X63896508Y-10753701D01*
X63962696Y-10718322D01*
X64020711Y-10670711D01*
X64068322Y-10612696D01*
X64103701Y-10546508D01*
X64115989Y-10506000D01*
X64117157Y-10506000D01*
X64117157Y-11625000D01*
X64124513Y-11699689D01*
X64146299Y-11771508D01*
X64181678Y-11837696D01*
X64229289Y-11895711D01*
X64287304Y-11943322D01*
X64353492Y-11978701D01*
X64425311Y-12000487D01*
X64500000Y-12007843D01*
X64525667Y-12007843D01*
X64499013Y-12072191D01*
X64469000Y-12223078D01*
X64469000Y-12376922D01*
X64499013Y-12527809D01*
X64557887Y-12669942D01*
X64643358Y-12797859D01*
X64752141Y-12906642D01*
X64880058Y-12992113D01*
X65022191Y-13050987D01*
X65173078Y-13081000D01*
X65326922Y-13081000D01*
X65477809Y-13050987D01*
X65619942Y-12992113D01*
X65747859Y-12906642D01*
X65856642Y-12797859D01*
X65942113Y-12669942D01*
X66000987Y-12527809D01*
X66031000Y-12376922D01*
X66031000Y-12223078D01*
X66000987Y-12072191D01*
X65974333Y-12007843D01*
X66000000Y-12007843D01*
X66074689Y-12000487D01*
X66146508Y-11978701D01*
X66212696Y-11943322D01*
X66270711Y-11895711D01*
X66318322Y-11837696D01*
X66353701Y-11771508D01*
X66370804Y-11715126D01*
X66374188Y-11749482D01*
X66410498Y-11869180D01*
X66469463Y-11979494D01*
X66548815Y-12076185D01*
X66645506Y-12155537D01*
X66755820Y-12214502D01*
X66875518Y-12250812D01*
X67000000Y-12263072D01*
X67464250Y-12260000D01*
X67623000Y-12101250D01*
X67623000Y-11127000D01*
X67877000Y-11127000D01*
X67877000Y-12101250D01*
X68035750Y-12260000D01*
X68500000Y-12263072D01*
X68624482Y-12250812D01*
X68744180Y-12214502D01*
X68854494Y-12155537D01*
X68951185Y-12076185D01*
X69030537Y-11979494D01*
X69089502Y-11869180D01*
X69125812Y-11749482D01*
X69138072Y-11625000D01*
X69137382Y-11548740D01*
X70370865Y-11548740D01*
X70529764Y-11866758D01*
X70908632Y-12059959D01*
X71317913Y-12175534D01*
X71741876Y-12209042D01*
X72164230Y-12159194D01*
X72568744Y-12027908D01*
X72870236Y-11866758D01*
X73029135Y-11548740D01*
X74970865Y-11548740D01*
X75129764Y-11866758D01*
X75508632Y-12059959D01*
X75917913Y-12175534D01*
X76341876Y-12209042D01*
X76764230Y-12159194D01*
X77168744Y-12027908D01*
X77470236Y-11866758D01*
X77629135Y-11548740D01*
X76300000Y-10219605D01*
X74970865Y-11548740D01*
X73029135Y-11548740D01*
X71700000Y-10219605D01*
X70370865Y-11548740D01*
X69137382Y-11548740D01*
X69135000Y-11285750D01*
X68976250Y-11127000D01*
X67877000Y-11127000D01*
X67623000Y-11127000D01*
X67603000Y-11127000D01*
X67603000Y-10873000D01*
X67623000Y-10873000D01*
X67623000Y-9898750D01*
X67877000Y-9898750D01*
X67877000Y-10873000D01*
X68976250Y-10873000D01*
X69135000Y-10714250D01*
X69138072Y-10375000D01*
X69125812Y-10250518D01*
X69089502Y-10130820D01*
X69063341Y-10081876D01*
X69530958Y-10081876D01*
X69580806Y-10504230D01*
X69712092Y-10908744D01*
X69873242Y-11210236D01*
X70191260Y-11369135D01*
X71520395Y-10040000D01*
X71879605Y-10040000D01*
X73208740Y-11369135D01*
X73526758Y-11210236D01*
X73719959Y-10831368D01*
X73835534Y-10422087D01*
X73862422Y-10081876D01*
X74130958Y-10081876D01*
X74180806Y-10504230D01*
X74312092Y-10908744D01*
X74473242Y-11210236D01*
X74791260Y-11369135D01*
X76120395Y-10040000D01*
X74791260Y-8710865D01*
X74473242Y-8869764D01*
X74280041Y-9248632D01*
X74164466Y-9657913D01*
X74130958Y-10081876D01*
X73862422Y-10081876D01*
X73869042Y-9998124D01*
X73819194Y-9575770D01*
X73687908Y-9171256D01*
X73526758Y-8869764D01*
X73208740Y-8710865D01*
X71879605Y-10040000D01*
X71520395Y-10040000D01*
X70191260Y-8710865D01*
X69873242Y-8869764D01*
X69680041Y-9248632D01*
X69564466Y-9657913D01*
X69530958Y-10081876D01*
X69063341Y-10081876D01*
X69030537Y-10020506D01*
X68951185Y-9923815D01*
X68854494Y-9844463D01*
X68744180Y-9785498D01*
X68624482Y-9749188D01*
X68500000Y-9736928D01*
X68035750Y-9740000D01*
X67877000Y-9898750D01*
X67623000Y-9898750D01*
X67464250Y-9740000D01*
X67113444Y-9737679D01*
X67192113Y-9619942D01*
X67250987Y-9477809D01*
X67281000Y-9326922D01*
X67281000Y-9173078D01*
X67250987Y-9022191D01*
X67205439Y-8912230D01*
X67564250Y-8910000D01*
X67723000Y-8751250D01*
X67723000Y-8077000D01*
X67977000Y-8077000D01*
X67977000Y-8751250D01*
X68135750Y-8910000D01*
X68630000Y-8913072D01*
X68754482Y-8900812D01*
X68874180Y-8864502D01*
X68984494Y-8805537D01*
X69081185Y-8726185D01*
X69160537Y-8629494D01*
X69213045Y-8531260D01*
X70370865Y-8531260D01*
X71700000Y-9860395D01*
X73029135Y-8531260D01*
X72870236Y-8213242D01*
X72491368Y-8020041D01*
X72082087Y-7904466D01*
X71658124Y-7870958D01*
X71235770Y-7920806D01*
X70831256Y-8052092D01*
X70529764Y-8213242D01*
X70370865Y-8531260D01*
X69213045Y-8531260D01*
X69219502Y-8519180D01*
X69255812Y-8399482D01*
X69268072Y-8275000D01*
X69265000Y-8235750D01*
X69106250Y-8077000D01*
X67977000Y-8077000D01*
X67723000Y-8077000D01*
X66593750Y-8077000D01*
X66435000Y-8235750D01*
X66431928Y-8275000D01*
X66444188Y-8399482D01*
X66465276Y-8469000D01*
X66423078Y-8469000D01*
X66272191Y-8499013D01*
X66221959Y-8519820D01*
X66248322Y-8487696D01*
X66283701Y-8421508D01*
X66305487Y-8349689D01*
X66312843Y-8275000D01*
X66312843Y-7832272D01*
X66381185Y-7776185D01*
X66455897Y-7685147D01*
X66593750Y-7823000D01*
X67723000Y-7823000D01*
X67723000Y-7148750D01*
X67977000Y-7148750D01*
X67977000Y-7823000D01*
X69106250Y-7823000D01*
X69265000Y-7664250D01*
X69268072Y-7625000D01*
X69255812Y-7500518D01*
X69219502Y-7380820D01*
X69160537Y-7270506D01*
X69081185Y-7173815D01*
X68984494Y-7094463D01*
X68874180Y-7035498D01*
X68754482Y-6999188D01*
X68630000Y-6986928D01*
X68135750Y-6990000D01*
X67977000Y-7148750D01*
X67723000Y-7148750D01*
X67564250Y-6990000D01*
X67070000Y-6986928D01*
X66945518Y-6999188D01*
X66825820Y-7035498D01*
X66715506Y-7094463D01*
X66618815Y-7173815D01*
X66544103Y-7264853D01*
X66406250Y-7127000D01*
X65277000Y-7127000D01*
X65277000Y-7147000D01*
X65023000Y-7147000D01*
X65023000Y-7127000D01*
X63893750Y-7127000D01*
X63735000Y-7285750D01*
X63731928Y-7325000D01*
X63744188Y-7449482D01*
X63780498Y-7569180D01*
X63839463Y-7679494D01*
X63918815Y-7776185D01*
X63987157Y-7832272D01*
X63987157Y-8275000D01*
X63994513Y-8349689D01*
X64016299Y-8421508D01*
X64051678Y-8487696D01*
X64099289Y-8545711D01*
X64157304Y-8593322D01*
X64223492Y-8628701D01*
X64295311Y-8650487D01*
X64370000Y-8657843D01*
X64637656Y-8657843D01*
X64543358Y-8752141D01*
X64457887Y-8880058D01*
X64399013Y-9022191D01*
X64369000Y-9173078D01*
X64369000Y-9326922D01*
X64399013Y-9477809D01*
X64405720Y-9494000D01*
X64115989Y-9494000D01*
X64103701Y-9453492D01*
X64068322Y-9387304D01*
X64020711Y-9329289D01*
X63962696Y-9281678D01*
X63896508Y-9246299D01*
X63824689Y-9224513D01*
X63750000Y-9217157D01*
X62598434Y-9217157D01*
X62834592Y-8981000D01*
X62976922Y-8981000D01*
X63127809Y-8950987D01*
X63269942Y-8892113D01*
X63397859Y-8806642D01*
X63506642Y-8697859D01*
X63592113Y-8569942D01*
X63650987Y-8427809D01*
X63681000Y-8276922D01*
X63681000Y-8123078D01*
X63650987Y-7972191D01*
X63592113Y-7830058D01*
X63506642Y-7702141D01*
X63397859Y-7593358D01*
X63269942Y-7507887D01*
X63127809Y-7449013D01*
X62976922Y-7419000D01*
X62823078Y-7419000D01*
X62672191Y-7449013D01*
X62530058Y-7507887D01*
X62402141Y-7593358D01*
X62293358Y-7702141D01*
X62207887Y-7830058D01*
X62149013Y-7972191D01*
X62119000Y-8123078D01*
X62119000Y-8265408D01*
X61840409Y-8544000D01*
X61315989Y-8544000D01*
X61303701Y-8503492D01*
X61268322Y-8437304D01*
X61220711Y-8379289D01*
X61162696Y-8331678D01*
X61096508Y-8296299D01*
X61024689Y-8274513D01*
X60950000Y-8267157D01*
X59250000Y-8267157D01*
X59175311Y-8274513D01*
X59103492Y-8296299D01*
X59037304Y-8331678D01*
X58979289Y-8379289D01*
X58931678Y-8437304D01*
X58896299Y-8503492D01*
X58874513Y-8575311D01*
X58867157Y-8650000D01*
X56583620Y-8650000D01*
X56548184Y-8396209D01*
X56445513Y-8101356D01*
X56359042Y-7939579D01*
X56099752Y-7849853D01*
X55179605Y-8770000D01*
X54820395Y-8770000D01*
X53900248Y-7849853D01*
X53640958Y-7939579D01*
X53505065Y-8220671D01*
X53426621Y-8522873D01*
X53408641Y-8834573D01*
X52162802Y-8834573D01*
X52272279Y-8670729D01*
X52357536Y-8464900D01*
X52401000Y-8246394D01*
X52401000Y-8023606D01*
X52357536Y-7805100D01*
X52345221Y-7775370D01*
X53340220Y-6780372D01*
X53359527Y-6764527D01*
X53422759Y-6687479D01*
X53469745Y-6599575D01*
X53493426Y-6521508D01*
X53498678Y-6504194D01*
X53501584Y-6474689D01*
X53506000Y-6429854D01*
X53506000Y-6429847D01*
X53508447Y-6405001D01*
X53506000Y-6380155D01*
X53506000Y-6098908D01*
X53669000Y-6098908D01*
X53669000Y-6361092D01*
X53720150Y-6618238D01*
X53820483Y-6860465D01*
X53966145Y-7078463D01*
X54151537Y-7263855D01*
X54281867Y-7350939D01*
X54169579Y-7410958D01*
X54079853Y-7670248D01*
X55000000Y-8590395D01*
X55920147Y-7670248D01*
X55830421Y-7410958D01*
X55713154Y-7354266D01*
X55719538Y-7350000D01*
X58611928Y-7350000D01*
X58624188Y-7474482D01*
X58660498Y-7594180D01*
X58719463Y-7704494D01*
X58798815Y-7801185D01*
X58895506Y-7880537D01*
X59005820Y-7939502D01*
X59125518Y-7975812D01*
X59250000Y-7988072D01*
X59814250Y-7985000D01*
X59973000Y-7826250D01*
X59973000Y-7077000D01*
X60227000Y-7077000D01*
X60227000Y-7826250D01*
X60385750Y-7985000D01*
X60950000Y-7988072D01*
X61074482Y-7975812D01*
X61194180Y-7939502D01*
X61304494Y-7880537D01*
X61401185Y-7801185D01*
X61480537Y-7704494D01*
X61539502Y-7594180D01*
X61575812Y-7474482D01*
X61588072Y-7350000D01*
X61585000Y-7235750D01*
X61426250Y-7077000D01*
X60227000Y-7077000D01*
X59973000Y-7077000D01*
X58773750Y-7077000D01*
X58615000Y-7235750D01*
X58611928Y-7350000D01*
X55719538Y-7350000D01*
X55848463Y-7263855D01*
X56033855Y-7078463D01*
X56179517Y-6860465D01*
X56279850Y-6618238D01*
X56293423Y-6550000D01*
X58611928Y-6550000D01*
X58615000Y-6664250D01*
X58773750Y-6823000D01*
X59973000Y-6823000D01*
X59973000Y-6073750D01*
X60227000Y-6073750D01*
X60227000Y-6823000D01*
X61426250Y-6823000D01*
X61585000Y-6664250D01*
X61588072Y-6550000D01*
X61575812Y-6425518D01*
X61539502Y-6305820D01*
X61480537Y-6195506D01*
X61401185Y-6098815D01*
X61304494Y-6019463D01*
X61194180Y-5960498D01*
X61074482Y-5924188D01*
X60950000Y-5911928D01*
X60385750Y-5915000D01*
X60227000Y-6073750D01*
X59973000Y-6073750D01*
X59814250Y-5915000D01*
X59250000Y-5911928D01*
X59125518Y-5924188D01*
X59005820Y-5960498D01*
X58895506Y-6019463D01*
X58798815Y-6098815D01*
X58719463Y-6195506D01*
X58660498Y-6305820D01*
X58624188Y-6425518D01*
X58611928Y-6550000D01*
X56293423Y-6550000D01*
X56331000Y-6361092D01*
X56331000Y-6098908D01*
X56279850Y-5841762D01*
X56179517Y-5599535D01*
X56033855Y-5381537D01*
X55848463Y-5196145D01*
X55630465Y-5050483D01*
X55388238Y-4950150D01*
X55131092Y-4899000D01*
X54868908Y-4899000D01*
X54611762Y-4950150D01*
X54369535Y-5050483D01*
X54151537Y-5196145D01*
X53966145Y-5381537D01*
X53820483Y-5599535D01*
X53720150Y-5841762D01*
X53669000Y-6098908D01*
X53506000Y-6098908D01*
X53506000Y-5209591D01*
X54059592Y-4656000D01*
X56190409Y-4656000D01*
X56924628Y-5390220D01*
X56940473Y-5409527D01*
X57017521Y-5472759D01*
X57091504Y-5512304D01*
X57105425Y-5519745D01*
X57200806Y-5548678D01*
X57210694Y-5549652D01*
X57275146Y-5556000D01*
X57275153Y-5556000D01*
X57299999Y-5558447D01*
X57324845Y-5556000D01*
X57901499Y-5556000D01*
X58002141Y-5656642D01*
X58130058Y-5742113D01*
X58272191Y-5800987D01*
X58423078Y-5831000D01*
X58576922Y-5831000D01*
X58727809Y-5800987D01*
X58869942Y-5742113D01*
X58951907Y-5687346D01*
X58979289Y-5720711D01*
X59037304Y-5768322D01*
X59103492Y-5803701D01*
X59175311Y-5825487D01*
X59250000Y-5832843D01*
X60950000Y-5832843D01*
X61024689Y-5825487D01*
X61096508Y-5803701D01*
X61162696Y-5768322D01*
X61220711Y-5720711D01*
X61268322Y-5662696D01*
X61303701Y-5596508D01*
X61315989Y-5556000D01*
X61525154Y-5556000D01*
X61550000Y-5558447D01*
X61574846Y-5556000D01*
X61574854Y-5556000D01*
X61649193Y-5548678D01*
X61672920Y-5541481D01*
X61667157Y-5600000D01*
X61667157Y-6400000D01*
X61674513Y-6474689D01*
X61696299Y-6546508D01*
X61731678Y-6612696D01*
X61779289Y-6670711D01*
X61837304Y-6718322D01*
X61903492Y-6753701D01*
X61975311Y-6775487D01*
X62050000Y-6782843D01*
X63750000Y-6782843D01*
X63798788Y-6778038D01*
X63893750Y-6873000D01*
X65023000Y-6873000D01*
X65023000Y-6853000D01*
X65277000Y-6853000D01*
X65277000Y-6873000D01*
X66406250Y-6873000D01*
X66565000Y-6714250D01*
X66568072Y-6675000D01*
X66555812Y-6550518D01*
X66539236Y-6495873D01*
X66582479Y-6472759D01*
X66659527Y-6409527D01*
X66675376Y-6390215D01*
X66687465Y-6378126D01*
X66694513Y-6449689D01*
X66716299Y-6521508D01*
X66751678Y-6587696D01*
X66799289Y-6645711D01*
X66857304Y-6693322D01*
X66923492Y-6728701D01*
X66995311Y-6750487D01*
X67070000Y-6757843D01*
X68630000Y-6757843D01*
X68704689Y-6750487D01*
X68776508Y-6728701D01*
X68842696Y-6693322D01*
X68900711Y-6645711D01*
X68918966Y-6623467D01*
X68952141Y-6656642D01*
X69080058Y-6742113D01*
X69222191Y-6800987D01*
X69373078Y-6831000D01*
X69526922Y-6831000D01*
X69677809Y-6800987D01*
X69819942Y-6742113D01*
X69947859Y-6656642D01*
X70056642Y-6547859D01*
X70109507Y-6468740D01*
X70370865Y-6468740D01*
X70529764Y-6786758D01*
X70908632Y-6979959D01*
X71317913Y-7095534D01*
X71741876Y-7129042D01*
X72164230Y-7079194D01*
X72568744Y-6947908D01*
X72870236Y-6786758D01*
X73029135Y-6468740D01*
X74970865Y-6468740D01*
X75129764Y-6786758D01*
X75508632Y-6979959D01*
X75917913Y-7095534D01*
X76341876Y-7129042D01*
X76764230Y-7079194D01*
X77168744Y-6947908D01*
X77243802Y-6907789D01*
X77184466Y-7117913D01*
X77150958Y-7541876D01*
X77200806Y-7964230D01*
X77244217Y-8097985D01*
X77091368Y-8020041D01*
X76682087Y-7904466D01*
X76258124Y-7870958D01*
X75835770Y-7920806D01*
X75431256Y-8052092D01*
X75129764Y-8213242D01*
X74970865Y-8531260D01*
X76300000Y-9860395D01*
X76314143Y-9846253D01*
X76493748Y-10025858D01*
X76479605Y-10040000D01*
X77808740Y-11369135D01*
X78126758Y-11210236D01*
X78319959Y-10831368D01*
X78435534Y-10422087D01*
X78469042Y-9998124D01*
X78419194Y-9575770D01*
X78375783Y-9442015D01*
X78528632Y-9519959D01*
X78937913Y-9635534D01*
X79361876Y-9669042D01*
X79784230Y-9619194D01*
X80188744Y-9487908D01*
X80490236Y-9326758D01*
X80649135Y-9008740D01*
X82590865Y-9008740D01*
X82749764Y-9326758D01*
X83128632Y-9519959D01*
X83537913Y-9635534D01*
X83961876Y-9669042D01*
X84384230Y-9619194D01*
X84788744Y-9487908D01*
X85090236Y-9326758D01*
X85249135Y-9008740D01*
X83920000Y-7679605D01*
X82590865Y-9008740D01*
X80649135Y-9008740D01*
X79320000Y-7679605D01*
X79305858Y-7693748D01*
X79126253Y-7514143D01*
X79140395Y-7500000D01*
X79499605Y-7500000D01*
X80828740Y-8829135D01*
X81146758Y-8670236D01*
X81339959Y-8291368D01*
X81455534Y-7882087D01*
X81482422Y-7541876D01*
X81750958Y-7541876D01*
X81800806Y-7964230D01*
X81932092Y-8368744D01*
X82093242Y-8670236D01*
X82411260Y-8829135D01*
X83740395Y-7500000D01*
X84099605Y-7500000D01*
X85428740Y-8829135D01*
X85746758Y-8670236D01*
X85939959Y-8291368D01*
X86055534Y-7882087D01*
X86089042Y-7458124D01*
X86039194Y-7035770D01*
X85907908Y-6631256D01*
X85746758Y-6329764D01*
X85428740Y-6170865D01*
X84099605Y-7500000D01*
X83740395Y-7500000D01*
X82411260Y-6170865D01*
X82093242Y-6329764D01*
X81900041Y-6708632D01*
X81784466Y-7117913D01*
X81750958Y-7541876D01*
X81482422Y-7541876D01*
X81489042Y-7458124D01*
X81439194Y-7035770D01*
X81307908Y-6631256D01*
X81146758Y-6329764D01*
X80828740Y-6170865D01*
X79499605Y-7500000D01*
X79140395Y-7500000D01*
X79126253Y-7485858D01*
X79305858Y-7306253D01*
X79320000Y-7320395D01*
X80649135Y-5991260D01*
X82590865Y-5991260D01*
X83920000Y-7320395D01*
X85249135Y-5991260D01*
X85090236Y-5673242D01*
X84711368Y-5480041D01*
X84302087Y-5364466D01*
X83878124Y-5330958D01*
X83455770Y-5380806D01*
X83051256Y-5512092D01*
X82749764Y-5673242D01*
X82590865Y-5991260D01*
X80649135Y-5991260D01*
X80490236Y-5673242D01*
X80111368Y-5480041D01*
X79702087Y-5364466D01*
X79278124Y-5330958D01*
X78855770Y-5380806D01*
X78451256Y-5512092D01*
X78376198Y-5552211D01*
X78435534Y-5342087D01*
X78469042Y-4918124D01*
X78419194Y-4495770D01*
X78287908Y-4091256D01*
X78126758Y-3789764D01*
X77808740Y-3630865D01*
X76479605Y-4960000D01*
X76493748Y-4974143D01*
X76314143Y-5153748D01*
X76300000Y-5139605D01*
X74970865Y-6468740D01*
X73029135Y-6468740D01*
X71700000Y-5139605D01*
X70370865Y-6468740D01*
X70109507Y-6468740D01*
X70142113Y-6419942D01*
X70199856Y-6280539D01*
X71520395Y-4960000D01*
X71879605Y-4960000D01*
X73208740Y-6289135D01*
X73526758Y-6130236D01*
X73719959Y-5751368D01*
X73835534Y-5342087D01*
X73862422Y-5001876D01*
X74130958Y-5001876D01*
X74180806Y-5424230D01*
X74312092Y-5828744D01*
X74473242Y-6130236D01*
X74791260Y-6289135D01*
X76120395Y-4960000D01*
X74791260Y-3630865D01*
X74473242Y-3789764D01*
X74280041Y-4168632D01*
X74164466Y-4577913D01*
X74130958Y-5001876D01*
X73862422Y-5001876D01*
X73869042Y-4918124D01*
X73819194Y-4495770D01*
X73687908Y-4091256D01*
X73526758Y-3789764D01*
X73208740Y-3630865D01*
X71879605Y-4960000D01*
X71520395Y-4960000D01*
X70191260Y-3630865D01*
X69873242Y-3789764D01*
X69680041Y-4168632D01*
X69564466Y-4577913D01*
X69530958Y-5001876D01*
X69563340Y-5276244D01*
X69526922Y-5269000D01*
X69373078Y-5269000D01*
X69222191Y-5299013D01*
X69080058Y-5357887D01*
X68952141Y-5443358D01*
X68918966Y-5476533D01*
X68900711Y-5454289D01*
X68842696Y-5406678D01*
X68776508Y-5371299D01*
X68704689Y-5349513D01*
X68630000Y-5342157D01*
X68356000Y-5342157D01*
X68356000Y-4424854D01*
X68358448Y-4400000D01*
X68348678Y-4300807D01*
X68319745Y-4205425D01*
X68315701Y-4197859D01*
X68272759Y-4117521D01*
X68209527Y-4040473D01*
X68190220Y-4024628D01*
X67616852Y-3451260D01*
X70370865Y-3451260D01*
X71700000Y-4780395D01*
X73029135Y-3451260D01*
X74970865Y-3451260D01*
X76300000Y-4780395D01*
X77629135Y-3451260D01*
X77470236Y-3133242D01*
X77091368Y-2940041D01*
X76682087Y-2824466D01*
X76258124Y-2790958D01*
X75835770Y-2840806D01*
X75431256Y-2972092D01*
X75129764Y-3133242D01*
X74970865Y-3451260D01*
X73029135Y-3451260D01*
X72870236Y-3133242D01*
X72491368Y-2940041D01*
X72082087Y-2824466D01*
X71658124Y-2790958D01*
X71235770Y-2840806D01*
X70831256Y-2972092D01*
X70529764Y-3133242D01*
X70370865Y-3451260D01*
X67616852Y-3451260D01*
X67250377Y-3084786D01*
X67234528Y-3065474D01*
X67157480Y-3002242D01*
X67069576Y-2955256D01*
X66974194Y-2926323D01*
X66899855Y-2919001D01*
X66899847Y-2919001D01*
X66875001Y-2916554D01*
X66850155Y-2919001D01*
X61752739Y-2919001D01*
X61781000Y-2776922D01*
X61781000Y-2623078D01*
X61750987Y-2472191D01*
X61692113Y-2330058D01*
X61606642Y-2202141D01*
X61497859Y-2093358D01*
X61369942Y-2007887D01*
X61227809Y-1949013D01*
X61076922Y-1919000D01*
X60923078Y-1919000D01*
X60772191Y-1949013D01*
X60630058Y-2007887D01*
X60502141Y-2093358D01*
X60401499Y-2194000D01*
X60009592Y-2194000D01*
X59075376Y-1259785D01*
X59059527Y-1240473D01*
X58982479Y-1177241D01*
X58894575Y-1130255D01*
X58799193Y-1101322D01*
X58724854Y-1094000D01*
X58724846Y-1094000D01*
X58700000Y-1091553D01*
X58675154Y-1094000D01*
X43074845Y-1094000D01*
X43049999Y-1091553D01*
X43025153Y-1094000D01*
X43025146Y-1094000D01*
X42950807Y-1101322D01*
X42855425Y-1130255D01*
X42767521Y-1177241D01*
X42690473Y-1240473D01*
X42674624Y-1259785D01*
X42409781Y-1524628D01*
X42390474Y-1540473D01*
X42327242Y-1617521D01*
X42302127Y-1664508D01*
X42280255Y-1705426D01*
X42251322Y-1800808D01*
X42241553Y-1900000D01*
X42244001Y-1924856D01*
X42244001Y-1992157D01*
X42000000Y-1992157D01*
X41925311Y-1999513D01*
X41853492Y-2021299D01*
X41787304Y-2056678D01*
X41729289Y-2104289D01*
X41681678Y-2162304D01*
X41646299Y-2228492D01*
X41624513Y-2300311D01*
X41617157Y-2375000D01*
X41617157Y-3625000D01*
X41624513Y-3699689D01*
X41646299Y-3771508D01*
X41681678Y-3837696D01*
X41729289Y-3895711D01*
X41787304Y-3943322D01*
X41853492Y-3978701D01*
X41925311Y-4000487D01*
X42000000Y-4007843D01*
X43494000Y-4007843D01*
X43494000Y-4271491D01*
X43450000Y-4267157D01*
X41750000Y-4267157D01*
X41675311Y-4274513D01*
X41603492Y-4296299D01*
X41537304Y-4331678D01*
X41479289Y-4379289D01*
X41431678Y-4437304D01*
X41396299Y-4503492D01*
X41384011Y-4544000D01*
X41059592Y-4544000D01*
X40906000Y-4390409D01*
X40906000Y-4298501D01*
X41006642Y-4197859D01*
X41092113Y-4069942D01*
X41150987Y-3927809D01*
X41181000Y-3776922D01*
X41181000Y-3623078D01*
X41150987Y-3472191D01*
X41092113Y-3330058D01*
X41006642Y-3202141D01*
X40897859Y-3093358D01*
X40769942Y-3007887D01*
X40627809Y-2949013D01*
X40476922Y-2919000D01*
X40323078Y-2919000D01*
X40172191Y-2949013D01*
X40030058Y-3007887D01*
X39902141Y-3093358D01*
X39793358Y-3202141D01*
X39707887Y-3330058D01*
X39677223Y-3404088D01*
X39650987Y-3272191D01*
X39592113Y-3130058D01*
X39506642Y-3002141D01*
X39397859Y-2893358D01*
X39269942Y-2807887D01*
X39127809Y-2749013D01*
X38976922Y-2719000D01*
X38823078Y-2719000D01*
X38672191Y-2749013D01*
X38530058Y-2807887D01*
X38402141Y-2893358D01*
X38301499Y-2994000D01*
X38207252Y-2994000D01*
X38200487Y-2925311D01*
X38178701Y-2853492D01*
X38143322Y-2787304D01*
X38095711Y-2729289D01*
X38037696Y-2681678D01*
X37971508Y-2646299D01*
X37899689Y-2624513D01*
X37825000Y-2617157D01*
X36425000Y-2617157D01*
X36350311Y-2624513D01*
X36278492Y-2646299D01*
X36212304Y-2681678D01*
X36154289Y-2729289D01*
X36106678Y-2787304D01*
X36071299Y-2853492D01*
X36049513Y-2925311D01*
X36042157Y-3000000D01*
X36042157Y-4000000D01*
X36049513Y-4074689D01*
X36071299Y-4146508D01*
X36106678Y-4212696D01*
X36154289Y-4270711D01*
X36212304Y-4318322D01*
X36278492Y-4353701D01*
X36350311Y-4375487D01*
X36425000Y-4382843D01*
X37825000Y-4382843D01*
X37899689Y-4375487D01*
X37971508Y-4353701D01*
X38037696Y-4318322D01*
X38095711Y-4270711D01*
X38143322Y-4212696D01*
X38178701Y-4146508D01*
X38200487Y-4074689D01*
X38207252Y-4006000D01*
X38301499Y-4006000D01*
X38402141Y-4106642D01*
X38530058Y-4192113D01*
X38672191Y-4250987D01*
X38823078Y-4281000D01*
X38976922Y-4281000D01*
X39127809Y-4250987D01*
X39269942Y-4192113D01*
X39397859Y-4106642D01*
X39506642Y-3997859D01*
X39592113Y-3869942D01*
X39622777Y-3795912D01*
X39649013Y-3927809D01*
X39707887Y-4069942D01*
X39793358Y-4197859D01*
X39894000Y-4298501D01*
X39894000Y-4575153D01*
X39891553Y-4600000D01*
X39894000Y-4624846D01*
X39894000Y-4624853D01*
X39901322Y-4699192D01*
X39930255Y-4794574D01*
X39977241Y-4882479D01*
X40040473Y-4959527D01*
X40059785Y-4975376D01*
X40473451Y-5389042D01*
X40424482Y-5374188D01*
X40300000Y-5361928D01*
X39785750Y-5365000D01*
X39627000Y-5523750D01*
X39627000Y-6873000D01*
X40776250Y-6873000D01*
X40935000Y-6714250D01*
X40938072Y-6000000D01*
X40925812Y-5875518D01*
X40889502Y-5755820D01*
X40830537Y-5645506D01*
X40751185Y-5548815D01*
X40751047Y-5548702D01*
X40760694Y-5549652D01*
X40825146Y-5556000D01*
X40825153Y-5556000D01*
X40849999Y-5558447D01*
X40874845Y-5556000D01*
X41384011Y-5556000D01*
X41396299Y-5596508D01*
X41431678Y-5662696D01*
X41479289Y-5720711D01*
X41537304Y-5768322D01*
X41603492Y-5803701D01*
X41675311Y-5825487D01*
X41750000Y-5832843D01*
X43450000Y-5832843D01*
X43494001Y-5828509D01*
X43494001Y-6171491D01*
X43450000Y-6167157D01*
X41750000Y-6167157D01*
X41675311Y-6174513D01*
X41603492Y-6196299D01*
X41537304Y-6231678D01*
X41479289Y-6279289D01*
X41431678Y-6337304D01*
X41396299Y-6403492D01*
X41374513Y-6475311D01*
X41367157Y-6550000D01*
X41367157Y-7350000D01*
X41374513Y-7424689D01*
X41396299Y-7496508D01*
X41431678Y-7562696D01*
X41479289Y-7620711D01*
X41537304Y-7668322D01*
X41603492Y-7703701D01*
X41675311Y-7725487D01*
X41750000Y-7732843D01*
X42094001Y-7732843D01*
X42094001Y-8125144D01*
X42091553Y-8150000D01*
X42101322Y-8249192D01*
X42130255Y-8344574D01*
X42148811Y-8379289D01*
X42177242Y-8432479D01*
X42240474Y-8509527D01*
X42259780Y-8525371D01*
X42951565Y-9217157D01*
X41750000Y-9217157D01*
X41675311Y-9224513D01*
X41603492Y-9246299D01*
X41537304Y-9281678D01*
X41479289Y-9329289D01*
X41431678Y-9387304D01*
X41396299Y-9453492D01*
X41374513Y-9525311D01*
X41367157Y-9600000D01*
X41367157Y-10400000D01*
X41374513Y-10474689D01*
X41396299Y-10546508D01*
X41431678Y-10612696D01*
X41479289Y-10670711D01*
X41537304Y-10718322D01*
X41603492Y-10753701D01*
X41675311Y-10775487D01*
X41750000Y-10782843D01*
X42094000Y-10782843D01*
X42094001Y-11901498D01*
X42001499Y-11994000D01*
X40682843Y-11994000D01*
X40682843Y-10000000D01*
X40675487Y-9925311D01*
X40653701Y-9853492D01*
X40618322Y-9787304D01*
X40570711Y-9729289D01*
X40512696Y-9681678D01*
X40446508Y-9646299D01*
X40374689Y-9624513D01*
X40300000Y-9617157D01*
X38700000Y-9617157D01*
X38625311Y-9624513D01*
X38553492Y-9646299D01*
X38487304Y-9681678D01*
X38429289Y-9729289D01*
X38407645Y-9755663D01*
X38400987Y-9722191D01*
X38342113Y-9580058D01*
X38256642Y-9452141D01*
X38147859Y-9343358D01*
X38019942Y-9257887D01*
X37877809Y-9199013D01*
X37726922Y-9169000D01*
X37573078Y-9169000D01*
X37422191Y-9199013D01*
X37280058Y-9257887D01*
X37152141Y-9343358D01*
X37051499Y-9444000D01*
X35965264Y-9444000D01*
X35948322Y-9412304D01*
X35900711Y-9354289D01*
X35842696Y-9306678D01*
X35776508Y-9271299D01*
X35704689Y-9249513D01*
X35630000Y-9242157D01*
X34070000Y-9242157D01*
X33995311Y-9249513D01*
X33923492Y-9271299D01*
X33857304Y-9306678D01*
X33799289Y-9354289D01*
X33751678Y-9412304D01*
X33716299Y-9478492D01*
X33694513Y-9550311D01*
X33687157Y-9625000D01*
X33687157Y-10275000D01*
X33694513Y-10349689D01*
X33716299Y-10421508D01*
X33751678Y-10487696D01*
X33799289Y-10545711D01*
X33857304Y-10593322D01*
X33923492Y-10628701D01*
X33995311Y-10650487D01*
X34070000Y-10657843D01*
X35630000Y-10657843D01*
X35704689Y-10650487D01*
X35776508Y-10628701D01*
X35842696Y-10593322D01*
X35900711Y-10545711D01*
X35948322Y-10487696D01*
X35965264Y-10456000D01*
X37051499Y-10456000D01*
X37144001Y-10548502D01*
X37144001Y-10625144D01*
X37141553Y-10650000D01*
X37151322Y-10749192D01*
X37180255Y-10844574D01*
X37196540Y-10875040D01*
X37227242Y-10932479D01*
X37290474Y-11009527D01*
X37309780Y-11025371D01*
X37624628Y-11340220D01*
X37640473Y-11359527D01*
X37717521Y-11422759D01*
X37805425Y-11469745D01*
X37900807Y-11498678D01*
X38000000Y-11508448D01*
X38024854Y-11506000D01*
X38317157Y-11506000D01*
X38317157Y-11994000D01*
X34009592Y-11994000D01*
X32673434Y-10657843D01*
X32930000Y-10657843D01*
X33004689Y-10650487D01*
X33076508Y-10628701D01*
X33142696Y-10593322D01*
X33200711Y-10545711D01*
X33248322Y-10487696D01*
X33283701Y-10421508D01*
X33305487Y-10349689D01*
X33312843Y-10275000D01*
X33312843Y-9832272D01*
X33381185Y-9776185D01*
X33460537Y-9679494D01*
X33519502Y-9569180D01*
X33555812Y-9449482D01*
X33568072Y-9325000D01*
X33565000Y-9285750D01*
X33406250Y-9127000D01*
X32277000Y-9127000D01*
X32277000Y-9147000D01*
X32023000Y-9147000D01*
X32023000Y-9127000D01*
X30893750Y-9127000D01*
X30735000Y-9285750D01*
X30731928Y-9325000D01*
X30744188Y-9449482D01*
X30745257Y-9453005D01*
X30663489Y-9477809D01*
X30655425Y-9480255D01*
X30567521Y-9527241D01*
X30490473Y-9590473D01*
X30474628Y-9609780D01*
X29682843Y-10401566D01*
X29682843Y-10000000D01*
X29675487Y-9925311D01*
X29653701Y-9853492D01*
X29618322Y-9787304D01*
X29570711Y-9729289D01*
X29512696Y-9681678D01*
X29446508Y-9646299D01*
X29374689Y-9624513D01*
X29300000Y-9617157D01*
X27700000Y-9617157D01*
X27625311Y-9624513D01*
X27553492Y-9646299D01*
X27487304Y-9681678D01*
X27429289Y-9729289D01*
X27381678Y-9787304D01*
X27346299Y-9853492D01*
X27324513Y-9925311D01*
X27317157Y-10000000D01*
X27317157Y-10494000D01*
X27024854Y-10494000D01*
X27000000Y-10491552D01*
X26975146Y-10494000D01*
X26900807Y-10501322D01*
X26805425Y-10530255D01*
X26717521Y-10577241D01*
X26640473Y-10640473D01*
X26624630Y-10659778D01*
X25659783Y-11624626D01*
X25659778Y-11624630D01*
X25290409Y-11994000D01*
X21147843Y-11994000D01*
X21147843Y-9515000D01*
X21140487Y-9440311D01*
X21118701Y-9368492D01*
X21083322Y-9302304D01*
X21035711Y-9244289D01*
X20977696Y-9196678D01*
X20911508Y-9161299D01*
X20839689Y-9139513D01*
X20765000Y-9132157D01*
X18735000Y-9132157D01*
X18660311Y-9139513D01*
X18588492Y-9161299D01*
X18522304Y-9196678D01*
X18464289Y-9244289D01*
X18416678Y-9302304D01*
X18381299Y-9368492D01*
X18359513Y-9440311D01*
X18352157Y-9515000D01*
X12127000Y-9515000D01*
X12127000Y-7312374D01*
X14175000Y-7312374D01*
X14175000Y-7687626D01*
X14248209Y-8055668D01*
X14391811Y-8402356D01*
X14600290Y-8714366D01*
X14865634Y-8979710D01*
X15177644Y-9188189D01*
X15524332Y-9331791D01*
X15892374Y-9405000D01*
X16267626Y-9405000D01*
X16635668Y-9331791D01*
X16982356Y-9188189D01*
X17294366Y-8979710D01*
X17559710Y-8714366D01*
X17768189Y-8402356D01*
X17911791Y-8055668D01*
X17985000Y-7687626D01*
X17985000Y-7312374D01*
X17911791Y-6944332D01*
X17768189Y-6597644D01*
X17559710Y-6285634D01*
X17294366Y-6020290D01*
X16982356Y-5811811D01*
X16750018Y-5715574D01*
X16999592Y-5466000D01*
X18352157Y-5466000D01*
X18352157Y-7985000D01*
X18359513Y-8059689D01*
X18381299Y-8131508D01*
X18416678Y-8197696D01*
X18464289Y-8255711D01*
X18522304Y-8303322D01*
X18588492Y-8338701D01*
X18660311Y-8360487D01*
X18735000Y-8367843D01*
X20765000Y-8367843D01*
X20839689Y-8360487D01*
X20911508Y-8338701D01*
X20977696Y-8303322D01*
X21035711Y-8255711D01*
X21083322Y-8197696D01*
X21118701Y-8131508D01*
X21140487Y-8059689D01*
X21147843Y-7985000D01*
X21147843Y-5466000D01*
X21858329Y-5466000D01*
X21868209Y-5515668D01*
X22011811Y-5862356D01*
X22220290Y-6174366D01*
X22485634Y-6439710D01*
X22797644Y-6648189D01*
X23144332Y-6791791D01*
X23194001Y-6801671D01*
X23194000Y-8198329D01*
X23144332Y-8208209D01*
X22797644Y-8351811D01*
X22485634Y-8560290D01*
X22220290Y-8825634D01*
X22011811Y-9137644D01*
X21868209Y-9484332D01*
X21795000Y-9852374D01*
X21795000Y-10227626D01*
X21868209Y-10595668D01*
X22011811Y-10942356D01*
X22220290Y-11254366D01*
X22485634Y-11519710D01*
X22797644Y-11728189D01*
X23144332Y-11871791D01*
X23512374Y-11945000D01*
X23887626Y-11945000D01*
X24255668Y-11871791D01*
X24602356Y-11728189D01*
X24914366Y-11519710D01*
X25179710Y-11254366D01*
X25388189Y-10942356D01*
X25531791Y-10595668D01*
X25605000Y-10227626D01*
X25605000Y-9852374D01*
X25531791Y-9484332D01*
X25388189Y-9137644D01*
X25179710Y-8825634D01*
X25029076Y-8675000D01*
X30731928Y-8675000D01*
X30735000Y-8714250D01*
X30893750Y-8873000D01*
X32023000Y-8873000D01*
X32023000Y-8853000D01*
X32277000Y-8853000D01*
X32277000Y-8873000D01*
X33406250Y-8873000D01*
X33565000Y-8714250D01*
X33568072Y-8675000D01*
X33555812Y-8550518D01*
X33519502Y-8430820D01*
X33460537Y-8320506D01*
X33381185Y-8223815D01*
X33312843Y-8167728D01*
X33312843Y-7725000D01*
X33687157Y-7725000D01*
X33687157Y-8375000D01*
X33694513Y-8449689D01*
X33716299Y-8521508D01*
X33751678Y-8587696D01*
X33799289Y-8645711D01*
X33857304Y-8693322D01*
X33923492Y-8728701D01*
X33995311Y-8750487D01*
X34070000Y-8757843D01*
X35630000Y-8757843D01*
X35704689Y-8750487D01*
X35776508Y-8728701D01*
X35842696Y-8693322D01*
X35900711Y-8645711D01*
X35948322Y-8587696D01*
X35983701Y-8521508D01*
X36005487Y-8449689D01*
X36012843Y-8375000D01*
X36012843Y-7725000D01*
X36005487Y-7650311D01*
X35983701Y-7578492D01*
X35948322Y-7512304D01*
X35900711Y-7454289D01*
X35842696Y-7406678D01*
X35776508Y-7371299D01*
X35704689Y-7349513D01*
X35630000Y-7342157D01*
X35356000Y-7342157D01*
X35356000Y-6882843D01*
X35600000Y-6882843D01*
X35674689Y-6875487D01*
X35746508Y-6853701D01*
X35812696Y-6818322D01*
X35838715Y-6796969D01*
X35869463Y-6854494D01*
X35948815Y-6951185D01*
X36045506Y-7030537D01*
X36155820Y-7089502D01*
X36275518Y-7125812D01*
X36400000Y-7138072D01*
X36764250Y-7135000D01*
X36923000Y-6976250D01*
X36923000Y-6127000D01*
X36903000Y-6127000D01*
X36903000Y-5873000D01*
X36923000Y-5873000D01*
X36923000Y-5023750D01*
X37177000Y-5023750D01*
X37177000Y-5873000D01*
X37197000Y-5873000D01*
X37197000Y-6127000D01*
X37177000Y-6127000D01*
X37177000Y-6976250D01*
X37335750Y-7135000D01*
X37700000Y-7138072D01*
X37824482Y-7125812D01*
X37944180Y-7089502D01*
X38054494Y-7030537D01*
X38065000Y-7021915D01*
X38065000Y-7127002D01*
X38223748Y-7127002D01*
X38065000Y-7285750D01*
X38061928Y-8000000D01*
X38074188Y-8124482D01*
X38110498Y-8244180D01*
X38169463Y-8354494D01*
X38248815Y-8451185D01*
X38345506Y-8530537D01*
X38455820Y-8589502D01*
X38575518Y-8625812D01*
X38700000Y-8638072D01*
X39214250Y-8635000D01*
X39373000Y-8476250D01*
X39373000Y-7127000D01*
X39627000Y-7127000D01*
X39627000Y-8476250D01*
X39785750Y-8635000D01*
X40300000Y-8638072D01*
X40424482Y-8625812D01*
X40544180Y-8589502D01*
X40654494Y-8530537D01*
X40751185Y-8451185D01*
X40830537Y-8354494D01*
X40889502Y-8244180D01*
X40925812Y-8124482D01*
X40938072Y-8000000D01*
X40935000Y-7285750D01*
X40776250Y-7127000D01*
X39627000Y-7127000D01*
X39373000Y-7127000D01*
X39353000Y-7127000D01*
X39353000Y-6873000D01*
X39373000Y-6873000D01*
X39373000Y-5523750D01*
X39214250Y-5365000D01*
X38700000Y-5361928D01*
X38575518Y-5374188D01*
X38455820Y-5410498D01*
X38345506Y-5469463D01*
X38335845Y-5477391D01*
X38325812Y-5375518D01*
X38289502Y-5255820D01*
X38230537Y-5145506D01*
X38151185Y-5048815D01*
X38054494Y-4969463D01*
X37944180Y-4910498D01*
X37824482Y-4874188D01*
X37700000Y-4861928D01*
X37335750Y-4865000D01*
X37177000Y-5023750D01*
X36923000Y-5023750D01*
X36764250Y-4865000D01*
X36400000Y-4861928D01*
X36275518Y-4874188D01*
X36155820Y-4910498D01*
X36045506Y-4969463D01*
X35948815Y-5048815D01*
X35869463Y-5145506D01*
X35838715Y-5203031D01*
X35812696Y-5181678D01*
X35746508Y-5146299D01*
X35674689Y-5124513D01*
X35600000Y-5117157D01*
X34300000Y-5117157D01*
X34225311Y-5124513D01*
X34153492Y-5146299D01*
X34087304Y-5181678D01*
X34029289Y-5229289D01*
X33981678Y-5287304D01*
X33946299Y-5353492D01*
X33924513Y-5425311D01*
X33917157Y-5500000D01*
X33917157Y-6500000D01*
X33924513Y-6574689D01*
X33946299Y-6646508D01*
X33981678Y-6712696D01*
X34029289Y-6770711D01*
X34087304Y-6818322D01*
X34153492Y-6853701D01*
X34225311Y-6875487D01*
X34300000Y-6882843D01*
X34344001Y-6882843D01*
X34344000Y-7342157D01*
X34070000Y-7342157D01*
X33995311Y-7349513D01*
X33923492Y-7371299D01*
X33857304Y-7406678D01*
X33799289Y-7454289D01*
X33751678Y-7512304D01*
X33716299Y-7578492D01*
X33694513Y-7650311D01*
X33687157Y-7725000D01*
X33312843Y-7725000D01*
X33305487Y-7650311D01*
X33283701Y-7578492D01*
X33248322Y-7512304D01*
X33200711Y-7454289D01*
X33142696Y-7406678D01*
X33076508Y-7371299D01*
X33004689Y-7349513D01*
X32930000Y-7342157D01*
X32656000Y-7342157D01*
X32656000Y-6548627D01*
X32712696Y-6518322D01*
X32770711Y-6470711D01*
X32818322Y-6412696D01*
X32853701Y-6346508D01*
X32875487Y-6274689D01*
X32882843Y-6200000D01*
X32882843Y-4900000D01*
X32875487Y-4825311D01*
X32853701Y-4753492D01*
X32818322Y-4687304D01*
X32770711Y-4629289D01*
X32712696Y-4581678D01*
X32646508Y-4546299D01*
X32574689Y-4524513D01*
X32500000Y-4517157D01*
X31500000Y-4517157D01*
X31425311Y-4524513D01*
X31353492Y-4546299D01*
X31287304Y-4581678D01*
X31229289Y-4629289D01*
X31181678Y-4687304D01*
X31146299Y-4753492D01*
X31124513Y-4825311D01*
X31117157Y-4900000D01*
X31117157Y-6200000D01*
X31124513Y-6274689D01*
X31146299Y-6346508D01*
X31181678Y-6412696D01*
X31229289Y-6470711D01*
X31287304Y-6518322D01*
X31353492Y-6553701D01*
X31425311Y-6575487D01*
X31500000Y-6582843D01*
X31644001Y-6582843D01*
X31644000Y-7342157D01*
X31370000Y-7342157D01*
X31295311Y-7349513D01*
X31223492Y-7371299D01*
X31157304Y-7406678D01*
X31099289Y-7454289D01*
X31051678Y-7512304D01*
X31016299Y-7578492D01*
X30994513Y-7650311D01*
X30987157Y-7725000D01*
X30987157Y-8167728D01*
X30918815Y-8223815D01*
X30839463Y-8320506D01*
X30780498Y-8430820D01*
X30744188Y-8550518D01*
X30731928Y-8675000D01*
X25029076Y-8675000D01*
X24914366Y-8560290D01*
X24602356Y-8351811D01*
X24255668Y-8208209D01*
X24206000Y-8198329D01*
X24206000Y-8000000D01*
X27061928Y-8000000D01*
X27074188Y-8124482D01*
X27110498Y-8244180D01*
X27169463Y-8354494D01*
X27248815Y-8451185D01*
X27345506Y-8530537D01*
X27455820Y-8589502D01*
X27575518Y-8625812D01*
X27700000Y-8638072D01*
X28214250Y-8635000D01*
X28373000Y-8476250D01*
X28373000Y-7127000D01*
X28627000Y-7127000D01*
X28627000Y-8476250D01*
X28785750Y-8635000D01*
X29300000Y-8638072D01*
X29424482Y-8625812D01*
X29544180Y-8589502D01*
X29654494Y-8530537D01*
X29751185Y-8451185D01*
X29830537Y-8354494D01*
X29889502Y-8244180D01*
X29925812Y-8124482D01*
X29938072Y-8000000D01*
X29935000Y-7285750D01*
X29776250Y-7127000D01*
X28627000Y-7127000D01*
X28373000Y-7127000D01*
X27223750Y-7127000D01*
X27065000Y-7285750D01*
X27061928Y-8000000D01*
X24206000Y-8000000D01*
X24206000Y-6801671D01*
X24255668Y-6791791D01*
X24602356Y-6648189D01*
X24914366Y-6439710D01*
X25179710Y-6174366D01*
X25296217Y-6000000D01*
X27061928Y-6000000D01*
X27065000Y-6714250D01*
X27223750Y-6873000D01*
X28373000Y-6873000D01*
X28373000Y-5523750D01*
X28627000Y-5523750D01*
X28627000Y-6873000D01*
X29776250Y-6873000D01*
X29935000Y-6714250D01*
X29938072Y-6000000D01*
X29925812Y-5875518D01*
X29889502Y-5755820D01*
X29830537Y-5645506D01*
X29751185Y-5548815D01*
X29654494Y-5469463D01*
X29544180Y-5410498D01*
X29424482Y-5374188D01*
X29300000Y-5361928D01*
X28785750Y-5365000D01*
X28627000Y-5523750D01*
X28373000Y-5523750D01*
X28214250Y-5365000D01*
X27700000Y-5361928D01*
X27575518Y-5374188D01*
X27455820Y-5410498D01*
X27345506Y-5469463D01*
X27248815Y-5548815D01*
X27169463Y-5645506D01*
X27110498Y-5755820D01*
X27074188Y-5875518D01*
X27061928Y-6000000D01*
X25296217Y-6000000D01*
X25388189Y-5862356D01*
X25531791Y-5515668D01*
X25605000Y-5147626D01*
X25605000Y-4772374D01*
X25531791Y-4404332D01*
X25388189Y-4057644D01*
X25179710Y-3745634D01*
X24914366Y-3480290D01*
X24602356Y-3271811D01*
X24255668Y-3128209D01*
X23887626Y-3055000D01*
X23512374Y-3055000D01*
X23144332Y-3128209D01*
X22797644Y-3271811D01*
X22485634Y-3480290D01*
X22220290Y-3745634D01*
X22011811Y-4057644D01*
X21868209Y-4404332D01*
X21858329Y-4454000D01*
X19734846Y-4454000D01*
X19710000Y-4451553D01*
X19685154Y-4454000D01*
X16814854Y-4454000D01*
X16790000Y-4451552D01*
X16765146Y-4454000D01*
X16690807Y-4461322D01*
X16595425Y-4490255D01*
X16507521Y-4537241D01*
X16430473Y-4600473D01*
X16414628Y-4619780D01*
X15739780Y-5294629D01*
X15720474Y-5310473D01*
X15657242Y-5387521D01*
X15637043Y-5425311D01*
X15610255Y-5475426D01*
X15581322Y-5570808D01*
X15572676Y-5658593D01*
X15524332Y-5668209D01*
X15177644Y-5811811D01*
X14865634Y-6020290D01*
X14600290Y-6285634D01*
X14391811Y-6597644D01*
X14248209Y-6944332D01*
X14175000Y-7312374D01*
X12127000Y-7312374D01*
X12127000Y-2800000D01*
X31117157Y-2800000D01*
X31117157Y-4100000D01*
X31124513Y-4174689D01*
X31146299Y-4246508D01*
X31181678Y-4312696D01*
X31229289Y-4370711D01*
X31287304Y-4418322D01*
X31353492Y-4453701D01*
X31425311Y-4475487D01*
X31500000Y-4482843D01*
X32500000Y-4482843D01*
X32574689Y-4475487D01*
X32646508Y-4453701D01*
X32712696Y-4418322D01*
X32770711Y-4370711D01*
X32818322Y-4312696D01*
X32853701Y-4246508D01*
X32875487Y-4174689D01*
X32882843Y-4100000D01*
X32882843Y-3956000D01*
X33792157Y-3956000D01*
X33792157Y-4000000D01*
X33799513Y-4074689D01*
X33821299Y-4146508D01*
X33856678Y-4212696D01*
X33904289Y-4270711D01*
X33962304Y-4318322D01*
X34028492Y-4353701D01*
X34100311Y-4375487D01*
X34175000Y-4382843D01*
X35575000Y-4382843D01*
X35649689Y-4375487D01*
X35721508Y-4353701D01*
X35787696Y-4318322D01*
X35845711Y-4270711D01*
X35893322Y-4212696D01*
X35928701Y-4146508D01*
X35950487Y-4074689D01*
X35957843Y-4000000D01*
X35957843Y-3000000D01*
X35950487Y-2925311D01*
X35928701Y-2853492D01*
X35893322Y-2787304D01*
X35845711Y-2729289D01*
X35787696Y-2681678D01*
X35721508Y-2646299D01*
X35649689Y-2624513D01*
X35575000Y-2617157D01*
X34175000Y-2617157D01*
X34100311Y-2624513D01*
X34028492Y-2646299D01*
X33962304Y-2681678D01*
X33904289Y-2729289D01*
X33856678Y-2787304D01*
X33821299Y-2853492D01*
X33799513Y-2925311D01*
X33797672Y-2944000D01*
X32882843Y-2944000D01*
X32882843Y-2800000D01*
X32875487Y-2725311D01*
X32853701Y-2653492D01*
X32818322Y-2587304D01*
X32770711Y-2529289D01*
X32712696Y-2481678D01*
X32646508Y-2446299D01*
X32574689Y-2424513D01*
X32500000Y-2417157D01*
X31500000Y-2417157D01*
X31425311Y-2424513D01*
X31353492Y-2446299D01*
X31287304Y-2481678D01*
X31229289Y-2529289D01*
X31181678Y-2587304D01*
X31146299Y-2653492D01*
X31124513Y-2725311D01*
X31117157Y-2800000D01*
X12127000Y-2800000D01*
X12127000Y-406000D01*
X87873000Y-406000D01*
X87873000Y-14594000D01*
G37*
X87873000Y-14594000D02*
X12127000Y-14594000D01*
X12127000Y-9515000D01*
X18352157Y-9515000D01*
X18352157Y-12165000D01*
X18359513Y-12239689D01*
X18381299Y-12311508D01*
X18416678Y-12377696D01*
X18464289Y-12435711D01*
X18522304Y-12483322D01*
X18588492Y-12518701D01*
X18660311Y-12540487D01*
X18735000Y-12547843D01*
X19339851Y-12547843D01*
X19390474Y-12609527D01*
X19409781Y-12625372D01*
X19624624Y-12840215D01*
X19640473Y-12859527D01*
X19717521Y-12922759D01*
X19805425Y-12969745D01*
X19878607Y-12991944D01*
X19900806Y-12998678D01*
X19910694Y-12999652D01*
X19975146Y-13006000D01*
X19975153Y-13006000D01*
X19999999Y-13008447D01*
X20024845Y-13006000D01*
X25475154Y-13006000D01*
X25500000Y-13008447D01*
X25524846Y-13006000D01*
X25524854Y-13006000D01*
X25599193Y-12998678D01*
X25694575Y-12969745D01*
X25782479Y-12922759D01*
X25859527Y-12859527D01*
X25875376Y-12840215D01*
X26375370Y-12340222D01*
X26375374Y-12340217D01*
X27209592Y-11506000D01*
X27317157Y-11506000D01*
X27317157Y-12000000D01*
X27324513Y-12074689D01*
X27346299Y-12146508D01*
X27381678Y-12212696D01*
X27429289Y-12270711D01*
X27487304Y-12318322D01*
X27553492Y-12353701D01*
X27625311Y-12375487D01*
X27700000Y-12382843D01*
X29300000Y-12382843D01*
X29374689Y-12375487D01*
X29446508Y-12353701D01*
X29512696Y-12318322D01*
X29570711Y-12270711D01*
X29618322Y-12212696D01*
X29653701Y-12146508D01*
X29675487Y-12074689D01*
X29682843Y-12000000D01*
X29682843Y-11506000D01*
X29775154Y-11506000D01*
X29800000Y-11508447D01*
X29824846Y-11506000D01*
X29824854Y-11506000D01*
X29899193Y-11498678D01*
X29994575Y-11469745D01*
X30082479Y-11422759D01*
X30159527Y-11359527D01*
X30175376Y-11340215D01*
X31043394Y-10472198D01*
X31051678Y-10487696D01*
X31099289Y-10545711D01*
X31157304Y-10593322D01*
X31223492Y-10628701D01*
X31295311Y-10650487D01*
X31370000Y-10657843D01*
X31644000Y-10657843D01*
X31644000Y-10825153D01*
X31641553Y-10850000D01*
X31644000Y-10874846D01*
X31644000Y-10874853D01*
X31651322Y-10949192D01*
X31680255Y-11044574D01*
X31727241Y-11132479D01*
X31790473Y-11209527D01*
X31809785Y-11225376D01*
X33424628Y-12840220D01*
X33440473Y-12859527D01*
X33517521Y-12922759D01*
X33605425Y-12969745D01*
X33678607Y-12991944D01*
X33700806Y-12998678D01*
X33710694Y-12999652D01*
X33775146Y-13006000D01*
X33775153Y-13006000D01*
X33799999Y-13008447D01*
X33824845Y-13006000D01*
X42001499Y-13006000D01*
X42102141Y-13106642D01*
X42230058Y-13192113D01*
X42372191Y-13250987D01*
X42523078Y-13281000D01*
X42676922Y-13281000D01*
X42827809Y-13250987D01*
X42969942Y-13192113D01*
X43097859Y-13106642D01*
X43206642Y-12997859D01*
X43292113Y-12869942D01*
X43350987Y-12727809D01*
X43381000Y-12576922D01*
X43381000Y-12423078D01*
X43350987Y-12272191D01*
X43292113Y-12130058D01*
X43206642Y-12002141D01*
X43106000Y-11901499D01*
X43106000Y-11350000D01*
X43911928Y-11350000D01*
X43924188Y-11474482D01*
X43960498Y-11594180D01*
X44019463Y-11704494D01*
X44098815Y-11801185D01*
X44195506Y-11880537D01*
X44305820Y-11939502D01*
X44425518Y-11975812D01*
X44550000Y-11988072D01*
X45114250Y-11985000D01*
X45273000Y-11826250D01*
X45273000Y-11077000D01*
X45527000Y-11077000D01*
X45527000Y-11826250D01*
X45685750Y-11985000D01*
X46250000Y-11988072D01*
X46374482Y-11975812D01*
X46494180Y-11939502D01*
X46604494Y-11880537D01*
X46701185Y-11801185D01*
X46780537Y-11704494D01*
X46819290Y-11631993D01*
X50492612Y-11631993D01*
X50558137Y-11870860D01*
X50805116Y-11986760D01*
X51069960Y-12052250D01*
X51342492Y-12064812D01*
X51612238Y-12023965D01*
X51868832Y-11931277D01*
X51981863Y-11870860D01*
X52047388Y-11631993D01*
X51270000Y-10854605D01*
X50492612Y-11631993D01*
X46819290Y-11631993D01*
X46839502Y-11594180D01*
X46875812Y-11474482D01*
X46888072Y-11350000D01*
X46885000Y-11235750D01*
X46726250Y-11077000D01*
X45527000Y-11077000D01*
X45273000Y-11077000D01*
X44073750Y-11077000D01*
X43915000Y-11235750D01*
X43911928Y-11350000D01*
X43106000Y-11350000D01*
X43106000Y-10782843D01*
X43450000Y-10782843D01*
X43524689Y-10775487D01*
X43596508Y-10753701D01*
X43662696Y-10718322D01*
X43720711Y-10670711D01*
X43768322Y-10612696D01*
X43801834Y-10550000D01*
X43911928Y-10550000D01*
X43915000Y-10664250D01*
X44073750Y-10823000D01*
X45273000Y-10823000D01*
X45273000Y-10073750D01*
X45527000Y-10073750D01*
X45527000Y-10823000D01*
X46726250Y-10823000D01*
X46801758Y-10747492D01*
X49880188Y-10747492D01*
X49921035Y-11017238D01*
X50013723Y-11273832D01*
X50074140Y-11386863D01*
X50313007Y-11452388D01*
X51090395Y-10675000D01*
X51449605Y-10675000D01*
X52226993Y-11452388D01*
X52465860Y-11386863D01*
X52581760Y-11139884D01*
X52647250Y-10875040D01*
X52647340Y-10873078D01*
X57719000Y-10873078D01*
X57719000Y-11026922D01*
X57749013Y-11177809D01*
X57807887Y-11319942D01*
X57893358Y-11447859D01*
X58002141Y-11556642D01*
X58130058Y-11642113D01*
X58272191Y-11700987D01*
X58423078Y-11731000D01*
X58576922Y-11731000D01*
X58727809Y-11700987D01*
X58869942Y-11642113D01*
X58951907Y-11587346D01*
X58979289Y-11620711D01*
X59037304Y-11668322D01*
X59103492Y-11703701D01*
X59175311Y-11725487D01*
X59250000Y-11732843D01*
X60950000Y-11732843D01*
X61024689Y-11725487D01*
X61096508Y-11703701D01*
X61162696Y-11668322D01*
X61220711Y-11620711D01*
X61268322Y-11562696D01*
X61303701Y-11496508D01*
X61325487Y-11424689D01*
X61332843Y-11350000D01*
X61332843Y-10550000D01*
X61325487Y-10475311D01*
X61303701Y-10403492D01*
X61268322Y-10337304D01*
X61220711Y-10279289D01*
X61162696Y-10231678D01*
X61096508Y-10196299D01*
X61024689Y-10174513D01*
X60950000Y-10167157D01*
X59250000Y-10167157D01*
X59175311Y-10174513D01*
X59103492Y-10196299D01*
X59037304Y-10231678D01*
X58979289Y-10279289D01*
X58951907Y-10312654D01*
X58869942Y-10257887D01*
X58727809Y-10199013D01*
X58576922Y-10169000D01*
X58423078Y-10169000D01*
X58272191Y-10199013D01*
X58130058Y-10257887D01*
X58002141Y-10343358D01*
X57893358Y-10452141D01*
X57807887Y-10580058D01*
X57749013Y-10722191D01*
X57719000Y-10873078D01*
X52647340Y-10873078D01*
X52659812Y-10602508D01*
X52618965Y-10332762D01*
X52526277Y-10076168D01*
X52465860Y-9963137D01*
X52226993Y-9897612D01*
X51449605Y-10675000D01*
X51090395Y-10675000D01*
X50313007Y-9897612D01*
X50074140Y-9963137D01*
X49958240Y-10210116D01*
X49892750Y-10474960D01*
X49880188Y-10747492D01*
X46801758Y-10747492D01*
X46885000Y-10664250D01*
X46888072Y-10550000D01*
X46875812Y-10425518D01*
X46839502Y-10305820D01*
X46780537Y-10195506D01*
X46701185Y-10098815D01*
X46604494Y-10019463D01*
X46494180Y-9960498D01*
X46374482Y-9924188D01*
X46250000Y-9911928D01*
X45685750Y-9915000D01*
X45527000Y-10073750D01*
X45273000Y-10073750D01*
X45114250Y-9915000D01*
X44550000Y-9911928D01*
X44425518Y-9924188D01*
X44305820Y-9960498D01*
X44195506Y-10019463D01*
X44098815Y-10098815D01*
X44019463Y-10195506D01*
X43960498Y-10305820D01*
X43924188Y-10425518D01*
X43911928Y-10550000D01*
X43801834Y-10550000D01*
X43803701Y-10546508D01*
X43825487Y-10474689D01*
X43832843Y-10400000D01*
X43832843Y-9600000D01*
X43828510Y-9556000D01*
X44184011Y-9556000D01*
X44196299Y-9596508D01*
X44231678Y-9662696D01*
X44279289Y-9720711D01*
X44337304Y-9768322D01*
X44403492Y-9803701D01*
X44475311Y-9825487D01*
X44550000Y-9832843D01*
X46250000Y-9832843D01*
X46324689Y-9825487D01*
X46396508Y-9803701D01*
X46462696Y-9768322D01*
X46520711Y-9720711D01*
X46568322Y-9662696D01*
X46603701Y-9596508D01*
X46625487Y-9524689D01*
X46632843Y-9450000D01*
X46632843Y-9293606D01*
X47599000Y-9293606D01*
X47599000Y-9516394D01*
X47642464Y-9734900D01*
X47727721Y-9940729D01*
X47851495Y-10125970D01*
X48009030Y-10283505D01*
X48194271Y-10407279D01*
X48400100Y-10492536D01*
X48618606Y-10536000D01*
X48841394Y-10536000D01*
X49059900Y-10492536D01*
X49265729Y-10407279D01*
X49450970Y-10283505D01*
X49608505Y-10125970D01*
X49732279Y-9940729D01*
X49817536Y-9734900D01*
X49820896Y-9718007D01*
X50492612Y-9718007D01*
X51270000Y-10495395D01*
X51895643Y-9869752D01*
X54079853Y-9869752D01*
X54169579Y-10129042D01*
X54450671Y-10264935D01*
X54752873Y-10343379D01*
X55064573Y-10361359D01*
X55373791Y-10318184D01*
X55668644Y-10215513D01*
X55830421Y-10129042D01*
X55920147Y-9869752D01*
X55000000Y-8949605D01*
X54079853Y-9869752D01*
X51895643Y-9869752D01*
X52047388Y-9718007D01*
X51981863Y-9479140D01*
X51734884Y-9363240D01*
X51470040Y-9297750D01*
X51197508Y-9285188D01*
X50927762Y-9326035D01*
X50671168Y-9418723D01*
X50558137Y-9479140D01*
X50492612Y-9718007D01*
X49820896Y-9718007D01*
X49861000Y-9516394D01*
X49861000Y-9293606D01*
X49817536Y-9075100D01*
X49732279Y-8869271D01*
X49608505Y-8684030D01*
X49450970Y-8526495D01*
X49265729Y-8402721D01*
X49059900Y-8317464D01*
X48841394Y-8274000D01*
X48618606Y-8274000D01*
X48400100Y-8317464D01*
X48194271Y-8402721D01*
X48009030Y-8526495D01*
X47851495Y-8684030D01*
X47727721Y-8869271D01*
X47642464Y-9075100D01*
X47599000Y-9293606D01*
X46632843Y-9293606D01*
X46632843Y-8650000D01*
X46625487Y-8575311D01*
X46603701Y-8503492D01*
X46568322Y-8437304D01*
X46520711Y-8379289D01*
X46462696Y-8331678D01*
X46396508Y-8296299D01*
X46324689Y-8274513D01*
X46250000Y-8267157D01*
X44550000Y-8267157D01*
X44475311Y-8274513D01*
X44403492Y-8296299D01*
X44337304Y-8331678D01*
X44279289Y-8379289D01*
X44231678Y-8437304D01*
X44196299Y-8503492D01*
X44184011Y-8544000D01*
X43709592Y-8544000D01*
X43106000Y-7940409D01*
X43106000Y-7732843D01*
X43450000Y-7732843D01*
X43524689Y-7725487D01*
X43596508Y-7703701D01*
X43662696Y-7668322D01*
X43720711Y-7620711D01*
X43768322Y-7562696D01*
X43803701Y-7496508D01*
X43825204Y-7425621D01*
X43844575Y-7419745D01*
X43932479Y-7372759D01*
X44009527Y-7309527D01*
X44025376Y-7290215D01*
X44321372Y-6994220D01*
X44425518Y-7025812D01*
X44550000Y-7038072D01*
X45114250Y-7035000D01*
X45273000Y-6876250D01*
X45273000Y-6127000D01*
X45527000Y-6127000D01*
X45527000Y-6876250D01*
X45685750Y-7035000D01*
X46250000Y-7038072D01*
X46374482Y-7025812D01*
X46494180Y-6989502D01*
X46604494Y-6930537D01*
X46701185Y-6851185D01*
X46780537Y-6754494D01*
X46781011Y-6753606D01*
X47599000Y-6753606D01*
X47599000Y-6976394D01*
X47642464Y-7194900D01*
X47727721Y-7400729D01*
X47851495Y-7585970D01*
X48009030Y-7743505D01*
X48194271Y-7867279D01*
X48400100Y-7952536D01*
X48618606Y-7996000D01*
X48841394Y-7996000D01*
X49059900Y-7952536D01*
X49265729Y-7867279D01*
X49450970Y-7743505D01*
X49608505Y-7585970D01*
X49732279Y-7400729D01*
X49817536Y-7194900D01*
X49861000Y-6976394D01*
X49861000Y-6753606D01*
X49817536Y-6535100D01*
X49732279Y-6329271D01*
X49608505Y-6144030D01*
X49450970Y-5986495D01*
X49265729Y-5862721D01*
X49059900Y-5777464D01*
X48841394Y-5734000D01*
X48618606Y-5734000D01*
X48400100Y-5777464D01*
X48194271Y-5862721D01*
X48009030Y-5986495D01*
X47851495Y-6144030D01*
X47727721Y-6329271D01*
X47642464Y-6535100D01*
X47599000Y-6753606D01*
X46781011Y-6753606D01*
X46839502Y-6644180D01*
X46875812Y-6524482D01*
X46888072Y-6400000D01*
X46885000Y-6285750D01*
X46726250Y-6127000D01*
X45527000Y-6127000D01*
X45273000Y-6127000D01*
X45253000Y-6127000D01*
X45253000Y-5873000D01*
X45273000Y-5873000D01*
X45273000Y-5123750D01*
X45527000Y-5123750D01*
X45527000Y-5873000D01*
X46726250Y-5873000D01*
X46885000Y-5714250D01*
X46888072Y-5600000D01*
X46875812Y-5475518D01*
X46839502Y-5355820D01*
X46780537Y-5245506D01*
X46701185Y-5148815D01*
X46604494Y-5069463D01*
X46494180Y-5010498D01*
X46374482Y-4974188D01*
X46250000Y-4961928D01*
X45685750Y-4965000D01*
X45527000Y-5123750D01*
X45273000Y-5123750D01*
X45114250Y-4965000D01*
X44550000Y-4961928D01*
X44506000Y-4966261D01*
X44506000Y-4263032D01*
X44964250Y-4260000D01*
X45123000Y-4101250D01*
X45123000Y-3127000D01*
X45377000Y-3127000D01*
X45377000Y-4101250D01*
X45535750Y-4260000D01*
X46000000Y-4263072D01*
X46124482Y-4250812D01*
X46244180Y-4214502D01*
X46245856Y-4213606D01*
X47599000Y-4213606D01*
X47599000Y-4436394D01*
X47642464Y-4654900D01*
X47727721Y-4860729D01*
X47851495Y-5045970D01*
X48009030Y-5203505D01*
X48194271Y-5327279D01*
X48400100Y-5412536D01*
X48618606Y-5456000D01*
X48841394Y-5456000D01*
X49059900Y-5412536D01*
X49265729Y-5327279D01*
X49450970Y-5203505D01*
X49608505Y-5045970D01*
X49732279Y-4860729D01*
X49817536Y-4654900D01*
X49861000Y-4436394D01*
X49861000Y-4213606D01*
X49817536Y-3995100D01*
X49732279Y-3789271D01*
X49608505Y-3604030D01*
X49450970Y-3446495D01*
X49265729Y-3322721D01*
X49059900Y-3237464D01*
X48841394Y-3194000D01*
X48618606Y-3194000D01*
X48400100Y-3237464D01*
X48194271Y-3322721D01*
X48009030Y-3446495D01*
X47851495Y-3604030D01*
X47727721Y-3789271D01*
X47642464Y-3995100D01*
X47599000Y-4213606D01*
X46245856Y-4213606D01*
X46354494Y-4155537D01*
X46451185Y-4076185D01*
X46530537Y-3979494D01*
X46589502Y-3869180D01*
X46625812Y-3749482D01*
X46638072Y-3625000D01*
X46635000Y-3285750D01*
X46476250Y-3127000D01*
X45377000Y-3127000D01*
X45123000Y-3127000D01*
X45103000Y-3127000D01*
X45103000Y-2873000D01*
X45123000Y-2873000D01*
X45123000Y-2853000D01*
X45377000Y-2853000D01*
X45377000Y-2873000D01*
X46476250Y-2873000D01*
X46635000Y-2714250D01*
X46638072Y-2375000D01*
X46625812Y-2250518D01*
X46589502Y-2130820D01*
X46576235Y-2106000D01*
X58490409Y-2106000D01*
X59303409Y-2919001D01*
X53464844Y-2919001D01*
X53439998Y-2916554D01*
X53415152Y-2919001D01*
X53415145Y-2919001D01*
X53340806Y-2926323D01*
X53245424Y-2955256D01*
X53157520Y-3002242D01*
X53080472Y-3065474D01*
X53064627Y-3084781D01*
X51629630Y-4519779D01*
X51599900Y-4507464D01*
X51381394Y-4464000D01*
X51158606Y-4464000D01*
X50940100Y-4507464D01*
X50734271Y-4592721D01*
X50549030Y-4716495D01*
X50391495Y-4874030D01*
X50267721Y-5059271D01*
X50182464Y-5265100D01*
X50139000Y-5483606D01*
X50139000Y-5706394D01*
X50182464Y-5924900D01*
X50267721Y-6130729D01*
X50391495Y-6315970D01*
X50549030Y-6473505D01*
X50734271Y-6597279D01*
X50940100Y-6682536D01*
X51158606Y-6726000D01*
X51381394Y-6726000D01*
X51599900Y-6682536D01*
X51805729Y-6597279D01*
X51990970Y-6473505D01*
X52148505Y-6315970D01*
X52272279Y-6130729D01*
X52357536Y-5924900D01*
X52401000Y-5706394D01*
X52401000Y-5483606D01*
X52357536Y-5265100D01*
X52345221Y-5235370D01*
X52494001Y-5086590D01*
X52494000Y-6195408D01*
X51629630Y-7059779D01*
X51599900Y-7047464D01*
X51381394Y-7004000D01*
X51158606Y-7004000D01*
X50940100Y-7047464D01*
X50734271Y-7132721D01*
X50549030Y-7256495D01*
X50391495Y-7414030D01*
X50267721Y-7599271D01*
X50182464Y-7805100D01*
X50139000Y-8023606D01*
X50139000Y-8246394D01*
X50182464Y-8464900D01*
X50267721Y-8670729D01*
X50391495Y-8855970D01*
X50549030Y-9013505D01*
X50734271Y-9137279D01*
X50940100Y-9222536D01*
X51158606Y-9266000D01*
X51381394Y-9266000D01*
X51599900Y-9222536D01*
X51805729Y-9137279D01*
X51990970Y-9013505D01*
X52148505Y-8855970D01*
X52162802Y-8834573D01*
X53408641Y-8834573D01*
X53451816Y-9143791D01*
X53554487Y-9438644D01*
X53640958Y-9600421D01*
X53900248Y-9690147D01*
X54820395Y-8770000D01*
X55179605Y-8770000D01*
X56099752Y-9690147D01*
X56359042Y-9600421D01*
X56494935Y-9319329D01*
X56573379Y-9017127D01*
X56591359Y-8705427D01*
X56583620Y-8650000D01*
X58867157Y-8650000D01*
X58867157Y-9450000D01*
X58874513Y-9524689D01*
X58896299Y-9596508D01*
X58931678Y-9662696D01*
X58979289Y-9720711D01*
X59037304Y-9768322D01*
X59103492Y-9803701D01*
X59175311Y-9825487D01*
X59250000Y-9832843D01*
X60950000Y-9832843D01*
X61024689Y-9825487D01*
X61096508Y-9803701D01*
X61162696Y-9768322D01*
X61220711Y-9720711D01*
X61268322Y-9662696D01*
X61303701Y-9596508D01*
X61315989Y-9556000D01*
X61671490Y-9556000D01*
X61667157Y-9600000D01*
X61667157Y-10400000D01*
X61674513Y-10474689D01*
X61696299Y-10546508D01*
X61731678Y-10612696D01*
X61779289Y-10670711D01*
X61837304Y-10718322D01*
X61903492Y-10753701D01*
X61975311Y-10775487D01*
X62050000Y-10782843D01*
X63750000Y-10782843D01*
X63824689Y-10775487D01*
X63896508Y-10753701D01*
X63962696Y-10718322D01*
X64020711Y-10670711D01*
X64068322Y-10612696D01*
X64103701Y-10546508D01*
X64115989Y-10506000D01*
X64117157Y-10506000D01*
X64117157Y-11625000D01*
X64124513Y-11699689D01*
X64146299Y-11771508D01*
X64181678Y-11837696D01*
X64229289Y-11895711D01*
X64287304Y-11943322D01*
X64353492Y-11978701D01*
X64425311Y-12000487D01*
X64500000Y-12007843D01*
X64525667Y-12007843D01*
X64499013Y-12072191D01*
X64469000Y-12223078D01*
X64469000Y-12376922D01*
X64499013Y-12527809D01*
X64557887Y-12669942D01*
X64643358Y-12797859D01*
X64752141Y-12906642D01*
X64880058Y-12992113D01*
X65022191Y-13050987D01*
X65173078Y-13081000D01*
X65326922Y-13081000D01*
X65477809Y-13050987D01*
X65619942Y-12992113D01*
X65747859Y-12906642D01*
X65856642Y-12797859D01*
X65942113Y-12669942D01*
X66000987Y-12527809D01*
X66031000Y-12376922D01*
X66031000Y-12223078D01*
X66000987Y-12072191D01*
X65974333Y-12007843D01*
X66000000Y-12007843D01*
X66074689Y-12000487D01*
X66146508Y-11978701D01*
X66212696Y-11943322D01*
X66270711Y-11895711D01*
X66318322Y-11837696D01*
X66353701Y-11771508D01*
X66370804Y-11715126D01*
X66374188Y-11749482D01*
X66410498Y-11869180D01*
X66469463Y-11979494D01*
X66548815Y-12076185D01*
X66645506Y-12155537D01*
X66755820Y-12214502D01*
X66875518Y-12250812D01*
X67000000Y-12263072D01*
X67464250Y-12260000D01*
X67623000Y-12101250D01*
X67623000Y-11127000D01*
X67877000Y-11127000D01*
X67877000Y-12101250D01*
X68035750Y-12260000D01*
X68500000Y-12263072D01*
X68624482Y-12250812D01*
X68744180Y-12214502D01*
X68854494Y-12155537D01*
X68951185Y-12076185D01*
X69030537Y-11979494D01*
X69089502Y-11869180D01*
X69125812Y-11749482D01*
X69138072Y-11625000D01*
X69137382Y-11548740D01*
X70370865Y-11548740D01*
X70529764Y-11866758D01*
X70908632Y-12059959D01*
X71317913Y-12175534D01*
X71741876Y-12209042D01*
X72164230Y-12159194D01*
X72568744Y-12027908D01*
X72870236Y-11866758D01*
X73029135Y-11548740D01*
X74970865Y-11548740D01*
X75129764Y-11866758D01*
X75508632Y-12059959D01*
X75917913Y-12175534D01*
X76341876Y-12209042D01*
X76764230Y-12159194D01*
X77168744Y-12027908D01*
X77470236Y-11866758D01*
X77629135Y-11548740D01*
X76300000Y-10219605D01*
X74970865Y-11548740D01*
X73029135Y-11548740D01*
X71700000Y-10219605D01*
X70370865Y-11548740D01*
X69137382Y-11548740D01*
X69135000Y-11285750D01*
X68976250Y-11127000D01*
X67877000Y-11127000D01*
X67623000Y-11127000D01*
X67603000Y-11127000D01*
X67603000Y-10873000D01*
X67623000Y-10873000D01*
X67623000Y-9898750D01*
X67877000Y-9898750D01*
X67877000Y-10873000D01*
X68976250Y-10873000D01*
X69135000Y-10714250D01*
X69138072Y-10375000D01*
X69125812Y-10250518D01*
X69089502Y-10130820D01*
X69063341Y-10081876D01*
X69530958Y-10081876D01*
X69580806Y-10504230D01*
X69712092Y-10908744D01*
X69873242Y-11210236D01*
X70191260Y-11369135D01*
X71520395Y-10040000D01*
X71879605Y-10040000D01*
X73208740Y-11369135D01*
X73526758Y-11210236D01*
X73719959Y-10831368D01*
X73835534Y-10422087D01*
X73862422Y-10081876D01*
X74130958Y-10081876D01*
X74180806Y-10504230D01*
X74312092Y-10908744D01*
X74473242Y-11210236D01*
X74791260Y-11369135D01*
X76120395Y-10040000D01*
X74791260Y-8710865D01*
X74473242Y-8869764D01*
X74280041Y-9248632D01*
X74164466Y-9657913D01*
X74130958Y-10081876D01*
X73862422Y-10081876D01*
X73869042Y-9998124D01*
X73819194Y-9575770D01*
X73687908Y-9171256D01*
X73526758Y-8869764D01*
X73208740Y-8710865D01*
X71879605Y-10040000D01*
X71520395Y-10040000D01*
X70191260Y-8710865D01*
X69873242Y-8869764D01*
X69680041Y-9248632D01*
X69564466Y-9657913D01*
X69530958Y-10081876D01*
X69063341Y-10081876D01*
X69030537Y-10020506D01*
X68951185Y-9923815D01*
X68854494Y-9844463D01*
X68744180Y-9785498D01*
X68624482Y-9749188D01*
X68500000Y-9736928D01*
X68035750Y-9740000D01*
X67877000Y-9898750D01*
X67623000Y-9898750D01*
X67464250Y-9740000D01*
X67113444Y-9737679D01*
X67192113Y-9619942D01*
X67250987Y-9477809D01*
X67281000Y-9326922D01*
X67281000Y-9173078D01*
X67250987Y-9022191D01*
X67205439Y-8912230D01*
X67564250Y-8910000D01*
X67723000Y-8751250D01*
X67723000Y-8077000D01*
X67977000Y-8077000D01*
X67977000Y-8751250D01*
X68135750Y-8910000D01*
X68630000Y-8913072D01*
X68754482Y-8900812D01*
X68874180Y-8864502D01*
X68984494Y-8805537D01*
X69081185Y-8726185D01*
X69160537Y-8629494D01*
X69213045Y-8531260D01*
X70370865Y-8531260D01*
X71700000Y-9860395D01*
X73029135Y-8531260D01*
X72870236Y-8213242D01*
X72491368Y-8020041D01*
X72082087Y-7904466D01*
X71658124Y-7870958D01*
X71235770Y-7920806D01*
X70831256Y-8052092D01*
X70529764Y-8213242D01*
X70370865Y-8531260D01*
X69213045Y-8531260D01*
X69219502Y-8519180D01*
X69255812Y-8399482D01*
X69268072Y-8275000D01*
X69265000Y-8235750D01*
X69106250Y-8077000D01*
X67977000Y-8077000D01*
X67723000Y-8077000D01*
X66593750Y-8077000D01*
X66435000Y-8235750D01*
X66431928Y-8275000D01*
X66444188Y-8399482D01*
X66465276Y-8469000D01*
X66423078Y-8469000D01*
X66272191Y-8499013D01*
X66221959Y-8519820D01*
X66248322Y-8487696D01*
X66283701Y-8421508D01*
X66305487Y-8349689D01*
X66312843Y-8275000D01*
X66312843Y-7832272D01*
X66381185Y-7776185D01*
X66455897Y-7685147D01*
X66593750Y-7823000D01*
X67723000Y-7823000D01*
X67723000Y-7148750D01*
X67977000Y-7148750D01*
X67977000Y-7823000D01*
X69106250Y-7823000D01*
X69265000Y-7664250D01*
X69268072Y-7625000D01*
X69255812Y-7500518D01*
X69219502Y-7380820D01*
X69160537Y-7270506D01*
X69081185Y-7173815D01*
X68984494Y-7094463D01*
X68874180Y-7035498D01*
X68754482Y-6999188D01*
X68630000Y-6986928D01*
X68135750Y-6990000D01*
X67977000Y-7148750D01*
X67723000Y-7148750D01*
X67564250Y-6990000D01*
X67070000Y-6986928D01*
X66945518Y-6999188D01*
X66825820Y-7035498D01*
X66715506Y-7094463D01*
X66618815Y-7173815D01*
X66544103Y-7264853D01*
X66406250Y-7127000D01*
X65277000Y-7127000D01*
X65277000Y-7147000D01*
X65023000Y-7147000D01*
X65023000Y-7127000D01*
X63893750Y-7127000D01*
X63735000Y-7285750D01*
X63731928Y-7325000D01*
X63744188Y-7449482D01*
X63780498Y-7569180D01*
X63839463Y-7679494D01*
X63918815Y-7776185D01*
X63987157Y-7832272D01*
X63987157Y-8275000D01*
X63994513Y-8349689D01*
X64016299Y-8421508D01*
X64051678Y-8487696D01*
X64099289Y-8545711D01*
X64157304Y-8593322D01*
X64223492Y-8628701D01*
X64295311Y-8650487D01*
X64370000Y-8657843D01*
X64637656Y-8657843D01*
X64543358Y-8752141D01*
X64457887Y-8880058D01*
X64399013Y-9022191D01*
X64369000Y-9173078D01*
X64369000Y-9326922D01*
X64399013Y-9477809D01*
X64405720Y-9494000D01*
X64115989Y-9494000D01*
X64103701Y-9453492D01*
X64068322Y-9387304D01*
X64020711Y-9329289D01*
X63962696Y-9281678D01*
X63896508Y-9246299D01*
X63824689Y-9224513D01*
X63750000Y-9217157D01*
X62598434Y-9217157D01*
X62834592Y-8981000D01*
X62976922Y-8981000D01*
X63127809Y-8950987D01*
X63269942Y-8892113D01*
X63397859Y-8806642D01*
X63506642Y-8697859D01*
X63592113Y-8569942D01*
X63650987Y-8427809D01*
X63681000Y-8276922D01*
X63681000Y-8123078D01*
X63650987Y-7972191D01*
X63592113Y-7830058D01*
X63506642Y-7702141D01*
X63397859Y-7593358D01*
X63269942Y-7507887D01*
X63127809Y-7449013D01*
X62976922Y-7419000D01*
X62823078Y-7419000D01*
X62672191Y-7449013D01*
X62530058Y-7507887D01*
X62402141Y-7593358D01*
X62293358Y-7702141D01*
X62207887Y-7830058D01*
X62149013Y-7972191D01*
X62119000Y-8123078D01*
X62119000Y-8265408D01*
X61840409Y-8544000D01*
X61315989Y-8544000D01*
X61303701Y-8503492D01*
X61268322Y-8437304D01*
X61220711Y-8379289D01*
X61162696Y-8331678D01*
X61096508Y-8296299D01*
X61024689Y-8274513D01*
X60950000Y-8267157D01*
X59250000Y-8267157D01*
X59175311Y-8274513D01*
X59103492Y-8296299D01*
X59037304Y-8331678D01*
X58979289Y-8379289D01*
X58931678Y-8437304D01*
X58896299Y-8503492D01*
X58874513Y-8575311D01*
X58867157Y-8650000D01*
X56583620Y-8650000D01*
X56548184Y-8396209D01*
X56445513Y-8101356D01*
X56359042Y-7939579D01*
X56099752Y-7849853D01*
X55179605Y-8770000D01*
X54820395Y-8770000D01*
X53900248Y-7849853D01*
X53640958Y-7939579D01*
X53505065Y-8220671D01*
X53426621Y-8522873D01*
X53408641Y-8834573D01*
X52162802Y-8834573D01*
X52272279Y-8670729D01*
X52357536Y-8464900D01*
X52401000Y-8246394D01*
X52401000Y-8023606D01*
X52357536Y-7805100D01*
X52345221Y-7775370D01*
X53340220Y-6780372D01*
X53359527Y-6764527D01*
X53422759Y-6687479D01*
X53469745Y-6599575D01*
X53493426Y-6521508D01*
X53498678Y-6504194D01*
X53501584Y-6474689D01*
X53506000Y-6429854D01*
X53506000Y-6429847D01*
X53508447Y-6405001D01*
X53506000Y-6380155D01*
X53506000Y-6098908D01*
X53669000Y-6098908D01*
X53669000Y-6361092D01*
X53720150Y-6618238D01*
X53820483Y-6860465D01*
X53966145Y-7078463D01*
X54151537Y-7263855D01*
X54281867Y-7350939D01*
X54169579Y-7410958D01*
X54079853Y-7670248D01*
X55000000Y-8590395D01*
X55920147Y-7670248D01*
X55830421Y-7410958D01*
X55713154Y-7354266D01*
X55719538Y-7350000D01*
X58611928Y-7350000D01*
X58624188Y-7474482D01*
X58660498Y-7594180D01*
X58719463Y-7704494D01*
X58798815Y-7801185D01*
X58895506Y-7880537D01*
X59005820Y-7939502D01*
X59125518Y-7975812D01*
X59250000Y-7988072D01*
X59814250Y-7985000D01*
X59973000Y-7826250D01*
X59973000Y-7077000D01*
X60227000Y-7077000D01*
X60227000Y-7826250D01*
X60385750Y-7985000D01*
X60950000Y-7988072D01*
X61074482Y-7975812D01*
X61194180Y-7939502D01*
X61304494Y-7880537D01*
X61401185Y-7801185D01*
X61480537Y-7704494D01*
X61539502Y-7594180D01*
X61575812Y-7474482D01*
X61588072Y-7350000D01*
X61585000Y-7235750D01*
X61426250Y-7077000D01*
X60227000Y-7077000D01*
X59973000Y-7077000D01*
X58773750Y-7077000D01*
X58615000Y-7235750D01*
X58611928Y-7350000D01*
X55719538Y-7350000D01*
X55848463Y-7263855D01*
X56033855Y-7078463D01*
X56179517Y-6860465D01*
X56279850Y-6618238D01*
X56293423Y-6550000D01*
X58611928Y-6550000D01*
X58615000Y-6664250D01*
X58773750Y-6823000D01*
X59973000Y-6823000D01*
X59973000Y-6073750D01*
X60227000Y-6073750D01*
X60227000Y-6823000D01*
X61426250Y-6823000D01*
X61585000Y-6664250D01*
X61588072Y-6550000D01*
X61575812Y-6425518D01*
X61539502Y-6305820D01*
X61480537Y-6195506D01*
X61401185Y-6098815D01*
X61304494Y-6019463D01*
X61194180Y-5960498D01*
X61074482Y-5924188D01*
X60950000Y-5911928D01*
X60385750Y-5915000D01*
X60227000Y-6073750D01*
X59973000Y-6073750D01*
X59814250Y-5915000D01*
X59250000Y-5911928D01*
X59125518Y-5924188D01*
X59005820Y-5960498D01*
X58895506Y-6019463D01*
X58798815Y-6098815D01*
X58719463Y-6195506D01*
X58660498Y-6305820D01*
X58624188Y-6425518D01*
X58611928Y-6550000D01*
X56293423Y-6550000D01*
X56331000Y-6361092D01*
X56331000Y-6098908D01*
X56279850Y-5841762D01*
X56179517Y-5599535D01*
X56033855Y-5381537D01*
X55848463Y-5196145D01*
X55630465Y-5050483D01*
X55388238Y-4950150D01*
X55131092Y-4899000D01*
X54868908Y-4899000D01*
X54611762Y-4950150D01*
X54369535Y-5050483D01*
X54151537Y-5196145D01*
X53966145Y-5381537D01*
X53820483Y-5599535D01*
X53720150Y-5841762D01*
X53669000Y-6098908D01*
X53506000Y-6098908D01*
X53506000Y-5209591D01*
X54059592Y-4656000D01*
X56190409Y-4656000D01*
X56924628Y-5390220D01*
X56940473Y-5409527D01*
X57017521Y-5472759D01*
X57091504Y-5512304D01*
X57105425Y-5519745D01*
X57200806Y-5548678D01*
X57210694Y-5549652D01*
X57275146Y-5556000D01*
X57275153Y-5556000D01*
X57299999Y-5558447D01*
X57324845Y-5556000D01*
X57901499Y-5556000D01*
X58002141Y-5656642D01*
X58130058Y-5742113D01*
X58272191Y-5800987D01*
X58423078Y-5831000D01*
X58576922Y-5831000D01*
X58727809Y-5800987D01*
X58869942Y-5742113D01*
X58951907Y-5687346D01*
X58979289Y-5720711D01*
X59037304Y-5768322D01*
X59103492Y-5803701D01*
X59175311Y-5825487D01*
X59250000Y-5832843D01*
X60950000Y-5832843D01*
X61024689Y-5825487D01*
X61096508Y-5803701D01*
X61162696Y-5768322D01*
X61220711Y-5720711D01*
X61268322Y-5662696D01*
X61303701Y-5596508D01*
X61315989Y-5556000D01*
X61525154Y-5556000D01*
X61550000Y-5558447D01*
X61574846Y-5556000D01*
X61574854Y-5556000D01*
X61649193Y-5548678D01*
X61672920Y-5541481D01*
X61667157Y-5600000D01*
X61667157Y-6400000D01*
X61674513Y-6474689D01*
X61696299Y-6546508D01*
X61731678Y-6612696D01*
X61779289Y-6670711D01*
X61837304Y-6718322D01*
X61903492Y-6753701D01*
X61975311Y-6775487D01*
X62050000Y-6782843D01*
X63750000Y-6782843D01*
X63798788Y-6778038D01*
X63893750Y-6873000D01*
X65023000Y-6873000D01*
X65023000Y-6853000D01*
X65277000Y-6853000D01*
X65277000Y-6873000D01*
X66406250Y-6873000D01*
X66565000Y-6714250D01*
X66568072Y-6675000D01*
X66555812Y-6550518D01*
X66539236Y-6495873D01*
X66582479Y-6472759D01*
X66659527Y-6409527D01*
X66675376Y-6390215D01*
X66687465Y-6378126D01*
X66694513Y-6449689D01*
X66716299Y-6521508D01*
X66751678Y-6587696D01*
X66799289Y-6645711D01*
X66857304Y-6693322D01*
X66923492Y-6728701D01*
X66995311Y-6750487D01*
X67070000Y-6757843D01*
X68630000Y-6757843D01*
X68704689Y-6750487D01*
X68776508Y-6728701D01*
X68842696Y-6693322D01*
X68900711Y-6645711D01*
X68918966Y-6623467D01*
X68952141Y-6656642D01*
X69080058Y-6742113D01*
X69222191Y-6800987D01*
X69373078Y-6831000D01*
X69526922Y-6831000D01*
X69677809Y-6800987D01*
X69819942Y-6742113D01*
X69947859Y-6656642D01*
X70056642Y-6547859D01*
X70109507Y-6468740D01*
X70370865Y-6468740D01*
X70529764Y-6786758D01*
X70908632Y-6979959D01*
X71317913Y-7095534D01*
X71741876Y-7129042D01*
X72164230Y-7079194D01*
X72568744Y-6947908D01*
X72870236Y-6786758D01*
X73029135Y-6468740D01*
X74970865Y-6468740D01*
X75129764Y-6786758D01*
X75508632Y-6979959D01*
X75917913Y-7095534D01*
X76341876Y-7129042D01*
X76764230Y-7079194D01*
X77168744Y-6947908D01*
X77243802Y-6907789D01*
X77184466Y-7117913D01*
X77150958Y-7541876D01*
X77200806Y-7964230D01*
X77244217Y-8097985D01*
X77091368Y-8020041D01*
X76682087Y-7904466D01*
X76258124Y-7870958D01*
X75835770Y-7920806D01*
X75431256Y-8052092D01*
X75129764Y-8213242D01*
X74970865Y-8531260D01*
X76300000Y-9860395D01*
X76314143Y-9846253D01*
X76493748Y-10025858D01*
X76479605Y-10040000D01*
X77808740Y-11369135D01*
X78126758Y-11210236D01*
X78319959Y-10831368D01*
X78435534Y-10422087D01*
X78469042Y-9998124D01*
X78419194Y-9575770D01*
X78375783Y-9442015D01*
X78528632Y-9519959D01*
X78937913Y-9635534D01*
X79361876Y-9669042D01*
X79784230Y-9619194D01*
X80188744Y-9487908D01*
X80490236Y-9326758D01*
X80649135Y-9008740D01*
X82590865Y-9008740D01*
X82749764Y-9326758D01*
X83128632Y-9519959D01*
X83537913Y-9635534D01*
X83961876Y-9669042D01*
X84384230Y-9619194D01*
X84788744Y-9487908D01*
X85090236Y-9326758D01*
X85249135Y-9008740D01*
X83920000Y-7679605D01*
X82590865Y-9008740D01*
X80649135Y-9008740D01*
X79320000Y-7679605D01*
X79305858Y-7693748D01*
X79126253Y-7514143D01*
X79140395Y-7500000D01*
X79499605Y-7500000D01*
X80828740Y-8829135D01*
X81146758Y-8670236D01*
X81339959Y-8291368D01*
X81455534Y-7882087D01*
X81482422Y-7541876D01*
X81750958Y-7541876D01*
X81800806Y-7964230D01*
X81932092Y-8368744D01*
X82093242Y-8670236D01*
X82411260Y-8829135D01*
X83740395Y-7500000D01*
X84099605Y-7500000D01*
X85428740Y-8829135D01*
X85746758Y-8670236D01*
X85939959Y-8291368D01*
X86055534Y-7882087D01*
X86089042Y-7458124D01*
X86039194Y-7035770D01*
X85907908Y-6631256D01*
X85746758Y-6329764D01*
X85428740Y-6170865D01*
X84099605Y-7500000D01*
X83740395Y-7500000D01*
X82411260Y-6170865D01*
X82093242Y-6329764D01*
X81900041Y-6708632D01*
X81784466Y-7117913D01*
X81750958Y-7541876D01*
X81482422Y-7541876D01*
X81489042Y-7458124D01*
X81439194Y-7035770D01*
X81307908Y-6631256D01*
X81146758Y-6329764D01*
X80828740Y-6170865D01*
X79499605Y-7500000D01*
X79140395Y-7500000D01*
X79126253Y-7485858D01*
X79305858Y-7306253D01*
X79320000Y-7320395D01*
X80649135Y-5991260D01*
X82590865Y-5991260D01*
X83920000Y-7320395D01*
X85249135Y-5991260D01*
X85090236Y-5673242D01*
X84711368Y-5480041D01*
X84302087Y-5364466D01*
X83878124Y-5330958D01*
X83455770Y-5380806D01*
X83051256Y-5512092D01*
X82749764Y-5673242D01*
X82590865Y-5991260D01*
X80649135Y-5991260D01*
X80490236Y-5673242D01*
X80111368Y-5480041D01*
X79702087Y-5364466D01*
X79278124Y-5330958D01*
X78855770Y-5380806D01*
X78451256Y-5512092D01*
X78376198Y-5552211D01*
X78435534Y-5342087D01*
X78469042Y-4918124D01*
X78419194Y-4495770D01*
X78287908Y-4091256D01*
X78126758Y-3789764D01*
X77808740Y-3630865D01*
X76479605Y-4960000D01*
X76493748Y-4974143D01*
X76314143Y-5153748D01*
X76300000Y-5139605D01*
X74970865Y-6468740D01*
X73029135Y-6468740D01*
X71700000Y-5139605D01*
X70370865Y-6468740D01*
X70109507Y-6468740D01*
X70142113Y-6419942D01*
X70199856Y-6280539D01*
X71520395Y-4960000D01*
X71879605Y-4960000D01*
X73208740Y-6289135D01*
X73526758Y-6130236D01*
X73719959Y-5751368D01*
X73835534Y-5342087D01*
X73862422Y-5001876D01*
X74130958Y-5001876D01*
X74180806Y-5424230D01*
X74312092Y-5828744D01*
X74473242Y-6130236D01*
X74791260Y-6289135D01*
X76120395Y-4960000D01*
X74791260Y-3630865D01*
X74473242Y-3789764D01*
X74280041Y-4168632D01*
X74164466Y-4577913D01*
X74130958Y-5001876D01*
X73862422Y-5001876D01*
X73869042Y-4918124D01*
X73819194Y-4495770D01*
X73687908Y-4091256D01*
X73526758Y-3789764D01*
X73208740Y-3630865D01*
X71879605Y-4960000D01*
X71520395Y-4960000D01*
X70191260Y-3630865D01*
X69873242Y-3789764D01*
X69680041Y-4168632D01*
X69564466Y-4577913D01*
X69530958Y-5001876D01*
X69563340Y-5276244D01*
X69526922Y-5269000D01*
X69373078Y-5269000D01*
X69222191Y-5299013D01*
X69080058Y-5357887D01*
X68952141Y-5443358D01*
X68918966Y-5476533D01*
X68900711Y-5454289D01*
X68842696Y-5406678D01*
X68776508Y-5371299D01*
X68704689Y-5349513D01*
X68630000Y-5342157D01*
X68356000Y-5342157D01*
X68356000Y-4424854D01*
X68358448Y-4400000D01*
X68348678Y-4300807D01*
X68319745Y-4205425D01*
X68315701Y-4197859D01*
X68272759Y-4117521D01*
X68209527Y-4040473D01*
X68190220Y-4024628D01*
X67616852Y-3451260D01*
X70370865Y-3451260D01*
X71700000Y-4780395D01*
X73029135Y-3451260D01*
X74970865Y-3451260D01*
X76300000Y-4780395D01*
X77629135Y-3451260D01*
X77470236Y-3133242D01*
X77091368Y-2940041D01*
X76682087Y-2824466D01*
X76258124Y-2790958D01*
X75835770Y-2840806D01*
X75431256Y-2972092D01*
X75129764Y-3133242D01*
X74970865Y-3451260D01*
X73029135Y-3451260D01*
X72870236Y-3133242D01*
X72491368Y-2940041D01*
X72082087Y-2824466D01*
X71658124Y-2790958D01*
X71235770Y-2840806D01*
X70831256Y-2972092D01*
X70529764Y-3133242D01*
X70370865Y-3451260D01*
X67616852Y-3451260D01*
X67250377Y-3084786D01*
X67234528Y-3065474D01*
X67157480Y-3002242D01*
X67069576Y-2955256D01*
X66974194Y-2926323D01*
X66899855Y-2919001D01*
X66899847Y-2919001D01*
X66875001Y-2916554D01*
X66850155Y-2919001D01*
X61752739Y-2919001D01*
X61781000Y-2776922D01*
X61781000Y-2623078D01*
X61750987Y-2472191D01*
X61692113Y-2330058D01*
X61606642Y-2202141D01*
X61497859Y-2093358D01*
X61369942Y-2007887D01*
X61227809Y-1949013D01*
X61076922Y-1919000D01*
X60923078Y-1919000D01*
X60772191Y-1949013D01*
X60630058Y-2007887D01*
X60502141Y-2093358D01*
X60401499Y-2194000D01*
X60009592Y-2194000D01*
X59075376Y-1259785D01*
X59059527Y-1240473D01*
X58982479Y-1177241D01*
X58894575Y-1130255D01*
X58799193Y-1101322D01*
X58724854Y-1094000D01*
X58724846Y-1094000D01*
X58700000Y-1091553D01*
X58675154Y-1094000D01*
X43074845Y-1094000D01*
X43049999Y-1091553D01*
X43025153Y-1094000D01*
X43025146Y-1094000D01*
X42950807Y-1101322D01*
X42855425Y-1130255D01*
X42767521Y-1177241D01*
X42690473Y-1240473D01*
X42674624Y-1259785D01*
X42409781Y-1524628D01*
X42390474Y-1540473D01*
X42327242Y-1617521D01*
X42302127Y-1664508D01*
X42280255Y-1705426D01*
X42251322Y-1800808D01*
X42241553Y-1900000D01*
X42244001Y-1924856D01*
X42244001Y-1992157D01*
X42000000Y-1992157D01*
X41925311Y-1999513D01*
X41853492Y-2021299D01*
X41787304Y-2056678D01*
X41729289Y-2104289D01*
X41681678Y-2162304D01*
X41646299Y-2228492D01*
X41624513Y-2300311D01*
X41617157Y-2375000D01*
X41617157Y-3625000D01*
X41624513Y-3699689D01*
X41646299Y-3771508D01*
X41681678Y-3837696D01*
X41729289Y-3895711D01*
X41787304Y-3943322D01*
X41853492Y-3978701D01*
X41925311Y-4000487D01*
X42000000Y-4007843D01*
X43494000Y-4007843D01*
X43494000Y-4271491D01*
X43450000Y-4267157D01*
X41750000Y-4267157D01*
X41675311Y-4274513D01*
X41603492Y-4296299D01*
X41537304Y-4331678D01*
X41479289Y-4379289D01*
X41431678Y-4437304D01*
X41396299Y-4503492D01*
X41384011Y-4544000D01*
X41059592Y-4544000D01*
X40906000Y-4390409D01*
X40906000Y-4298501D01*
X41006642Y-4197859D01*
X41092113Y-4069942D01*
X41150987Y-3927809D01*
X41181000Y-3776922D01*
X41181000Y-3623078D01*
X41150987Y-3472191D01*
X41092113Y-3330058D01*
X41006642Y-3202141D01*
X40897859Y-3093358D01*
X40769942Y-3007887D01*
X40627809Y-2949013D01*
X40476922Y-2919000D01*
X40323078Y-2919000D01*
X40172191Y-2949013D01*
X40030058Y-3007887D01*
X39902141Y-3093358D01*
X39793358Y-3202141D01*
X39707887Y-3330058D01*
X39677223Y-3404088D01*
X39650987Y-3272191D01*
X39592113Y-3130058D01*
X39506642Y-3002141D01*
X39397859Y-2893358D01*
X39269942Y-2807887D01*
X39127809Y-2749013D01*
X38976922Y-2719000D01*
X38823078Y-2719000D01*
X38672191Y-2749013D01*
X38530058Y-2807887D01*
X38402141Y-2893358D01*
X38301499Y-2994000D01*
X38207252Y-2994000D01*
X38200487Y-2925311D01*
X38178701Y-2853492D01*
X38143322Y-2787304D01*
X38095711Y-2729289D01*
X38037696Y-2681678D01*
X37971508Y-2646299D01*
X37899689Y-2624513D01*
X37825000Y-2617157D01*
X36425000Y-2617157D01*
X36350311Y-2624513D01*
X36278492Y-2646299D01*
X36212304Y-2681678D01*
X36154289Y-2729289D01*
X36106678Y-2787304D01*
X36071299Y-2853492D01*
X36049513Y-2925311D01*
X36042157Y-3000000D01*
X36042157Y-4000000D01*
X36049513Y-4074689D01*
X36071299Y-4146508D01*
X36106678Y-4212696D01*
X36154289Y-4270711D01*
X36212304Y-4318322D01*
X36278492Y-4353701D01*
X36350311Y-4375487D01*
X36425000Y-4382843D01*
X37825000Y-4382843D01*
X37899689Y-4375487D01*
X37971508Y-4353701D01*
X38037696Y-4318322D01*
X38095711Y-4270711D01*
X38143322Y-4212696D01*
X38178701Y-4146508D01*
X38200487Y-4074689D01*
X38207252Y-4006000D01*
X38301499Y-4006000D01*
X38402141Y-4106642D01*
X38530058Y-4192113D01*
X38672191Y-4250987D01*
X38823078Y-4281000D01*
X38976922Y-4281000D01*
X39127809Y-4250987D01*
X39269942Y-4192113D01*
X39397859Y-4106642D01*
X39506642Y-3997859D01*
X39592113Y-3869942D01*
X39622777Y-3795912D01*
X39649013Y-3927809D01*
X39707887Y-4069942D01*
X39793358Y-4197859D01*
X39894000Y-4298501D01*
X39894000Y-4575153D01*
X39891553Y-4600000D01*
X39894000Y-4624846D01*
X39894000Y-4624853D01*
X39901322Y-4699192D01*
X39930255Y-4794574D01*
X39977241Y-4882479D01*
X40040473Y-4959527D01*
X40059785Y-4975376D01*
X40473451Y-5389042D01*
X40424482Y-5374188D01*
X40300000Y-5361928D01*
X39785750Y-5365000D01*
X39627000Y-5523750D01*
X39627000Y-6873000D01*
X40776250Y-6873000D01*
X40935000Y-6714250D01*
X40938072Y-6000000D01*
X40925812Y-5875518D01*
X40889502Y-5755820D01*
X40830537Y-5645506D01*
X40751185Y-5548815D01*
X40751047Y-5548702D01*
X40760694Y-5549652D01*
X40825146Y-5556000D01*
X40825153Y-5556000D01*
X40849999Y-5558447D01*
X40874845Y-5556000D01*
X41384011Y-5556000D01*
X41396299Y-5596508D01*
X41431678Y-5662696D01*
X41479289Y-5720711D01*
X41537304Y-5768322D01*
X41603492Y-5803701D01*
X41675311Y-5825487D01*
X41750000Y-5832843D01*
X43450000Y-5832843D01*
X43494001Y-5828509D01*
X43494001Y-6171491D01*
X43450000Y-6167157D01*
X41750000Y-6167157D01*
X41675311Y-6174513D01*
X41603492Y-6196299D01*
X41537304Y-6231678D01*
X41479289Y-6279289D01*
X41431678Y-6337304D01*
X41396299Y-6403492D01*
X41374513Y-6475311D01*
X41367157Y-6550000D01*
X41367157Y-7350000D01*
X41374513Y-7424689D01*
X41396299Y-7496508D01*
X41431678Y-7562696D01*
X41479289Y-7620711D01*
X41537304Y-7668322D01*
X41603492Y-7703701D01*
X41675311Y-7725487D01*
X41750000Y-7732843D01*
X42094001Y-7732843D01*
X42094001Y-8125144D01*
X42091553Y-8150000D01*
X42101322Y-8249192D01*
X42130255Y-8344574D01*
X42148811Y-8379289D01*
X42177242Y-8432479D01*
X42240474Y-8509527D01*
X42259780Y-8525371D01*
X42951565Y-9217157D01*
X41750000Y-9217157D01*
X41675311Y-9224513D01*
X41603492Y-9246299D01*
X41537304Y-9281678D01*
X41479289Y-9329289D01*
X41431678Y-9387304D01*
X41396299Y-9453492D01*
X41374513Y-9525311D01*
X41367157Y-9600000D01*
X41367157Y-10400000D01*
X41374513Y-10474689D01*
X41396299Y-10546508D01*
X41431678Y-10612696D01*
X41479289Y-10670711D01*
X41537304Y-10718322D01*
X41603492Y-10753701D01*
X41675311Y-10775487D01*
X41750000Y-10782843D01*
X42094000Y-10782843D01*
X42094001Y-11901498D01*
X42001499Y-11994000D01*
X40682843Y-11994000D01*
X40682843Y-10000000D01*
X40675487Y-9925311D01*
X40653701Y-9853492D01*
X40618322Y-9787304D01*
X40570711Y-9729289D01*
X40512696Y-9681678D01*
X40446508Y-9646299D01*
X40374689Y-9624513D01*
X40300000Y-9617157D01*
X38700000Y-9617157D01*
X38625311Y-9624513D01*
X38553492Y-9646299D01*
X38487304Y-9681678D01*
X38429289Y-9729289D01*
X38407645Y-9755663D01*
X38400987Y-9722191D01*
X38342113Y-9580058D01*
X38256642Y-9452141D01*
X38147859Y-9343358D01*
X38019942Y-9257887D01*
X37877809Y-9199013D01*
X37726922Y-9169000D01*
X37573078Y-9169000D01*
X37422191Y-9199013D01*
X37280058Y-9257887D01*
X37152141Y-9343358D01*
X37051499Y-9444000D01*
X35965264Y-9444000D01*
X35948322Y-9412304D01*
X35900711Y-9354289D01*
X35842696Y-9306678D01*
X35776508Y-9271299D01*
X35704689Y-9249513D01*
X35630000Y-9242157D01*
X34070000Y-9242157D01*
X33995311Y-9249513D01*
X33923492Y-9271299D01*
X33857304Y-9306678D01*
X33799289Y-9354289D01*
X33751678Y-9412304D01*
X33716299Y-9478492D01*
X33694513Y-9550311D01*
X33687157Y-9625000D01*
X33687157Y-10275000D01*
X33694513Y-10349689D01*
X33716299Y-10421508D01*
X33751678Y-10487696D01*
X33799289Y-10545711D01*
X33857304Y-10593322D01*
X33923492Y-10628701D01*
X33995311Y-10650487D01*
X34070000Y-10657843D01*
X35630000Y-10657843D01*
X35704689Y-10650487D01*
X35776508Y-10628701D01*
X35842696Y-10593322D01*
X35900711Y-10545711D01*
X35948322Y-10487696D01*
X35965264Y-10456000D01*
X37051499Y-10456000D01*
X37144001Y-10548502D01*
X37144001Y-10625144D01*
X37141553Y-10650000D01*
X37151322Y-10749192D01*
X37180255Y-10844574D01*
X37196540Y-10875040D01*
X37227242Y-10932479D01*
X37290474Y-11009527D01*
X37309780Y-11025371D01*
X37624628Y-11340220D01*
X37640473Y-11359527D01*
X37717521Y-11422759D01*
X37805425Y-11469745D01*
X37900807Y-11498678D01*
X38000000Y-11508448D01*
X38024854Y-11506000D01*
X38317157Y-11506000D01*
X38317157Y-11994000D01*
X34009592Y-11994000D01*
X32673434Y-10657843D01*
X32930000Y-10657843D01*
X33004689Y-10650487D01*
X33076508Y-10628701D01*
X33142696Y-10593322D01*
X33200711Y-10545711D01*
X33248322Y-10487696D01*
X33283701Y-10421508D01*
X33305487Y-10349689D01*
X33312843Y-10275000D01*
X33312843Y-9832272D01*
X33381185Y-9776185D01*
X33460537Y-9679494D01*
X33519502Y-9569180D01*
X33555812Y-9449482D01*
X33568072Y-9325000D01*
X33565000Y-9285750D01*
X33406250Y-9127000D01*
X32277000Y-9127000D01*
X32277000Y-9147000D01*
X32023000Y-9147000D01*
X32023000Y-9127000D01*
X30893750Y-9127000D01*
X30735000Y-9285750D01*
X30731928Y-9325000D01*
X30744188Y-9449482D01*
X30745257Y-9453005D01*
X30663489Y-9477809D01*
X30655425Y-9480255D01*
X30567521Y-9527241D01*
X30490473Y-9590473D01*
X30474628Y-9609780D01*
X29682843Y-10401566D01*
X29682843Y-10000000D01*
X29675487Y-9925311D01*
X29653701Y-9853492D01*
X29618322Y-9787304D01*
X29570711Y-9729289D01*
X29512696Y-9681678D01*
X29446508Y-9646299D01*
X29374689Y-9624513D01*
X29300000Y-9617157D01*
X27700000Y-9617157D01*
X27625311Y-9624513D01*
X27553492Y-9646299D01*
X27487304Y-9681678D01*
X27429289Y-9729289D01*
X27381678Y-9787304D01*
X27346299Y-9853492D01*
X27324513Y-9925311D01*
X27317157Y-10000000D01*
X27317157Y-10494000D01*
X27024854Y-10494000D01*
X27000000Y-10491552D01*
X26975146Y-10494000D01*
X26900807Y-10501322D01*
X26805425Y-10530255D01*
X26717521Y-10577241D01*
X26640473Y-10640473D01*
X26624630Y-10659778D01*
X25659783Y-11624626D01*
X25659778Y-11624630D01*
X25290409Y-11994000D01*
X21147843Y-11994000D01*
X21147843Y-9515000D01*
X21140487Y-9440311D01*
X21118701Y-9368492D01*
X21083322Y-9302304D01*
X21035711Y-9244289D01*
X20977696Y-9196678D01*
X20911508Y-9161299D01*
X20839689Y-9139513D01*
X20765000Y-9132157D01*
X18735000Y-9132157D01*
X18660311Y-9139513D01*
X18588492Y-9161299D01*
X18522304Y-9196678D01*
X18464289Y-9244289D01*
X18416678Y-9302304D01*
X18381299Y-9368492D01*
X18359513Y-9440311D01*
X18352157Y-9515000D01*
X12127000Y-9515000D01*
X12127000Y-7312374D01*
X14175000Y-7312374D01*
X14175000Y-7687626D01*
X14248209Y-8055668D01*
X14391811Y-8402356D01*
X14600290Y-8714366D01*
X14865634Y-8979710D01*
X15177644Y-9188189D01*
X15524332Y-9331791D01*
X15892374Y-9405000D01*
X16267626Y-9405000D01*
X16635668Y-9331791D01*
X16982356Y-9188189D01*
X17294366Y-8979710D01*
X17559710Y-8714366D01*
X17768189Y-8402356D01*
X17911791Y-8055668D01*
X17985000Y-7687626D01*
X17985000Y-7312374D01*
X17911791Y-6944332D01*
X17768189Y-6597644D01*
X17559710Y-6285634D01*
X17294366Y-6020290D01*
X16982356Y-5811811D01*
X16750018Y-5715574D01*
X16999592Y-5466000D01*
X18352157Y-5466000D01*
X18352157Y-7985000D01*
X18359513Y-8059689D01*
X18381299Y-8131508D01*
X18416678Y-8197696D01*
X18464289Y-8255711D01*
X18522304Y-8303322D01*
X18588492Y-8338701D01*
X18660311Y-8360487D01*
X18735000Y-8367843D01*
X20765000Y-8367843D01*
X20839689Y-8360487D01*
X20911508Y-8338701D01*
X20977696Y-8303322D01*
X21035711Y-8255711D01*
X21083322Y-8197696D01*
X21118701Y-8131508D01*
X21140487Y-8059689D01*
X21147843Y-7985000D01*
X21147843Y-5466000D01*
X21858329Y-5466000D01*
X21868209Y-5515668D01*
X22011811Y-5862356D01*
X22220290Y-6174366D01*
X22485634Y-6439710D01*
X22797644Y-6648189D01*
X23144332Y-6791791D01*
X23194001Y-6801671D01*
X23194000Y-8198329D01*
X23144332Y-8208209D01*
X22797644Y-8351811D01*
X22485634Y-8560290D01*
X22220290Y-8825634D01*
X22011811Y-9137644D01*
X21868209Y-9484332D01*
X21795000Y-9852374D01*
X21795000Y-10227626D01*
X21868209Y-10595668D01*
X22011811Y-10942356D01*
X22220290Y-11254366D01*
X22485634Y-11519710D01*
X22797644Y-11728189D01*
X23144332Y-11871791D01*
X23512374Y-11945000D01*
X23887626Y-11945000D01*
X24255668Y-11871791D01*
X24602356Y-11728189D01*
X24914366Y-11519710D01*
X25179710Y-11254366D01*
X25388189Y-10942356D01*
X25531791Y-10595668D01*
X25605000Y-10227626D01*
X25605000Y-9852374D01*
X25531791Y-9484332D01*
X25388189Y-9137644D01*
X25179710Y-8825634D01*
X25029076Y-8675000D01*
X30731928Y-8675000D01*
X30735000Y-8714250D01*
X30893750Y-8873000D01*
X32023000Y-8873000D01*
X32023000Y-8853000D01*
X32277000Y-8853000D01*
X32277000Y-8873000D01*
X33406250Y-8873000D01*
X33565000Y-8714250D01*
X33568072Y-8675000D01*
X33555812Y-8550518D01*
X33519502Y-8430820D01*
X33460537Y-8320506D01*
X33381185Y-8223815D01*
X33312843Y-8167728D01*
X33312843Y-7725000D01*
X33687157Y-7725000D01*
X33687157Y-8375000D01*
X33694513Y-8449689D01*
X33716299Y-8521508D01*
X33751678Y-8587696D01*
X33799289Y-8645711D01*
X33857304Y-8693322D01*
X33923492Y-8728701D01*
X33995311Y-8750487D01*
X34070000Y-8757843D01*
X35630000Y-8757843D01*
X35704689Y-8750487D01*
X35776508Y-8728701D01*
X35842696Y-8693322D01*
X35900711Y-8645711D01*
X35948322Y-8587696D01*
X35983701Y-8521508D01*
X36005487Y-8449689D01*
X36012843Y-8375000D01*
X36012843Y-7725000D01*
X36005487Y-7650311D01*
X35983701Y-7578492D01*
X35948322Y-7512304D01*
X35900711Y-7454289D01*
X35842696Y-7406678D01*
X35776508Y-7371299D01*
X35704689Y-7349513D01*
X35630000Y-7342157D01*
X35356000Y-7342157D01*
X35356000Y-6882843D01*
X35600000Y-6882843D01*
X35674689Y-6875487D01*
X35746508Y-6853701D01*
X35812696Y-6818322D01*
X35838715Y-6796969D01*
X35869463Y-6854494D01*
X35948815Y-6951185D01*
X36045506Y-7030537D01*
X36155820Y-7089502D01*
X36275518Y-7125812D01*
X36400000Y-7138072D01*
X36764250Y-7135000D01*
X36923000Y-6976250D01*
X36923000Y-6127000D01*
X36903000Y-6127000D01*
X36903000Y-5873000D01*
X36923000Y-5873000D01*
X36923000Y-5023750D01*
X37177000Y-5023750D01*
X37177000Y-5873000D01*
X37197000Y-5873000D01*
X37197000Y-6127000D01*
X37177000Y-6127000D01*
X37177000Y-6976250D01*
X37335750Y-7135000D01*
X37700000Y-7138072D01*
X37824482Y-7125812D01*
X37944180Y-7089502D01*
X38054494Y-7030537D01*
X38065000Y-7021915D01*
X38065000Y-7127002D01*
X38223748Y-7127002D01*
X38065000Y-7285750D01*
X38061928Y-8000000D01*
X38074188Y-8124482D01*
X38110498Y-8244180D01*
X38169463Y-8354494D01*
X38248815Y-8451185D01*
X38345506Y-8530537D01*
X38455820Y-8589502D01*
X38575518Y-8625812D01*
X38700000Y-8638072D01*
X39214250Y-8635000D01*
X39373000Y-8476250D01*
X39373000Y-7127000D01*
X39627000Y-7127000D01*
X39627000Y-8476250D01*
X39785750Y-8635000D01*
X40300000Y-8638072D01*
X40424482Y-8625812D01*
X40544180Y-8589502D01*
X40654494Y-8530537D01*
X40751185Y-8451185D01*
X40830537Y-8354494D01*
X40889502Y-8244180D01*
X40925812Y-8124482D01*
X40938072Y-8000000D01*
X40935000Y-7285750D01*
X40776250Y-7127000D01*
X39627000Y-7127000D01*
X39373000Y-7127000D01*
X39353000Y-7127000D01*
X39353000Y-6873000D01*
X39373000Y-6873000D01*
X39373000Y-5523750D01*
X39214250Y-5365000D01*
X38700000Y-5361928D01*
X38575518Y-5374188D01*
X38455820Y-5410498D01*
X38345506Y-5469463D01*
X38335845Y-5477391D01*
X38325812Y-5375518D01*
X38289502Y-5255820D01*
X38230537Y-5145506D01*
X38151185Y-5048815D01*
X38054494Y-4969463D01*
X37944180Y-4910498D01*
X37824482Y-4874188D01*
X37700000Y-4861928D01*
X37335750Y-4865000D01*
X37177000Y-5023750D01*
X36923000Y-5023750D01*
X36764250Y-4865000D01*
X36400000Y-4861928D01*
X36275518Y-4874188D01*
X36155820Y-4910498D01*
X36045506Y-4969463D01*
X35948815Y-5048815D01*
X35869463Y-5145506D01*
X35838715Y-5203031D01*
X35812696Y-5181678D01*
X35746508Y-5146299D01*
X35674689Y-5124513D01*
X35600000Y-5117157D01*
X34300000Y-5117157D01*
X34225311Y-5124513D01*
X34153492Y-5146299D01*
X34087304Y-5181678D01*
X34029289Y-5229289D01*
X33981678Y-5287304D01*
X33946299Y-5353492D01*
X33924513Y-5425311D01*
X33917157Y-5500000D01*
X33917157Y-6500000D01*
X33924513Y-6574689D01*
X33946299Y-6646508D01*
X33981678Y-6712696D01*
X34029289Y-6770711D01*
X34087304Y-6818322D01*
X34153492Y-6853701D01*
X34225311Y-6875487D01*
X34300000Y-6882843D01*
X34344001Y-6882843D01*
X34344000Y-7342157D01*
X34070000Y-7342157D01*
X33995311Y-7349513D01*
X33923492Y-7371299D01*
X33857304Y-7406678D01*
X33799289Y-7454289D01*
X33751678Y-7512304D01*
X33716299Y-7578492D01*
X33694513Y-7650311D01*
X33687157Y-7725000D01*
X33312843Y-7725000D01*
X33305487Y-7650311D01*
X33283701Y-7578492D01*
X33248322Y-7512304D01*
X33200711Y-7454289D01*
X33142696Y-7406678D01*
X33076508Y-7371299D01*
X33004689Y-7349513D01*
X32930000Y-7342157D01*
X32656000Y-7342157D01*
X32656000Y-6548627D01*
X32712696Y-6518322D01*
X32770711Y-6470711D01*
X32818322Y-6412696D01*
X32853701Y-6346508D01*
X32875487Y-6274689D01*
X32882843Y-6200000D01*
X32882843Y-4900000D01*
X32875487Y-4825311D01*
X32853701Y-4753492D01*
X32818322Y-4687304D01*
X32770711Y-4629289D01*
X32712696Y-4581678D01*
X32646508Y-4546299D01*
X32574689Y-4524513D01*
X32500000Y-4517157D01*
X31500000Y-4517157D01*
X31425311Y-4524513D01*
X31353492Y-4546299D01*
X31287304Y-4581678D01*
X31229289Y-4629289D01*
X31181678Y-4687304D01*
X31146299Y-4753492D01*
X31124513Y-4825311D01*
X31117157Y-4900000D01*
X31117157Y-6200000D01*
X31124513Y-6274689D01*
X31146299Y-6346508D01*
X31181678Y-6412696D01*
X31229289Y-6470711D01*
X31287304Y-6518322D01*
X31353492Y-6553701D01*
X31425311Y-6575487D01*
X31500000Y-6582843D01*
X31644001Y-6582843D01*
X31644000Y-7342157D01*
X31370000Y-7342157D01*
X31295311Y-7349513D01*
X31223492Y-7371299D01*
X31157304Y-7406678D01*
X31099289Y-7454289D01*
X31051678Y-7512304D01*
X31016299Y-7578492D01*
X30994513Y-7650311D01*
X30987157Y-7725000D01*
X30987157Y-8167728D01*
X30918815Y-8223815D01*
X30839463Y-8320506D01*
X30780498Y-8430820D01*
X30744188Y-8550518D01*
X30731928Y-8675000D01*
X25029076Y-8675000D01*
X24914366Y-8560290D01*
X24602356Y-8351811D01*
X24255668Y-8208209D01*
X24206000Y-8198329D01*
X24206000Y-8000000D01*
X27061928Y-8000000D01*
X27074188Y-8124482D01*
X27110498Y-8244180D01*
X27169463Y-8354494D01*
X27248815Y-8451185D01*
X27345506Y-8530537D01*
X27455820Y-8589502D01*
X27575518Y-8625812D01*
X27700000Y-8638072D01*
X28214250Y-8635000D01*
X28373000Y-8476250D01*
X28373000Y-7127000D01*
X28627000Y-7127000D01*
X28627000Y-8476250D01*
X28785750Y-8635000D01*
X29300000Y-8638072D01*
X29424482Y-8625812D01*
X29544180Y-8589502D01*
X29654494Y-8530537D01*
X29751185Y-8451185D01*
X29830537Y-8354494D01*
X29889502Y-8244180D01*
X29925812Y-8124482D01*
X29938072Y-8000000D01*
X29935000Y-7285750D01*
X29776250Y-7127000D01*
X28627000Y-7127000D01*
X28373000Y-7127000D01*
X27223750Y-7127000D01*
X27065000Y-7285750D01*
X27061928Y-8000000D01*
X24206000Y-8000000D01*
X24206000Y-6801671D01*
X24255668Y-6791791D01*
X24602356Y-6648189D01*
X24914366Y-6439710D01*
X25179710Y-6174366D01*
X25296217Y-6000000D01*
X27061928Y-6000000D01*
X27065000Y-6714250D01*
X27223750Y-6873000D01*
X28373000Y-6873000D01*
X28373000Y-5523750D01*
X28627000Y-5523750D01*
X28627000Y-6873000D01*
X29776250Y-6873000D01*
X29935000Y-6714250D01*
X29938072Y-6000000D01*
X29925812Y-5875518D01*
X29889502Y-5755820D01*
X29830537Y-5645506D01*
X29751185Y-5548815D01*
X29654494Y-5469463D01*
X29544180Y-5410498D01*
X29424482Y-5374188D01*
X29300000Y-5361928D01*
X28785750Y-5365000D01*
X28627000Y-5523750D01*
X28373000Y-5523750D01*
X28214250Y-5365000D01*
X27700000Y-5361928D01*
X27575518Y-5374188D01*
X27455820Y-5410498D01*
X27345506Y-5469463D01*
X27248815Y-5548815D01*
X27169463Y-5645506D01*
X27110498Y-5755820D01*
X27074188Y-5875518D01*
X27061928Y-6000000D01*
X25296217Y-6000000D01*
X25388189Y-5862356D01*
X25531791Y-5515668D01*
X25605000Y-5147626D01*
X25605000Y-4772374D01*
X25531791Y-4404332D01*
X25388189Y-4057644D01*
X25179710Y-3745634D01*
X24914366Y-3480290D01*
X24602356Y-3271811D01*
X24255668Y-3128209D01*
X23887626Y-3055000D01*
X23512374Y-3055000D01*
X23144332Y-3128209D01*
X22797644Y-3271811D01*
X22485634Y-3480290D01*
X22220290Y-3745634D01*
X22011811Y-4057644D01*
X21868209Y-4404332D01*
X21858329Y-4454000D01*
X19734846Y-4454000D01*
X19710000Y-4451553D01*
X19685154Y-4454000D01*
X16814854Y-4454000D01*
X16790000Y-4451552D01*
X16765146Y-4454000D01*
X16690807Y-4461322D01*
X16595425Y-4490255D01*
X16507521Y-4537241D01*
X16430473Y-4600473D01*
X16414628Y-4619780D01*
X15739780Y-5294629D01*
X15720474Y-5310473D01*
X15657242Y-5387521D01*
X15637043Y-5425311D01*
X15610255Y-5475426D01*
X15581322Y-5570808D01*
X15572676Y-5658593D01*
X15524332Y-5668209D01*
X15177644Y-5811811D01*
X14865634Y-6020290D01*
X14600290Y-6285634D01*
X14391811Y-6597644D01*
X14248209Y-6944332D01*
X14175000Y-7312374D01*
X12127000Y-7312374D01*
X12127000Y-2800000D01*
X31117157Y-2800000D01*
X31117157Y-4100000D01*
X31124513Y-4174689D01*
X31146299Y-4246508D01*
X31181678Y-4312696D01*
X31229289Y-4370711D01*
X31287304Y-4418322D01*
X31353492Y-4453701D01*
X31425311Y-4475487D01*
X31500000Y-4482843D01*
X32500000Y-4482843D01*
X32574689Y-4475487D01*
X32646508Y-4453701D01*
X32712696Y-4418322D01*
X32770711Y-4370711D01*
X32818322Y-4312696D01*
X32853701Y-4246508D01*
X32875487Y-4174689D01*
X32882843Y-4100000D01*
X32882843Y-3956000D01*
X33792157Y-3956000D01*
X33792157Y-4000000D01*
X33799513Y-4074689D01*
X33821299Y-4146508D01*
X33856678Y-4212696D01*
X33904289Y-4270711D01*
X33962304Y-4318322D01*
X34028492Y-4353701D01*
X34100311Y-4375487D01*
X34175000Y-4382843D01*
X35575000Y-4382843D01*
X35649689Y-4375487D01*
X35721508Y-4353701D01*
X35787696Y-4318322D01*
X35845711Y-4270711D01*
X35893322Y-4212696D01*
X35928701Y-4146508D01*
X35950487Y-4074689D01*
X35957843Y-4000000D01*
X35957843Y-3000000D01*
X35950487Y-2925311D01*
X35928701Y-2853492D01*
X35893322Y-2787304D01*
X35845711Y-2729289D01*
X35787696Y-2681678D01*
X35721508Y-2646299D01*
X35649689Y-2624513D01*
X35575000Y-2617157D01*
X34175000Y-2617157D01*
X34100311Y-2624513D01*
X34028492Y-2646299D01*
X33962304Y-2681678D01*
X33904289Y-2729289D01*
X33856678Y-2787304D01*
X33821299Y-2853492D01*
X33799513Y-2925311D01*
X33797672Y-2944000D01*
X32882843Y-2944000D01*
X32882843Y-2800000D01*
X32875487Y-2725311D01*
X32853701Y-2653492D01*
X32818322Y-2587304D01*
X32770711Y-2529289D01*
X32712696Y-2481678D01*
X32646508Y-2446299D01*
X32574689Y-2424513D01*
X32500000Y-2417157D01*
X31500000Y-2417157D01*
X31425311Y-2424513D01*
X31353492Y-2446299D01*
X31287304Y-2481678D01*
X31229289Y-2529289D01*
X31181678Y-2587304D01*
X31146299Y-2653492D01*
X31124513Y-2725311D01*
X31117157Y-2800000D01*
X12127000Y-2800000D01*
X12127000Y-406000D01*
X87873000Y-406000D01*
X87873000Y-14594000D01*
M02*
