M48
; DRILL file {KiCad (5.1.6)-1} date 10/13/20 17:41:23
; FORMAT={-:-/ absolute / inch / decimal}
; #@! TF.CreationDate,2020-10-13T17:41:23+02:00
; #@! TF.GenerationSoftware,Kicad,Pcbnew,(5.1.6)-1
; #@! TF.FileFunction,Plated,1,2,PTH
FMAT,2
INCH
T1C0.0157
T2C0.0315
T3C0.0433
T4C0.0750
%
G90
G05
T1
X4.9803Y-4.0059
X4.9803Y-4.0551
X4.9803Y-4.0945
X5.0197Y-4.0059
X5.0197Y-4.0551
X5.0197Y-4.0945
X5.0591Y-4.0059
X5.0591Y-4.0551
X5.0591Y-4.0945
X5.0591Y-4.4587
X5.0984Y-4.0059
X5.0984Y-4.0551
X5.0984Y-4.4587
X5.1378Y-4.0059
X5.1378Y-4.0551
X5.1378Y-4.2913
X5.1378Y-4.3996
X5.1378Y-4.4587
X5.1772Y-4.4587
X5.2165Y-4.4587
X5.2461Y-4.1043
X5.2461Y-4.1437
X5.315Y-4.3898
X5.3543Y-4.3898
X5.3937Y-4.3898
X5.4193Y-4.3287
X5.4685Y-4.0748
X5.5276Y-4.0827
X5.561Y-4.2815
X5.6142Y-4.4291
X5.7815Y-4.2539
X6.2402Y-4.1358
X6.2402Y-4.3681
X6.3386Y-4.0433
X6.4134Y-4.128
X6.4134Y-4.2598
X6.502Y-4.1201
X6.502Y-4.3012
X6.5059Y-4.4213
X6.5551Y-4.1201
X6.5551Y-4.3012
X6.6713Y-4.1752
X7.0669Y-4.0748
X7.0669Y-4.1142
X7.0669Y-4.3504
X7.0669Y-4.3898
X7.1063Y-4.0748
X7.1063Y-4.1142
X7.1063Y-4.3504
X7.1063Y-4.3898
X7.1457Y-4.0748
X7.1457Y-4.1142
X7.1457Y-4.3504
X7.1457Y-4.3898
X7.185Y-4.0748
X7.185Y-4.1142
X7.185Y-4.3504
X7.185Y-4.3898
X7.2244Y-4.0748
X7.2244Y-4.1142
X7.2244Y-4.3504
X7.2244Y-4.3898
X7.2638Y-4.0748
X7.2638Y-4.1142
X7.2638Y-4.3504
X7.2638Y-4.3898
X7.3031Y-4.0748
X7.3031Y-4.1142
X7.3031Y-4.3504
X7.3031Y-4.3898
T2
X5.8555Y-4.1073
X5.8555Y-4.2073
X5.8555Y-4.3073
X5.9555Y-4.1573
X5.9555Y-4.2573
X5.9555Y-4.3573
T3
X6.1024Y-4.1823
X6.1024Y-4.2823
T4
X4.5701Y-4.2323
X4.8701Y-4.1323
X4.8701Y-4.3323
X6.7598Y-4.1323
X6.7598Y-4.3323
X6.9409Y-4.1323
X6.9409Y-4.3323
X7.0598Y-4.2323
X7.2409Y-4.2323
T0
M30
