G04 #@! TF.GenerationSoftware,KiCad,Pcbnew,(5.1.6)-1*
G04 #@! TF.CreationDate,2020-10-13T20:39:59+02:00*
G04 #@! TF.ProjectId,ChargerModule,43686172-6765-4724-9d6f-64756c652e6b,00*
G04 #@! TF.SameCoordinates,PX5f5e100PY5f5e100*
G04 #@! TF.FileFunction,Legend,Top*
G04 #@! TF.FilePolarity,Positive*
%FSLAX46Y46*%
G04 Gerber Fmt 4.6, Leading zero omitted, Abs format (unit mm)*
G04 Created by KiCad (PCBNEW (5.1.6)-1) date 2020-10-13 20:39:59*
%MOMM*%
%LPD*%
G01*
G04 APERTURE LIST*
%ADD10C,0.150000*%
%ADD11C,0.120000*%
G04 APERTURE END LIST*
D10*
X54619047Y-11571428D02*
X55380952Y-11571428D01*
X54619047Y-3571428D02*
X55380952Y-3571428D01*
X55000000Y-3952380D02*
X55000000Y-3190476D01*
D11*
X56905000Y-4325000D02*
X56905000Y-10675000D01*
X56905000Y-10675000D02*
X53095000Y-10675000D01*
X53095000Y-10675000D02*
X53095000Y-4325000D01*
X53095000Y-4325000D02*
X56905000Y-4325000D01*
X47800000Y-2075000D02*
X50800000Y-2075000D01*
X52800000Y-9965000D02*
X52800000Y-12965000D01*
X47200000Y-2725000D02*
X47200000Y-5725000D01*
X49800000Y-12965000D02*
X52800000Y-12965000D01*
X47200000Y-2725000D02*
X47800000Y-2075000D01*
X62260000Y-7580000D02*
X62260000Y-6650000D01*
X62260000Y-4420000D02*
X62260000Y-5350000D01*
X62260000Y-4420000D02*
X59100000Y-4420000D01*
X62260000Y-7580000D02*
X60800000Y-7580000D01*
X44500000Y-2150000D02*
X43500000Y-2150000D01*
X43500000Y-3850000D02*
X44500000Y-3850000D01*
X44760000Y-7580000D02*
X44760000Y-6650000D01*
X44760000Y-4420000D02*
X44760000Y-5350000D01*
X44760000Y-4420000D02*
X41600000Y-4420000D01*
X44760000Y-7580000D02*
X43300000Y-7580000D01*
X43240000Y-8420000D02*
X43240000Y-9350000D01*
X43240000Y-11580000D02*
X43240000Y-10650000D01*
X43240000Y-11580000D02*
X46400000Y-11580000D01*
X43240000Y-8420000D02*
X44700000Y-8420000D01*
X62260000Y-11580000D02*
X62260000Y-10650000D01*
X62260000Y-8420000D02*
X62260000Y-9350000D01*
X62260000Y-8420000D02*
X59100000Y-8420000D01*
X62260000Y-11580000D02*
X60800000Y-11580000D01*
X67000000Y-10150000D02*
X66000000Y-10150000D01*
X66000000Y-11850000D02*
X67000000Y-11850000D01*
X67400000Y-5390000D02*
X64950000Y-5390000D01*
X65600000Y-8610000D02*
X67400000Y-8610000D01*
X29520000Y-10000000D02*
X29520000Y-8000000D01*
X27480000Y-8000000D02*
X27480000Y-9000000D01*
X40520000Y-10000000D02*
X40520000Y-8000000D01*
X38480000Y-8000000D02*
X38480000Y-9000000D01*
D10*
X34000000Y-2600000D02*
X34000000Y-4400000D01*
X35900000Y-4400000D02*
X35950000Y-4400000D01*
X34000000Y-4400000D02*
X36300000Y-4400000D01*
X34000000Y-2600000D02*
X36350000Y-2600000D01*
D11*
X32680000Y-4000000D02*
X32680000Y-5000000D01*
X31320000Y-5000000D02*
X31320000Y-4000000D01*
X36500000Y-6680000D02*
X35500000Y-6680000D01*
X35500000Y-5320000D02*
X36500000Y-5320000D01*
X34400000Y-7390000D02*
X31950000Y-7390000D01*
X32600000Y-10610000D02*
X34400000Y-10610000D01*
X20820000Y-7750000D02*
X20820000Y-9750000D01*
X18680000Y-9750000D02*
X18680000Y-7750000D01*
D10*
X56166666Y-2452380D02*
X56166666Y-3166666D01*
X56119047Y-3309523D01*
X56023809Y-3404761D01*
X55880952Y-3452380D01*
X55785714Y-3452380D01*
X56595238Y-2547619D02*
X56642857Y-2500000D01*
X56738095Y-2452380D01*
X56976190Y-2452380D01*
X57071428Y-2500000D01*
X57119047Y-2547619D01*
X57166666Y-2642857D01*
X57166666Y-2738095D01*
X57119047Y-2880952D01*
X56547619Y-3452380D01*
X57166666Y-3452380D01*
X49666666Y-452380D02*
X49666666Y-1166666D01*
X49619047Y-1309523D01*
X49523809Y-1404761D01*
X49380952Y-1452380D01*
X49285714Y-1452380D01*
X50666666Y-1452380D02*
X50095238Y-1452380D01*
X50380952Y-1452380D02*
X50380952Y-452380D01*
X50285714Y-595238D01*
X50190476Y-690476D01*
X50095238Y-738095D01*
X60238095Y-2952380D02*
X60809523Y-2952380D01*
X60523809Y-3952380D02*
X60523809Y-2952380D01*
X61095238Y-3047619D02*
X61142857Y-3000000D01*
X61238095Y-2952380D01*
X61476190Y-2952380D01*
X61571428Y-3000000D01*
X61619047Y-3047619D01*
X61666666Y-3142857D01*
X61666666Y-3238095D01*
X61619047Y-3380952D01*
X61047619Y-3952380D01*
X61666666Y-3952380D01*
X43833333Y-1607142D02*
X43785714Y-1654761D01*
X43642857Y-1702380D01*
X43547619Y-1702380D01*
X43404761Y-1654761D01*
X43309523Y-1559523D01*
X43261904Y-1464285D01*
X43214285Y-1273809D01*
X43214285Y-1130952D01*
X43261904Y-940476D01*
X43309523Y-845238D01*
X43404761Y-750000D01*
X43547619Y-702380D01*
X43642857Y-702380D01*
X43785714Y-750000D01*
X43833333Y-797619D01*
X44166666Y-702380D02*
X44785714Y-702380D01*
X44452380Y-1083333D01*
X44595238Y-1083333D01*
X44690476Y-1130952D01*
X44738095Y-1178571D01*
X44785714Y-1273809D01*
X44785714Y-1511904D01*
X44738095Y-1607142D01*
X44690476Y-1654761D01*
X44595238Y-1702380D01*
X44309523Y-1702380D01*
X44214285Y-1654761D01*
X44166666Y-1607142D01*
X39488095Y-4202380D02*
X39488095Y-5011904D01*
X39535714Y-5107142D01*
X39583333Y-5154761D01*
X39678571Y-5202380D01*
X39869047Y-5202380D01*
X39964285Y-5154761D01*
X40011904Y-5107142D01*
X40059523Y-5011904D01*
X40059523Y-4202380D01*
X40440476Y-4202380D02*
X41059523Y-4202380D01*
X40726190Y-4583333D01*
X40869047Y-4583333D01*
X40964285Y-4630952D01*
X41011904Y-4678571D01*
X41059523Y-4773809D01*
X41059523Y-5011904D01*
X41011904Y-5107142D01*
X40964285Y-5154761D01*
X40869047Y-5202380D01*
X40583333Y-5202380D01*
X40488095Y-5154761D01*
X40440476Y-5107142D01*
X43238095Y-11952380D02*
X43809523Y-11952380D01*
X43523809Y-12952380D02*
X43523809Y-11952380D01*
X44666666Y-12952380D02*
X44095238Y-12952380D01*
X44380952Y-12952380D02*
X44380952Y-11952380D01*
X44285714Y-12095238D01*
X44190476Y-12190476D01*
X44095238Y-12238095D01*
X60738095Y-12202380D02*
X61309523Y-12202380D01*
X61023809Y-13202380D02*
X61023809Y-12202380D01*
X61547619Y-12202380D02*
X62166666Y-12202380D01*
X61833333Y-12583333D01*
X61976190Y-12583333D01*
X62071428Y-12630952D01*
X62119047Y-12678571D01*
X62166666Y-12773809D01*
X62166666Y-13011904D01*
X62119047Y-13107142D01*
X62071428Y-13154761D01*
X61976190Y-13202380D01*
X61690476Y-13202380D01*
X61595238Y-13154761D01*
X61547619Y-13107142D01*
X66833333Y-13107142D02*
X66785714Y-13154761D01*
X66642857Y-13202380D01*
X66547619Y-13202380D01*
X66404761Y-13154761D01*
X66309523Y-13059523D01*
X66261904Y-12964285D01*
X66214285Y-12773809D01*
X66214285Y-12630952D01*
X66261904Y-12440476D01*
X66309523Y-12345238D01*
X66404761Y-12250000D01*
X66547619Y-12202380D01*
X66642857Y-12202380D01*
X66785714Y-12250000D01*
X66833333Y-12297619D01*
X67690476Y-12535714D02*
X67690476Y-13202380D01*
X67452380Y-12154761D02*
X67214285Y-12869047D01*
X67833333Y-12869047D01*
X67488095Y-3952380D02*
X67488095Y-4761904D01*
X67535714Y-4857142D01*
X67583333Y-4904761D01*
X67678571Y-4952380D01*
X67869047Y-4952380D01*
X67964285Y-4904761D01*
X68011904Y-4857142D01*
X68059523Y-4761904D01*
X68059523Y-3952380D01*
X68488095Y-4047619D02*
X68535714Y-4000000D01*
X68630952Y-3952380D01*
X68869047Y-3952380D01*
X68964285Y-4000000D01*
X69011904Y-4047619D01*
X69059523Y-4142857D01*
X69059523Y-4238095D01*
X69011904Y-4380952D01*
X68440476Y-4952380D01*
X69059523Y-4952380D01*
X26083333Y-8857142D02*
X26035714Y-8904761D01*
X25892857Y-8952380D01*
X25797619Y-8952380D01*
X25654761Y-8904761D01*
X25559523Y-8809523D01*
X25511904Y-8714285D01*
X25464285Y-8523809D01*
X25464285Y-8380952D01*
X25511904Y-8190476D01*
X25559523Y-8095238D01*
X25654761Y-8000000D01*
X25797619Y-7952380D01*
X25892857Y-7952380D01*
X26035714Y-8000000D01*
X26083333Y-8047619D01*
X26464285Y-8047619D02*
X26511904Y-8000000D01*
X26607142Y-7952380D01*
X26845238Y-7952380D01*
X26940476Y-8000000D01*
X26988095Y-8047619D01*
X27035714Y-8142857D01*
X27035714Y-8238095D01*
X26988095Y-8380952D01*
X26416666Y-8952380D01*
X27035714Y-8952380D01*
X39333333Y-13357142D02*
X39285714Y-13404761D01*
X39142857Y-13452380D01*
X39047619Y-13452380D01*
X38904761Y-13404761D01*
X38809523Y-13309523D01*
X38761904Y-13214285D01*
X38714285Y-13023809D01*
X38714285Y-12880952D01*
X38761904Y-12690476D01*
X38809523Y-12595238D01*
X38904761Y-12500000D01*
X39047619Y-12452380D01*
X39142857Y-12452380D01*
X39285714Y-12500000D01*
X39333333Y-12547619D01*
X40285714Y-13452380D02*
X39714285Y-13452380D01*
X40000000Y-13452380D02*
X40000000Y-12452380D01*
X39904761Y-12595238D01*
X39809523Y-12690476D01*
X39714285Y-12738095D01*
X35261904Y-2202380D02*
X35261904Y-1202380D01*
X35642857Y-1202380D01*
X35738095Y-1250000D01*
X35785714Y-1297619D01*
X35833333Y-1392857D01*
X35833333Y-1535714D01*
X35785714Y-1630952D01*
X35738095Y-1678571D01*
X35642857Y-1726190D01*
X35261904Y-1726190D01*
X36785714Y-2202380D02*
X36214285Y-2202380D01*
X36500000Y-2202380D02*
X36500000Y-1202380D01*
X36404761Y-1345238D01*
X36309523Y-1440476D01*
X36214285Y-1488095D01*
X30083333Y-4952380D02*
X29750000Y-4476190D01*
X29511904Y-4952380D02*
X29511904Y-3952380D01*
X29892857Y-3952380D01*
X29988095Y-4000000D01*
X30035714Y-4047619D01*
X30083333Y-4142857D01*
X30083333Y-4285714D01*
X30035714Y-4380952D01*
X29988095Y-4428571D01*
X29892857Y-4476190D01*
X29511904Y-4476190D01*
X31035714Y-4952380D02*
X30464285Y-4952380D01*
X30750000Y-4952380D02*
X30750000Y-3952380D01*
X30654761Y-4095238D01*
X30559523Y-4190476D01*
X30464285Y-4238095D01*
X37202380Y-10047619D02*
X36726190Y-10380952D01*
X37202380Y-10619047D02*
X36202380Y-10619047D01*
X36202380Y-10238095D01*
X36250000Y-10142857D01*
X36297619Y-10095238D01*
X36392857Y-10047619D01*
X36535714Y-10047619D01*
X36630952Y-10095238D01*
X36678571Y-10142857D01*
X36726190Y-10238095D01*
X36726190Y-10619047D01*
X37154761Y-9190476D02*
X37202380Y-9285714D01*
X37202380Y-9476190D01*
X37154761Y-9571428D01*
X37107142Y-9619047D01*
X37011904Y-9666666D01*
X36726190Y-9666666D01*
X36630952Y-9619047D01*
X36583333Y-9571428D01*
X36535714Y-9476190D01*
X36535714Y-9285714D01*
X36583333Y-9190476D01*
X37202380Y-8761904D02*
X36202380Y-8761904D01*
X37202380Y-8333333D02*
X36678571Y-8333333D01*
X36583333Y-8380952D01*
X36535714Y-8476190D01*
X36535714Y-8619047D01*
X36583333Y-8714285D01*
X36630952Y-8761904D01*
X37202380Y-7333333D02*
X37202380Y-7904761D01*
X37202380Y-7619047D02*
X36202380Y-7619047D01*
X36345238Y-7714285D01*
X36440476Y-7809523D01*
X36488095Y-7904761D01*
X32738095Y-11152380D02*
X32738095Y-11961904D01*
X32785714Y-12057142D01*
X32833333Y-12104761D01*
X32928571Y-12152380D01*
X33119047Y-12152380D01*
X33214285Y-12104761D01*
X33261904Y-12057142D01*
X33309523Y-11961904D01*
X33309523Y-11152380D01*
X34309523Y-12152380D02*
X33738095Y-12152380D01*
X34023809Y-12152380D02*
X34023809Y-11152380D01*
X33928571Y-11295238D01*
X33833333Y-11390476D01*
X33738095Y-11438095D01*
X17166666Y-10678571D02*
X16833333Y-10678571D01*
X16833333Y-11202380D02*
X16833333Y-10202380D01*
X17309523Y-10202380D01*
X18214285Y-11202380D02*
X17642857Y-11202380D01*
X17928571Y-11202380D02*
X17928571Y-10202380D01*
X17833333Y-10345238D01*
X17738095Y-10440476D01*
X17642857Y-10488095D01*
M02*
