G04 #@! TF.GenerationSoftware,KiCad,Pcbnew,(5.1.6)-1*
G04 #@! TF.CreationDate,2020-10-13T20:39:59+02:00*
G04 #@! TF.ProjectId,ChargerModule,43686172-6765-4724-9d6f-64756c652e6b,00*
G04 #@! TF.SameCoordinates,PX5f5e100PY5f5e100*
G04 #@! TF.FileFunction,Soldermask,Top*
G04 #@! TF.FilePolarity,Negative*
%FSLAX46Y46*%
G04 Gerber Fmt 4.6, Leading zero omitted, Abs format (unit mm)*
G04 Created by KiCad (PCBNEW (5.1.6)-1) date 2020-10-13 20:39:59*
%MOMM*%
%LPD*%
G01*
G04 APERTURE LIST*
%ADD10C,5.600000*%
%ADD11C,2.000000*%
%ADD12C,1.600000*%
%ADD13R,1.800000X0.900000*%
%ADD14C,3.148000*%
%ADD15R,1.600000X1.350000*%
%ADD16R,1.660000X0.750000*%
%ADD17R,1.700000X2.100000*%
%ADD18R,1.500000X1.100000*%
%ADD19R,1.100000X1.400000*%
%ADD20R,1.400000X1.100000*%
%ADD21R,2.130000X2.750000*%
G04 APERTURE END LIST*
D10*
X94000000Y-7500000D03*
X6000000Y-7500000D03*
D11*
X55000000Y-8770000D03*
X55000000Y-6230000D03*
D12*
X51270000Y-10675000D03*
X48730000Y-9405000D03*
X51270000Y-8135000D03*
X48730000Y-6865000D03*
X51270000Y-5595000D03*
X48730000Y-4325000D03*
D13*
X62900000Y-6000000D03*
X60100000Y-6950000D03*
X60100000Y-5050000D03*
D14*
X79320000Y-7500000D03*
X71700000Y-4960000D03*
X71700000Y-10040000D03*
X83920000Y-7500000D03*
X76300000Y-4960000D03*
X76300000Y-10040000D03*
X23700000Y-10040000D03*
X23700000Y-4960000D03*
X16080000Y-7500000D03*
D15*
X42750000Y-3000000D03*
X45250000Y-3000000D03*
D13*
X45400000Y-6000000D03*
X42600000Y-6950000D03*
X42600000Y-5050000D03*
X42600000Y-10000000D03*
X45400000Y-9050000D03*
X45400000Y-10950000D03*
X62900000Y-10000000D03*
X60100000Y-10950000D03*
X60100000Y-9050000D03*
D15*
X65250000Y-11000000D03*
X67750000Y-11000000D03*
D16*
X67850000Y-6050000D03*
X67850000Y-7950000D03*
X65150000Y-7950000D03*
X65150000Y-7000000D03*
X65150000Y-6050000D03*
D17*
X28500000Y-11000000D03*
X28500000Y-7000000D03*
X39500000Y-11000000D03*
X39500000Y-7000000D03*
D18*
X37125000Y-3500000D03*
X34875000Y-3500000D03*
D19*
X32000000Y-5550000D03*
X32000000Y-3450000D03*
D20*
X34950000Y-6000000D03*
X37050000Y-6000000D03*
D16*
X34850000Y-8050000D03*
X34850000Y-9950000D03*
X32150000Y-9950000D03*
X32150000Y-9000000D03*
X32150000Y-8050000D03*
D21*
X19750000Y-6660000D03*
X19750000Y-10840000D03*
M02*
