G04 #@! TF.GenerationSoftware,KiCad,Pcbnew,(5.1.6)-1*
G04 #@! TF.CreationDate,2020-10-13T20:44:17+02:00*
G04 #@! TF.ProjectId,SolarPanelAdapter,536f6c61-7250-4616-9e65-6c4164617074,rev?*
G04 #@! TF.SameCoordinates,PX7ed6b40PY53ec600*
G04 #@! TF.FileFunction,Legend,Top*
G04 #@! TF.FilePolarity,Positive*
%FSLAX46Y46*%
G04 Gerber Fmt 4.6, Leading zero omitted, Abs format (unit mm)*
G04 Created by KiCad (PCBNEW (5.1.6)-1) date 2020-10-13 20:44:17*
%MOMM*%
%LPD*%
G01*
G04 APERTURE LIST*
%ADD10C,0.120000*%
%ADD11C,0.150000*%
G04 APERTURE END LIST*
D10*
X8575000Y-9695000D02*
X3425000Y-9695000D01*
X7575000Y-1345000D02*
X8575000Y-2345000D01*
X3425000Y-1345000D02*
X3425000Y-2345000D01*
X7575000Y-1345000D02*
X3425000Y-1345000D01*
X17500000Y-9000000D02*
X12500000Y-9000000D01*
X17500000Y-2000000D02*
X12500000Y-2000000D01*
X12500000Y-2000000D02*
X12500000Y-4500000D01*
X17500000Y-2000000D02*
X17500000Y-4500000D01*
D11*
X1952380Y-2333333D02*
X2666666Y-2333333D01*
X2809523Y-2380952D01*
X2904761Y-2476190D01*
X2952380Y-2619047D01*
X2952380Y-2714285D01*
X2952380Y-1333333D02*
X2952380Y-1904761D01*
X2952380Y-1619047D02*
X1952380Y-1619047D01*
X2095238Y-1714285D01*
X2190476Y-1809523D01*
X2238095Y-1904761D01*
X10952380Y-9333333D02*
X11666666Y-9333333D01*
X11809523Y-9380952D01*
X11904761Y-9476190D01*
X11952380Y-9619047D01*
X11952380Y-9714285D01*
X11047619Y-8904761D02*
X11000000Y-8857142D01*
X10952380Y-8761904D01*
X10952380Y-8523809D01*
X11000000Y-8428571D01*
X11047619Y-8380952D01*
X11142857Y-8333333D01*
X11238095Y-8333333D01*
X11380952Y-8380952D01*
X11952380Y-8952380D01*
X11952380Y-8333333D01*
M02*
