%TF.GenerationSoftware,KiCad,Pcbnew,(5.1.6)-1*%
%TF.CreationDate,2020-10-13T17:37:02+02:00*%
%TF.ProjectId,SolarPanelAdapter,536f6c61-7250-4616-9e65-6c4164617074,rev?*%
%TF.SameCoordinates,Original*%
%TF.FileFunction,Legend,Top*%
%TF.FilePolarity,Positive*%
%FSLAX46Y46*%
G04 Gerber Fmt 4.6, Leading zero omitted, Abs format (unit mm)*
G04 Created by KiCad (PCBNEW (5.1.6)-1) date 2020-10-13 17:37:02*
%MOMM*%
%LPD*%
G01*
G04 APERTURE LIST*
%ADD10C,0.120000*%
%ADD11C,0.150000*%
G04 APERTURE END LIST*
D10*
%TO.C,J1*%
X141575000Y-97695000D02*
X136425000Y-97695000D01*
X140575000Y-89345000D02*
X141575000Y-90345000D01*
X136425000Y-89345000D02*
X136425000Y-90345000D01*
X140575000Y-89345000D02*
X136425000Y-89345000D01*
%TO.C,J2*%
X150500000Y-97000000D02*
X145500000Y-97000000D01*
X150500000Y-90000000D02*
X145500000Y-90000000D01*
X145500000Y-90000000D02*
X145500000Y-92500000D01*
X150500000Y-90000000D02*
X150500000Y-92500000D01*
%TO.C,J1*%
D11*
X134952380Y-90333333D02*
X135666666Y-90333333D01*
X135809523Y-90380952D01*
X135904761Y-90476190D01*
X135952380Y-90619047D01*
X135952380Y-90714285D01*
X135952380Y-89333333D02*
X135952380Y-89904761D01*
X135952380Y-89619047D02*
X134952380Y-89619047D01*
X135095238Y-89714285D01*
X135190476Y-89809523D01*
X135238095Y-89904761D01*
%TO.C,J2*%
X143952380Y-97333333D02*
X144666666Y-97333333D01*
X144809523Y-97380952D01*
X144904761Y-97476190D01*
X144952380Y-97619047D01*
X144952380Y-97714285D01*
X144047619Y-96904761D02*
X144000000Y-96857142D01*
X143952380Y-96761904D01*
X143952380Y-96523809D01*
X144000000Y-96428571D01*
X144047619Y-96380952D01*
X144142857Y-96333333D01*
X144238095Y-96333333D01*
X144380952Y-96380952D01*
X144952380Y-96952380D01*
X144952380Y-96333333D01*
%TD*%
M02*
