G04 #@! TF.GenerationSoftware,KiCad,Pcbnew,(5.1.6)-1*
G04 #@! TF.CreationDate,2020-10-13T20:44:17+02:00*
G04 #@! TF.ProjectId,SolarPanelAdapter,536f6c61-7250-4616-9e65-6c4164617074,rev?*
G04 #@! TF.SameCoordinates,PX7ed6b40PY53ec600*
G04 #@! TF.FileFunction,Legend,Bot*
G04 #@! TF.FilePolarity,Positive*
%FSLAX46Y46*%
G04 Gerber Fmt 4.6, Leading zero omitted, Abs format (unit mm)*
G04 Created by KiCad (PCBNEW (5.1.6)-1) date 2020-10-13 20:44:17*
%MOMM*%
%LPD*%
G01*
G04 APERTURE LIST*
%ADD10C,0.150000*%
G04 APERTURE END LIST*
D10*
X15666666Y-3278571D02*
X15333333Y-3278571D01*
X15190476Y-3802380D02*
X15666666Y-3802380D01*
X15666666Y-2802380D01*
X15190476Y-2802380D01*
X14809523Y-3754761D02*
X14714285Y-3802380D01*
X14523809Y-3802380D01*
X14428571Y-3754761D01*
X14380952Y-3659523D01*
X14380952Y-3611904D01*
X14428571Y-3516666D01*
X14523809Y-3469047D01*
X14666666Y-3469047D01*
X14761904Y-3421428D01*
X14809523Y-3326190D01*
X14809523Y-3278571D01*
X14761904Y-3183333D01*
X14666666Y-3135714D01*
X14523809Y-3135714D01*
X14428571Y-3183333D01*
X14000000Y-3754761D02*
X13904761Y-3802380D01*
X13714285Y-3802380D01*
X13619047Y-3754761D01*
X13571428Y-3659523D01*
X13571428Y-3611904D01*
X13619047Y-3516666D01*
X13714285Y-3469047D01*
X13857142Y-3469047D01*
X13952380Y-3421428D01*
X14000000Y-3326190D01*
X14000000Y-3278571D01*
X13952380Y-3183333D01*
X13857142Y-3135714D01*
X13714285Y-3135714D01*
X13619047Y-3183333D01*
X12761904Y-3754761D02*
X12857142Y-3802380D01*
X13047619Y-3802380D01*
X13142857Y-3754761D01*
X13190476Y-3659523D01*
X13190476Y-3278571D01*
X13142857Y-3183333D01*
X13047619Y-3135714D01*
X12857142Y-3135714D01*
X12761904Y-3183333D01*
X12714285Y-3278571D01*
X12714285Y-3373809D01*
X13190476Y-3469047D01*
X12285714Y-3802380D02*
X12285714Y-3135714D01*
X12285714Y-2802380D02*
X12333333Y-2850000D01*
X12285714Y-2897619D01*
X12238095Y-2850000D01*
X12285714Y-2802380D01*
X12285714Y-2897619D01*
X11904761Y-3135714D02*
X11666666Y-3802380D01*
X11428571Y-3135714D01*
X10619047Y-3802380D02*
X10619047Y-3278571D01*
X10666666Y-3183333D01*
X10761904Y-3135714D01*
X10952380Y-3135714D01*
X11047619Y-3183333D01*
X10619047Y-3754761D02*
X10714285Y-3802380D01*
X10952380Y-3802380D01*
X11047619Y-3754761D01*
X11095238Y-3659523D01*
X11095238Y-3564285D01*
X11047619Y-3469047D01*
X10952380Y-3421428D01*
X10714285Y-3421428D01*
X10619047Y-3373809D01*
X9380952Y-3802380D02*
X9380952Y-2802380D01*
X8809523Y-3802380D01*
X8809523Y-2802380D01*
X8333333Y-3802380D02*
X8333333Y-3135714D01*
X8333333Y-2802380D02*
X8380952Y-2850000D01*
X8333333Y-2897619D01*
X8285714Y-2850000D01*
X8333333Y-2802380D01*
X8333333Y-2897619D01*
X7428571Y-3754761D02*
X7523809Y-3802380D01*
X7714285Y-3802380D01*
X7809523Y-3754761D01*
X7857142Y-3707142D01*
X7904761Y-3611904D01*
X7904761Y-3326190D01*
X7857142Y-3230952D01*
X7809523Y-3183333D01*
X7714285Y-3135714D01*
X7523809Y-3135714D01*
X7428571Y-3183333D01*
X6857142Y-3802380D02*
X6952380Y-3754761D01*
X7000000Y-3707142D01*
X7047619Y-3611904D01*
X7047619Y-3326190D01*
X7000000Y-3230952D01*
X6952380Y-3183333D01*
X6857142Y-3135714D01*
X6714285Y-3135714D01*
X6619047Y-3183333D01*
X6571428Y-3230952D01*
X6523809Y-3326190D01*
X6523809Y-3611904D01*
X6571428Y-3707142D01*
X6619047Y-3754761D01*
X6714285Y-3802380D01*
X6857142Y-3802380D01*
X5952380Y-3802380D02*
X6047619Y-3754761D01*
X6095238Y-3659523D01*
X6095238Y-2802380D01*
X5142857Y-3802380D02*
X5142857Y-3278571D01*
X5190476Y-3183333D01*
X5285714Y-3135714D01*
X5476190Y-3135714D01*
X5571428Y-3183333D01*
X5142857Y-3754761D02*
X5238095Y-3802380D01*
X5476190Y-3802380D01*
X5571428Y-3754761D01*
X5619047Y-3659523D01*
X5619047Y-3564285D01*
X5571428Y-3469047D01*
X5476190Y-3421428D01*
X5238095Y-3421428D01*
X5142857Y-3373809D01*
X4714285Y-3754761D02*
X4619047Y-3802380D01*
X4428571Y-3802380D01*
X4333333Y-3754761D01*
X4285714Y-3659523D01*
X4285714Y-3611904D01*
X4333333Y-3516666D01*
X4428571Y-3469047D01*
X4571428Y-3469047D01*
X4666666Y-3421428D01*
X4714285Y-3326190D01*
X4714285Y-3278571D01*
X4666666Y-3183333D01*
X4571428Y-3135714D01*
X4428571Y-3135714D01*
X4333333Y-3183333D01*
X16738095Y-5404761D02*
X16595238Y-5452380D01*
X16357142Y-5452380D01*
X16261904Y-5404761D01*
X16214285Y-5357142D01*
X16166666Y-5261904D01*
X16166666Y-5166666D01*
X16214285Y-5071428D01*
X16261904Y-5023809D01*
X16357142Y-4976190D01*
X16547619Y-4928571D01*
X16642857Y-4880952D01*
X16690476Y-4833333D01*
X16738095Y-4738095D01*
X16738095Y-4642857D01*
X16690476Y-4547619D01*
X16642857Y-4500000D01*
X16547619Y-4452380D01*
X16309523Y-4452380D01*
X16166666Y-4500000D01*
X15595238Y-5452380D02*
X15690476Y-5404761D01*
X15738095Y-5357142D01*
X15785714Y-5261904D01*
X15785714Y-4976190D01*
X15738095Y-4880952D01*
X15690476Y-4833333D01*
X15595238Y-4785714D01*
X15452380Y-4785714D01*
X15357142Y-4833333D01*
X15309523Y-4880952D01*
X15261904Y-4976190D01*
X15261904Y-5261904D01*
X15309523Y-5357142D01*
X15357142Y-5404761D01*
X15452380Y-5452380D01*
X15595238Y-5452380D01*
X14690476Y-5452380D02*
X14785714Y-5404761D01*
X14833333Y-5309523D01*
X14833333Y-4452380D01*
X13880952Y-5452380D02*
X13880952Y-4928571D01*
X13928571Y-4833333D01*
X14023809Y-4785714D01*
X14214285Y-4785714D01*
X14309523Y-4833333D01*
X13880952Y-5404761D02*
X13976190Y-5452380D01*
X14214285Y-5452380D01*
X14309523Y-5404761D01*
X14357142Y-5309523D01*
X14357142Y-5214285D01*
X14309523Y-5119047D01*
X14214285Y-5071428D01*
X13976190Y-5071428D01*
X13880952Y-5023809D01*
X13404761Y-5452380D02*
X13404761Y-4785714D01*
X13404761Y-4976190D02*
X13357142Y-4880952D01*
X13309523Y-4833333D01*
X13214285Y-4785714D01*
X13119047Y-4785714D01*
X11595238Y-5404761D02*
X11690476Y-5452380D01*
X11880952Y-5452380D01*
X11976190Y-5404761D01*
X12023809Y-5357142D01*
X12071428Y-5261904D01*
X12071428Y-4976190D01*
X12023809Y-4880952D01*
X11976190Y-4833333D01*
X11880952Y-4785714D01*
X11690476Y-4785714D01*
X11595238Y-4833333D01*
X10785714Y-5404761D02*
X10880952Y-5452380D01*
X11071428Y-5452380D01*
X11166666Y-5404761D01*
X11214285Y-5309523D01*
X11214285Y-4928571D01*
X11166666Y-4833333D01*
X11071428Y-4785714D01*
X10880952Y-4785714D01*
X10785714Y-4833333D01*
X10738095Y-4928571D01*
X10738095Y-5023809D01*
X11214285Y-5119047D01*
X10166666Y-5452380D02*
X10261904Y-5404761D01*
X10309523Y-5309523D01*
X10309523Y-4452380D01*
X9642857Y-5452380D02*
X9738095Y-5404761D01*
X9785714Y-5309523D01*
X9785714Y-4452380D01*
X8071428Y-5452380D02*
X8071428Y-4928571D01*
X8119047Y-4833333D01*
X8214285Y-4785714D01*
X8404761Y-4785714D01*
X8500000Y-4833333D01*
X8071428Y-5404761D02*
X8166666Y-5452380D01*
X8404761Y-5452380D01*
X8500000Y-5404761D01*
X8547619Y-5309523D01*
X8547619Y-5214285D01*
X8500000Y-5119047D01*
X8404761Y-5071428D01*
X8166666Y-5071428D01*
X8071428Y-5023809D01*
X7166666Y-5452380D02*
X7166666Y-4452380D01*
X7166666Y-5404761D02*
X7261904Y-5452380D01*
X7452380Y-5452380D01*
X7547619Y-5404761D01*
X7595238Y-5357142D01*
X7642857Y-5261904D01*
X7642857Y-4976190D01*
X7595238Y-4880952D01*
X7547619Y-4833333D01*
X7452380Y-4785714D01*
X7261904Y-4785714D01*
X7166666Y-4833333D01*
X6261904Y-5452380D02*
X6261904Y-4928571D01*
X6309523Y-4833333D01*
X6404761Y-4785714D01*
X6595238Y-4785714D01*
X6690476Y-4833333D01*
X6261904Y-5404761D02*
X6357142Y-5452380D01*
X6595238Y-5452380D01*
X6690476Y-5404761D01*
X6738095Y-5309523D01*
X6738095Y-5214285D01*
X6690476Y-5119047D01*
X6595238Y-5071428D01*
X6357142Y-5071428D01*
X6261904Y-5023809D01*
X5785714Y-4785714D02*
X5785714Y-5785714D01*
X5785714Y-4833333D02*
X5690476Y-4785714D01*
X5500000Y-4785714D01*
X5404761Y-4833333D01*
X5357142Y-4880952D01*
X5309523Y-4976190D01*
X5309523Y-5261904D01*
X5357142Y-5357142D01*
X5404761Y-5404761D01*
X5500000Y-5452380D01*
X5690476Y-5452380D01*
X5785714Y-5404761D01*
X5023809Y-4785714D02*
X4642857Y-4785714D01*
X4880952Y-4452380D02*
X4880952Y-5309523D01*
X4833333Y-5404761D01*
X4738095Y-5452380D01*
X4642857Y-5452380D01*
X3928571Y-5404761D02*
X4023809Y-5452380D01*
X4214285Y-5452380D01*
X4309523Y-5404761D01*
X4357142Y-5309523D01*
X4357142Y-4928571D01*
X4309523Y-4833333D01*
X4214285Y-4785714D01*
X4023809Y-4785714D01*
X3928571Y-4833333D01*
X3880952Y-4928571D01*
X3880952Y-5023809D01*
X4357142Y-5119047D01*
X3452380Y-5452380D02*
X3452380Y-4785714D01*
X3452380Y-4976190D02*
X3404761Y-4880952D01*
X3357142Y-4833333D01*
X3261904Y-4785714D01*
X3166666Y-4785714D01*
X15452380Y-6197619D02*
X15404761Y-6150000D01*
X15309523Y-6102380D01*
X15071428Y-6102380D01*
X14976190Y-6150000D01*
X14928571Y-6197619D01*
X14880952Y-6292857D01*
X14880952Y-6388095D01*
X14928571Y-6530952D01*
X15500000Y-7102380D01*
X14880952Y-7102380D01*
X14023809Y-6435714D02*
X14023809Y-7102380D01*
X14261904Y-6054761D02*
X14500000Y-6769047D01*
X13880952Y-6769047D01*
X13309523Y-6102380D02*
X13214285Y-6102380D01*
X13119047Y-6150000D01*
X13071428Y-6197619D01*
X13023809Y-6292857D01*
X12976190Y-6483333D01*
X12976190Y-6721428D01*
X13023809Y-6911904D01*
X13071428Y-7007142D01*
X13119047Y-7054761D01*
X13214285Y-7102380D01*
X13309523Y-7102380D01*
X13404761Y-7054761D01*
X13452380Y-7007142D01*
X13500000Y-6911904D01*
X13547619Y-6721428D01*
X13547619Y-6483333D01*
X13500000Y-6292857D01*
X13452380Y-6197619D01*
X13404761Y-6150000D01*
X13309523Y-6102380D01*
X12500000Y-7102380D02*
X12309523Y-7102380D01*
X12214285Y-7054761D01*
X12166666Y-7007142D01*
X12071428Y-6864285D01*
X12023809Y-6673809D01*
X12023809Y-6292857D01*
X12071428Y-6197619D01*
X12119047Y-6150000D01*
X12214285Y-6102380D01*
X12404761Y-6102380D01*
X12500000Y-6150000D01*
X12547619Y-6197619D01*
X12595238Y-6292857D01*
X12595238Y-6530952D01*
X12547619Y-6626190D01*
X12500000Y-6673809D01*
X12404761Y-6721428D01*
X12214285Y-6721428D01*
X12119047Y-6673809D01*
X12071428Y-6626190D01*
X12023809Y-6530952D01*
X11642857Y-6197619D02*
X11595238Y-6150000D01*
X11500000Y-6102380D01*
X11261904Y-6102380D01*
X11166666Y-6150000D01*
X11119047Y-6197619D01*
X11071428Y-6292857D01*
X11071428Y-6388095D01*
X11119047Y-6530952D01*
X11690476Y-7102380D01*
X11071428Y-7102380D01*
X10452380Y-6102380D02*
X10357142Y-6102380D01*
X10261904Y-6150000D01*
X10214285Y-6197619D01*
X10166666Y-6292857D01*
X10119047Y-6483333D01*
X10119047Y-6721428D01*
X10166666Y-6911904D01*
X10214285Y-7007142D01*
X10261904Y-7054761D01*
X10357142Y-7102380D01*
X10452380Y-7102380D01*
X10547619Y-7054761D01*
X10595238Y-7007142D01*
X10642857Y-6911904D01*
X10690476Y-6721428D01*
X10690476Y-6483333D01*
X10642857Y-6292857D01*
X10595238Y-6197619D01*
X10547619Y-6150000D01*
X10452380Y-6102380D01*
X9738095Y-6197619D02*
X9690476Y-6150000D01*
X9595238Y-6102380D01*
X9357142Y-6102380D01*
X9261904Y-6150000D01*
X9214285Y-6197619D01*
X9166666Y-6292857D01*
X9166666Y-6388095D01*
X9214285Y-6530952D01*
X9785714Y-7102380D01*
X9166666Y-7102380D01*
X8547619Y-6102380D02*
X8452380Y-6102380D01*
X8357142Y-6150000D01*
X8309523Y-6197619D01*
X8261904Y-6292857D01*
X8214285Y-6483333D01*
X8214285Y-6721428D01*
X8261904Y-6911904D01*
X8309523Y-7007142D01*
X8357142Y-7054761D01*
X8452380Y-7102380D01*
X8547619Y-7102380D01*
X8642857Y-7054761D01*
X8690476Y-7007142D01*
X8738095Y-6911904D01*
X8785714Y-6721428D01*
X8785714Y-6483333D01*
X8738095Y-6292857D01*
X8690476Y-6197619D01*
X8642857Y-6150000D01*
X8547619Y-6102380D01*
X6452380Y-7102380D02*
X6785714Y-6626190D01*
X7023809Y-7102380D02*
X7023809Y-6102380D01*
X6642857Y-6102380D01*
X6547619Y-6150000D01*
X6500000Y-6197619D01*
X6452380Y-6292857D01*
X6452380Y-6435714D01*
X6500000Y-6530952D01*
X6547619Y-6578571D01*
X6642857Y-6626190D01*
X7023809Y-6626190D01*
X5833333Y-6102380D02*
X5738095Y-6102380D01*
X5642857Y-6150000D01*
X5595238Y-6197619D01*
X5547619Y-6292857D01*
X5500000Y-6483333D01*
X5500000Y-6721428D01*
X5547619Y-6911904D01*
X5595238Y-7007142D01*
X5642857Y-7054761D01*
X5738095Y-7102380D01*
X5833333Y-7102380D01*
X5928571Y-7054761D01*
X5976190Y-7007142D01*
X6023809Y-6911904D01*
X6071428Y-6721428D01*
X6071428Y-6483333D01*
X6023809Y-6292857D01*
X5976190Y-6197619D01*
X5928571Y-6150000D01*
X5833333Y-6102380D01*
X4880952Y-6102380D02*
X4785714Y-6102380D01*
X4690476Y-6150000D01*
X4642857Y-6197619D01*
X4595238Y-6292857D01*
X4547619Y-6483333D01*
X4547619Y-6721428D01*
X4595238Y-6911904D01*
X4642857Y-7007142D01*
X4690476Y-7054761D01*
X4785714Y-7102380D01*
X4880952Y-7102380D01*
X4976190Y-7054761D01*
X5023809Y-7007142D01*
X5071428Y-6911904D01*
X5119047Y-6721428D01*
X5119047Y-6483333D01*
X5071428Y-6292857D01*
X5023809Y-6197619D01*
X4976190Y-6150000D01*
X4880952Y-6102380D01*
M02*
