%TF.GenerationSoftware,KiCad,Pcbnew,(5.1.6)-1*%
%TF.CreationDate,2020-10-13T17:37:02+02:00*%
%TF.ProjectId,SolarPanelAdapter,536f6c61-7250-4616-9e65-6c4164617074,rev?*%
%TF.SameCoordinates,Original*%
%TF.FileFunction,Copper,L1,Top*%
%TF.FilePolarity,Positive*%
%FSLAX46Y46*%
G04 Gerber Fmt 4.6, Leading zero omitted, Abs format (unit mm)*
G04 Created by KiCad (PCBNEW (5.1.6)-1) date 2020-10-13 17:37:02*
%MOMM*%
%LPD*%
G01*
G04 APERTURE LIST*
%TA.AperFunction,SMDPad,CuDef*%
%ADD10R,3.400000X1.500000*%
%TD*%
%TA.AperFunction,ConnectorPad*%
%ADD11R,4.000000X2.000000*%
%TD*%
%TA.AperFunction,Conductor*%
%ADD12C,0.250000*%
%TD*%
%TA.AperFunction,Conductor*%
%ADD13C,0.254000*%
%TD*%
G04 APERTURE END LIST*
D10*
%TO.P,J1,4*%
%TO.N,/GND*%
X136550000Y-95405000D03*
%TO.P,J1,2*%
%TO.N,/V+*%
X136550000Y-92865000D03*
%TO.P,J1,3*%
%TO.N,/GND*%
X141450000Y-94135000D03*
%TO.P,J1,1*%
%TO.N,/V+*%
X141450000Y-91595000D03*
%TD*%
D11*
%TO.P,J2,2*%
%TO.N,/GND*%
X148000000Y-95405000D03*
%TO.P,J2,1*%
%TO.N,/V+*%
X148000000Y-91595000D03*
%TD*%
D12*
%TO.N,/GND*%
X141450000Y-94135000D02*
X141450000Y-95400000D01*
X141450000Y-95400000D02*
X141445000Y-95405000D01*
X136550000Y-95405000D02*
X141445000Y-95405000D01*
X141445000Y-95405000D02*
X148000000Y-95405000D01*
%TO.N,/V+*%
X136905000Y-91595000D02*
X141450000Y-91595000D01*
X136550000Y-92865000D02*
X136550000Y-91800000D01*
X136755000Y-91595000D02*
X136905000Y-91595000D01*
X136550000Y-91800000D02*
X136755000Y-91595000D01*
X141450000Y-91595000D02*
X148000000Y-91595000D01*
%TD*%
D13*
%TO.N,/GND*%
G36*
X151340001Y-98340000D02*
G01*
X133660000Y-98340000D01*
X133660000Y-96155000D01*
X134211928Y-96155000D01*
X134224188Y-96279482D01*
X134260498Y-96399180D01*
X134319463Y-96509494D01*
X134398815Y-96606185D01*
X134495506Y-96685537D01*
X134605820Y-96744502D01*
X134725518Y-96780812D01*
X134850000Y-96793072D01*
X136264250Y-96790000D01*
X136423000Y-96631250D01*
X136423000Y-95532000D01*
X136677000Y-95532000D01*
X136677000Y-96631250D01*
X136835750Y-96790000D01*
X138250000Y-96793072D01*
X138374482Y-96780812D01*
X138494180Y-96744502D01*
X138604494Y-96685537D01*
X138701185Y-96606185D01*
X138780537Y-96509494D01*
X138836391Y-96405000D01*
X145361928Y-96405000D01*
X145374188Y-96529482D01*
X145410498Y-96649180D01*
X145469463Y-96759494D01*
X145548815Y-96856185D01*
X145645506Y-96935537D01*
X145755820Y-96994502D01*
X145875518Y-97030812D01*
X146000000Y-97043072D01*
X147714250Y-97040000D01*
X147873000Y-96881250D01*
X147873000Y-95532000D01*
X148127000Y-95532000D01*
X148127000Y-96881250D01*
X148285750Y-97040000D01*
X150000000Y-97043072D01*
X150124482Y-97030812D01*
X150244180Y-96994502D01*
X150354494Y-96935537D01*
X150451185Y-96856185D01*
X150530537Y-96759494D01*
X150589502Y-96649180D01*
X150625812Y-96529482D01*
X150638072Y-96405000D01*
X150635000Y-95690750D01*
X150476250Y-95532000D01*
X148127000Y-95532000D01*
X147873000Y-95532000D01*
X145523750Y-95532000D01*
X145365000Y-95690750D01*
X145361928Y-96405000D01*
X138836391Y-96405000D01*
X138839502Y-96399180D01*
X138875812Y-96279482D01*
X138888072Y-96155000D01*
X138885000Y-95690750D01*
X138726250Y-95532000D01*
X136677000Y-95532000D01*
X136423000Y-95532000D01*
X134373750Y-95532000D01*
X134215000Y-95690750D01*
X134211928Y-96155000D01*
X133660000Y-96155000D01*
X133660000Y-92115000D01*
X134211928Y-92115000D01*
X134211928Y-93615000D01*
X134224188Y-93739482D01*
X134260498Y-93859180D01*
X134319463Y-93969494D01*
X134398815Y-94066185D01*
X134482667Y-94135000D01*
X134398815Y-94203815D01*
X134319463Y-94300506D01*
X134260498Y-94410820D01*
X134224188Y-94530518D01*
X134211928Y-94655000D01*
X134215000Y-95119250D01*
X134373750Y-95278000D01*
X136423000Y-95278000D01*
X136423000Y-95258000D01*
X136677000Y-95258000D01*
X136677000Y-95278000D01*
X138726250Y-95278000D01*
X138885000Y-95119250D01*
X138886550Y-94885000D01*
X139111928Y-94885000D01*
X139124188Y-95009482D01*
X139160498Y-95129180D01*
X139219463Y-95239494D01*
X139298815Y-95336185D01*
X139395506Y-95415537D01*
X139505820Y-95474502D01*
X139625518Y-95510812D01*
X139750000Y-95523072D01*
X141164250Y-95520000D01*
X141323000Y-95361250D01*
X141323000Y-94262000D01*
X141577000Y-94262000D01*
X141577000Y-95361250D01*
X141735750Y-95520000D01*
X143150000Y-95523072D01*
X143274482Y-95510812D01*
X143394180Y-95474502D01*
X143504494Y-95415537D01*
X143601185Y-95336185D01*
X143680537Y-95239494D01*
X143739502Y-95129180D01*
X143775812Y-95009482D01*
X143788072Y-94885000D01*
X143785000Y-94420750D01*
X143769250Y-94405000D01*
X145361928Y-94405000D01*
X145365000Y-95119250D01*
X145523750Y-95278000D01*
X147873000Y-95278000D01*
X147873000Y-93928750D01*
X148127000Y-93928750D01*
X148127000Y-95278000D01*
X150476250Y-95278000D01*
X150635000Y-95119250D01*
X150638072Y-94405000D01*
X150625812Y-94280518D01*
X150589502Y-94160820D01*
X150530537Y-94050506D01*
X150451185Y-93953815D01*
X150354494Y-93874463D01*
X150244180Y-93815498D01*
X150124482Y-93779188D01*
X150000000Y-93766928D01*
X148285750Y-93770000D01*
X148127000Y-93928750D01*
X147873000Y-93928750D01*
X147714250Y-93770000D01*
X146000000Y-93766928D01*
X145875518Y-93779188D01*
X145755820Y-93815498D01*
X145645506Y-93874463D01*
X145548815Y-93953815D01*
X145469463Y-94050506D01*
X145410498Y-94160820D01*
X145374188Y-94280518D01*
X145361928Y-94405000D01*
X143769250Y-94405000D01*
X143626250Y-94262000D01*
X141577000Y-94262000D01*
X141323000Y-94262000D01*
X139273750Y-94262000D01*
X139115000Y-94420750D01*
X139111928Y-94885000D01*
X138886550Y-94885000D01*
X138888072Y-94655000D01*
X138875812Y-94530518D01*
X138839502Y-94410820D01*
X138780537Y-94300506D01*
X138701185Y-94203815D01*
X138617333Y-94135000D01*
X138701185Y-94066185D01*
X138780537Y-93969494D01*
X138839502Y-93859180D01*
X138875812Y-93739482D01*
X138888072Y-93615000D01*
X138888072Y-92355000D01*
X139112913Y-92355000D01*
X139124188Y-92469482D01*
X139160498Y-92589180D01*
X139219463Y-92699494D01*
X139298815Y-92796185D01*
X139382667Y-92865000D01*
X139298815Y-92933815D01*
X139219463Y-93030506D01*
X139160498Y-93140820D01*
X139124188Y-93260518D01*
X139111928Y-93385000D01*
X139115000Y-93849250D01*
X139273750Y-94008000D01*
X141323000Y-94008000D01*
X141323000Y-93988000D01*
X141577000Y-93988000D01*
X141577000Y-94008000D01*
X143626250Y-94008000D01*
X143785000Y-93849250D01*
X143788072Y-93385000D01*
X143775812Y-93260518D01*
X143739502Y-93140820D01*
X143680537Y-93030506D01*
X143601185Y-92933815D01*
X143517333Y-92865000D01*
X143601185Y-92796185D01*
X143680537Y-92699494D01*
X143739502Y-92589180D01*
X143775812Y-92469482D01*
X143787087Y-92355000D01*
X145361928Y-92355000D01*
X145361928Y-92595000D01*
X145374188Y-92719482D01*
X145410498Y-92839180D01*
X145469463Y-92949494D01*
X145548815Y-93046185D01*
X145645506Y-93125537D01*
X145755820Y-93184502D01*
X145875518Y-93220812D01*
X146000000Y-93233072D01*
X150000000Y-93233072D01*
X150124482Y-93220812D01*
X150244180Y-93184502D01*
X150354494Y-93125537D01*
X150451185Y-93046185D01*
X150530537Y-92949494D01*
X150589502Y-92839180D01*
X150625812Y-92719482D01*
X150638072Y-92595000D01*
X150638072Y-90595000D01*
X150625812Y-90470518D01*
X150589502Y-90350820D01*
X150530537Y-90240506D01*
X150451185Y-90143815D01*
X150354494Y-90064463D01*
X150244180Y-90005498D01*
X150124482Y-89969188D01*
X150000000Y-89956928D01*
X146000000Y-89956928D01*
X145875518Y-89969188D01*
X145755820Y-90005498D01*
X145645506Y-90064463D01*
X145548815Y-90143815D01*
X145469463Y-90240506D01*
X145410498Y-90350820D01*
X145374188Y-90470518D01*
X145361928Y-90595000D01*
X145361928Y-90835000D01*
X143787087Y-90835000D01*
X143775812Y-90720518D01*
X143739502Y-90600820D01*
X143680537Y-90490506D01*
X143601185Y-90393815D01*
X143504494Y-90314463D01*
X143394180Y-90255498D01*
X143274482Y-90219188D01*
X143150000Y-90206928D01*
X139750000Y-90206928D01*
X139625518Y-90219188D01*
X139505820Y-90255498D01*
X139395506Y-90314463D01*
X139298815Y-90393815D01*
X139219463Y-90490506D01*
X139160498Y-90600820D01*
X139124188Y-90720518D01*
X139112913Y-90835000D01*
X136792325Y-90835000D01*
X136755000Y-90831324D01*
X136717675Y-90835000D01*
X136717667Y-90835000D01*
X136606014Y-90845997D01*
X136462753Y-90889454D01*
X136330724Y-90960026D01*
X136214999Y-91054999D01*
X136191196Y-91084003D01*
X136038998Y-91236201D01*
X136010000Y-91259999D01*
X135986202Y-91288997D01*
X135986201Y-91288998D01*
X135915026Y-91375724D01*
X135860931Y-91476928D01*
X134850000Y-91476928D01*
X134725518Y-91489188D01*
X134605820Y-91525498D01*
X134495506Y-91584463D01*
X134398815Y-91663815D01*
X134319463Y-91760506D01*
X134260498Y-91870820D01*
X134224188Y-91990518D01*
X134211928Y-92115000D01*
X133660000Y-92115000D01*
X133660000Y-88660000D01*
X151340000Y-88660000D01*
X151340001Y-98340000D01*
G37*
X151340001Y-98340000D02*
X133660000Y-98340000D01*
X133660000Y-96155000D01*
X134211928Y-96155000D01*
X134224188Y-96279482D01*
X134260498Y-96399180D01*
X134319463Y-96509494D01*
X134398815Y-96606185D01*
X134495506Y-96685537D01*
X134605820Y-96744502D01*
X134725518Y-96780812D01*
X134850000Y-96793072D01*
X136264250Y-96790000D01*
X136423000Y-96631250D01*
X136423000Y-95532000D01*
X136677000Y-95532000D01*
X136677000Y-96631250D01*
X136835750Y-96790000D01*
X138250000Y-96793072D01*
X138374482Y-96780812D01*
X138494180Y-96744502D01*
X138604494Y-96685537D01*
X138701185Y-96606185D01*
X138780537Y-96509494D01*
X138836391Y-96405000D01*
X145361928Y-96405000D01*
X145374188Y-96529482D01*
X145410498Y-96649180D01*
X145469463Y-96759494D01*
X145548815Y-96856185D01*
X145645506Y-96935537D01*
X145755820Y-96994502D01*
X145875518Y-97030812D01*
X146000000Y-97043072D01*
X147714250Y-97040000D01*
X147873000Y-96881250D01*
X147873000Y-95532000D01*
X148127000Y-95532000D01*
X148127000Y-96881250D01*
X148285750Y-97040000D01*
X150000000Y-97043072D01*
X150124482Y-97030812D01*
X150244180Y-96994502D01*
X150354494Y-96935537D01*
X150451185Y-96856185D01*
X150530537Y-96759494D01*
X150589502Y-96649180D01*
X150625812Y-96529482D01*
X150638072Y-96405000D01*
X150635000Y-95690750D01*
X150476250Y-95532000D01*
X148127000Y-95532000D01*
X147873000Y-95532000D01*
X145523750Y-95532000D01*
X145365000Y-95690750D01*
X145361928Y-96405000D01*
X138836391Y-96405000D01*
X138839502Y-96399180D01*
X138875812Y-96279482D01*
X138888072Y-96155000D01*
X138885000Y-95690750D01*
X138726250Y-95532000D01*
X136677000Y-95532000D01*
X136423000Y-95532000D01*
X134373750Y-95532000D01*
X134215000Y-95690750D01*
X134211928Y-96155000D01*
X133660000Y-96155000D01*
X133660000Y-92115000D01*
X134211928Y-92115000D01*
X134211928Y-93615000D01*
X134224188Y-93739482D01*
X134260498Y-93859180D01*
X134319463Y-93969494D01*
X134398815Y-94066185D01*
X134482667Y-94135000D01*
X134398815Y-94203815D01*
X134319463Y-94300506D01*
X134260498Y-94410820D01*
X134224188Y-94530518D01*
X134211928Y-94655000D01*
X134215000Y-95119250D01*
X134373750Y-95278000D01*
X136423000Y-95278000D01*
X136423000Y-95258000D01*
X136677000Y-95258000D01*
X136677000Y-95278000D01*
X138726250Y-95278000D01*
X138885000Y-95119250D01*
X138886550Y-94885000D01*
X139111928Y-94885000D01*
X139124188Y-95009482D01*
X139160498Y-95129180D01*
X139219463Y-95239494D01*
X139298815Y-95336185D01*
X139395506Y-95415537D01*
X139505820Y-95474502D01*
X139625518Y-95510812D01*
X139750000Y-95523072D01*
X141164250Y-95520000D01*
X141323000Y-95361250D01*
X141323000Y-94262000D01*
X141577000Y-94262000D01*
X141577000Y-95361250D01*
X141735750Y-95520000D01*
X143150000Y-95523072D01*
X143274482Y-95510812D01*
X143394180Y-95474502D01*
X143504494Y-95415537D01*
X143601185Y-95336185D01*
X143680537Y-95239494D01*
X143739502Y-95129180D01*
X143775812Y-95009482D01*
X143788072Y-94885000D01*
X143785000Y-94420750D01*
X143769250Y-94405000D01*
X145361928Y-94405000D01*
X145365000Y-95119250D01*
X145523750Y-95278000D01*
X147873000Y-95278000D01*
X147873000Y-93928750D01*
X148127000Y-93928750D01*
X148127000Y-95278000D01*
X150476250Y-95278000D01*
X150635000Y-95119250D01*
X150638072Y-94405000D01*
X150625812Y-94280518D01*
X150589502Y-94160820D01*
X150530537Y-94050506D01*
X150451185Y-93953815D01*
X150354494Y-93874463D01*
X150244180Y-93815498D01*
X150124482Y-93779188D01*
X150000000Y-93766928D01*
X148285750Y-93770000D01*
X148127000Y-93928750D01*
X147873000Y-93928750D01*
X147714250Y-93770000D01*
X146000000Y-93766928D01*
X145875518Y-93779188D01*
X145755820Y-93815498D01*
X145645506Y-93874463D01*
X145548815Y-93953815D01*
X145469463Y-94050506D01*
X145410498Y-94160820D01*
X145374188Y-94280518D01*
X145361928Y-94405000D01*
X143769250Y-94405000D01*
X143626250Y-94262000D01*
X141577000Y-94262000D01*
X141323000Y-94262000D01*
X139273750Y-94262000D01*
X139115000Y-94420750D01*
X139111928Y-94885000D01*
X138886550Y-94885000D01*
X138888072Y-94655000D01*
X138875812Y-94530518D01*
X138839502Y-94410820D01*
X138780537Y-94300506D01*
X138701185Y-94203815D01*
X138617333Y-94135000D01*
X138701185Y-94066185D01*
X138780537Y-93969494D01*
X138839502Y-93859180D01*
X138875812Y-93739482D01*
X138888072Y-93615000D01*
X138888072Y-92355000D01*
X139112913Y-92355000D01*
X139124188Y-92469482D01*
X139160498Y-92589180D01*
X139219463Y-92699494D01*
X139298815Y-92796185D01*
X139382667Y-92865000D01*
X139298815Y-92933815D01*
X139219463Y-93030506D01*
X139160498Y-93140820D01*
X139124188Y-93260518D01*
X139111928Y-93385000D01*
X139115000Y-93849250D01*
X139273750Y-94008000D01*
X141323000Y-94008000D01*
X141323000Y-93988000D01*
X141577000Y-93988000D01*
X141577000Y-94008000D01*
X143626250Y-94008000D01*
X143785000Y-93849250D01*
X143788072Y-93385000D01*
X143775812Y-93260518D01*
X143739502Y-93140820D01*
X143680537Y-93030506D01*
X143601185Y-92933815D01*
X143517333Y-92865000D01*
X143601185Y-92796185D01*
X143680537Y-92699494D01*
X143739502Y-92589180D01*
X143775812Y-92469482D01*
X143787087Y-92355000D01*
X145361928Y-92355000D01*
X145361928Y-92595000D01*
X145374188Y-92719482D01*
X145410498Y-92839180D01*
X145469463Y-92949494D01*
X145548815Y-93046185D01*
X145645506Y-93125537D01*
X145755820Y-93184502D01*
X145875518Y-93220812D01*
X146000000Y-93233072D01*
X150000000Y-93233072D01*
X150124482Y-93220812D01*
X150244180Y-93184502D01*
X150354494Y-93125537D01*
X150451185Y-93046185D01*
X150530537Y-92949494D01*
X150589502Y-92839180D01*
X150625812Y-92719482D01*
X150638072Y-92595000D01*
X150638072Y-90595000D01*
X150625812Y-90470518D01*
X150589502Y-90350820D01*
X150530537Y-90240506D01*
X150451185Y-90143815D01*
X150354494Y-90064463D01*
X150244180Y-90005498D01*
X150124482Y-89969188D01*
X150000000Y-89956928D01*
X146000000Y-89956928D01*
X145875518Y-89969188D01*
X145755820Y-90005498D01*
X145645506Y-90064463D01*
X145548815Y-90143815D01*
X145469463Y-90240506D01*
X145410498Y-90350820D01*
X145374188Y-90470518D01*
X145361928Y-90595000D01*
X145361928Y-90835000D01*
X143787087Y-90835000D01*
X143775812Y-90720518D01*
X143739502Y-90600820D01*
X143680537Y-90490506D01*
X143601185Y-90393815D01*
X143504494Y-90314463D01*
X143394180Y-90255498D01*
X143274482Y-90219188D01*
X143150000Y-90206928D01*
X139750000Y-90206928D01*
X139625518Y-90219188D01*
X139505820Y-90255498D01*
X139395506Y-90314463D01*
X139298815Y-90393815D01*
X139219463Y-90490506D01*
X139160498Y-90600820D01*
X139124188Y-90720518D01*
X139112913Y-90835000D01*
X136792325Y-90835000D01*
X136755000Y-90831324D01*
X136717675Y-90835000D01*
X136717667Y-90835000D01*
X136606014Y-90845997D01*
X136462753Y-90889454D01*
X136330724Y-90960026D01*
X136214999Y-91054999D01*
X136191196Y-91084003D01*
X136038998Y-91236201D01*
X136010000Y-91259999D01*
X135986202Y-91288997D01*
X135986201Y-91288998D01*
X135915026Y-91375724D01*
X135860931Y-91476928D01*
X134850000Y-91476928D01*
X134725518Y-91489188D01*
X134605820Y-91525498D01*
X134495506Y-91584463D01*
X134398815Y-91663815D01*
X134319463Y-91760506D01*
X134260498Y-91870820D01*
X134224188Y-91990518D01*
X134211928Y-92115000D01*
X133660000Y-92115000D01*
X133660000Y-88660000D01*
X151340000Y-88660000D01*
X151340001Y-98340000D01*
%TD*%
M02*
