%TF.GenerationSoftware,KiCad,Pcbnew,(5.1.6)-1*%
%TF.CreationDate,2020-10-13T17:37:02+02:00*%
%TF.ProjectId,SolarPanelAdapter,536f6c61-7250-4616-9e65-6c4164617074,rev?*%
%TF.SameCoordinates,Original*%
%TF.FileFunction,Legend,Bot*%
%TF.FilePolarity,Positive*%
%FSLAX46Y46*%
G04 Gerber Fmt 4.6, Leading zero omitted, Abs format (unit mm)*
G04 Created by KiCad (PCBNEW (5.1.6)-1) date 2020-10-13 17:37:02*
%MOMM*%
%LPD*%
G01*
G04 APERTURE LIST*
%ADD10C,0.150000*%
G04 APERTURE END LIST*
D10*
X148666666Y-91278571D02*
X148333333Y-91278571D01*
X148190476Y-91802380D02*
X148666666Y-91802380D01*
X148666666Y-90802380D01*
X148190476Y-90802380D01*
X147809523Y-91754761D02*
X147714285Y-91802380D01*
X147523809Y-91802380D01*
X147428571Y-91754761D01*
X147380952Y-91659523D01*
X147380952Y-91611904D01*
X147428571Y-91516666D01*
X147523809Y-91469047D01*
X147666666Y-91469047D01*
X147761904Y-91421428D01*
X147809523Y-91326190D01*
X147809523Y-91278571D01*
X147761904Y-91183333D01*
X147666666Y-91135714D01*
X147523809Y-91135714D01*
X147428571Y-91183333D01*
X147000000Y-91754761D02*
X146904761Y-91802380D01*
X146714285Y-91802380D01*
X146619047Y-91754761D01*
X146571428Y-91659523D01*
X146571428Y-91611904D01*
X146619047Y-91516666D01*
X146714285Y-91469047D01*
X146857142Y-91469047D01*
X146952380Y-91421428D01*
X147000000Y-91326190D01*
X147000000Y-91278571D01*
X146952380Y-91183333D01*
X146857142Y-91135714D01*
X146714285Y-91135714D01*
X146619047Y-91183333D01*
X145761904Y-91754761D02*
X145857142Y-91802380D01*
X146047619Y-91802380D01*
X146142857Y-91754761D01*
X146190476Y-91659523D01*
X146190476Y-91278571D01*
X146142857Y-91183333D01*
X146047619Y-91135714D01*
X145857142Y-91135714D01*
X145761904Y-91183333D01*
X145714285Y-91278571D01*
X145714285Y-91373809D01*
X146190476Y-91469047D01*
X145285714Y-91802380D02*
X145285714Y-91135714D01*
X145285714Y-90802380D02*
X145333333Y-90850000D01*
X145285714Y-90897619D01*
X145238095Y-90850000D01*
X145285714Y-90802380D01*
X145285714Y-90897619D01*
X144904761Y-91135714D02*
X144666666Y-91802380D01*
X144428571Y-91135714D01*
X143619047Y-91802380D02*
X143619047Y-91278571D01*
X143666666Y-91183333D01*
X143761904Y-91135714D01*
X143952380Y-91135714D01*
X144047619Y-91183333D01*
X143619047Y-91754761D02*
X143714285Y-91802380D01*
X143952380Y-91802380D01*
X144047619Y-91754761D01*
X144095238Y-91659523D01*
X144095238Y-91564285D01*
X144047619Y-91469047D01*
X143952380Y-91421428D01*
X143714285Y-91421428D01*
X143619047Y-91373809D01*
X142380952Y-91802380D02*
X142380952Y-90802380D01*
X141809523Y-91802380D01*
X141809523Y-90802380D01*
X141333333Y-91802380D02*
X141333333Y-91135714D01*
X141333333Y-90802380D02*
X141380952Y-90850000D01*
X141333333Y-90897619D01*
X141285714Y-90850000D01*
X141333333Y-90802380D01*
X141333333Y-90897619D01*
X140428571Y-91754761D02*
X140523809Y-91802380D01*
X140714285Y-91802380D01*
X140809523Y-91754761D01*
X140857142Y-91707142D01*
X140904761Y-91611904D01*
X140904761Y-91326190D01*
X140857142Y-91230952D01*
X140809523Y-91183333D01*
X140714285Y-91135714D01*
X140523809Y-91135714D01*
X140428571Y-91183333D01*
X139857142Y-91802380D02*
X139952380Y-91754761D01*
X140000000Y-91707142D01*
X140047619Y-91611904D01*
X140047619Y-91326190D01*
X140000000Y-91230952D01*
X139952380Y-91183333D01*
X139857142Y-91135714D01*
X139714285Y-91135714D01*
X139619047Y-91183333D01*
X139571428Y-91230952D01*
X139523809Y-91326190D01*
X139523809Y-91611904D01*
X139571428Y-91707142D01*
X139619047Y-91754761D01*
X139714285Y-91802380D01*
X139857142Y-91802380D01*
X138952380Y-91802380D02*
X139047619Y-91754761D01*
X139095238Y-91659523D01*
X139095238Y-90802380D01*
X138142857Y-91802380D02*
X138142857Y-91278571D01*
X138190476Y-91183333D01*
X138285714Y-91135714D01*
X138476190Y-91135714D01*
X138571428Y-91183333D01*
X138142857Y-91754761D02*
X138238095Y-91802380D01*
X138476190Y-91802380D01*
X138571428Y-91754761D01*
X138619047Y-91659523D01*
X138619047Y-91564285D01*
X138571428Y-91469047D01*
X138476190Y-91421428D01*
X138238095Y-91421428D01*
X138142857Y-91373809D01*
X137714285Y-91754761D02*
X137619047Y-91802380D01*
X137428571Y-91802380D01*
X137333333Y-91754761D01*
X137285714Y-91659523D01*
X137285714Y-91611904D01*
X137333333Y-91516666D01*
X137428571Y-91469047D01*
X137571428Y-91469047D01*
X137666666Y-91421428D01*
X137714285Y-91326190D01*
X137714285Y-91278571D01*
X137666666Y-91183333D01*
X137571428Y-91135714D01*
X137428571Y-91135714D01*
X137333333Y-91183333D01*
X149738095Y-93404761D02*
X149595238Y-93452380D01*
X149357142Y-93452380D01*
X149261904Y-93404761D01*
X149214285Y-93357142D01*
X149166666Y-93261904D01*
X149166666Y-93166666D01*
X149214285Y-93071428D01*
X149261904Y-93023809D01*
X149357142Y-92976190D01*
X149547619Y-92928571D01*
X149642857Y-92880952D01*
X149690476Y-92833333D01*
X149738095Y-92738095D01*
X149738095Y-92642857D01*
X149690476Y-92547619D01*
X149642857Y-92500000D01*
X149547619Y-92452380D01*
X149309523Y-92452380D01*
X149166666Y-92500000D01*
X148595238Y-93452380D02*
X148690476Y-93404761D01*
X148738095Y-93357142D01*
X148785714Y-93261904D01*
X148785714Y-92976190D01*
X148738095Y-92880952D01*
X148690476Y-92833333D01*
X148595238Y-92785714D01*
X148452380Y-92785714D01*
X148357142Y-92833333D01*
X148309523Y-92880952D01*
X148261904Y-92976190D01*
X148261904Y-93261904D01*
X148309523Y-93357142D01*
X148357142Y-93404761D01*
X148452380Y-93452380D01*
X148595238Y-93452380D01*
X147690476Y-93452380D02*
X147785714Y-93404761D01*
X147833333Y-93309523D01*
X147833333Y-92452380D01*
X146880952Y-93452380D02*
X146880952Y-92928571D01*
X146928571Y-92833333D01*
X147023809Y-92785714D01*
X147214285Y-92785714D01*
X147309523Y-92833333D01*
X146880952Y-93404761D02*
X146976190Y-93452380D01*
X147214285Y-93452380D01*
X147309523Y-93404761D01*
X147357142Y-93309523D01*
X147357142Y-93214285D01*
X147309523Y-93119047D01*
X147214285Y-93071428D01*
X146976190Y-93071428D01*
X146880952Y-93023809D01*
X146404761Y-93452380D02*
X146404761Y-92785714D01*
X146404761Y-92976190D02*
X146357142Y-92880952D01*
X146309523Y-92833333D01*
X146214285Y-92785714D01*
X146119047Y-92785714D01*
X144595238Y-93404761D02*
X144690476Y-93452380D01*
X144880952Y-93452380D01*
X144976190Y-93404761D01*
X145023809Y-93357142D01*
X145071428Y-93261904D01*
X145071428Y-92976190D01*
X145023809Y-92880952D01*
X144976190Y-92833333D01*
X144880952Y-92785714D01*
X144690476Y-92785714D01*
X144595238Y-92833333D01*
X143785714Y-93404761D02*
X143880952Y-93452380D01*
X144071428Y-93452380D01*
X144166666Y-93404761D01*
X144214285Y-93309523D01*
X144214285Y-92928571D01*
X144166666Y-92833333D01*
X144071428Y-92785714D01*
X143880952Y-92785714D01*
X143785714Y-92833333D01*
X143738095Y-92928571D01*
X143738095Y-93023809D01*
X144214285Y-93119047D01*
X143166666Y-93452380D02*
X143261904Y-93404761D01*
X143309523Y-93309523D01*
X143309523Y-92452380D01*
X142642857Y-93452380D02*
X142738095Y-93404761D01*
X142785714Y-93309523D01*
X142785714Y-92452380D01*
X141071428Y-93452380D02*
X141071428Y-92928571D01*
X141119047Y-92833333D01*
X141214285Y-92785714D01*
X141404761Y-92785714D01*
X141500000Y-92833333D01*
X141071428Y-93404761D02*
X141166666Y-93452380D01*
X141404761Y-93452380D01*
X141500000Y-93404761D01*
X141547619Y-93309523D01*
X141547619Y-93214285D01*
X141500000Y-93119047D01*
X141404761Y-93071428D01*
X141166666Y-93071428D01*
X141071428Y-93023809D01*
X140166666Y-93452380D02*
X140166666Y-92452380D01*
X140166666Y-93404761D02*
X140261904Y-93452380D01*
X140452380Y-93452380D01*
X140547619Y-93404761D01*
X140595238Y-93357142D01*
X140642857Y-93261904D01*
X140642857Y-92976190D01*
X140595238Y-92880952D01*
X140547619Y-92833333D01*
X140452380Y-92785714D01*
X140261904Y-92785714D01*
X140166666Y-92833333D01*
X139261904Y-93452380D02*
X139261904Y-92928571D01*
X139309523Y-92833333D01*
X139404761Y-92785714D01*
X139595238Y-92785714D01*
X139690476Y-92833333D01*
X139261904Y-93404761D02*
X139357142Y-93452380D01*
X139595238Y-93452380D01*
X139690476Y-93404761D01*
X139738095Y-93309523D01*
X139738095Y-93214285D01*
X139690476Y-93119047D01*
X139595238Y-93071428D01*
X139357142Y-93071428D01*
X139261904Y-93023809D01*
X138785714Y-92785714D02*
X138785714Y-93785714D01*
X138785714Y-92833333D02*
X138690476Y-92785714D01*
X138500000Y-92785714D01*
X138404761Y-92833333D01*
X138357142Y-92880952D01*
X138309523Y-92976190D01*
X138309523Y-93261904D01*
X138357142Y-93357142D01*
X138404761Y-93404761D01*
X138500000Y-93452380D01*
X138690476Y-93452380D01*
X138785714Y-93404761D01*
X138023809Y-92785714D02*
X137642857Y-92785714D01*
X137880952Y-92452380D02*
X137880952Y-93309523D01*
X137833333Y-93404761D01*
X137738095Y-93452380D01*
X137642857Y-93452380D01*
X136928571Y-93404761D02*
X137023809Y-93452380D01*
X137214285Y-93452380D01*
X137309523Y-93404761D01*
X137357142Y-93309523D01*
X137357142Y-92928571D01*
X137309523Y-92833333D01*
X137214285Y-92785714D01*
X137023809Y-92785714D01*
X136928571Y-92833333D01*
X136880952Y-92928571D01*
X136880952Y-93023809D01*
X137357142Y-93119047D01*
X136452380Y-93452380D02*
X136452380Y-92785714D01*
X136452380Y-92976190D02*
X136404761Y-92880952D01*
X136357142Y-92833333D01*
X136261904Y-92785714D01*
X136166666Y-92785714D01*
X148452380Y-94197619D02*
X148404761Y-94150000D01*
X148309523Y-94102380D01*
X148071428Y-94102380D01*
X147976190Y-94150000D01*
X147928571Y-94197619D01*
X147880952Y-94292857D01*
X147880952Y-94388095D01*
X147928571Y-94530952D01*
X148500000Y-95102380D01*
X147880952Y-95102380D01*
X147023809Y-94435714D02*
X147023809Y-95102380D01*
X147261904Y-94054761D02*
X147500000Y-94769047D01*
X146880952Y-94769047D01*
X146309523Y-94102380D02*
X146214285Y-94102380D01*
X146119047Y-94150000D01*
X146071428Y-94197619D01*
X146023809Y-94292857D01*
X145976190Y-94483333D01*
X145976190Y-94721428D01*
X146023809Y-94911904D01*
X146071428Y-95007142D01*
X146119047Y-95054761D01*
X146214285Y-95102380D01*
X146309523Y-95102380D01*
X146404761Y-95054761D01*
X146452380Y-95007142D01*
X146500000Y-94911904D01*
X146547619Y-94721428D01*
X146547619Y-94483333D01*
X146500000Y-94292857D01*
X146452380Y-94197619D01*
X146404761Y-94150000D01*
X146309523Y-94102380D01*
X145500000Y-95102380D02*
X145309523Y-95102380D01*
X145214285Y-95054761D01*
X145166666Y-95007142D01*
X145071428Y-94864285D01*
X145023809Y-94673809D01*
X145023809Y-94292857D01*
X145071428Y-94197619D01*
X145119047Y-94150000D01*
X145214285Y-94102380D01*
X145404761Y-94102380D01*
X145500000Y-94150000D01*
X145547619Y-94197619D01*
X145595238Y-94292857D01*
X145595238Y-94530952D01*
X145547619Y-94626190D01*
X145500000Y-94673809D01*
X145404761Y-94721428D01*
X145214285Y-94721428D01*
X145119047Y-94673809D01*
X145071428Y-94626190D01*
X145023809Y-94530952D01*
X144642857Y-94197619D02*
X144595238Y-94150000D01*
X144500000Y-94102380D01*
X144261904Y-94102380D01*
X144166666Y-94150000D01*
X144119047Y-94197619D01*
X144071428Y-94292857D01*
X144071428Y-94388095D01*
X144119047Y-94530952D01*
X144690476Y-95102380D01*
X144071428Y-95102380D01*
X143452380Y-94102380D02*
X143357142Y-94102380D01*
X143261904Y-94150000D01*
X143214285Y-94197619D01*
X143166666Y-94292857D01*
X143119047Y-94483333D01*
X143119047Y-94721428D01*
X143166666Y-94911904D01*
X143214285Y-95007142D01*
X143261904Y-95054761D01*
X143357142Y-95102380D01*
X143452380Y-95102380D01*
X143547619Y-95054761D01*
X143595238Y-95007142D01*
X143642857Y-94911904D01*
X143690476Y-94721428D01*
X143690476Y-94483333D01*
X143642857Y-94292857D01*
X143595238Y-94197619D01*
X143547619Y-94150000D01*
X143452380Y-94102380D01*
X142738095Y-94197619D02*
X142690476Y-94150000D01*
X142595238Y-94102380D01*
X142357142Y-94102380D01*
X142261904Y-94150000D01*
X142214285Y-94197619D01*
X142166666Y-94292857D01*
X142166666Y-94388095D01*
X142214285Y-94530952D01*
X142785714Y-95102380D01*
X142166666Y-95102380D01*
X141547619Y-94102380D02*
X141452380Y-94102380D01*
X141357142Y-94150000D01*
X141309523Y-94197619D01*
X141261904Y-94292857D01*
X141214285Y-94483333D01*
X141214285Y-94721428D01*
X141261904Y-94911904D01*
X141309523Y-95007142D01*
X141357142Y-95054761D01*
X141452380Y-95102380D01*
X141547619Y-95102380D01*
X141642857Y-95054761D01*
X141690476Y-95007142D01*
X141738095Y-94911904D01*
X141785714Y-94721428D01*
X141785714Y-94483333D01*
X141738095Y-94292857D01*
X141690476Y-94197619D01*
X141642857Y-94150000D01*
X141547619Y-94102380D01*
X139452380Y-95102380D02*
X139785714Y-94626190D01*
X140023809Y-95102380D02*
X140023809Y-94102380D01*
X139642857Y-94102380D01*
X139547619Y-94150000D01*
X139500000Y-94197619D01*
X139452380Y-94292857D01*
X139452380Y-94435714D01*
X139500000Y-94530952D01*
X139547619Y-94578571D01*
X139642857Y-94626190D01*
X140023809Y-94626190D01*
X138833333Y-94102380D02*
X138738095Y-94102380D01*
X138642857Y-94150000D01*
X138595238Y-94197619D01*
X138547619Y-94292857D01*
X138500000Y-94483333D01*
X138500000Y-94721428D01*
X138547619Y-94911904D01*
X138595238Y-95007142D01*
X138642857Y-95054761D01*
X138738095Y-95102380D01*
X138833333Y-95102380D01*
X138928571Y-95054761D01*
X138976190Y-95007142D01*
X139023809Y-94911904D01*
X139071428Y-94721428D01*
X139071428Y-94483333D01*
X139023809Y-94292857D01*
X138976190Y-94197619D01*
X138928571Y-94150000D01*
X138833333Y-94102380D01*
X137880952Y-94102380D02*
X137785714Y-94102380D01*
X137690476Y-94150000D01*
X137642857Y-94197619D01*
X137595238Y-94292857D01*
X137547619Y-94483333D01*
X137547619Y-94721428D01*
X137595238Y-94911904D01*
X137642857Y-95007142D01*
X137690476Y-95054761D01*
X137785714Y-95102380D01*
X137880952Y-95102380D01*
X137976190Y-95054761D01*
X138023809Y-95007142D01*
X138071428Y-94911904D01*
X138119047Y-94721428D01*
X138119047Y-94483333D01*
X138071428Y-94292857D01*
X138023809Y-94197619D01*
X137976190Y-94150000D01*
X137880952Y-94102380D01*
M02*
