G04 #@! TF.GenerationSoftware,KiCad,Pcbnew,(5.1.6)-1*
G04 #@! TF.CreationDate,2020-10-13T20:44:17+02:00*
G04 #@! TF.ProjectId,SolarPanelAdapter,536f6c61-7250-4616-9e65-6c4164617074,rev?*
G04 #@! TF.SameCoordinates,PX7ed6b40PY53ec600*
G04 #@! TF.FileFunction,Copper,L1,Top*
G04 #@! TF.FilePolarity,Positive*
%FSLAX46Y46*%
G04 Gerber Fmt 4.6, Leading zero omitted, Abs format (unit mm)*
G04 Created by KiCad (PCBNEW (5.1.6)-1) date 2020-10-13 20:44:17*
%MOMM*%
%LPD*%
G01*
G04 APERTURE LIST*
G04 #@! TA.AperFunction,SMDPad,CuDef*
%ADD10R,3.400000X1.500000*%
G04 #@! TD*
G04 #@! TA.AperFunction,ConnectorPad*
%ADD11R,4.000000X2.000000*%
G04 #@! TD*
G04 #@! TA.AperFunction,Conductor*
%ADD12C,0.250000*%
G04 #@! TD*
G04 #@! TA.AperFunction,Conductor*
%ADD13C,0.254000*%
G04 #@! TD*
G04 APERTURE END LIST*
D10*
X3550000Y-7405000D03*
X3550000Y-4865000D03*
X8450000Y-6135000D03*
X8450000Y-3595000D03*
D11*
X15000000Y-7405000D03*
X15000000Y-3595000D03*
D12*
X8450000Y-6135000D02*
X8450000Y-7400000D01*
X8450000Y-7400000D02*
X8445000Y-7405000D01*
X3550000Y-7405000D02*
X8445000Y-7405000D01*
X8445000Y-7405000D02*
X15000000Y-7405000D01*
X3905000Y-3595000D02*
X8450000Y-3595000D01*
X3550000Y-4865000D02*
X3550000Y-3800000D01*
X3755000Y-3595000D02*
X3905000Y-3595000D01*
X3550000Y-3800000D02*
X3755000Y-3595000D01*
X8450000Y-3595000D02*
X15000000Y-3595000D01*
D13*
G36*
X18340001Y-10340000D02*
G01*
X660000Y-10340000D01*
X660000Y-8155000D01*
X1211928Y-8155000D01*
X1224188Y-8279482D01*
X1260498Y-8399180D01*
X1319463Y-8509494D01*
X1398815Y-8606185D01*
X1495506Y-8685537D01*
X1605820Y-8744502D01*
X1725518Y-8780812D01*
X1850000Y-8793072D01*
X3264250Y-8790000D01*
X3423000Y-8631250D01*
X3423000Y-7532000D01*
X3677000Y-7532000D01*
X3677000Y-8631250D01*
X3835750Y-8790000D01*
X5250000Y-8793072D01*
X5374482Y-8780812D01*
X5494180Y-8744502D01*
X5604494Y-8685537D01*
X5701185Y-8606185D01*
X5780537Y-8509494D01*
X5836391Y-8405000D01*
X12361928Y-8405000D01*
X12374188Y-8529482D01*
X12410498Y-8649180D01*
X12469463Y-8759494D01*
X12548815Y-8856185D01*
X12645506Y-8935537D01*
X12755820Y-8994502D01*
X12875518Y-9030812D01*
X13000000Y-9043072D01*
X14714250Y-9040000D01*
X14873000Y-8881250D01*
X14873000Y-7532000D01*
X15127000Y-7532000D01*
X15127000Y-8881250D01*
X15285750Y-9040000D01*
X17000000Y-9043072D01*
X17124482Y-9030812D01*
X17244180Y-8994502D01*
X17354494Y-8935537D01*
X17451185Y-8856185D01*
X17530537Y-8759494D01*
X17589502Y-8649180D01*
X17625812Y-8529482D01*
X17638072Y-8405000D01*
X17635000Y-7690750D01*
X17476250Y-7532000D01*
X15127000Y-7532000D01*
X14873000Y-7532000D01*
X12523750Y-7532000D01*
X12365000Y-7690750D01*
X12361928Y-8405000D01*
X5836391Y-8405000D01*
X5839502Y-8399180D01*
X5875812Y-8279482D01*
X5888072Y-8155000D01*
X5885000Y-7690750D01*
X5726250Y-7532000D01*
X3677000Y-7532000D01*
X3423000Y-7532000D01*
X1373750Y-7532000D01*
X1215000Y-7690750D01*
X1211928Y-8155000D01*
X660000Y-8155000D01*
X660000Y-4115000D01*
X1211928Y-4115000D01*
X1211928Y-5615000D01*
X1224188Y-5739482D01*
X1260498Y-5859180D01*
X1319463Y-5969494D01*
X1398815Y-6066185D01*
X1482667Y-6135000D01*
X1398815Y-6203815D01*
X1319463Y-6300506D01*
X1260498Y-6410820D01*
X1224188Y-6530518D01*
X1211928Y-6655000D01*
X1215000Y-7119250D01*
X1373750Y-7278000D01*
X3423000Y-7278000D01*
X3423000Y-7258000D01*
X3677000Y-7258000D01*
X3677000Y-7278000D01*
X5726250Y-7278000D01*
X5885000Y-7119250D01*
X5886550Y-6885000D01*
X6111928Y-6885000D01*
X6124188Y-7009482D01*
X6160498Y-7129180D01*
X6219463Y-7239494D01*
X6298815Y-7336185D01*
X6395506Y-7415537D01*
X6505820Y-7474502D01*
X6625518Y-7510812D01*
X6750000Y-7523072D01*
X8164250Y-7520000D01*
X8323000Y-7361250D01*
X8323000Y-6262000D01*
X8577000Y-6262000D01*
X8577000Y-7361250D01*
X8735750Y-7520000D01*
X10150000Y-7523072D01*
X10274482Y-7510812D01*
X10394180Y-7474502D01*
X10504494Y-7415537D01*
X10601185Y-7336185D01*
X10680537Y-7239494D01*
X10739502Y-7129180D01*
X10775812Y-7009482D01*
X10788072Y-6885000D01*
X10785000Y-6420750D01*
X10769250Y-6405000D01*
X12361928Y-6405000D01*
X12365000Y-7119250D01*
X12523750Y-7278000D01*
X14873000Y-7278000D01*
X14873000Y-5928750D01*
X15127000Y-5928750D01*
X15127000Y-7278000D01*
X17476250Y-7278000D01*
X17635000Y-7119250D01*
X17638072Y-6405000D01*
X17625812Y-6280518D01*
X17589502Y-6160820D01*
X17530537Y-6050506D01*
X17451185Y-5953815D01*
X17354494Y-5874463D01*
X17244180Y-5815498D01*
X17124482Y-5779188D01*
X17000000Y-5766928D01*
X15285750Y-5770000D01*
X15127000Y-5928750D01*
X14873000Y-5928750D01*
X14714250Y-5770000D01*
X13000000Y-5766928D01*
X12875518Y-5779188D01*
X12755820Y-5815498D01*
X12645506Y-5874463D01*
X12548815Y-5953815D01*
X12469463Y-6050506D01*
X12410498Y-6160820D01*
X12374188Y-6280518D01*
X12361928Y-6405000D01*
X10769250Y-6405000D01*
X10626250Y-6262000D01*
X8577000Y-6262000D01*
X8323000Y-6262000D01*
X6273750Y-6262000D01*
X6115000Y-6420750D01*
X6111928Y-6885000D01*
X5886550Y-6885000D01*
X5888072Y-6655000D01*
X5875812Y-6530518D01*
X5839502Y-6410820D01*
X5780537Y-6300506D01*
X5701185Y-6203815D01*
X5617333Y-6135000D01*
X5701185Y-6066185D01*
X5780537Y-5969494D01*
X5839502Y-5859180D01*
X5875812Y-5739482D01*
X5888072Y-5615000D01*
X5888072Y-4355000D01*
X6112913Y-4355000D01*
X6124188Y-4469482D01*
X6160498Y-4589180D01*
X6219463Y-4699494D01*
X6298815Y-4796185D01*
X6382667Y-4865000D01*
X6298815Y-4933815D01*
X6219463Y-5030506D01*
X6160498Y-5140820D01*
X6124188Y-5260518D01*
X6111928Y-5385000D01*
X6115000Y-5849250D01*
X6273750Y-6008000D01*
X8323000Y-6008000D01*
X8323000Y-5988000D01*
X8577000Y-5988000D01*
X8577000Y-6008000D01*
X10626250Y-6008000D01*
X10785000Y-5849250D01*
X10788072Y-5385000D01*
X10775812Y-5260518D01*
X10739502Y-5140820D01*
X10680537Y-5030506D01*
X10601185Y-4933815D01*
X10517333Y-4865000D01*
X10601185Y-4796185D01*
X10680537Y-4699494D01*
X10739502Y-4589180D01*
X10775812Y-4469482D01*
X10787087Y-4355000D01*
X12361928Y-4355000D01*
X12361928Y-4595000D01*
X12374188Y-4719482D01*
X12410498Y-4839180D01*
X12469463Y-4949494D01*
X12548815Y-5046185D01*
X12645506Y-5125537D01*
X12755820Y-5184502D01*
X12875518Y-5220812D01*
X13000000Y-5233072D01*
X17000000Y-5233072D01*
X17124482Y-5220812D01*
X17244180Y-5184502D01*
X17354494Y-5125537D01*
X17451185Y-5046185D01*
X17530537Y-4949494D01*
X17589502Y-4839180D01*
X17625812Y-4719482D01*
X17638072Y-4595000D01*
X17638072Y-2595000D01*
X17625812Y-2470518D01*
X17589502Y-2350820D01*
X17530537Y-2240506D01*
X17451185Y-2143815D01*
X17354494Y-2064463D01*
X17244180Y-2005498D01*
X17124482Y-1969188D01*
X17000000Y-1956928D01*
X13000000Y-1956928D01*
X12875518Y-1969188D01*
X12755820Y-2005498D01*
X12645506Y-2064463D01*
X12548815Y-2143815D01*
X12469463Y-2240506D01*
X12410498Y-2350820D01*
X12374188Y-2470518D01*
X12361928Y-2595000D01*
X12361928Y-2835000D01*
X10787087Y-2835000D01*
X10775812Y-2720518D01*
X10739502Y-2600820D01*
X10680537Y-2490506D01*
X10601185Y-2393815D01*
X10504494Y-2314463D01*
X10394180Y-2255498D01*
X10274482Y-2219188D01*
X10150000Y-2206928D01*
X6750000Y-2206928D01*
X6625518Y-2219188D01*
X6505820Y-2255498D01*
X6395506Y-2314463D01*
X6298815Y-2393815D01*
X6219463Y-2490506D01*
X6160498Y-2600820D01*
X6124188Y-2720518D01*
X6112913Y-2835000D01*
X3792325Y-2835000D01*
X3755000Y-2831324D01*
X3717675Y-2835000D01*
X3717667Y-2835000D01*
X3606014Y-2845997D01*
X3462753Y-2889454D01*
X3330724Y-2960026D01*
X3214999Y-3054999D01*
X3191196Y-3084003D01*
X3038998Y-3236201D01*
X3010000Y-3259999D01*
X2986202Y-3288997D01*
X2986201Y-3288998D01*
X2915026Y-3375724D01*
X2860931Y-3476928D01*
X1850000Y-3476928D01*
X1725518Y-3489188D01*
X1605820Y-3525498D01*
X1495506Y-3584463D01*
X1398815Y-3663815D01*
X1319463Y-3760506D01*
X1260498Y-3870820D01*
X1224188Y-3990518D01*
X1211928Y-4115000D01*
X660000Y-4115000D01*
X660000Y-660000D01*
X18340000Y-660000D01*
X18340001Y-10340000D01*
G37*
X18340001Y-10340000D02*
X660000Y-10340000D01*
X660000Y-8155000D01*
X1211928Y-8155000D01*
X1224188Y-8279482D01*
X1260498Y-8399180D01*
X1319463Y-8509494D01*
X1398815Y-8606185D01*
X1495506Y-8685537D01*
X1605820Y-8744502D01*
X1725518Y-8780812D01*
X1850000Y-8793072D01*
X3264250Y-8790000D01*
X3423000Y-8631250D01*
X3423000Y-7532000D01*
X3677000Y-7532000D01*
X3677000Y-8631250D01*
X3835750Y-8790000D01*
X5250000Y-8793072D01*
X5374482Y-8780812D01*
X5494180Y-8744502D01*
X5604494Y-8685537D01*
X5701185Y-8606185D01*
X5780537Y-8509494D01*
X5836391Y-8405000D01*
X12361928Y-8405000D01*
X12374188Y-8529482D01*
X12410498Y-8649180D01*
X12469463Y-8759494D01*
X12548815Y-8856185D01*
X12645506Y-8935537D01*
X12755820Y-8994502D01*
X12875518Y-9030812D01*
X13000000Y-9043072D01*
X14714250Y-9040000D01*
X14873000Y-8881250D01*
X14873000Y-7532000D01*
X15127000Y-7532000D01*
X15127000Y-8881250D01*
X15285750Y-9040000D01*
X17000000Y-9043072D01*
X17124482Y-9030812D01*
X17244180Y-8994502D01*
X17354494Y-8935537D01*
X17451185Y-8856185D01*
X17530537Y-8759494D01*
X17589502Y-8649180D01*
X17625812Y-8529482D01*
X17638072Y-8405000D01*
X17635000Y-7690750D01*
X17476250Y-7532000D01*
X15127000Y-7532000D01*
X14873000Y-7532000D01*
X12523750Y-7532000D01*
X12365000Y-7690750D01*
X12361928Y-8405000D01*
X5836391Y-8405000D01*
X5839502Y-8399180D01*
X5875812Y-8279482D01*
X5888072Y-8155000D01*
X5885000Y-7690750D01*
X5726250Y-7532000D01*
X3677000Y-7532000D01*
X3423000Y-7532000D01*
X1373750Y-7532000D01*
X1215000Y-7690750D01*
X1211928Y-8155000D01*
X660000Y-8155000D01*
X660000Y-4115000D01*
X1211928Y-4115000D01*
X1211928Y-5615000D01*
X1224188Y-5739482D01*
X1260498Y-5859180D01*
X1319463Y-5969494D01*
X1398815Y-6066185D01*
X1482667Y-6135000D01*
X1398815Y-6203815D01*
X1319463Y-6300506D01*
X1260498Y-6410820D01*
X1224188Y-6530518D01*
X1211928Y-6655000D01*
X1215000Y-7119250D01*
X1373750Y-7278000D01*
X3423000Y-7278000D01*
X3423000Y-7258000D01*
X3677000Y-7258000D01*
X3677000Y-7278000D01*
X5726250Y-7278000D01*
X5885000Y-7119250D01*
X5886550Y-6885000D01*
X6111928Y-6885000D01*
X6124188Y-7009482D01*
X6160498Y-7129180D01*
X6219463Y-7239494D01*
X6298815Y-7336185D01*
X6395506Y-7415537D01*
X6505820Y-7474502D01*
X6625518Y-7510812D01*
X6750000Y-7523072D01*
X8164250Y-7520000D01*
X8323000Y-7361250D01*
X8323000Y-6262000D01*
X8577000Y-6262000D01*
X8577000Y-7361250D01*
X8735750Y-7520000D01*
X10150000Y-7523072D01*
X10274482Y-7510812D01*
X10394180Y-7474502D01*
X10504494Y-7415537D01*
X10601185Y-7336185D01*
X10680537Y-7239494D01*
X10739502Y-7129180D01*
X10775812Y-7009482D01*
X10788072Y-6885000D01*
X10785000Y-6420750D01*
X10769250Y-6405000D01*
X12361928Y-6405000D01*
X12365000Y-7119250D01*
X12523750Y-7278000D01*
X14873000Y-7278000D01*
X14873000Y-5928750D01*
X15127000Y-5928750D01*
X15127000Y-7278000D01*
X17476250Y-7278000D01*
X17635000Y-7119250D01*
X17638072Y-6405000D01*
X17625812Y-6280518D01*
X17589502Y-6160820D01*
X17530537Y-6050506D01*
X17451185Y-5953815D01*
X17354494Y-5874463D01*
X17244180Y-5815498D01*
X17124482Y-5779188D01*
X17000000Y-5766928D01*
X15285750Y-5770000D01*
X15127000Y-5928750D01*
X14873000Y-5928750D01*
X14714250Y-5770000D01*
X13000000Y-5766928D01*
X12875518Y-5779188D01*
X12755820Y-5815498D01*
X12645506Y-5874463D01*
X12548815Y-5953815D01*
X12469463Y-6050506D01*
X12410498Y-6160820D01*
X12374188Y-6280518D01*
X12361928Y-6405000D01*
X10769250Y-6405000D01*
X10626250Y-6262000D01*
X8577000Y-6262000D01*
X8323000Y-6262000D01*
X6273750Y-6262000D01*
X6115000Y-6420750D01*
X6111928Y-6885000D01*
X5886550Y-6885000D01*
X5888072Y-6655000D01*
X5875812Y-6530518D01*
X5839502Y-6410820D01*
X5780537Y-6300506D01*
X5701185Y-6203815D01*
X5617333Y-6135000D01*
X5701185Y-6066185D01*
X5780537Y-5969494D01*
X5839502Y-5859180D01*
X5875812Y-5739482D01*
X5888072Y-5615000D01*
X5888072Y-4355000D01*
X6112913Y-4355000D01*
X6124188Y-4469482D01*
X6160498Y-4589180D01*
X6219463Y-4699494D01*
X6298815Y-4796185D01*
X6382667Y-4865000D01*
X6298815Y-4933815D01*
X6219463Y-5030506D01*
X6160498Y-5140820D01*
X6124188Y-5260518D01*
X6111928Y-5385000D01*
X6115000Y-5849250D01*
X6273750Y-6008000D01*
X8323000Y-6008000D01*
X8323000Y-5988000D01*
X8577000Y-5988000D01*
X8577000Y-6008000D01*
X10626250Y-6008000D01*
X10785000Y-5849250D01*
X10788072Y-5385000D01*
X10775812Y-5260518D01*
X10739502Y-5140820D01*
X10680537Y-5030506D01*
X10601185Y-4933815D01*
X10517333Y-4865000D01*
X10601185Y-4796185D01*
X10680537Y-4699494D01*
X10739502Y-4589180D01*
X10775812Y-4469482D01*
X10787087Y-4355000D01*
X12361928Y-4355000D01*
X12361928Y-4595000D01*
X12374188Y-4719482D01*
X12410498Y-4839180D01*
X12469463Y-4949494D01*
X12548815Y-5046185D01*
X12645506Y-5125537D01*
X12755820Y-5184502D01*
X12875518Y-5220812D01*
X13000000Y-5233072D01*
X17000000Y-5233072D01*
X17124482Y-5220812D01*
X17244180Y-5184502D01*
X17354494Y-5125537D01*
X17451185Y-5046185D01*
X17530537Y-4949494D01*
X17589502Y-4839180D01*
X17625812Y-4719482D01*
X17638072Y-4595000D01*
X17638072Y-2595000D01*
X17625812Y-2470518D01*
X17589502Y-2350820D01*
X17530537Y-2240506D01*
X17451185Y-2143815D01*
X17354494Y-2064463D01*
X17244180Y-2005498D01*
X17124482Y-1969188D01*
X17000000Y-1956928D01*
X13000000Y-1956928D01*
X12875518Y-1969188D01*
X12755820Y-2005498D01*
X12645506Y-2064463D01*
X12548815Y-2143815D01*
X12469463Y-2240506D01*
X12410498Y-2350820D01*
X12374188Y-2470518D01*
X12361928Y-2595000D01*
X12361928Y-2835000D01*
X10787087Y-2835000D01*
X10775812Y-2720518D01*
X10739502Y-2600820D01*
X10680537Y-2490506D01*
X10601185Y-2393815D01*
X10504494Y-2314463D01*
X10394180Y-2255498D01*
X10274482Y-2219188D01*
X10150000Y-2206928D01*
X6750000Y-2206928D01*
X6625518Y-2219188D01*
X6505820Y-2255498D01*
X6395506Y-2314463D01*
X6298815Y-2393815D01*
X6219463Y-2490506D01*
X6160498Y-2600820D01*
X6124188Y-2720518D01*
X6112913Y-2835000D01*
X3792325Y-2835000D01*
X3755000Y-2831324D01*
X3717675Y-2835000D01*
X3717667Y-2835000D01*
X3606014Y-2845997D01*
X3462753Y-2889454D01*
X3330724Y-2960026D01*
X3214999Y-3054999D01*
X3191196Y-3084003D01*
X3038998Y-3236201D01*
X3010000Y-3259999D01*
X2986202Y-3288997D01*
X2986201Y-3288998D01*
X2915026Y-3375724D01*
X2860931Y-3476928D01*
X1850000Y-3476928D01*
X1725518Y-3489188D01*
X1605820Y-3525498D01*
X1495506Y-3584463D01*
X1398815Y-3663815D01*
X1319463Y-3760506D01*
X1260498Y-3870820D01*
X1224188Y-3990518D01*
X1211928Y-4115000D01*
X660000Y-4115000D01*
X660000Y-660000D01*
X18340000Y-660000D01*
X18340001Y-10340000D01*
M02*
