%TF.GenerationSoftware,KiCad,Pcbnew,(5.1.6)-1*%
%TF.CreationDate,2020-10-13T17:38:00+02:00*%
%TF.ProjectId,MRF89XAM8A_Breakout,4d524638-3958-4414-9d38-415f42726561,rev?*%
%TF.SameCoordinates,Original*%
%TF.FileFunction,Copper,L1,Top*%
%TF.FilePolarity,Positive*%
%FSLAX46Y46*%
G04 Gerber Fmt 4.6, Leading zero omitted, Abs format (unit mm)*
G04 Created by KiCad (PCBNEW (5.1.6)-1) date 2020-10-13 17:38:00*
%MOMM*%
%LPD*%
G01*
G04 APERTURE LIST*
%TA.AperFunction,SMDPad,CuDef*%
%ADD10R,3.048000X2.032000*%
%TD*%
%TA.AperFunction,SMDPad,CuDef*%
%ADD11R,1.250000X1.500000*%
%TD*%
%TA.AperFunction,ComponentPad*%
%ADD12C,1.500000*%
%TD*%
%TA.AperFunction,SMDPad,CuDef*%
%ADD13R,1.500000X1.300000*%
%TD*%
%TA.AperFunction,ComponentPad*%
%ADD14R,1.700000X1.700000*%
%TD*%
%TA.AperFunction,ComponentPad*%
%ADD15O,1.700000X1.700000*%
%TD*%
%TA.AperFunction,ViaPad*%
%ADD16C,0.800000*%
%TD*%
%TA.AperFunction,Conductor*%
%ADD17C,0.250000*%
%TD*%
G04 APERTURE END LIST*
D10*
%TO.P,U1,6*%
%TO.N,/SCK*%
X90602000Y-98350000D03*
%TO.P,U1,7*%
%TO.N,/SDO*%
X109398000Y-98350000D03*
%TO.P,U1,5*%
%TO.N,/SDI*%
X90602000Y-95810000D03*
%TO.P,U1,8*%
%TO.N,/~CSCON*%
X109398000Y-95810000D03*
%TO.P,U1,4*%
%TO.N,/IRQ0*%
X90602000Y-93270000D03*
%TO.P,U1,9*%
%TO.N,/IRQ1*%
X109398000Y-93270000D03*
%TO.P,U1,3*%
%TO.N,/~CSDAT*%
X90602000Y-90730000D03*
%TO.P,U1,10*%
%TO.N,VCC_3V3*%
X109398000Y-90730000D03*
%TO.P,U1,2*%
%TO.N,/RESET*%
X90602000Y-88190000D03*
%TO.P,U1,11*%
%TO.N,GND*%
X109398000Y-88190000D03*
%TO.P,U1,1*%
X90602000Y-85650000D03*
%TO.P,U1,12*%
X109398000Y-85650000D03*
%TD*%
D11*
%TO.P,C2,1*%
%TO.N,VCC_3V3*%
X113000000Y-90750000D03*
%TO.P,C2,2*%
%TO.N,GND*%
X113000000Y-88250000D03*
%TD*%
D12*
%TO.P,J1,9*%
%TO.N,/SDI*%
X95555000Y-104770000D03*
%TO.P,J1,10*%
%TO.N,GND*%
X94285000Y-102230000D03*
%TO.P,J1,7*%
%TO.N,/SDO*%
X98095000Y-104770000D03*
%TO.P,J1,8*%
%TO.N,/SCK*%
X96825000Y-102230000D03*
%TO.P,J1,6*%
%TO.N,/IRQ1*%
X99365000Y-102230000D03*
%TO.P,J1,5*%
%TO.N,/IRQ0*%
X100635000Y-104770000D03*
%TO.P,J1,4*%
%TO.N,/RESET*%
X101905000Y-102230000D03*
%TO.P,J1,3*%
%TO.N,/~CSCON*%
X103175000Y-104770000D03*
%TO.P,J1,2*%
%TO.N,/~CSDAT*%
X104445000Y-102230000D03*
%TO.P,J1,1*%
%TO.N,VCC_3V3*%
X105715000Y-104770000D03*
%TD*%
D13*
%TO.P,R2,2*%
%TO.N,/~CSDAT*%
X110350000Y-103000000D03*
%TO.P,R2,1*%
%TO.N,VCC_3V3*%
X107650000Y-103000000D03*
%TD*%
%TO.P,R3,2*%
%TO.N,/~CSCON*%
X110350000Y-106500000D03*
%TO.P,R3,1*%
%TO.N,VCC_3V3*%
X107650000Y-106500000D03*
%TD*%
D14*
%TO.P,X1,1*%
%TO.N,GND*%
X84000000Y-92000000D03*
D15*
%TO.P,X1,2*%
%TO.N,/RESET*%
X84000000Y-94540000D03*
%TO.P,X1,3*%
%TO.N,/~CSCON*%
X84000000Y-97080000D03*
%TO.P,X1,4*%
%TO.N,/IRQ0*%
X84000000Y-99620000D03*
%TO.P,X1,5*%
%TO.N,/SDI*%
X84000000Y-102160000D03*
%TO.P,X1,6*%
%TO.N,/SCK*%
X84000000Y-104700000D03*
%TD*%
D14*
%TO.P,X2,1*%
%TO.N,/SDO*%
X118000000Y-92000000D03*
D15*
%TO.P,X2,2*%
%TO.N,/~CSDAT*%
X118000000Y-94540000D03*
%TO.P,X2,3*%
%TO.N,/IRQ1*%
X118000000Y-97080000D03*
%TO.P,X2,4*%
%TO.N,VCC_3V3*%
X118000000Y-99620000D03*
%TO.P,X2,5*%
%TO.N,GND*%
X118000000Y-102160000D03*
%TO.P,X2,6*%
X118000000Y-104700000D03*
%TD*%
D16*
%TO.N,/RESET*%
X101900000Y-107950000D03*
X91450000Y-107950000D03*
X87950000Y-88150000D03*
%TO.N,VCC_3V3*%
X115000000Y-90800000D03*
X115000000Y-104800000D03*
X115000000Y-99600000D03*
%TO.N,GND*%
X115900000Y-88200000D03*
X94250000Y-108800000D03*
X87950000Y-85650000D03*
X115900000Y-109600000D03*
%TO.N,/~CSDAT*%
X113650000Y-94550000D03*
X113650000Y-103000000D03*
%TO.N,/~CSCON*%
X103150000Y-107950000D03*
X111950000Y-107950000D03*
X111940000Y-95810000D03*
%TO.N,/IRQ0*%
X88152000Y-93298000D03*
%TO.N,/IRQ1*%
X111930000Y-93270000D03*
%TO.N,/SCK*%
X89400000Y-100350000D03*
%TO.N,/SDO*%
X112800000Y-98200000D03*
X98100000Y-108800000D03*
X112800000Y-108800000D03*
X114200000Y-92000000D03*
%TO.N,/SDI*%
X88175000Y-95100000D03*
%TD*%
D17*
%TO.N,/RESET*%
X91450000Y-107950000D02*
X101900000Y-107950000D01*
X90562000Y-88150000D02*
X90602000Y-88190000D01*
X87950000Y-88150000D02*
X90562000Y-88150000D01*
X86549973Y-104759203D02*
X89740770Y-107950000D01*
X86549972Y-88900028D02*
X86549973Y-104759203D01*
X87950000Y-88150000D02*
X87300000Y-88150000D01*
X89740770Y-107950000D02*
X91450000Y-107950000D01*
X87300000Y-88150000D02*
X86549972Y-88900028D01*
%TO.N,VCC_3V3*%
X109418000Y-90750000D02*
X109398000Y-90730000D01*
X113000000Y-90750000D02*
X109418000Y-90750000D01*
X113000000Y-90750000D02*
X114950000Y-90750000D01*
X114950000Y-90750000D02*
X115000000Y-90800000D01*
X105745000Y-104800000D02*
X105715000Y-104770000D01*
X107650000Y-104750000D02*
X107700000Y-104800000D01*
X115000000Y-104800000D02*
X107700000Y-104800000D01*
X107650000Y-103000000D02*
X107650000Y-104750000D01*
X107700000Y-104800000D02*
X105745000Y-104800000D01*
X107650000Y-104850000D02*
X107700000Y-104800000D01*
X107650000Y-106500000D02*
X107650000Y-104850000D01*
X115020000Y-99620000D02*
X115000000Y-99600000D01*
X118000000Y-99620000D02*
X115020000Y-99620000D01*
%TO.N,GND*%
X109458000Y-88250000D02*
X109398000Y-88190000D01*
X113000000Y-88250000D02*
X109458000Y-88250000D01*
X113000000Y-88250000D02*
X113000000Y-86500000D01*
X112150000Y-85650000D02*
X109398000Y-85650000D01*
X113000000Y-86500000D02*
X112150000Y-85650000D01*
X113000000Y-88250000D02*
X115850000Y-88250000D01*
X115850000Y-88250000D02*
X115900000Y-88200000D01*
X86099964Y-104945604D02*
X89954360Y-108800000D01*
X89954360Y-108800000D02*
X94250000Y-108800000D01*
X95050000Y-109600000D02*
X94250000Y-108800000D01*
X114850000Y-109600000D02*
X95050000Y-109600000D01*
X90602000Y-85650000D02*
X87950000Y-85650000D01*
X86099964Y-87500036D02*
X86099964Y-88100038D01*
X87950000Y-85650000D02*
X86099964Y-87500036D01*
X115900000Y-109600000D02*
X114850000Y-109600000D01*
X86099928Y-92000000D02*
X86099964Y-92000036D01*
X86099964Y-104945604D02*
X86099964Y-92000036D01*
X84000000Y-92000000D02*
X86099928Y-92000000D01*
X86099964Y-92000036D02*
X86099964Y-88100038D01*
%TO.N,/~CSDAT*%
X104450000Y-102235000D02*
X104445000Y-102230000D01*
X104450000Y-106450000D02*
X104450000Y-102235000D01*
X103749990Y-107150010D02*
X104450000Y-106450000D01*
X89577190Y-107150010D02*
X103749990Y-107150010D01*
X88170000Y-90730000D02*
X86999982Y-91900020D01*
X90602000Y-90730000D02*
X88170000Y-90730000D01*
X86999982Y-91900020D02*
X86999982Y-104572802D01*
X86999982Y-104572802D02*
X89577190Y-107150010D01*
X110350000Y-103000000D02*
X110350000Y-101850000D01*
X110350000Y-101850000D02*
X110000000Y-101500000D01*
X105175000Y-101500000D02*
X104445000Y-102230000D01*
X110000000Y-101500000D02*
X105175000Y-101500000D01*
X118000000Y-94540000D02*
X113660000Y-94540000D01*
X113660000Y-94540000D02*
X113650000Y-94550000D01*
X113650000Y-103000000D02*
X110350000Y-103000000D01*
%TO.N,/~CSCON*%
X109398000Y-95810000D02*
X111940000Y-95810000D01*
X110350000Y-107900000D02*
X110300000Y-107950000D01*
X110350000Y-106500000D02*
X110350000Y-107900000D01*
X103150000Y-107950000D02*
X110300000Y-107950000D01*
X110300000Y-107950000D02*
X111950000Y-107950000D01*
%TO.N,/IRQ0*%
X100635000Y-106265000D02*
X100635000Y-104770000D01*
X100200000Y-106700000D02*
X100635000Y-106265000D01*
X90602000Y-93270000D02*
X90602000Y-93298000D01*
X90602000Y-93298000D02*
X88152000Y-93298000D01*
X88152000Y-93298000D02*
X87449990Y-94000010D01*
X87449991Y-104386401D02*
X89763590Y-106700000D01*
X89763590Y-106700000D02*
X89800000Y-106700000D01*
X87449990Y-94000010D02*
X87449991Y-104386401D01*
X89800000Y-106700000D02*
X100200000Y-106700000D01*
%TO.N,/IRQ1*%
X109398000Y-93270000D02*
X111930000Y-93270000D01*
X111930000Y-93270000D02*
X111930000Y-94380000D01*
X114630000Y-97080000D02*
X118000000Y-97080000D01*
X111930000Y-94380000D02*
X114630000Y-97080000D01*
%TO.N,/SCK*%
X96150000Y-100350000D02*
X96825000Y-101025000D01*
X90950000Y-100350000D02*
X96150000Y-100350000D01*
X96825000Y-101025000D02*
X96825000Y-102230000D01*
X90602000Y-98350000D02*
X90602000Y-100348000D01*
X89400000Y-100350000D02*
X90600000Y-100350000D01*
X90602000Y-100348000D02*
X90600000Y-100350000D01*
X90600000Y-100350000D02*
X90950000Y-100350000D01*
%TO.N,/SDO*%
X109398000Y-98350000D02*
X109398000Y-98202000D01*
X109398000Y-98202000D02*
X109400000Y-98200000D01*
X109400000Y-98200000D02*
X112800000Y-98200000D01*
X98100000Y-108800000D02*
X112800000Y-108800000D01*
X118000000Y-92000000D02*
X114200000Y-92000000D01*
%TO.N,/SDI*%
X90602000Y-95810000D02*
X88390000Y-95810000D01*
X88390000Y-95810000D02*
X87900000Y-96300000D01*
X87900000Y-96300000D02*
X87900000Y-104200000D01*
X88470000Y-104770000D02*
X95555000Y-104770000D01*
X87900000Y-104200000D02*
X88470000Y-104770000D01*
X88175000Y-95595000D02*
X88390000Y-95810000D01*
X88175000Y-95100000D02*
X88175000Y-95595000D01*
%TD*%
M02*
