G04 #@! TF.GenerationSoftware,KiCad,Pcbnew,(5.1.6)-1*
G04 #@! TF.CreationDate,2020-10-13T20:46:18+02:00*
G04 #@! TF.ProjectId,MRF89XAM8A_Breakout,4d524638-3958-4414-9d38-415f42726561,rev?*
G04 #@! TF.SameCoordinates,PX4db9760PY4fa1be0*
G04 #@! TF.FileFunction,Soldermask,Top*
G04 #@! TF.FilePolarity,Negative*
%FSLAX46Y46*%
G04 Gerber Fmt 4.6, Leading zero omitted, Abs format (unit mm)*
G04 Created by KiCad (PCBNEW (5.1.6)-1) date 2020-10-13 20:46:18*
%MOMM*%
%LPD*%
G01*
G04 APERTURE LIST*
%ADD10R,3.148000X2.132000*%
%ADD11R,1.350000X1.600000*%
%ADD12C,1.600000*%
%ADD13R,1.600000X1.400000*%
%ADD14R,1.800000X1.800000*%
%ADD15O,1.800000X1.800000*%
G04 APERTURE END LIST*
D10*
X9102000Y-14850000D03*
X27898000Y-14850000D03*
X9102000Y-12310000D03*
X27898000Y-12310000D03*
X9102000Y-9770000D03*
X27898000Y-9770000D03*
X9102000Y-7230000D03*
X27898000Y-7230000D03*
X9102000Y-4690000D03*
X27898000Y-4690000D03*
X9102000Y-2150000D03*
X27898000Y-2150000D03*
D11*
X31500000Y-7250000D03*
X31500000Y-4750000D03*
D12*
X14055000Y-21270000D03*
X12785000Y-18730000D03*
X16595000Y-21270000D03*
X15325000Y-18730000D03*
X17865000Y-18730000D03*
X19135000Y-21270000D03*
X20405000Y-18730000D03*
X21675000Y-21270000D03*
X22945000Y-18730000D03*
X24215000Y-21270000D03*
D13*
X28850000Y-19500000D03*
X26150000Y-19500000D03*
X28850000Y-23000000D03*
X26150000Y-23000000D03*
D14*
X2500000Y-8500000D03*
D15*
X2500000Y-11040000D03*
X2500000Y-13580000D03*
X2500000Y-16120000D03*
X2500000Y-18660000D03*
X2500000Y-21200000D03*
D14*
X36500000Y-8500000D03*
D15*
X36500000Y-11040000D03*
X36500000Y-13580000D03*
X36500000Y-16120000D03*
X36500000Y-18660000D03*
X36500000Y-21200000D03*
M02*
