%TF.GenerationSoftware,KiCad,Pcbnew,(5.1.6)-1*%
%TF.CreationDate,2020-10-13T17:38:00+02:00*%
%TF.ProjectId,MRF89XAM8A_Breakout,4d524638-3958-4414-9d38-415f42726561,rev?*%
%TF.SameCoordinates,Original*%
%TF.FileFunction,Soldermask,Top*%
%TF.FilePolarity,Negative*%
%FSLAX46Y46*%
G04 Gerber Fmt 4.6, Leading zero omitted, Abs format (unit mm)*
G04 Created by KiCad (PCBNEW (5.1.6)-1) date 2020-10-13 17:38:00*
%MOMM*%
%LPD*%
G01*
G04 APERTURE LIST*
%ADD10R,3.148000X2.132000*%
%ADD11R,1.350000X1.600000*%
%ADD12C,1.600000*%
%ADD13R,1.600000X1.400000*%
%ADD14R,1.800000X1.800000*%
%ADD15O,1.800000X1.800000*%
G04 APERTURE END LIST*
D10*
%TO.C,U1*%
X90602000Y-98350000D03*
X109398000Y-98350000D03*
X90602000Y-95810000D03*
X109398000Y-95810000D03*
X90602000Y-93270000D03*
X109398000Y-93270000D03*
X90602000Y-90730000D03*
X109398000Y-90730000D03*
X90602000Y-88190000D03*
X109398000Y-88190000D03*
X90602000Y-85650000D03*
X109398000Y-85650000D03*
%TD*%
D11*
%TO.C,C2*%
X113000000Y-90750000D03*
X113000000Y-88250000D03*
%TD*%
D12*
%TO.C,J1*%
X95555000Y-104770000D03*
X94285000Y-102230000D03*
X98095000Y-104770000D03*
X96825000Y-102230000D03*
X99365000Y-102230000D03*
X100635000Y-104770000D03*
X101905000Y-102230000D03*
X103175000Y-104770000D03*
X104445000Y-102230000D03*
X105715000Y-104770000D03*
%TD*%
D13*
%TO.C,R2*%
X110350000Y-103000000D03*
X107650000Y-103000000D03*
%TD*%
%TO.C,R3*%
X110350000Y-106500000D03*
X107650000Y-106500000D03*
%TD*%
D14*
%TO.C,X1*%
X84000000Y-92000000D03*
D15*
X84000000Y-94540000D03*
X84000000Y-97080000D03*
X84000000Y-99620000D03*
X84000000Y-102160000D03*
X84000000Y-104700000D03*
%TD*%
D14*
%TO.C,X2*%
X118000000Y-92000000D03*
D15*
X118000000Y-94540000D03*
X118000000Y-97080000D03*
X118000000Y-99620000D03*
X118000000Y-102160000D03*
X118000000Y-104700000D03*
%TD*%
M02*
