%TF.GenerationSoftware,KiCad,Pcbnew,(5.1.6)-1*%
%TF.CreationDate,2020-10-13T17:38:00+02:00*%
%TF.ProjectId,MRF89XAM8A_Breakout,4d524638-3958-4414-9d38-415f42726561,rev?*%
%TF.SameCoordinates,Original*%
%TF.FileFunction,Copper,L2,Bot*%
%TF.FilePolarity,Positive*%
%FSLAX46Y46*%
G04 Gerber Fmt 4.6, Leading zero omitted, Abs format (unit mm)*
G04 Created by KiCad (PCBNEW (5.1.6)-1) date 2020-10-13 17:38:00*
%MOMM*%
%LPD*%
G01*
G04 APERTURE LIST*
%TA.AperFunction,SMDPad,CuDef*%
%ADD10R,1.300000X1.500000*%
%TD*%
%TA.AperFunction,SMDPad,CuDef*%
%ADD11R,1.250000X1.500000*%
%TD*%
%TA.AperFunction,ComponentPad*%
%ADD12C,1.500000*%
%TD*%
%TA.AperFunction,ComponentPad*%
%ADD13R,1.700000X1.700000*%
%TD*%
%TA.AperFunction,ComponentPad*%
%ADD14O,1.700000X1.700000*%
%TD*%
%TA.AperFunction,ViaPad*%
%ADD15C,0.800000*%
%TD*%
%TA.AperFunction,Conductor*%
%ADD16C,0.250000*%
%TD*%
%TA.AperFunction,Conductor*%
%ADD17C,0.254000*%
%TD*%
G04 APERTURE END LIST*
D10*
%TO.P,R1,2*%
%TO.N,GND*%
X90500000Y-102150000D03*
%TO.P,R1,1*%
%TO.N,/RESET*%
X90500000Y-104850000D03*
%TD*%
D11*
%TO.P,C1,1*%
%TO.N,VCC_3V3*%
X88000000Y-104750000D03*
%TO.P,C1,2*%
%TO.N,/RESET*%
X88000000Y-102250000D03*
%TD*%
D12*
%TO.P,J1,9*%
%TO.N,/SDI*%
X95555000Y-104770000D03*
%TO.P,J1,10*%
%TO.N,GND*%
X94285000Y-102230000D03*
%TO.P,J1,7*%
%TO.N,/SDO*%
X98095000Y-104770000D03*
%TO.P,J1,8*%
%TO.N,/SCK*%
X96825000Y-102230000D03*
%TO.P,J1,6*%
%TO.N,/IRQ1*%
X99365000Y-102230000D03*
%TO.P,J1,5*%
%TO.N,/IRQ0*%
X100635000Y-104770000D03*
%TO.P,J1,4*%
%TO.N,/RESET*%
X101905000Y-102230000D03*
%TO.P,J1,3*%
%TO.N,/~CSCON*%
X103175000Y-104770000D03*
%TO.P,J1,2*%
%TO.N,/~CSDAT*%
X104445000Y-102230000D03*
%TO.P,J1,1*%
%TO.N,VCC_3V3*%
X105715000Y-104770000D03*
%TD*%
D13*
%TO.P,X1,1*%
%TO.N,GND*%
X84000000Y-92000000D03*
D14*
%TO.P,X1,2*%
%TO.N,/RESET*%
X84000000Y-94540000D03*
%TO.P,X1,3*%
%TO.N,/~CSCON*%
X84000000Y-97080000D03*
%TO.P,X1,4*%
%TO.N,/IRQ0*%
X84000000Y-99620000D03*
%TO.P,X1,5*%
%TO.N,/SDI*%
X84000000Y-102160000D03*
%TO.P,X1,6*%
%TO.N,/SCK*%
X84000000Y-104700000D03*
%TD*%
D13*
%TO.P,X2,1*%
%TO.N,/SDO*%
X118000000Y-92000000D03*
D14*
%TO.P,X2,2*%
%TO.N,/~CSDAT*%
X118000000Y-94540000D03*
%TO.P,X2,3*%
%TO.N,/IRQ1*%
X118000000Y-97080000D03*
%TO.P,X2,4*%
%TO.N,VCC_3V3*%
X118000000Y-99620000D03*
%TO.P,X2,5*%
%TO.N,GND*%
X118000000Y-102160000D03*
%TO.P,X2,6*%
X118000000Y-104700000D03*
%TD*%
D15*
%TO.N,/RESET*%
X101900000Y-107950000D03*
X91450000Y-107950000D03*
X87950000Y-88150000D03*
%TO.N,VCC_3V3*%
X115000000Y-90800000D03*
X115000000Y-104800000D03*
X115000000Y-99600000D03*
%TO.N,GND*%
X115900000Y-88200000D03*
X94250000Y-108800000D03*
X87950000Y-85650000D03*
X115900000Y-109600000D03*
%TO.N,/~CSDAT*%
X113650000Y-94550000D03*
X113650000Y-103000000D03*
%TO.N,/~CSCON*%
X103150000Y-107950000D03*
X111950000Y-107950000D03*
X111940000Y-95810000D03*
%TO.N,/IRQ0*%
X88152000Y-93298000D03*
%TO.N,/IRQ1*%
X111930000Y-93270000D03*
%TO.N,/SCK*%
X89400000Y-100350000D03*
%TO.N,/SDO*%
X112800000Y-98200000D03*
X98100000Y-108800000D03*
X112800000Y-108800000D03*
X114200000Y-92000000D03*
%TO.N,/SDI*%
X88175000Y-95100000D03*
%TD*%
D16*
%TO.N,/RESET*%
X101900000Y-102235000D02*
X101905000Y-102230000D01*
X101900000Y-107950000D02*
X101900000Y-102235000D01*
X90500000Y-104850000D02*
X90500000Y-106050000D01*
X91450000Y-107000000D02*
X91450000Y-107950000D01*
X90500000Y-106050000D02*
X91450000Y-107000000D01*
X88000000Y-102250000D02*
X88900000Y-102250000D01*
X88900000Y-102250000D02*
X89200000Y-102550000D01*
X89200000Y-102550000D02*
X89200000Y-104550000D01*
X89500000Y-104850000D02*
X90500000Y-104850000D01*
X89200000Y-104550000D02*
X89500000Y-104850000D01*
X84000000Y-94540000D02*
X86210000Y-94540000D01*
X86210000Y-94540000D02*
X86550000Y-94200000D01*
X86550000Y-94200000D02*
X86550000Y-88900000D01*
X86550000Y-88900000D02*
X87300000Y-88150000D01*
X87300000Y-88150000D02*
X87950000Y-88150000D01*
%TO.N,VCC_3V3*%
X105715000Y-106985000D02*
X105715000Y-104770000D01*
X103100000Y-109600000D02*
X105715000Y-106985000D01*
X88000000Y-106050000D02*
X91550000Y-109600000D01*
X91550000Y-109600000D02*
X103100000Y-109600000D01*
X88000000Y-104750000D02*
X88000000Y-106050000D01*
X115000000Y-90800000D02*
X115000000Y-99600000D01*
X115000000Y-99600000D02*
X115000000Y-104800000D01*
%TO.N,GND*%
X94250000Y-102265000D02*
X94285000Y-102230000D01*
X94250000Y-108800000D02*
X94250000Y-102265000D01*
X94205000Y-102150000D02*
X94285000Y-102230000D01*
X90500000Y-102150000D02*
X94205000Y-102150000D01*
X118000000Y-104700000D02*
X115900000Y-104700000D01*
X115900000Y-104700000D02*
X115900000Y-109600000D01*
X115960000Y-102160000D02*
X115900000Y-102100000D01*
X115900000Y-88200000D02*
X115900000Y-102100000D01*
X118000000Y-102160000D02*
X115960000Y-102160000D01*
X115900000Y-102100000D02*
X115900000Y-104700000D01*
%TO.N,/~CSDAT*%
X113650000Y-94550000D02*
X113650000Y-103000000D01*
%TO.N,/~CSCON*%
X103175000Y-104770000D02*
X103175000Y-107925000D01*
X103175000Y-107925000D02*
X103150000Y-107950000D01*
X111950000Y-107950000D02*
X111950000Y-95820000D01*
X111950000Y-95820000D02*
X111940000Y-95810000D01*
X84000000Y-97080000D02*
X82820000Y-97080000D01*
X106400000Y-107950000D02*
X111950000Y-107950000D01*
X82820000Y-97080000D02*
X82550000Y-97350000D01*
X82550000Y-105550000D02*
X87350000Y-110350000D01*
X82550000Y-97350000D02*
X82550000Y-105550000D01*
X104000000Y-110350000D02*
X106400000Y-107950000D01*
X87350000Y-110350000D02*
X104000000Y-110350000D01*
%TO.N,/IRQ0*%
X84000000Y-99620000D02*
X87180000Y-99620000D01*
X87180000Y-99620000D02*
X87450000Y-99350000D01*
X87450000Y-99350000D02*
X87450000Y-94000000D01*
X87450000Y-94000000D02*
X88152000Y-93298000D01*
%TO.N,/IRQ1*%
X99365000Y-94235000D02*
X99365000Y-102230000D01*
X100300000Y-93300000D02*
X99365000Y-94235000D01*
X100330000Y-93270000D02*
X100300000Y-93300000D01*
X111930000Y-93270000D02*
X100330000Y-93270000D01*
%TO.N,/SCK*%
X84000000Y-104700000D02*
X86300000Y-102400000D01*
X86300000Y-101200000D02*
X86899990Y-100600010D01*
X86300000Y-102400000D02*
X86300000Y-101200000D01*
X86899990Y-100600010D02*
X87736401Y-100600009D01*
X87736401Y-100600009D02*
X87986410Y-100350000D01*
X87986410Y-100350000D02*
X89400000Y-100350000D01*
%TO.N,/SDO*%
X98100000Y-104775000D02*
X98095000Y-104770000D01*
X98095000Y-104770000D02*
X98095000Y-108795000D01*
X98095000Y-108795000D02*
X98100000Y-108800000D01*
X112800000Y-108800000D02*
X112800000Y-98200000D01*
X112800000Y-98200000D02*
X112800000Y-92450000D01*
X113250000Y-92000000D02*
X114200000Y-92000000D01*
X112800000Y-92450000D02*
X113250000Y-92000000D01*
%TO.N,/SDI*%
X84000000Y-102160000D02*
X86010000Y-100150000D01*
X86010000Y-100150000D02*
X87550000Y-100150000D01*
X87550000Y-100150000D02*
X87900000Y-99800000D01*
X87900000Y-99800000D02*
X87900000Y-99536410D01*
X87900000Y-99536410D02*
X87900000Y-96350000D01*
X87900000Y-96350000D02*
X88175000Y-96075000D01*
X88175000Y-96075000D02*
X88175000Y-95100000D01*
%TD*%
D17*
%TO.N,GND*%
G36*
X119840000Y-110840000D02*
G01*
X104584801Y-110840000D01*
X106714802Y-108710000D01*
X111246289Y-108710000D01*
X111290226Y-108753937D01*
X111459744Y-108867205D01*
X111648102Y-108945226D01*
X111778781Y-108971219D01*
X111804774Y-109101898D01*
X111882795Y-109290256D01*
X111996063Y-109459774D01*
X112140226Y-109603937D01*
X112309744Y-109717205D01*
X112498102Y-109795226D01*
X112698061Y-109835000D01*
X112901939Y-109835000D01*
X113101898Y-109795226D01*
X113290256Y-109717205D01*
X113459774Y-109603937D01*
X113603937Y-109459774D01*
X113717205Y-109290256D01*
X113795226Y-109101898D01*
X113835000Y-108901939D01*
X113835000Y-108698061D01*
X113795226Y-108498102D01*
X113717205Y-108309744D01*
X113603937Y-108140226D01*
X113560000Y-108096289D01*
X113560000Y-104035000D01*
X113751939Y-104035000D01*
X113951898Y-103995226D01*
X114140256Y-103917205D01*
X114240001Y-103850558D01*
X114240001Y-104096288D01*
X114196063Y-104140226D01*
X114082795Y-104309744D01*
X114004774Y-104498102D01*
X113965000Y-104698061D01*
X113965000Y-104901939D01*
X114004774Y-105101898D01*
X114082795Y-105290256D01*
X114196063Y-105459774D01*
X114340226Y-105603937D01*
X114509744Y-105717205D01*
X114698102Y-105795226D01*
X114898061Y-105835000D01*
X115101939Y-105835000D01*
X115301898Y-105795226D01*
X115490256Y-105717205D01*
X115659774Y-105603937D01*
X115803937Y-105459774D01*
X115917205Y-105290256D01*
X115995226Y-105101898D01*
X116004178Y-105056890D01*
X116558524Y-105056890D01*
X116603175Y-105204099D01*
X116728359Y-105466920D01*
X116902412Y-105700269D01*
X117118645Y-105895178D01*
X117368748Y-106044157D01*
X117643109Y-106141481D01*
X117873000Y-106020814D01*
X117873000Y-104827000D01*
X118127000Y-104827000D01*
X118127000Y-106020814D01*
X118356891Y-106141481D01*
X118631252Y-106044157D01*
X118881355Y-105895178D01*
X119097588Y-105700269D01*
X119271641Y-105466920D01*
X119396825Y-105204099D01*
X119441476Y-105056890D01*
X119320155Y-104827000D01*
X118127000Y-104827000D01*
X117873000Y-104827000D01*
X116679845Y-104827000D01*
X116558524Y-105056890D01*
X116004178Y-105056890D01*
X116035000Y-104901939D01*
X116035000Y-104698061D01*
X115995226Y-104498102D01*
X115917205Y-104309744D01*
X115803937Y-104140226D01*
X115760000Y-104096289D01*
X115760000Y-102516890D01*
X116558524Y-102516890D01*
X116603175Y-102664099D01*
X116728359Y-102926920D01*
X116902412Y-103160269D01*
X117118645Y-103355178D01*
X117244255Y-103430000D01*
X117118645Y-103504822D01*
X116902412Y-103699731D01*
X116728359Y-103933080D01*
X116603175Y-104195901D01*
X116558524Y-104343110D01*
X116679845Y-104573000D01*
X117873000Y-104573000D01*
X117873000Y-102287000D01*
X118127000Y-102287000D01*
X118127000Y-104573000D01*
X119320155Y-104573000D01*
X119441476Y-104343110D01*
X119396825Y-104195901D01*
X119271641Y-103933080D01*
X119097588Y-103699731D01*
X118881355Y-103504822D01*
X118755745Y-103430000D01*
X118881355Y-103355178D01*
X119097588Y-103160269D01*
X119271641Y-102926920D01*
X119396825Y-102664099D01*
X119441476Y-102516890D01*
X119320155Y-102287000D01*
X118127000Y-102287000D01*
X117873000Y-102287000D01*
X116679845Y-102287000D01*
X116558524Y-102516890D01*
X115760000Y-102516890D01*
X115760000Y-100303711D01*
X115803937Y-100259774D01*
X115917205Y-100090256D01*
X115995226Y-99901898D01*
X116035000Y-99701939D01*
X116035000Y-99498061D01*
X115995226Y-99298102D01*
X115917205Y-99109744D01*
X115803937Y-98940226D01*
X115760000Y-98896289D01*
X115760000Y-91503711D01*
X115803937Y-91459774D01*
X115917205Y-91290256D01*
X115975301Y-91150000D01*
X116511928Y-91150000D01*
X116511928Y-92850000D01*
X116524188Y-92974482D01*
X116560498Y-93094180D01*
X116619463Y-93204494D01*
X116698815Y-93301185D01*
X116795506Y-93380537D01*
X116905820Y-93439502D01*
X116978380Y-93461513D01*
X116846525Y-93593368D01*
X116684010Y-93836589D01*
X116572068Y-94106842D01*
X116515000Y-94393740D01*
X116515000Y-94686260D01*
X116572068Y-94973158D01*
X116684010Y-95243411D01*
X116846525Y-95486632D01*
X117053368Y-95693475D01*
X117227760Y-95810000D01*
X117053368Y-95926525D01*
X116846525Y-96133368D01*
X116684010Y-96376589D01*
X116572068Y-96646842D01*
X116515000Y-96933740D01*
X116515000Y-97226260D01*
X116572068Y-97513158D01*
X116684010Y-97783411D01*
X116846525Y-98026632D01*
X117053368Y-98233475D01*
X117227760Y-98350000D01*
X117053368Y-98466525D01*
X116846525Y-98673368D01*
X116684010Y-98916589D01*
X116572068Y-99186842D01*
X116515000Y-99473740D01*
X116515000Y-99766260D01*
X116572068Y-100053158D01*
X116684010Y-100323411D01*
X116846525Y-100566632D01*
X117053368Y-100773475D01*
X117235534Y-100895195D01*
X117118645Y-100964822D01*
X116902412Y-101159731D01*
X116728359Y-101393080D01*
X116603175Y-101655901D01*
X116558524Y-101803110D01*
X116679845Y-102033000D01*
X117873000Y-102033000D01*
X117873000Y-102013000D01*
X118127000Y-102013000D01*
X118127000Y-102033000D01*
X119320155Y-102033000D01*
X119441476Y-101803110D01*
X119396825Y-101655901D01*
X119271641Y-101393080D01*
X119097588Y-101159731D01*
X118881355Y-100964822D01*
X118764466Y-100895195D01*
X118946632Y-100773475D01*
X119153475Y-100566632D01*
X119315990Y-100323411D01*
X119427932Y-100053158D01*
X119485000Y-99766260D01*
X119485000Y-99473740D01*
X119427932Y-99186842D01*
X119315990Y-98916589D01*
X119153475Y-98673368D01*
X118946632Y-98466525D01*
X118772240Y-98350000D01*
X118946632Y-98233475D01*
X119153475Y-98026632D01*
X119315990Y-97783411D01*
X119427932Y-97513158D01*
X119485000Y-97226260D01*
X119485000Y-96933740D01*
X119427932Y-96646842D01*
X119315990Y-96376589D01*
X119153475Y-96133368D01*
X118946632Y-95926525D01*
X118772240Y-95810000D01*
X118946632Y-95693475D01*
X119153475Y-95486632D01*
X119315990Y-95243411D01*
X119427932Y-94973158D01*
X119485000Y-94686260D01*
X119485000Y-94393740D01*
X119427932Y-94106842D01*
X119315990Y-93836589D01*
X119153475Y-93593368D01*
X119021620Y-93461513D01*
X119094180Y-93439502D01*
X119204494Y-93380537D01*
X119301185Y-93301185D01*
X119380537Y-93204494D01*
X119439502Y-93094180D01*
X119475812Y-92974482D01*
X119488072Y-92850000D01*
X119488072Y-91150000D01*
X119475812Y-91025518D01*
X119439502Y-90905820D01*
X119380537Y-90795506D01*
X119301185Y-90698815D01*
X119204494Y-90619463D01*
X119094180Y-90560498D01*
X118974482Y-90524188D01*
X118850000Y-90511928D01*
X117150000Y-90511928D01*
X117025518Y-90524188D01*
X116905820Y-90560498D01*
X116795506Y-90619463D01*
X116698815Y-90698815D01*
X116619463Y-90795506D01*
X116560498Y-90905820D01*
X116524188Y-91025518D01*
X116511928Y-91150000D01*
X115975301Y-91150000D01*
X115995226Y-91101898D01*
X116035000Y-90901939D01*
X116035000Y-90698061D01*
X115995226Y-90498102D01*
X115917205Y-90309744D01*
X115803937Y-90140226D01*
X115659774Y-89996063D01*
X115490256Y-89882795D01*
X115301898Y-89804774D01*
X115101939Y-89765000D01*
X114898061Y-89765000D01*
X114698102Y-89804774D01*
X114509744Y-89882795D01*
X114340226Y-89996063D01*
X114196063Y-90140226D01*
X114082795Y-90309744D01*
X114004774Y-90498102D01*
X113965000Y-90698061D01*
X113965000Y-90901939D01*
X113982130Y-90988060D01*
X113898102Y-91004774D01*
X113709744Y-91082795D01*
X113540226Y-91196063D01*
X113496289Y-91240000D01*
X113287322Y-91240000D01*
X113249999Y-91236324D01*
X113212676Y-91240000D01*
X113212667Y-91240000D01*
X113101014Y-91250997D01*
X112971592Y-91290256D01*
X112957753Y-91294454D01*
X112825723Y-91365026D01*
X112783146Y-91399969D01*
X112709999Y-91459999D01*
X112686196Y-91489003D01*
X112288998Y-91886201D01*
X112260000Y-91909999D01*
X112236202Y-91938997D01*
X112236201Y-91938998D01*
X112165026Y-92025724D01*
X112094454Y-92157754D01*
X112071023Y-92235000D01*
X112068799Y-92242332D01*
X112031939Y-92235000D01*
X111828061Y-92235000D01*
X111628102Y-92274774D01*
X111439744Y-92352795D01*
X111270226Y-92466063D01*
X111226289Y-92510000D01*
X100367322Y-92510000D01*
X100329999Y-92506324D01*
X100292677Y-92510000D01*
X100292667Y-92510000D01*
X100181014Y-92520997D01*
X100037753Y-92564454D01*
X99905724Y-92635026D01*
X99789999Y-92729999D01*
X99766201Y-92758997D01*
X98854002Y-93671196D01*
X98824999Y-93694999D01*
X98771444Y-93760256D01*
X98730026Y-93810724D01*
X98708490Y-93851015D01*
X98659454Y-93942754D01*
X98615997Y-94086015D01*
X98605000Y-94197668D01*
X98605000Y-94197678D01*
X98601324Y-94235000D01*
X98605000Y-94272322D01*
X98605001Y-101072090D01*
X98482114Y-101154201D01*
X98289201Y-101347114D01*
X98137629Y-101573957D01*
X98095000Y-101676873D01*
X98052371Y-101573957D01*
X97900799Y-101347114D01*
X97707886Y-101154201D01*
X97481043Y-101002629D01*
X97228989Y-100898225D01*
X96961411Y-100845000D01*
X96688589Y-100845000D01*
X96421011Y-100898225D01*
X96168957Y-101002629D01*
X95942114Y-101154201D01*
X95749201Y-101347114D01*
X95597629Y-101573957D01*
X95556489Y-101673279D01*
X95541277Y-101631168D01*
X95480860Y-101518137D01*
X95241993Y-101452612D01*
X94464605Y-102230000D01*
X95241993Y-103007388D01*
X95480860Y-102941863D01*
X95555164Y-102783523D01*
X95597629Y-102886043D01*
X95749201Y-103112886D01*
X95942114Y-103305799D01*
X96168957Y-103457371D01*
X96421011Y-103561775D01*
X96688589Y-103615000D01*
X96961411Y-103615000D01*
X97228989Y-103561775D01*
X97481043Y-103457371D01*
X97707886Y-103305799D01*
X97900799Y-103112886D01*
X98052371Y-102886043D01*
X98095000Y-102783127D01*
X98137629Y-102886043D01*
X98289201Y-103112886D01*
X98482114Y-103305799D01*
X98708957Y-103457371D01*
X98961011Y-103561775D01*
X99228589Y-103615000D01*
X99501411Y-103615000D01*
X99768989Y-103561775D01*
X100021043Y-103457371D01*
X100247886Y-103305799D01*
X100440799Y-103112886D01*
X100592371Y-102886043D01*
X100635000Y-102783127D01*
X100677629Y-102886043D01*
X100829201Y-103112886D01*
X101022114Y-103305799D01*
X101140001Y-103384569D01*
X101140001Y-103480065D01*
X101038989Y-103438225D01*
X100771411Y-103385000D01*
X100498589Y-103385000D01*
X100231011Y-103438225D01*
X99978957Y-103542629D01*
X99752114Y-103694201D01*
X99559201Y-103887114D01*
X99407629Y-104113957D01*
X99365000Y-104216873D01*
X99322371Y-104113957D01*
X99170799Y-103887114D01*
X98977886Y-103694201D01*
X98751043Y-103542629D01*
X98498989Y-103438225D01*
X98231411Y-103385000D01*
X97958589Y-103385000D01*
X97691011Y-103438225D01*
X97438957Y-103542629D01*
X97212114Y-103694201D01*
X97019201Y-103887114D01*
X96867629Y-104113957D01*
X96825000Y-104216873D01*
X96782371Y-104113957D01*
X96630799Y-103887114D01*
X96437886Y-103694201D01*
X96211043Y-103542629D01*
X95958989Y-103438225D01*
X95691411Y-103385000D01*
X95418589Y-103385000D01*
X95151011Y-103438225D01*
X94898957Y-103542629D01*
X94672114Y-103694201D01*
X94479201Y-103887114D01*
X94327629Y-104113957D01*
X94223225Y-104366011D01*
X94170000Y-104633589D01*
X94170000Y-104906411D01*
X94223225Y-105173989D01*
X94327629Y-105426043D01*
X94479201Y-105652886D01*
X94672114Y-105845799D01*
X94898957Y-105997371D01*
X95151011Y-106101775D01*
X95418589Y-106155000D01*
X95691411Y-106155000D01*
X95958989Y-106101775D01*
X96211043Y-105997371D01*
X96437886Y-105845799D01*
X96630799Y-105652886D01*
X96782371Y-105426043D01*
X96825000Y-105323127D01*
X96867629Y-105426043D01*
X97019201Y-105652886D01*
X97212114Y-105845799D01*
X97335000Y-105927909D01*
X97335001Y-108101288D01*
X97296063Y-108140226D01*
X97182795Y-108309744D01*
X97104774Y-108498102D01*
X97065000Y-108698061D01*
X97065000Y-108840000D01*
X91980971Y-108840000D01*
X92109774Y-108753937D01*
X92253937Y-108609774D01*
X92367205Y-108440256D01*
X92445226Y-108251898D01*
X92485000Y-108051939D01*
X92485000Y-107848061D01*
X92445226Y-107648102D01*
X92367205Y-107459744D01*
X92253937Y-107290226D01*
X92210000Y-107246289D01*
X92210000Y-107037323D01*
X92213676Y-107000000D01*
X92210000Y-106962677D01*
X92210000Y-106962667D01*
X92199003Y-106851014D01*
X92155546Y-106707753D01*
X92143370Y-106684974D01*
X92084974Y-106575723D01*
X92013799Y-106488997D01*
X91990001Y-106459999D01*
X91961004Y-106436202D01*
X91587345Y-106062543D01*
X91601185Y-106051185D01*
X91680537Y-105954494D01*
X91739502Y-105844180D01*
X91775812Y-105724482D01*
X91788072Y-105600000D01*
X91788072Y-104100000D01*
X91775812Y-103975518D01*
X91739502Y-103855820D01*
X91680537Y-103745506D01*
X91601185Y-103648815D01*
X91504494Y-103569463D01*
X91394180Y-103510498D01*
X91359573Y-103500000D01*
X91394180Y-103489502D01*
X91504494Y-103430537D01*
X91601185Y-103351185D01*
X91680537Y-103254494D01*
X91716617Y-103186993D01*
X93507612Y-103186993D01*
X93573137Y-103425860D01*
X93820116Y-103541760D01*
X94084960Y-103607250D01*
X94357492Y-103619812D01*
X94627238Y-103578965D01*
X94883832Y-103486277D01*
X94996863Y-103425860D01*
X95062388Y-103186993D01*
X94285000Y-102409605D01*
X93507612Y-103186993D01*
X91716617Y-103186993D01*
X91739502Y-103144180D01*
X91775812Y-103024482D01*
X91788072Y-102900000D01*
X91785000Y-102435750D01*
X91651742Y-102302492D01*
X92895188Y-102302492D01*
X92936035Y-102572238D01*
X93028723Y-102828832D01*
X93089140Y-102941863D01*
X93328007Y-103007388D01*
X94105395Y-102230000D01*
X93328007Y-101452612D01*
X93089140Y-101518137D01*
X92973240Y-101765116D01*
X92907750Y-102029960D01*
X92895188Y-102302492D01*
X91651742Y-102302492D01*
X91626250Y-102277000D01*
X90627000Y-102277000D01*
X90627000Y-102297000D01*
X90373000Y-102297000D01*
X90373000Y-102277000D01*
X90353000Y-102277000D01*
X90353000Y-102023000D01*
X90373000Y-102023000D01*
X90373000Y-100923750D01*
X90627000Y-100923750D01*
X90627000Y-102023000D01*
X91626250Y-102023000D01*
X91785000Y-101864250D01*
X91788072Y-101400000D01*
X91775812Y-101275518D01*
X91775051Y-101273007D01*
X93507612Y-101273007D01*
X94285000Y-102050395D01*
X95062388Y-101273007D01*
X94996863Y-101034140D01*
X94749884Y-100918240D01*
X94485040Y-100852750D01*
X94212508Y-100840188D01*
X93942762Y-100881035D01*
X93686168Y-100973723D01*
X93573137Y-101034140D01*
X93507612Y-101273007D01*
X91775051Y-101273007D01*
X91739502Y-101155820D01*
X91680537Y-101045506D01*
X91601185Y-100948815D01*
X91504494Y-100869463D01*
X91394180Y-100810498D01*
X91274482Y-100774188D01*
X91150000Y-100761928D01*
X90785750Y-100765000D01*
X90627000Y-100923750D01*
X90373000Y-100923750D01*
X90306110Y-100856860D01*
X90317205Y-100840256D01*
X90395226Y-100651898D01*
X90435000Y-100451939D01*
X90435000Y-100248061D01*
X90395226Y-100048102D01*
X90317205Y-99859744D01*
X90203937Y-99690226D01*
X90059774Y-99546063D01*
X89890256Y-99432795D01*
X89701898Y-99354774D01*
X89501939Y-99315000D01*
X89298061Y-99315000D01*
X89098102Y-99354774D01*
X88909744Y-99432795D01*
X88740226Y-99546063D01*
X88696289Y-99590000D01*
X88660000Y-99590000D01*
X88660000Y-96664801D01*
X88685998Y-96638803D01*
X88715001Y-96615001D01*
X88809974Y-96499276D01*
X88880546Y-96367247D01*
X88924003Y-96223986D01*
X88935000Y-96112333D01*
X88935000Y-96112325D01*
X88938676Y-96075000D01*
X88935000Y-96037675D01*
X88935000Y-95803711D01*
X88978937Y-95759774D01*
X89092205Y-95590256D01*
X89170226Y-95401898D01*
X89210000Y-95201939D01*
X89210000Y-94998061D01*
X89170226Y-94798102D01*
X89092205Y-94609744D01*
X88978937Y-94440226D01*
X88834774Y-94296063D01*
X88678009Y-94191316D01*
X88811774Y-94101937D01*
X88955937Y-93957774D01*
X89069205Y-93788256D01*
X89147226Y-93599898D01*
X89187000Y-93399939D01*
X89187000Y-93196061D01*
X89147226Y-92996102D01*
X89069205Y-92807744D01*
X88955937Y-92638226D01*
X88811774Y-92494063D01*
X88642256Y-92380795D01*
X88453898Y-92302774D01*
X88253939Y-92263000D01*
X88050061Y-92263000D01*
X87850102Y-92302774D01*
X87661744Y-92380795D01*
X87492226Y-92494063D01*
X87348063Y-92638226D01*
X87310000Y-92695191D01*
X87310000Y-89214801D01*
X87458457Y-89066345D01*
X87459744Y-89067205D01*
X87648102Y-89145226D01*
X87848061Y-89185000D01*
X88051939Y-89185000D01*
X88251898Y-89145226D01*
X88440256Y-89067205D01*
X88609774Y-88953937D01*
X88753937Y-88809774D01*
X88867205Y-88640256D01*
X88945226Y-88451898D01*
X88985000Y-88251939D01*
X88985000Y-88048061D01*
X88945226Y-87848102D01*
X88867205Y-87659744D01*
X88753937Y-87490226D01*
X88609774Y-87346063D01*
X88440256Y-87232795D01*
X88251898Y-87154774D01*
X88051939Y-87115000D01*
X87848061Y-87115000D01*
X87648102Y-87154774D01*
X87459744Y-87232795D01*
X87290226Y-87346063D01*
X87244500Y-87391789D01*
X87151014Y-87400997D01*
X87007753Y-87444454D01*
X86875724Y-87515026D01*
X86759999Y-87609999D01*
X86736201Y-87638998D01*
X86038998Y-88336201D01*
X86010000Y-88359999D01*
X85986202Y-88388997D01*
X85986201Y-88388998D01*
X85915026Y-88475724D01*
X85844454Y-88607754D01*
X85800998Y-88751015D01*
X85786324Y-88900000D01*
X85790001Y-88937332D01*
X85790000Y-93780000D01*
X85278178Y-93780000D01*
X85153475Y-93593368D01*
X85021620Y-93461513D01*
X85094180Y-93439502D01*
X85204494Y-93380537D01*
X85301185Y-93301185D01*
X85380537Y-93204494D01*
X85439502Y-93094180D01*
X85475812Y-92974482D01*
X85488072Y-92850000D01*
X85485000Y-92285750D01*
X85326250Y-92127000D01*
X84127000Y-92127000D01*
X84127000Y-92147000D01*
X83873000Y-92147000D01*
X83873000Y-92127000D01*
X82673750Y-92127000D01*
X82515000Y-92285750D01*
X82511928Y-92850000D01*
X82524188Y-92974482D01*
X82560498Y-93094180D01*
X82619463Y-93204494D01*
X82698815Y-93301185D01*
X82795506Y-93380537D01*
X82905820Y-93439502D01*
X82978380Y-93461513D01*
X82846525Y-93593368D01*
X82684010Y-93836589D01*
X82572068Y-94106842D01*
X82515000Y-94393740D01*
X82515000Y-94686260D01*
X82572068Y-94973158D01*
X82684010Y-95243411D01*
X82846525Y-95486632D01*
X83053368Y-95693475D01*
X83227760Y-95810000D01*
X83053368Y-95926525D01*
X82846525Y-96133368D01*
X82717535Y-96326415D01*
X82671014Y-96330997D01*
X82527753Y-96374454D01*
X82395724Y-96445026D01*
X82279999Y-96539999D01*
X82256197Y-96569002D01*
X82160000Y-96665199D01*
X82160000Y-91150000D01*
X82511928Y-91150000D01*
X82515000Y-91714250D01*
X82673750Y-91873000D01*
X83873000Y-91873000D01*
X83873000Y-90673750D01*
X84127000Y-90673750D01*
X84127000Y-91873000D01*
X85326250Y-91873000D01*
X85485000Y-91714250D01*
X85488072Y-91150000D01*
X85475812Y-91025518D01*
X85439502Y-90905820D01*
X85380537Y-90795506D01*
X85301185Y-90698815D01*
X85204494Y-90619463D01*
X85094180Y-90560498D01*
X84974482Y-90524188D01*
X84850000Y-90511928D01*
X84285750Y-90515000D01*
X84127000Y-90673750D01*
X83873000Y-90673750D01*
X83714250Y-90515000D01*
X83150000Y-90511928D01*
X83025518Y-90524188D01*
X82905820Y-90560498D01*
X82795506Y-90619463D01*
X82698815Y-90698815D01*
X82619463Y-90795506D01*
X82560498Y-90905820D01*
X82524188Y-91025518D01*
X82511928Y-91150000D01*
X82160000Y-91150000D01*
X82160000Y-84160000D01*
X119840001Y-84160000D01*
X119840000Y-110840000D01*
G37*
X119840000Y-110840000D02*
X104584801Y-110840000D01*
X106714802Y-108710000D01*
X111246289Y-108710000D01*
X111290226Y-108753937D01*
X111459744Y-108867205D01*
X111648102Y-108945226D01*
X111778781Y-108971219D01*
X111804774Y-109101898D01*
X111882795Y-109290256D01*
X111996063Y-109459774D01*
X112140226Y-109603937D01*
X112309744Y-109717205D01*
X112498102Y-109795226D01*
X112698061Y-109835000D01*
X112901939Y-109835000D01*
X113101898Y-109795226D01*
X113290256Y-109717205D01*
X113459774Y-109603937D01*
X113603937Y-109459774D01*
X113717205Y-109290256D01*
X113795226Y-109101898D01*
X113835000Y-108901939D01*
X113835000Y-108698061D01*
X113795226Y-108498102D01*
X113717205Y-108309744D01*
X113603937Y-108140226D01*
X113560000Y-108096289D01*
X113560000Y-104035000D01*
X113751939Y-104035000D01*
X113951898Y-103995226D01*
X114140256Y-103917205D01*
X114240001Y-103850558D01*
X114240001Y-104096288D01*
X114196063Y-104140226D01*
X114082795Y-104309744D01*
X114004774Y-104498102D01*
X113965000Y-104698061D01*
X113965000Y-104901939D01*
X114004774Y-105101898D01*
X114082795Y-105290256D01*
X114196063Y-105459774D01*
X114340226Y-105603937D01*
X114509744Y-105717205D01*
X114698102Y-105795226D01*
X114898061Y-105835000D01*
X115101939Y-105835000D01*
X115301898Y-105795226D01*
X115490256Y-105717205D01*
X115659774Y-105603937D01*
X115803937Y-105459774D01*
X115917205Y-105290256D01*
X115995226Y-105101898D01*
X116004178Y-105056890D01*
X116558524Y-105056890D01*
X116603175Y-105204099D01*
X116728359Y-105466920D01*
X116902412Y-105700269D01*
X117118645Y-105895178D01*
X117368748Y-106044157D01*
X117643109Y-106141481D01*
X117873000Y-106020814D01*
X117873000Y-104827000D01*
X118127000Y-104827000D01*
X118127000Y-106020814D01*
X118356891Y-106141481D01*
X118631252Y-106044157D01*
X118881355Y-105895178D01*
X119097588Y-105700269D01*
X119271641Y-105466920D01*
X119396825Y-105204099D01*
X119441476Y-105056890D01*
X119320155Y-104827000D01*
X118127000Y-104827000D01*
X117873000Y-104827000D01*
X116679845Y-104827000D01*
X116558524Y-105056890D01*
X116004178Y-105056890D01*
X116035000Y-104901939D01*
X116035000Y-104698061D01*
X115995226Y-104498102D01*
X115917205Y-104309744D01*
X115803937Y-104140226D01*
X115760000Y-104096289D01*
X115760000Y-102516890D01*
X116558524Y-102516890D01*
X116603175Y-102664099D01*
X116728359Y-102926920D01*
X116902412Y-103160269D01*
X117118645Y-103355178D01*
X117244255Y-103430000D01*
X117118645Y-103504822D01*
X116902412Y-103699731D01*
X116728359Y-103933080D01*
X116603175Y-104195901D01*
X116558524Y-104343110D01*
X116679845Y-104573000D01*
X117873000Y-104573000D01*
X117873000Y-102287000D01*
X118127000Y-102287000D01*
X118127000Y-104573000D01*
X119320155Y-104573000D01*
X119441476Y-104343110D01*
X119396825Y-104195901D01*
X119271641Y-103933080D01*
X119097588Y-103699731D01*
X118881355Y-103504822D01*
X118755745Y-103430000D01*
X118881355Y-103355178D01*
X119097588Y-103160269D01*
X119271641Y-102926920D01*
X119396825Y-102664099D01*
X119441476Y-102516890D01*
X119320155Y-102287000D01*
X118127000Y-102287000D01*
X117873000Y-102287000D01*
X116679845Y-102287000D01*
X116558524Y-102516890D01*
X115760000Y-102516890D01*
X115760000Y-100303711D01*
X115803937Y-100259774D01*
X115917205Y-100090256D01*
X115995226Y-99901898D01*
X116035000Y-99701939D01*
X116035000Y-99498061D01*
X115995226Y-99298102D01*
X115917205Y-99109744D01*
X115803937Y-98940226D01*
X115760000Y-98896289D01*
X115760000Y-91503711D01*
X115803937Y-91459774D01*
X115917205Y-91290256D01*
X115975301Y-91150000D01*
X116511928Y-91150000D01*
X116511928Y-92850000D01*
X116524188Y-92974482D01*
X116560498Y-93094180D01*
X116619463Y-93204494D01*
X116698815Y-93301185D01*
X116795506Y-93380537D01*
X116905820Y-93439502D01*
X116978380Y-93461513D01*
X116846525Y-93593368D01*
X116684010Y-93836589D01*
X116572068Y-94106842D01*
X116515000Y-94393740D01*
X116515000Y-94686260D01*
X116572068Y-94973158D01*
X116684010Y-95243411D01*
X116846525Y-95486632D01*
X117053368Y-95693475D01*
X117227760Y-95810000D01*
X117053368Y-95926525D01*
X116846525Y-96133368D01*
X116684010Y-96376589D01*
X116572068Y-96646842D01*
X116515000Y-96933740D01*
X116515000Y-97226260D01*
X116572068Y-97513158D01*
X116684010Y-97783411D01*
X116846525Y-98026632D01*
X117053368Y-98233475D01*
X117227760Y-98350000D01*
X117053368Y-98466525D01*
X116846525Y-98673368D01*
X116684010Y-98916589D01*
X116572068Y-99186842D01*
X116515000Y-99473740D01*
X116515000Y-99766260D01*
X116572068Y-100053158D01*
X116684010Y-100323411D01*
X116846525Y-100566632D01*
X117053368Y-100773475D01*
X117235534Y-100895195D01*
X117118645Y-100964822D01*
X116902412Y-101159731D01*
X116728359Y-101393080D01*
X116603175Y-101655901D01*
X116558524Y-101803110D01*
X116679845Y-102033000D01*
X117873000Y-102033000D01*
X117873000Y-102013000D01*
X118127000Y-102013000D01*
X118127000Y-102033000D01*
X119320155Y-102033000D01*
X119441476Y-101803110D01*
X119396825Y-101655901D01*
X119271641Y-101393080D01*
X119097588Y-101159731D01*
X118881355Y-100964822D01*
X118764466Y-100895195D01*
X118946632Y-100773475D01*
X119153475Y-100566632D01*
X119315990Y-100323411D01*
X119427932Y-100053158D01*
X119485000Y-99766260D01*
X119485000Y-99473740D01*
X119427932Y-99186842D01*
X119315990Y-98916589D01*
X119153475Y-98673368D01*
X118946632Y-98466525D01*
X118772240Y-98350000D01*
X118946632Y-98233475D01*
X119153475Y-98026632D01*
X119315990Y-97783411D01*
X119427932Y-97513158D01*
X119485000Y-97226260D01*
X119485000Y-96933740D01*
X119427932Y-96646842D01*
X119315990Y-96376589D01*
X119153475Y-96133368D01*
X118946632Y-95926525D01*
X118772240Y-95810000D01*
X118946632Y-95693475D01*
X119153475Y-95486632D01*
X119315990Y-95243411D01*
X119427932Y-94973158D01*
X119485000Y-94686260D01*
X119485000Y-94393740D01*
X119427932Y-94106842D01*
X119315990Y-93836589D01*
X119153475Y-93593368D01*
X119021620Y-93461513D01*
X119094180Y-93439502D01*
X119204494Y-93380537D01*
X119301185Y-93301185D01*
X119380537Y-93204494D01*
X119439502Y-93094180D01*
X119475812Y-92974482D01*
X119488072Y-92850000D01*
X119488072Y-91150000D01*
X119475812Y-91025518D01*
X119439502Y-90905820D01*
X119380537Y-90795506D01*
X119301185Y-90698815D01*
X119204494Y-90619463D01*
X119094180Y-90560498D01*
X118974482Y-90524188D01*
X118850000Y-90511928D01*
X117150000Y-90511928D01*
X117025518Y-90524188D01*
X116905820Y-90560498D01*
X116795506Y-90619463D01*
X116698815Y-90698815D01*
X116619463Y-90795506D01*
X116560498Y-90905820D01*
X116524188Y-91025518D01*
X116511928Y-91150000D01*
X115975301Y-91150000D01*
X115995226Y-91101898D01*
X116035000Y-90901939D01*
X116035000Y-90698061D01*
X115995226Y-90498102D01*
X115917205Y-90309744D01*
X115803937Y-90140226D01*
X115659774Y-89996063D01*
X115490256Y-89882795D01*
X115301898Y-89804774D01*
X115101939Y-89765000D01*
X114898061Y-89765000D01*
X114698102Y-89804774D01*
X114509744Y-89882795D01*
X114340226Y-89996063D01*
X114196063Y-90140226D01*
X114082795Y-90309744D01*
X114004774Y-90498102D01*
X113965000Y-90698061D01*
X113965000Y-90901939D01*
X113982130Y-90988060D01*
X113898102Y-91004774D01*
X113709744Y-91082795D01*
X113540226Y-91196063D01*
X113496289Y-91240000D01*
X113287322Y-91240000D01*
X113249999Y-91236324D01*
X113212676Y-91240000D01*
X113212667Y-91240000D01*
X113101014Y-91250997D01*
X112971592Y-91290256D01*
X112957753Y-91294454D01*
X112825723Y-91365026D01*
X112783146Y-91399969D01*
X112709999Y-91459999D01*
X112686196Y-91489003D01*
X112288998Y-91886201D01*
X112260000Y-91909999D01*
X112236202Y-91938997D01*
X112236201Y-91938998D01*
X112165026Y-92025724D01*
X112094454Y-92157754D01*
X112071023Y-92235000D01*
X112068799Y-92242332D01*
X112031939Y-92235000D01*
X111828061Y-92235000D01*
X111628102Y-92274774D01*
X111439744Y-92352795D01*
X111270226Y-92466063D01*
X111226289Y-92510000D01*
X100367322Y-92510000D01*
X100329999Y-92506324D01*
X100292677Y-92510000D01*
X100292667Y-92510000D01*
X100181014Y-92520997D01*
X100037753Y-92564454D01*
X99905724Y-92635026D01*
X99789999Y-92729999D01*
X99766201Y-92758997D01*
X98854002Y-93671196D01*
X98824999Y-93694999D01*
X98771444Y-93760256D01*
X98730026Y-93810724D01*
X98708490Y-93851015D01*
X98659454Y-93942754D01*
X98615997Y-94086015D01*
X98605000Y-94197668D01*
X98605000Y-94197678D01*
X98601324Y-94235000D01*
X98605000Y-94272322D01*
X98605001Y-101072090D01*
X98482114Y-101154201D01*
X98289201Y-101347114D01*
X98137629Y-101573957D01*
X98095000Y-101676873D01*
X98052371Y-101573957D01*
X97900799Y-101347114D01*
X97707886Y-101154201D01*
X97481043Y-101002629D01*
X97228989Y-100898225D01*
X96961411Y-100845000D01*
X96688589Y-100845000D01*
X96421011Y-100898225D01*
X96168957Y-101002629D01*
X95942114Y-101154201D01*
X95749201Y-101347114D01*
X95597629Y-101573957D01*
X95556489Y-101673279D01*
X95541277Y-101631168D01*
X95480860Y-101518137D01*
X95241993Y-101452612D01*
X94464605Y-102230000D01*
X95241993Y-103007388D01*
X95480860Y-102941863D01*
X95555164Y-102783523D01*
X95597629Y-102886043D01*
X95749201Y-103112886D01*
X95942114Y-103305799D01*
X96168957Y-103457371D01*
X96421011Y-103561775D01*
X96688589Y-103615000D01*
X96961411Y-103615000D01*
X97228989Y-103561775D01*
X97481043Y-103457371D01*
X97707886Y-103305799D01*
X97900799Y-103112886D01*
X98052371Y-102886043D01*
X98095000Y-102783127D01*
X98137629Y-102886043D01*
X98289201Y-103112886D01*
X98482114Y-103305799D01*
X98708957Y-103457371D01*
X98961011Y-103561775D01*
X99228589Y-103615000D01*
X99501411Y-103615000D01*
X99768989Y-103561775D01*
X100021043Y-103457371D01*
X100247886Y-103305799D01*
X100440799Y-103112886D01*
X100592371Y-102886043D01*
X100635000Y-102783127D01*
X100677629Y-102886043D01*
X100829201Y-103112886D01*
X101022114Y-103305799D01*
X101140001Y-103384569D01*
X101140001Y-103480065D01*
X101038989Y-103438225D01*
X100771411Y-103385000D01*
X100498589Y-103385000D01*
X100231011Y-103438225D01*
X99978957Y-103542629D01*
X99752114Y-103694201D01*
X99559201Y-103887114D01*
X99407629Y-104113957D01*
X99365000Y-104216873D01*
X99322371Y-104113957D01*
X99170799Y-103887114D01*
X98977886Y-103694201D01*
X98751043Y-103542629D01*
X98498989Y-103438225D01*
X98231411Y-103385000D01*
X97958589Y-103385000D01*
X97691011Y-103438225D01*
X97438957Y-103542629D01*
X97212114Y-103694201D01*
X97019201Y-103887114D01*
X96867629Y-104113957D01*
X96825000Y-104216873D01*
X96782371Y-104113957D01*
X96630799Y-103887114D01*
X96437886Y-103694201D01*
X96211043Y-103542629D01*
X95958989Y-103438225D01*
X95691411Y-103385000D01*
X95418589Y-103385000D01*
X95151011Y-103438225D01*
X94898957Y-103542629D01*
X94672114Y-103694201D01*
X94479201Y-103887114D01*
X94327629Y-104113957D01*
X94223225Y-104366011D01*
X94170000Y-104633589D01*
X94170000Y-104906411D01*
X94223225Y-105173989D01*
X94327629Y-105426043D01*
X94479201Y-105652886D01*
X94672114Y-105845799D01*
X94898957Y-105997371D01*
X95151011Y-106101775D01*
X95418589Y-106155000D01*
X95691411Y-106155000D01*
X95958989Y-106101775D01*
X96211043Y-105997371D01*
X96437886Y-105845799D01*
X96630799Y-105652886D01*
X96782371Y-105426043D01*
X96825000Y-105323127D01*
X96867629Y-105426043D01*
X97019201Y-105652886D01*
X97212114Y-105845799D01*
X97335000Y-105927909D01*
X97335001Y-108101288D01*
X97296063Y-108140226D01*
X97182795Y-108309744D01*
X97104774Y-108498102D01*
X97065000Y-108698061D01*
X97065000Y-108840000D01*
X91980971Y-108840000D01*
X92109774Y-108753937D01*
X92253937Y-108609774D01*
X92367205Y-108440256D01*
X92445226Y-108251898D01*
X92485000Y-108051939D01*
X92485000Y-107848061D01*
X92445226Y-107648102D01*
X92367205Y-107459744D01*
X92253937Y-107290226D01*
X92210000Y-107246289D01*
X92210000Y-107037323D01*
X92213676Y-107000000D01*
X92210000Y-106962677D01*
X92210000Y-106962667D01*
X92199003Y-106851014D01*
X92155546Y-106707753D01*
X92143370Y-106684974D01*
X92084974Y-106575723D01*
X92013799Y-106488997D01*
X91990001Y-106459999D01*
X91961004Y-106436202D01*
X91587345Y-106062543D01*
X91601185Y-106051185D01*
X91680537Y-105954494D01*
X91739502Y-105844180D01*
X91775812Y-105724482D01*
X91788072Y-105600000D01*
X91788072Y-104100000D01*
X91775812Y-103975518D01*
X91739502Y-103855820D01*
X91680537Y-103745506D01*
X91601185Y-103648815D01*
X91504494Y-103569463D01*
X91394180Y-103510498D01*
X91359573Y-103500000D01*
X91394180Y-103489502D01*
X91504494Y-103430537D01*
X91601185Y-103351185D01*
X91680537Y-103254494D01*
X91716617Y-103186993D01*
X93507612Y-103186993D01*
X93573137Y-103425860D01*
X93820116Y-103541760D01*
X94084960Y-103607250D01*
X94357492Y-103619812D01*
X94627238Y-103578965D01*
X94883832Y-103486277D01*
X94996863Y-103425860D01*
X95062388Y-103186993D01*
X94285000Y-102409605D01*
X93507612Y-103186993D01*
X91716617Y-103186993D01*
X91739502Y-103144180D01*
X91775812Y-103024482D01*
X91788072Y-102900000D01*
X91785000Y-102435750D01*
X91651742Y-102302492D01*
X92895188Y-102302492D01*
X92936035Y-102572238D01*
X93028723Y-102828832D01*
X93089140Y-102941863D01*
X93328007Y-103007388D01*
X94105395Y-102230000D01*
X93328007Y-101452612D01*
X93089140Y-101518137D01*
X92973240Y-101765116D01*
X92907750Y-102029960D01*
X92895188Y-102302492D01*
X91651742Y-102302492D01*
X91626250Y-102277000D01*
X90627000Y-102277000D01*
X90627000Y-102297000D01*
X90373000Y-102297000D01*
X90373000Y-102277000D01*
X90353000Y-102277000D01*
X90353000Y-102023000D01*
X90373000Y-102023000D01*
X90373000Y-100923750D01*
X90627000Y-100923750D01*
X90627000Y-102023000D01*
X91626250Y-102023000D01*
X91785000Y-101864250D01*
X91788072Y-101400000D01*
X91775812Y-101275518D01*
X91775051Y-101273007D01*
X93507612Y-101273007D01*
X94285000Y-102050395D01*
X95062388Y-101273007D01*
X94996863Y-101034140D01*
X94749884Y-100918240D01*
X94485040Y-100852750D01*
X94212508Y-100840188D01*
X93942762Y-100881035D01*
X93686168Y-100973723D01*
X93573137Y-101034140D01*
X93507612Y-101273007D01*
X91775051Y-101273007D01*
X91739502Y-101155820D01*
X91680537Y-101045506D01*
X91601185Y-100948815D01*
X91504494Y-100869463D01*
X91394180Y-100810498D01*
X91274482Y-100774188D01*
X91150000Y-100761928D01*
X90785750Y-100765000D01*
X90627000Y-100923750D01*
X90373000Y-100923750D01*
X90306110Y-100856860D01*
X90317205Y-100840256D01*
X90395226Y-100651898D01*
X90435000Y-100451939D01*
X90435000Y-100248061D01*
X90395226Y-100048102D01*
X90317205Y-99859744D01*
X90203937Y-99690226D01*
X90059774Y-99546063D01*
X89890256Y-99432795D01*
X89701898Y-99354774D01*
X89501939Y-99315000D01*
X89298061Y-99315000D01*
X89098102Y-99354774D01*
X88909744Y-99432795D01*
X88740226Y-99546063D01*
X88696289Y-99590000D01*
X88660000Y-99590000D01*
X88660000Y-96664801D01*
X88685998Y-96638803D01*
X88715001Y-96615001D01*
X88809974Y-96499276D01*
X88880546Y-96367247D01*
X88924003Y-96223986D01*
X88935000Y-96112333D01*
X88935000Y-96112325D01*
X88938676Y-96075000D01*
X88935000Y-96037675D01*
X88935000Y-95803711D01*
X88978937Y-95759774D01*
X89092205Y-95590256D01*
X89170226Y-95401898D01*
X89210000Y-95201939D01*
X89210000Y-94998061D01*
X89170226Y-94798102D01*
X89092205Y-94609744D01*
X88978937Y-94440226D01*
X88834774Y-94296063D01*
X88678009Y-94191316D01*
X88811774Y-94101937D01*
X88955937Y-93957774D01*
X89069205Y-93788256D01*
X89147226Y-93599898D01*
X89187000Y-93399939D01*
X89187000Y-93196061D01*
X89147226Y-92996102D01*
X89069205Y-92807744D01*
X88955937Y-92638226D01*
X88811774Y-92494063D01*
X88642256Y-92380795D01*
X88453898Y-92302774D01*
X88253939Y-92263000D01*
X88050061Y-92263000D01*
X87850102Y-92302774D01*
X87661744Y-92380795D01*
X87492226Y-92494063D01*
X87348063Y-92638226D01*
X87310000Y-92695191D01*
X87310000Y-89214801D01*
X87458457Y-89066345D01*
X87459744Y-89067205D01*
X87648102Y-89145226D01*
X87848061Y-89185000D01*
X88051939Y-89185000D01*
X88251898Y-89145226D01*
X88440256Y-89067205D01*
X88609774Y-88953937D01*
X88753937Y-88809774D01*
X88867205Y-88640256D01*
X88945226Y-88451898D01*
X88985000Y-88251939D01*
X88985000Y-88048061D01*
X88945226Y-87848102D01*
X88867205Y-87659744D01*
X88753937Y-87490226D01*
X88609774Y-87346063D01*
X88440256Y-87232795D01*
X88251898Y-87154774D01*
X88051939Y-87115000D01*
X87848061Y-87115000D01*
X87648102Y-87154774D01*
X87459744Y-87232795D01*
X87290226Y-87346063D01*
X87244500Y-87391789D01*
X87151014Y-87400997D01*
X87007753Y-87444454D01*
X86875724Y-87515026D01*
X86759999Y-87609999D01*
X86736201Y-87638998D01*
X86038998Y-88336201D01*
X86010000Y-88359999D01*
X85986202Y-88388997D01*
X85986201Y-88388998D01*
X85915026Y-88475724D01*
X85844454Y-88607754D01*
X85800998Y-88751015D01*
X85786324Y-88900000D01*
X85790001Y-88937332D01*
X85790000Y-93780000D01*
X85278178Y-93780000D01*
X85153475Y-93593368D01*
X85021620Y-93461513D01*
X85094180Y-93439502D01*
X85204494Y-93380537D01*
X85301185Y-93301185D01*
X85380537Y-93204494D01*
X85439502Y-93094180D01*
X85475812Y-92974482D01*
X85488072Y-92850000D01*
X85485000Y-92285750D01*
X85326250Y-92127000D01*
X84127000Y-92127000D01*
X84127000Y-92147000D01*
X83873000Y-92147000D01*
X83873000Y-92127000D01*
X82673750Y-92127000D01*
X82515000Y-92285750D01*
X82511928Y-92850000D01*
X82524188Y-92974482D01*
X82560498Y-93094180D01*
X82619463Y-93204494D01*
X82698815Y-93301185D01*
X82795506Y-93380537D01*
X82905820Y-93439502D01*
X82978380Y-93461513D01*
X82846525Y-93593368D01*
X82684010Y-93836589D01*
X82572068Y-94106842D01*
X82515000Y-94393740D01*
X82515000Y-94686260D01*
X82572068Y-94973158D01*
X82684010Y-95243411D01*
X82846525Y-95486632D01*
X83053368Y-95693475D01*
X83227760Y-95810000D01*
X83053368Y-95926525D01*
X82846525Y-96133368D01*
X82717535Y-96326415D01*
X82671014Y-96330997D01*
X82527753Y-96374454D01*
X82395724Y-96445026D01*
X82279999Y-96539999D01*
X82256197Y-96569002D01*
X82160000Y-96665199D01*
X82160000Y-91150000D01*
X82511928Y-91150000D01*
X82515000Y-91714250D01*
X82673750Y-91873000D01*
X83873000Y-91873000D01*
X83873000Y-90673750D01*
X84127000Y-90673750D01*
X84127000Y-91873000D01*
X85326250Y-91873000D01*
X85485000Y-91714250D01*
X85488072Y-91150000D01*
X85475812Y-91025518D01*
X85439502Y-90905820D01*
X85380537Y-90795506D01*
X85301185Y-90698815D01*
X85204494Y-90619463D01*
X85094180Y-90560498D01*
X84974482Y-90524188D01*
X84850000Y-90511928D01*
X84285750Y-90515000D01*
X84127000Y-90673750D01*
X83873000Y-90673750D01*
X83714250Y-90515000D01*
X83150000Y-90511928D01*
X83025518Y-90524188D01*
X82905820Y-90560498D01*
X82795506Y-90619463D01*
X82698815Y-90698815D01*
X82619463Y-90795506D01*
X82560498Y-90905820D01*
X82524188Y-91025518D01*
X82511928Y-91150000D01*
X82160000Y-91150000D01*
X82160000Y-84160000D01*
X119840001Y-84160000D01*
X119840000Y-110840000D01*
%TD*%
M02*
