M48
; DRILL file {KiCad (5.1.6)-1} date 10/13/20 17:38:03
; FORMAT={-:-/ absolute / inch / decimal}
; #@! TF.CreationDate,2020-10-13T17:38:03+02:00
; #@! TF.GenerationSoftware,Kicad,Pcbnew,(5.1.6)-1
; #@! TF.FileFunction,Plated,1,2,PTH
FMAT,2
INCH
T1C0.0157
T2C0.0315
T3C0.0394
%
G90
G05
T1
X3.4626Y-3.372
X3.4626Y-3.4705
X3.4706Y-3.6731
X3.4715Y-3.7441
X3.5197Y-3.9508
X3.6004Y-4.25
X3.7106Y-4.2835
X3.8622Y-4.2835
X4.0118Y-4.25
X4.061Y-4.25
X4.4067Y-3.672
X4.4071Y-3.772
X4.4075Y-4.25
X4.4409Y-3.8661
X4.4409Y-4.2835
X4.4744Y-3.7224
X4.4744Y-4.0551
X4.4961Y-3.622
X4.5276Y-3.5748
X4.5276Y-3.9213
X4.5276Y-4.126
X4.563Y-3.4724
X4.563Y-4.315
T2
X3.712Y-4.0248
X3.762Y-4.1248
X3.812Y-4.0248
X3.862Y-4.1248
X3.912Y-4.0248
X3.962Y-4.1248
X4.012Y-4.0248
X4.062Y-4.1248
X4.112Y-4.0248
X4.162Y-4.1248
T3
X4.6457Y-3.622
X4.6457Y-3.722
X4.6457Y-3.822
X4.6457Y-3.922
X4.6457Y-4.022
X4.6457Y-4.122
X3.3071Y-3.622
X3.3071Y-3.722
X3.3071Y-3.822
X3.3071Y-3.922
X3.3071Y-4.022
X3.3071Y-4.122
T0
M30
