M48
; DRILL file {KiCad (5.1.6)-1} date 10/13/20 21:40:51
; FORMAT={-:-/ absolute / inch / decimal}
; #@! TF.CreationDate,2020-10-13T21:40:51+02:00
; #@! TF.GenerationSoftware,Kicad,Pcbnew,(5.1.6)-1
; #@! TF.FileFunction,Plated,1,2,PTH
FMAT,2
INCH
T1C0.0157
T2C0.0315
T3C0.0394
%
G90
G05
T1
X0.2539Y-0.0846
X0.2539Y-0.1831
X0.2619Y-0.3857
X0.2628Y-0.4567
X0.311Y-0.6634
X0.3917Y-0.9626
X0.502Y-0.9961
X0.6535Y-0.9961
X0.8031Y-0.9626
X0.8524Y-0.9626
X1.198Y-0.3846
X1.1984Y-0.4846
X1.1988Y-0.9626
X1.2323Y-0.5787
X1.2323Y-0.9961
X1.2657Y-0.435
X1.2657Y-0.7677
X1.2874Y-0.3346
X1.3189Y-0.2874
X1.3189Y-0.6339
X1.3189Y-0.8386
X1.3543Y-0.185
X1.3543Y-1.0276
T2
X0.5033Y-0.7374
X0.5533Y-0.8374
X0.6033Y-0.7374
X0.6533Y-0.8374
X0.7033Y-0.7374
X0.7533Y-0.8374
X0.8033Y-0.7374
X0.8533Y-0.8374
X0.9033Y-0.7374
X0.9533Y-0.8374
T3
X0.0984Y-0.3346
X0.0984Y-0.4346
X0.0984Y-0.5346
X0.0984Y-0.6346
X0.0984Y-0.7346
X0.0984Y-0.8346
X1.437Y-0.3346
X1.437Y-0.4346
X1.437Y-0.5346
X1.437Y-0.6346
X1.437Y-0.7346
X1.437Y-0.8346
T0
M30
