%TF.GenerationSoftware,KiCad,Pcbnew,(5.1.6)-1*%
%TF.CreationDate,2020-10-13T17:38:00+02:00*%
%TF.ProjectId,MRF89XAM8A_Breakout,4d524638-3958-4414-9d38-415f42726561,rev?*%
%TF.SameCoordinates,Original*%
%TF.FileFunction,Legend,Bot*%
%TF.FilePolarity,Positive*%
%FSLAX46Y46*%
G04 Gerber Fmt 4.6, Leading zero omitted, Abs format (unit mm)*
G04 Created by KiCad (PCBNEW (5.1.6)-1) date 2020-10-13 17:38:00*
%MOMM*%
%LPD*%
G01*
G04 APERTURE LIST*
%ADD10C,0.300000*%
%ADD11C,0.120000*%
%ADD12C,0.150000*%
G04 APERTURE END LIST*
D10*
X114392857Y-88128571D02*
X114392857Y-86628571D01*
X113892857Y-87700000D01*
X113392857Y-86628571D01*
X113392857Y-88128571D01*
X111821428Y-88128571D02*
X112321428Y-87414285D01*
X112678571Y-88128571D02*
X112678571Y-86628571D01*
X112107142Y-86628571D01*
X111964285Y-86700000D01*
X111892857Y-86771428D01*
X111821428Y-86914285D01*
X111821428Y-87128571D01*
X111892857Y-87271428D01*
X111964285Y-87342857D01*
X112107142Y-87414285D01*
X112678571Y-87414285D01*
X110678571Y-87342857D02*
X111178571Y-87342857D01*
X111178571Y-88128571D02*
X111178571Y-86628571D01*
X110464285Y-86628571D01*
X109678571Y-87271428D02*
X109821428Y-87200000D01*
X109892857Y-87128571D01*
X109964285Y-86985714D01*
X109964285Y-86914285D01*
X109892857Y-86771428D01*
X109821428Y-86700000D01*
X109678571Y-86628571D01*
X109392857Y-86628571D01*
X109250000Y-86700000D01*
X109178571Y-86771428D01*
X109107142Y-86914285D01*
X109107142Y-86985714D01*
X109178571Y-87128571D01*
X109250000Y-87200000D01*
X109392857Y-87271428D01*
X109678571Y-87271428D01*
X109821428Y-87342857D01*
X109892857Y-87414285D01*
X109964285Y-87557142D01*
X109964285Y-87842857D01*
X109892857Y-87985714D01*
X109821428Y-88057142D01*
X109678571Y-88128571D01*
X109392857Y-88128571D01*
X109250000Y-88057142D01*
X109178571Y-87985714D01*
X109107142Y-87842857D01*
X109107142Y-87557142D01*
X109178571Y-87414285D01*
X109250000Y-87342857D01*
X109392857Y-87271428D01*
X108392857Y-88128571D02*
X108107142Y-88128571D01*
X107964285Y-88057142D01*
X107892857Y-87985714D01*
X107750000Y-87771428D01*
X107678571Y-87485714D01*
X107678571Y-86914285D01*
X107750000Y-86771428D01*
X107821428Y-86700000D01*
X107964285Y-86628571D01*
X108250000Y-86628571D01*
X108392857Y-86700000D01*
X108464285Y-86771428D01*
X108535714Y-86914285D01*
X108535714Y-87271428D01*
X108464285Y-87414285D01*
X108392857Y-87485714D01*
X108250000Y-87557142D01*
X107964285Y-87557142D01*
X107821428Y-87485714D01*
X107750000Y-87414285D01*
X107678571Y-87271428D01*
X107178571Y-86628571D02*
X106178571Y-88128571D01*
X106178571Y-86628571D02*
X107178571Y-88128571D01*
X105678571Y-87700000D02*
X104964285Y-87700000D01*
X105821428Y-88128571D02*
X105321428Y-86628571D01*
X104821428Y-88128571D01*
X104321428Y-88128571D02*
X104321428Y-86628571D01*
X103821428Y-87700000D01*
X103321428Y-86628571D01*
X103321428Y-88128571D01*
X102392857Y-87271428D02*
X102535714Y-87200000D01*
X102607142Y-87128571D01*
X102678571Y-86985714D01*
X102678571Y-86914285D01*
X102607142Y-86771428D01*
X102535714Y-86700000D01*
X102392857Y-86628571D01*
X102107142Y-86628571D01*
X101964285Y-86700000D01*
X101892857Y-86771428D01*
X101821428Y-86914285D01*
X101821428Y-86985714D01*
X101892857Y-87128571D01*
X101964285Y-87200000D01*
X102107142Y-87271428D01*
X102392857Y-87271428D01*
X102535714Y-87342857D01*
X102607142Y-87414285D01*
X102678571Y-87557142D01*
X102678571Y-87842857D01*
X102607142Y-87985714D01*
X102535714Y-88057142D01*
X102392857Y-88128571D01*
X102107142Y-88128571D01*
X101964285Y-88057142D01*
X101892857Y-87985714D01*
X101821428Y-87842857D01*
X101821428Y-87557142D01*
X101892857Y-87414285D01*
X101964285Y-87342857D01*
X102107142Y-87271428D01*
X101250000Y-87700000D02*
X100535714Y-87700000D01*
X101392857Y-88128571D02*
X100892857Y-86628571D01*
X100392857Y-88128571D01*
X98250000Y-87342857D02*
X98035714Y-87414285D01*
X97964285Y-87485714D01*
X97892857Y-87628571D01*
X97892857Y-87842857D01*
X97964285Y-87985714D01*
X98035714Y-88057142D01*
X98178571Y-88128571D01*
X98750000Y-88128571D01*
X98750000Y-86628571D01*
X98250000Y-86628571D01*
X98107142Y-86700000D01*
X98035714Y-86771428D01*
X97964285Y-86914285D01*
X97964285Y-87057142D01*
X98035714Y-87200000D01*
X98107142Y-87271428D01*
X98250000Y-87342857D01*
X98750000Y-87342857D01*
X97250000Y-88128571D02*
X97250000Y-87128571D01*
X97250000Y-87414285D02*
X97178571Y-87271428D01*
X97107142Y-87200000D01*
X96964285Y-87128571D01*
X96821428Y-87128571D01*
X95750000Y-88057142D02*
X95892857Y-88128571D01*
X96178571Y-88128571D01*
X96321428Y-88057142D01*
X96392857Y-87914285D01*
X96392857Y-87342857D01*
X96321428Y-87200000D01*
X96178571Y-87128571D01*
X95892857Y-87128571D01*
X95750000Y-87200000D01*
X95678571Y-87342857D01*
X95678571Y-87485714D01*
X96392857Y-87628571D01*
X94392857Y-88128571D02*
X94392857Y-87342857D01*
X94464285Y-87200000D01*
X94607142Y-87128571D01*
X94892857Y-87128571D01*
X95035714Y-87200000D01*
X94392857Y-88057142D02*
X94535714Y-88128571D01*
X94892857Y-88128571D01*
X95035714Y-88057142D01*
X95107142Y-87914285D01*
X95107142Y-87771428D01*
X95035714Y-87628571D01*
X94892857Y-87557142D01*
X94535714Y-87557142D01*
X94392857Y-87485714D01*
X93678571Y-88128571D02*
X93678571Y-86628571D01*
X93535714Y-87557142D02*
X93107142Y-88128571D01*
X93107142Y-87128571D02*
X93678571Y-87700000D01*
X92250000Y-88128571D02*
X92392857Y-88057142D01*
X92464285Y-87985714D01*
X92535714Y-87842857D01*
X92535714Y-87414285D01*
X92464285Y-87271428D01*
X92392857Y-87200000D01*
X92250000Y-87128571D01*
X92035714Y-87128571D01*
X91892857Y-87200000D01*
X91821428Y-87271428D01*
X91750000Y-87414285D01*
X91750000Y-87842857D01*
X91821428Y-87985714D01*
X91892857Y-88057142D01*
X92035714Y-88128571D01*
X92250000Y-88128571D01*
X90464285Y-87128571D02*
X90464285Y-88128571D01*
X91107142Y-87128571D02*
X91107142Y-87914285D01*
X91035714Y-88057142D01*
X90892857Y-88128571D01*
X90678571Y-88128571D01*
X90535714Y-88057142D01*
X90464285Y-87985714D01*
X89964285Y-87128571D02*
X89392857Y-87128571D01*
X89750000Y-86628571D02*
X89750000Y-87914285D01*
X89678571Y-88057142D01*
X89535714Y-88128571D01*
X89392857Y-88128571D01*
X110000000Y-89892857D02*
X109500000Y-89892857D01*
X109285714Y-90678571D02*
X110000000Y-90678571D01*
X110000000Y-89178571D01*
X109285714Y-89178571D01*
X108714285Y-90607142D02*
X108571428Y-90678571D01*
X108285714Y-90678571D01*
X108142857Y-90607142D01*
X108071428Y-90464285D01*
X108071428Y-90392857D01*
X108142857Y-90250000D01*
X108285714Y-90178571D01*
X108500000Y-90178571D01*
X108642857Y-90107142D01*
X108714285Y-89964285D01*
X108714285Y-89892857D01*
X108642857Y-89750000D01*
X108500000Y-89678571D01*
X108285714Y-89678571D01*
X108142857Y-89750000D01*
X107500000Y-90607142D02*
X107357142Y-90678571D01*
X107071428Y-90678571D01*
X106928571Y-90607142D01*
X106857142Y-90464285D01*
X106857142Y-90392857D01*
X106928571Y-90250000D01*
X107071428Y-90178571D01*
X107285714Y-90178571D01*
X107428571Y-90107142D01*
X107500000Y-89964285D01*
X107500000Y-89892857D01*
X107428571Y-89750000D01*
X107285714Y-89678571D01*
X107071428Y-89678571D01*
X106928571Y-89750000D01*
X105642857Y-90607142D02*
X105785714Y-90678571D01*
X106071428Y-90678571D01*
X106214285Y-90607142D01*
X106285714Y-90464285D01*
X106285714Y-89892857D01*
X106214285Y-89750000D01*
X106071428Y-89678571D01*
X105785714Y-89678571D01*
X105642857Y-89750000D01*
X105571428Y-89892857D01*
X105571428Y-90035714D01*
X106285714Y-90178571D01*
X104928571Y-90678571D02*
X104928571Y-89678571D01*
X104928571Y-89178571D02*
X105000000Y-89250000D01*
X104928571Y-89321428D01*
X104857142Y-89250000D01*
X104928571Y-89178571D01*
X104928571Y-89321428D01*
X104357142Y-89678571D02*
X104000000Y-90678571D01*
X103642857Y-89678571D01*
X102428571Y-90678571D02*
X102428571Y-89892857D01*
X102500000Y-89750000D01*
X102642857Y-89678571D01*
X102928571Y-89678571D01*
X103071428Y-89750000D01*
X102428571Y-90607142D02*
X102571428Y-90678571D01*
X102928571Y-90678571D01*
X103071428Y-90607142D01*
X103142857Y-90464285D01*
X103142857Y-90321428D01*
X103071428Y-90178571D01*
X102928571Y-90107142D01*
X102571428Y-90107142D01*
X102428571Y-90035714D01*
X101714285Y-90678571D02*
X101714285Y-89178571D01*
X100857142Y-90678571D01*
X100857142Y-89178571D01*
X99000000Y-90107142D02*
X97857142Y-90107142D01*
X96214285Y-89178571D02*
X95714285Y-90678571D01*
X95214285Y-89178571D01*
X93928571Y-90678571D02*
X94785714Y-90678571D01*
X94357142Y-90678571D02*
X94357142Y-89178571D01*
X94500000Y-89392857D01*
X94642857Y-89535714D01*
X94785714Y-89607142D01*
X107285714Y-93228571D02*
X108142857Y-93228571D01*
X107714285Y-93228571D02*
X107714285Y-91728571D01*
X107857142Y-91942857D01*
X108000000Y-92085714D01*
X108142857Y-92157142D01*
X106785714Y-91728571D02*
X105857142Y-91728571D01*
X106357142Y-92300000D01*
X106142857Y-92300000D01*
X106000000Y-92371428D01*
X105928571Y-92442857D01*
X105857142Y-92585714D01*
X105857142Y-92942857D01*
X105928571Y-93085714D01*
X106000000Y-93157142D01*
X106142857Y-93228571D01*
X106571428Y-93228571D01*
X106714285Y-93157142D01*
X106785714Y-93085714D01*
X105214285Y-93085714D02*
X105142857Y-93157142D01*
X105214285Y-93228571D01*
X105285714Y-93157142D01*
X105214285Y-93085714D01*
X105214285Y-93228571D01*
X103714285Y-93228571D02*
X104571428Y-93228571D01*
X104142857Y-93228571D02*
X104142857Y-91728571D01*
X104285714Y-91942857D01*
X104428571Y-92085714D01*
X104571428Y-92157142D01*
X102785714Y-91728571D02*
X102642857Y-91728571D01*
X102500000Y-91800000D01*
X102428571Y-91871428D01*
X102357142Y-92014285D01*
X102285714Y-92300000D01*
X102285714Y-92657142D01*
X102357142Y-92942857D01*
X102428571Y-93085714D01*
X102500000Y-93157142D01*
X102642857Y-93228571D01*
X102785714Y-93228571D01*
X102928571Y-93157142D01*
X103000000Y-93085714D01*
X103071428Y-92942857D01*
X103142857Y-92657142D01*
X103142857Y-92300000D01*
X103071428Y-92014285D01*
X103000000Y-91871428D01*
X102928571Y-91800000D01*
X102785714Y-91728571D01*
X101642857Y-93085714D02*
X101571428Y-93157142D01*
X101642857Y-93228571D01*
X101714285Y-93157142D01*
X101642857Y-93085714D01*
X101642857Y-93228571D01*
X101000000Y-91871428D02*
X100928571Y-91800000D01*
X100785714Y-91728571D01*
X100428571Y-91728571D01*
X100285714Y-91800000D01*
X100214285Y-91871428D01*
X100142857Y-92014285D01*
X100142857Y-92157142D01*
X100214285Y-92371428D01*
X101071428Y-93228571D01*
X100142857Y-93228571D01*
X99214285Y-91728571D02*
X99071428Y-91728571D01*
X98928571Y-91800000D01*
X98857142Y-91871428D01*
X98785714Y-92014285D01*
X98714285Y-92300000D01*
X98714285Y-92657142D01*
X98785714Y-92942857D01*
X98857142Y-93085714D01*
X98928571Y-93157142D01*
X99071428Y-93228571D01*
X99214285Y-93228571D01*
X99357142Y-93157142D01*
X99428571Y-93085714D01*
X99500000Y-92942857D01*
X99571428Y-92657142D01*
X99571428Y-92300000D01*
X99500000Y-92014285D01*
X99428571Y-91871428D01*
X99357142Y-91800000D01*
X99214285Y-91728571D01*
X98142857Y-91871428D02*
X98071428Y-91800000D01*
X97928571Y-91728571D01*
X97571428Y-91728571D01*
X97428571Y-91800000D01*
X97357142Y-91871428D01*
X97285714Y-92014285D01*
X97285714Y-92157142D01*
X97357142Y-92371428D01*
X98214285Y-93228571D01*
X97285714Y-93228571D01*
X96357142Y-91728571D02*
X96214285Y-91728571D01*
X96071428Y-91800000D01*
X96000000Y-91871428D01*
X95928571Y-92014285D01*
X95857142Y-92300000D01*
X95857142Y-92657142D01*
X95928571Y-92942857D01*
X96000000Y-93085714D01*
X96071428Y-93157142D01*
X96214285Y-93228571D01*
X96357142Y-93228571D01*
X96500000Y-93157142D01*
X96571428Y-93085714D01*
X96642857Y-92942857D01*
X96714285Y-92657142D01*
X96714285Y-92300000D01*
X96642857Y-92014285D01*
X96571428Y-91871428D01*
X96500000Y-91800000D01*
X96357142Y-91728571D01*
D11*
%TO.C,R1*%
X91380000Y-104100000D02*
X91380000Y-102900000D01*
X89620000Y-102900000D02*
X89620000Y-104100000D01*
%TO.C,C1*%
X88850000Y-103000000D02*
X88850000Y-104000000D01*
X87150000Y-104000000D02*
X87150000Y-103000000D01*
%TO.C,J1*%
X107965000Y-105700000D02*
X107965000Y-102700000D01*
X94995000Y-100700000D02*
X91995000Y-100700000D01*
X107315000Y-106300000D02*
X104315000Y-106300000D01*
X91995000Y-103700000D02*
X91995000Y-100700000D01*
X107315000Y-106300000D02*
X107965000Y-105700000D01*
%TO.C,X1*%
X85330000Y-106030000D02*
X82670000Y-106030000D01*
X85330000Y-93270000D02*
X85330000Y-106030000D01*
X82670000Y-93270000D02*
X82670000Y-106030000D01*
X85330000Y-93270000D02*
X82670000Y-93270000D01*
X85330000Y-92000000D02*
X85330000Y-90670000D01*
X85330000Y-90670000D02*
X84000000Y-90670000D01*
%TO.C,X2*%
X119330000Y-106030000D02*
X116670000Y-106030000D01*
X119330000Y-93270000D02*
X119330000Y-106030000D01*
X116670000Y-93270000D02*
X116670000Y-106030000D01*
X119330000Y-93270000D02*
X116670000Y-93270000D01*
X119330000Y-92000000D02*
X119330000Y-90670000D01*
X119330000Y-90670000D02*
X118000000Y-90670000D01*
%TO.C,R1*%
D12*
X90666666Y-100452380D02*
X91000000Y-99976190D01*
X91238095Y-100452380D02*
X91238095Y-99452380D01*
X90857142Y-99452380D01*
X90761904Y-99500000D01*
X90714285Y-99547619D01*
X90666666Y-99642857D01*
X90666666Y-99785714D01*
X90714285Y-99880952D01*
X90761904Y-99928571D01*
X90857142Y-99976190D01*
X91238095Y-99976190D01*
X89714285Y-100452380D02*
X90285714Y-100452380D01*
X90000000Y-100452380D02*
X90000000Y-99452380D01*
X90095238Y-99595238D01*
X90190476Y-99690476D01*
X90285714Y-99738095D01*
%TO.C,C1*%
X88166666Y-100357142D02*
X88214285Y-100404761D01*
X88357142Y-100452380D01*
X88452380Y-100452380D01*
X88595238Y-100404761D01*
X88690476Y-100309523D01*
X88738095Y-100214285D01*
X88785714Y-100023809D01*
X88785714Y-99880952D01*
X88738095Y-99690476D01*
X88690476Y-99595238D01*
X88595238Y-99500000D01*
X88452380Y-99452380D01*
X88357142Y-99452380D01*
X88214285Y-99500000D01*
X88166666Y-99547619D01*
X87214285Y-100452380D02*
X87785714Y-100452380D01*
X87500000Y-100452380D02*
X87500000Y-99452380D01*
X87595238Y-99595238D01*
X87690476Y-99690476D01*
X87785714Y-99738095D01*
%TO.C,J1*%
X100333333Y-106452380D02*
X100333333Y-107166666D01*
X100380952Y-107309523D01*
X100476190Y-107404761D01*
X100619047Y-107452380D01*
X100714285Y-107452380D01*
X99333333Y-107452380D02*
X99904761Y-107452380D01*
X99619047Y-107452380D02*
X99619047Y-106452380D01*
X99714285Y-106595238D01*
X99809523Y-106690476D01*
X99904761Y-106738095D01*
%TO.C,X1*%
X84809523Y-89122380D02*
X84142857Y-90122380D01*
X84142857Y-89122380D02*
X84809523Y-90122380D01*
X83238095Y-90122380D02*
X83809523Y-90122380D01*
X83523809Y-90122380D02*
X83523809Y-89122380D01*
X83619047Y-89265238D01*
X83714285Y-89360476D01*
X83809523Y-89408095D01*
%TO.C,X2*%
X118809523Y-89122380D02*
X118142857Y-90122380D01*
X118142857Y-89122380D02*
X118809523Y-90122380D01*
X117809523Y-89217619D02*
X117761904Y-89170000D01*
X117666666Y-89122380D01*
X117428571Y-89122380D01*
X117333333Y-89170000D01*
X117285714Y-89217619D01*
X117238095Y-89312857D01*
X117238095Y-89408095D01*
X117285714Y-89550952D01*
X117857142Y-90122380D01*
X117238095Y-90122380D01*
%TD*%
M02*
