G04 #@! TF.GenerationSoftware,KiCad,Pcbnew,(5.1.6)-1*
G04 #@! TF.CreationDate,2020-10-13T17:39:25+02:00*
G04 #@! TF.ProjectId,DiodeAdapterSmd,44696f64-6541-4646-9170-746572536d64,0*
G04 #@! TF.SameCoordinates,Original*
G04 #@! TF.FileFunction,Legend,Bot*
G04 #@! TF.FilePolarity,Positive*
%FSLAX46Y46*%
G04 Gerber Fmt 4.6, Leading zero omitted, Abs format (unit mm)*
G04 Created by KiCad (PCBNEW (5.1.6)-1) date 2020-10-13 17:39:25*
%MOMM*%
%LPD*%
G01*
G04 APERTURE LIST*
%ADD10C,0.150000*%
%ADD11C,0.300000*%
%ADD12C,0.120000*%
G04 APERTURE END LIST*
D10*
X112666666Y-64278571D02*
X112333333Y-64278571D01*
X112190476Y-64802380D02*
X112666666Y-64802380D01*
X112666666Y-63802380D01*
X112190476Y-63802380D01*
X111809523Y-64754761D02*
X111714285Y-64802380D01*
X111523809Y-64802380D01*
X111428571Y-64754761D01*
X111380952Y-64659523D01*
X111380952Y-64611904D01*
X111428571Y-64516666D01*
X111523809Y-64469047D01*
X111666666Y-64469047D01*
X111761904Y-64421428D01*
X111809523Y-64326190D01*
X111809523Y-64278571D01*
X111761904Y-64183333D01*
X111666666Y-64135714D01*
X111523809Y-64135714D01*
X111428571Y-64183333D01*
X111000000Y-64754761D02*
X110904761Y-64802380D01*
X110714285Y-64802380D01*
X110619047Y-64754761D01*
X110571428Y-64659523D01*
X110571428Y-64611904D01*
X110619047Y-64516666D01*
X110714285Y-64469047D01*
X110857142Y-64469047D01*
X110952380Y-64421428D01*
X111000000Y-64326190D01*
X111000000Y-64278571D01*
X110952380Y-64183333D01*
X110857142Y-64135714D01*
X110714285Y-64135714D01*
X110619047Y-64183333D01*
X109761904Y-64754761D02*
X109857142Y-64802380D01*
X110047619Y-64802380D01*
X110142857Y-64754761D01*
X110190476Y-64659523D01*
X110190476Y-64278571D01*
X110142857Y-64183333D01*
X110047619Y-64135714D01*
X109857142Y-64135714D01*
X109761904Y-64183333D01*
X109714285Y-64278571D01*
X109714285Y-64373809D01*
X110190476Y-64469047D01*
X109285714Y-64802380D02*
X109285714Y-64135714D01*
X109285714Y-63802380D02*
X109333333Y-63850000D01*
X109285714Y-63897619D01*
X109238095Y-63850000D01*
X109285714Y-63802380D01*
X109285714Y-63897619D01*
X108904761Y-64135714D02*
X108666666Y-64802380D01*
X108428571Y-64135714D01*
X107619047Y-64802380D02*
X107619047Y-64278571D01*
X107666666Y-64183333D01*
X107761904Y-64135714D01*
X107952380Y-64135714D01*
X108047619Y-64183333D01*
X107619047Y-64754761D02*
X107714285Y-64802380D01*
X107952380Y-64802380D01*
X108047619Y-64754761D01*
X108095238Y-64659523D01*
X108095238Y-64564285D01*
X108047619Y-64469047D01*
X107952380Y-64421428D01*
X107714285Y-64421428D01*
X107619047Y-64373809D01*
X106380952Y-64802380D02*
X106380952Y-63802380D01*
X105809523Y-64802380D01*
X105809523Y-63802380D01*
X105333333Y-64802380D02*
X105333333Y-64135714D01*
X105333333Y-63802380D02*
X105380952Y-63850000D01*
X105333333Y-63897619D01*
X105285714Y-63850000D01*
X105333333Y-63802380D01*
X105333333Y-63897619D01*
X104428571Y-64754761D02*
X104523809Y-64802380D01*
X104714285Y-64802380D01*
X104809523Y-64754761D01*
X104857142Y-64707142D01*
X104904761Y-64611904D01*
X104904761Y-64326190D01*
X104857142Y-64230952D01*
X104809523Y-64183333D01*
X104714285Y-64135714D01*
X104523809Y-64135714D01*
X104428571Y-64183333D01*
X103857142Y-64802380D02*
X103952380Y-64754761D01*
X104000000Y-64707142D01*
X104047619Y-64611904D01*
X104047619Y-64326190D01*
X104000000Y-64230952D01*
X103952380Y-64183333D01*
X103857142Y-64135714D01*
X103714285Y-64135714D01*
X103619047Y-64183333D01*
X103571428Y-64230952D01*
X103523809Y-64326190D01*
X103523809Y-64611904D01*
X103571428Y-64707142D01*
X103619047Y-64754761D01*
X103714285Y-64802380D01*
X103857142Y-64802380D01*
X102952380Y-64802380D02*
X103047619Y-64754761D01*
X103095238Y-64659523D01*
X103095238Y-63802380D01*
X102142857Y-64802380D02*
X102142857Y-64278571D01*
X102190476Y-64183333D01*
X102285714Y-64135714D01*
X102476190Y-64135714D01*
X102571428Y-64183333D01*
X102142857Y-64754761D02*
X102238095Y-64802380D01*
X102476190Y-64802380D01*
X102571428Y-64754761D01*
X102619047Y-64659523D01*
X102619047Y-64564285D01*
X102571428Y-64469047D01*
X102476190Y-64421428D01*
X102238095Y-64421428D01*
X102142857Y-64373809D01*
X101714285Y-64754761D02*
X101619047Y-64802380D01*
X101428571Y-64802380D01*
X101333333Y-64754761D01*
X101285714Y-64659523D01*
X101285714Y-64611904D01*
X101333333Y-64516666D01*
X101428571Y-64469047D01*
X101571428Y-64469047D01*
X101666666Y-64421428D01*
X101714285Y-64326190D01*
X101714285Y-64278571D01*
X101666666Y-64183333D01*
X101571428Y-64135714D01*
X101428571Y-64135714D01*
X101333333Y-64183333D01*
X112047619Y-66452380D02*
X112047619Y-65452380D01*
X111809523Y-65452380D01*
X111666666Y-65500000D01*
X111571428Y-65595238D01*
X111523809Y-65690476D01*
X111476190Y-65880952D01*
X111476190Y-66023809D01*
X111523809Y-66214285D01*
X111571428Y-66309523D01*
X111666666Y-66404761D01*
X111809523Y-66452380D01*
X112047619Y-66452380D01*
X111047619Y-66452380D02*
X111047619Y-65785714D01*
X111047619Y-65452380D02*
X111095238Y-65500000D01*
X111047619Y-65547619D01*
X111000000Y-65500000D01*
X111047619Y-65452380D01*
X111047619Y-65547619D01*
X110428571Y-66452380D02*
X110523809Y-66404761D01*
X110571428Y-66357142D01*
X110619047Y-66261904D01*
X110619047Y-65976190D01*
X110571428Y-65880952D01*
X110523809Y-65833333D01*
X110428571Y-65785714D01*
X110285714Y-65785714D01*
X110190476Y-65833333D01*
X110142857Y-65880952D01*
X110095238Y-65976190D01*
X110095238Y-66261904D01*
X110142857Y-66357142D01*
X110190476Y-66404761D01*
X110285714Y-66452380D01*
X110428571Y-66452380D01*
X109238095Y-66452380D02*
X109238095Y-65452380D01*
X109238095Y-66404761D02*
X109333333Y-66452380D01*
X109523809Y-66452380D01*
X109619047Y-66404761D01*
X109666666Y-66357142D01*
X109714285Y-66261904D01*
X109714285Y-65976190D01*
X109666666Y-65880952D01*
X109619047Y-65833333D01*
X109523809Y-65785714D01*
X109333333Y-65785714D01*
X109238095Y-65833333D01*
X108380952Y-66404761D02*
X108476190Y-66452380D01*
X108666666Y-66452380D01*
X108761904Y-66404761D01*
X108809523Y-66309523D01*
X108809523Y-65928571D01*
X108761904Y-65833333D01*
X108666666Y-65785714D01*
X108476190Y-65785714D01*
X108380952Y-65833333D01*
X108333333Y-65928571D01*
X108333333Y-66023809D01*
X108809523Y-66119047D01*
X106714285Y-66452380D02*
X106714285Y-65928571D01*
X106761904Y-65833333D01*
X106857142Y-65785714D01*
X107047619Y-65785714D01*
X107142857Y-65833333D01*
X106714285Y-66404761D02*
X106809523Y-66452380D01*
X107047619Y-66452380D01*
X107142857Y-66404761D01*
X107190476Y-66309523D01*
X107190476Y-66214285D01*
X107142857Y-66119047D01*
X107047619Y-66071428D01*
X106809523Y-66071428D01*
X106714285Y-66023809D01*
X105809523Y-66452380D02*
X105809523Y-65452380D01*
X105809523Y-66404761D02*
X105904761Y-66452380D01*
X106095238Y-66452380D01*
X106190476Y-66404761D01*
X106238095Y-66357142D01*
X106285714Y-66261904D01*
X106285714Y-65976190D01*
X106238095Y-65880952D01*
X106190476Y-65833333D01*
X106095238Y-65785714D01*
X105904761Y-65785714D01*
X105809523Y-65833333D01*
X104904761Y-66452380D02*
X104904761Y-65928571D01*
X104952380Y-65833333D01*
X105047619Y-65785714D01*
X105238095Y-65785714D01*
X105333333Y-65833333D01*
X104904761Y-66404761D02*
X105000000Y-66452380D01*
X105238095Y-66452380D01*
X105333333Y-66404761D01*
X105380952Y-66309523D01*
X105380952Y-66214285D01*
X105333333Y-66119047D01*
X105238095Y-66071428D01*
X105000000Y-66071428D01*
X104904761Y-66023809D01*
X104428571Y-65785714D02*
X104428571Y-66785714D01*
X104428571Y-65833333D02*
X104333333Y-65785714D01*
X104142857Y-65785714D01*
X104047619Y-65833333D01*
X104000000Y-65880952D01*
X103952380Y-65976190D01*
X103952380Y-66261904D01*
X104000000Y-66357142D01*
X104047619Y-66404761D01*
X104142857Y-66452380D01*
X104333333Y-66452380D01*
X104428571Y-66404761D01*
X103666666Y-65785714D02*
X103285714Y-65785714D01*
X103523809Y-65452380D02*
X103523809Y-66309523D01*
X103476190Y-66404761D01*
X103380952Y-66452380D01*
X103285714Y-66452380D01*
X102571428Y-66404761D02*
X102666666Y-66452380D01*
X102857142Y-66452380D01*
X102952380Y-66404761D01*
X103000000Y-66309523D01*
X103000000Y-65928571D01*
X102952380Y-65833333D01*
X102857142Y-65785714D01*
X102666666Y-65785714D01*
X102571428Y-65833333D01*
X102523809Y-65928571D01*
X102523809Y-66023809D01*
X103000000Y-66119047D01*
X102095238Y-66452380D02*
X102095238Y-65785714D01*
X102095238Y-65976190D02*
X102047619Y-65880952D01*
X102000000Y-65833333D01*
X101904761Y-65785714D01*
X101809523Y-65785714D01*
X112452380Y-67197619D02*
X112404761Y-67150000D01*
X112309523Y-67102380D01*
X112071428Y-67102380D01*
X111976190Y-67150000D01*
X111928571Y-67197619D01*
X111880952Y-67292857D01*
X111880952Y-67388095D01*
X111928571Y-67530952D01*
X112500000Y-68102380D01*
X111880952Y-68102380D01*
X111023809Y-67435714D02*
X111023809Y-68102380D01*
X111261904Y-67054761D02*
X111500000Y-67769047D01*
X110880952Y-67769047D01*
X110309523Y-67102380D02*
X110214285Y-67102380D01*
X110119047Y-67150000D01*
X110071428Y-67197619D01*
X110023809Y-67292857D01*
X109976190Y-67483333D01*
X109976190Y-67721428D01*
X110023809Y-67911904D01*
X110071428Y-68007142D01*
X110119047Y-68054761D01*
X110214285Y-68102380D01*
X110309523Y-68102380D01*
X110404761Y-68054761D01*
X110452380Y-68007142D01*
X110500000Y-67911904D01*
X110547619Y-67721428D01*
X110547619Y-67483333D01*
X110500000Y-67292857D01*
X110452380Y-67197619D01*
X110404761Y-67150000D01*
X110309523Y-67102380D01*
X109500000Y-68102380D02*
X109309523Y-68102380D01*
X109214285Y-68054761D01*
X109166666Y-68007142D01*
X109071428Y-67864285D01*
X109023809Y-67673809D01*
X109023809Y-67292857D01*
X109071428Y-67197619D01*
X109119047Y-67150000D01*
X109214285Y-67102380D01*
X109404761Y-67102380D01*
X109500000Y-67150000D01*
X109547619Y-67197619D01*
X109595238Y-67292857D01*
X109595238Y-67530952D01*
X109547619Y-67626190D01*
X109500000Y-67673809D01*
X109404761Y-67721428D01*
X109214285Y-67721428D01*
X109119047Y-67673809D01*
X109071428Y-67626190D01*
X109023809Y-67530952D01*
X108642857Y-67197619D02*
X108595238Y-67150000D01*
X108500000Y-67102380D01*
X108261904Y-67102380D01*
X108166666Y-67150000D01*
X108119047Y-67197619D01*
X108071428Y-67292857D01*
X108071428Y-67388095D01*
X108119047Y-67530952D01*
X108690476Y-68102380D01*
X108071428Y-68102380D01*
X107452380Y-67102380D02*
X107357142Y-67102380D01*
X107261904Y-67150000D01*
X107214285Y-67197619D01*
X107166666Y-67292857D01*
X107119047Y-67483333D01*
X107119047Y-67721428D01*
X107166666Y-67911904D01*
X107214285Y-68007142D01*
X107261904Y-68054761D01*
X107357142Y-68102380D01*
X107452380Y-68102380D01*
X107547619Y-68054761D01*
X107595238Y-68007142D01*
X107642857Y-67911904D01*
X107690476Y-67721428D01*
X107690476Y-67483333D01*
X107642857Y-67292857D01*
X107595238Y-67197619D01*
X107547619Y-67150000D01*
X107452380Y-67102380D01*
X106738095Y-67197619D02*
X106690476Y-67150000D01*
X106595238Y-67102380D01*
X106357142Y-67102380D01*
X106261904Y-67150000D01*
X106214285Y-67197619D01*
X106166666Y-67292857D01*
X106166666Y-67388095D01*
X106214285Y-67530952D01*
X106785714Y-68102380D01*
X106166666Y-68102380D01*
X105547619Y-67102380D02*
X105452380Y-67102380D01*
X105357142Y-67150000D01*
X105309523Y-67197619D01*
X105261904Y-67292857D01*
X105214285Y-67483333D01*
X105214285Y-67721428D01*
X105261904Y-67911904D01*
X105309523Y-68007142D01*
X105357142Y-68054761D01*
X105452380Y-68102380D01*
X105547619Y-68102380D01*
X105642857Y-68054761D01*
X105690476Y-68007142D01*
X105738095Y-67911904D01*
X105785714Y-67721428D01*
X105785714Y-67483333D01*
X105738095Y-67292857D01*
X105690476Y-67197619D01*
X105642857Y-67150000D01*
X105547619Y-67102380D01*
X103452380Y-68102380D02*
X103785714Y-67626190D01*
X104023809Y-68102380D02*
X104023809Y-67102380D01*
X103642857Y-67102380D01*
X103547619Y-67150000D01*
X103500000Y-67197619D01*
X103452380Y-67292857D01*
X103452380Y-67435714D01*
X103500000Y-67530952D01*
X103547619Y-67578571D01*
X103642857Y-67626190D01*
X104023809Y-67626190D01*
X102833333Y-67102380D02*
X102738095Y-67102380D01*
X102642857Y-67150000D01*
X102595238Y-67197619D01*
X102547619Y-67292857D01*
X102500000Y-67483333D01*
X102500000Y-67721428D01*
X102547619Y-67911904D01*
X102595238Y-68007142D01*
X102642857Y-68054761D01*
X102738095Y-68102380D01*
X102833333Y-68102380D01*
X102928571Y-68054761D01*
X102976190Y-68007142D01*
X103023809Y-67911904D01*
X103071428Y-67721428D01*
X103071428Y-67483333D01*
X103023809Y-67292857D01*
X102976190Y-67197619D01*
X102928571Y-67150000D01*
X102833333Y-67102380D01*
X101880952Y-67102380D02*
X101785714Y-67102380D01*
X101690476Y-67150000D01*
X101642857Y-67197619D01*
X101595238Y-67292857D01*
X101547619Y-67483333D01*
X101547619Y-67721428D01*
X101595238Y-67911904D01*
X101642857Y-68007142D01*
X101690476Y-68054761D01*
X101785714Y-68102380D01*
X101880952Y-68102380D01*
X101976190Y-68054761D01*
X102023809Y-68007142D01*
X102071428Y-67911904D01*
X102119047Y-67721428D01*
X102119047Y-67483333D01*
X102071428Y-67292857D01*
X102023809Y-67197619D01*
X101976190Y-67150000D01*
X101880952Y-67102380D01*
D11*
X112571428Y-51357142D02*
X111428571Y-51357142D01*
X102571428Y-51357142D02*
X101428571Y-51357142D01*
X102000000Y-51928571D02*
X102000000Y-50785714D01*
D12*
X110500000Y-55500000D02*
X110500000Y-50500000D01*
X103500000Y-55500000D02*
X103500000Y-50500000D01*
X103500000Y-50500000D02*
X106000000Y-50500000D01*
X103500000Y-55500000D02*
X106000000Y-55500000D01*
M02*
