G04 #@! TF.GenerationSoftware,KiCad,Pcbnew,(5.1.6)-1*
G04 #@! TF.CreationDate,2020-10-13T20:44:43+02:00*
G04 #@! TF.ProjectId,DiodeAdapterSmd,44696f64-6541-4646-9170-746572536d64,0*
G04 #@! TF.SameCoordinates,PX5f5e100PY2faf080*
G04 #@! TF.FileFunction,Copper,L1,Top*
G04 #@! TF.FilePolarity,Positive*
%FSLAX46Y46*%
G04 Gerber Fmt 4.6, Leading zero omitted, Abs format (unit mm)*
G04 Created by KiCad (PCBNEW (5.1.6)-1) date 2020-10-13 20:44:43*
%MOMM*%
%LPD*%
G01*
G04 APERTURE LIST*
G04 #@! TA.AperFunction,ConnectorPad*
%ADD10R,2.000000X4.000000*%
G04 #@! TD*
G04 #@! TA.AperFunction,SMDPad,CuDef*
%ADD11R,2.000000X6.000000*%
G04 #@! TD*
G04 #@! TA.AperFunction,SMDPad,CuDef*
%ADD12R,1.300000X6.000000*%
G04 #@! TD*
G04 #@! TA.AperFunction,ViaPad*
%ADD13C,1.500000*%
G04 #@! TD*
G04 #@! TA.AperFunction,Conductor*
%ADD14C,1.000000*%
G04 #@! TD*
G04 #@! TA.AperFunction,Conductor*
%ADD15C,0.254000*%
G04 #@! TD*
G04 APERTURE END LIST*
D10*
X5095000Y-17000000D03*
X8905000Y-17000000D03*
D11*
X4850000Y-10000000D03*
X9150000Y-10000000D03*
D12*
X7000000Y-10000000D03*
D13*
X2000000Y-3000000D03*
X12000000Y-3000000D03*
D14*
X5095000Y-10245000D02*
X4850000Y-10000000D01*
X5095000Y-17000000D02*
X5095000Y-10245000D01*
X4850000Y-3850000D02*
X4000000Y-3000000D01*
X4850000Y-10000000D02*
X4850000Y-3850000D01*
X4000000Y-3000000D02*
X2000000Y-3000000D01*
X8905000Y-10245000D02*
X9150000Y-10000000D01*
X7000000Y-10000000D02*
X7000000Y-13500000D01*
X7000000Y-13500000D02*
X7405000Y-13905000D01*
X7405000Y-13905000D02*
X8905000Y-13905000D01*
X8905000Y-17000000D02*
X8905000Y-13905000D01*
X8905000Y-13905000D02*
X8905000Y-10245000D01*
X9150000Y-3850000D02*
X10000000Y-3000000D01*
X9150000Y-10000000D02*
X9150000Y-3850000D01*
X10000000Y-3000000D02*
X12000000Y-3000000D01*
D15*
G36*
X13290001Y-19290000D02*
G01*
X10470010Y-19290000D01*
X10494502Y-19244180D01*
X10530812Y-19124482D01*
X10543072Y-19000000D01*
X10540000Y-17285750D01*
X10381250Y-17127000D01*
X9032000Y-17127000D01*
X9032000Y-17147000D01*
X8778000Y-17147000D01*
X8778000Y-17127000D01*
X7428750Y-17127000D01*
X7270000Y-17285750D01*
X7266928Y-19000000D01*
X7279188Y-19124482D01*
X7315498Y-19244180D01*
X7339990Y-19290000D01*
X6660010Y-19290000D01*
X6684502Y-19244180D01*
X6720812Y-19124482D01*
X6733072Y-19000000D01*
X6733072Y-15000000D01*
X7266928Y-15000000D01*
X7270000Y-16714250D01*
X7428750Y-16873000D01*
X8778000Y-16873000D01*
X8778000Y-14523750D01*
X9032000Y-14523750D01*
X9032000Y-16873000D01*
X10381250Y-16873000D01*
X10540000Y-16714250D01*
X10543072Y-15000000D01*
X10530812Y-14875518D01*
X10494502Y-14755820D01*
X10435537Y-14645506D01*
X10356185Y-14548815D01*
X10259494Y-14469463D01*
X10149180Y-14410498D01*
X10029482Y-14374188D01*
X9905000Y-14361928D01*
X9190750Y-14365000D01*
X9032000Y-14523750D01*
X8778000Y-14523750D01*
X8619250Y-14365000D01*
X7905000Y-14361928D01*
X7780518Y-14374188D01*
X7660820Y-14410498D01*
X7550506Y-14469463D01*
X7453815Y-14548815D01*
X7374463Y-14645506D01*
X7315498Y-14755820D01*
X7279188Y-14875518D01*
X7266928Y-15000000D01*
X6733072Y-15000000D01*
X6720812Y-14875518D01*
X6684502Y-14755820D01*
X6625537Y-14645506D01*
X6546185Y-14548815D01*
X6449494Y-14469463D01*
X6339180Y-14410498D01*
X6230000Y-14377379D01*
X6230000Y-13626253D01*
X6350000Y-13638072D01*
X6714250Y-13635000D01*
X6873000Y-13476250D01*
X6873000Y-10127000D01*
X7127000Y-10127000D01*
X7127000Y-13476250D01*
X7285750Y-13635000D01*
X7650000Y-13638072D01*
X7774482Y-13625812D01*
X7894180Y-13589502D01*
X7900000Y-13586391D01*
X7905820Y-13589502D01*
X8025518Y-13625812D01*
X8150000Y-13638072D01*
X8864250Y-13635000D01*
X9023000Y-13476250D01*
X9023000Y-10127000D01*
X9277000Y-10127000D01*
X9277000Y-13476250D01*
X9435750Y-13635000D01*
X10150000Y-13638072D01*
X10274482Y-13625812D01*
X10394180Y-13589502D01*
X10504494Y-13530537D01*
X10601185Y-13451185D01*
X10680537Y-13354494D01*
X10739502Y-13244180D01*
X10775812Y-13124482D01*
X10788072Y-13000000D01*
X10785000Y-10285750D01*
X10626250Y-10127000D01*
X9277000Y-10127000D01*
X9023000Y-10127000D01*
X7127000Y-10127000D01*
X6873000Y-10127000D01*
X6853000Y-10127000D01*
X6853000Y-9873000D01*
X6873000Y-9873000D01*
X6873000Y-6523750D01*
X7127000Y-6523750D01*
X7127000Y-9873000D01*
X9023000Y-9873000D01*
X9023000Y-6523750D01*
X9277000Y-6523750D01*
X9277000Y-9873000D01*
X10626250Y-9873000D01*
X10785000Y-9714250D01*
X10788072Y-7000000D01*
X10775812Y-6875518D01*
X10739502Y-6755820D01*
X10680537Y-6645506D01*
X10601185Y-6548815D01*
X10504494Y-6469463D01*
X10394180Y-6410498D01*
X10274482Y-6374188D01*
X10150000Y-6361928D01*
X9435750Y-6365000D01*
X9277000Y-6523750D01*
X9023000Y-6523750D01*
X8864250Y-6365000D01*
X8150000Y-6361928D01*
X8025518Y-6374188D01*
X7905820Y-6410498D01*
X7900000Y-6413609D01*
X7894180Y-6410498D01*
X7774482Y-6374188D01*
X7650000Y-6361928D01*
X7285750Y-6365000D01*
X7127000Y-6523750D01*
X6873000Y-6523750D01*
X6714250Y-6365000D01*
X6350000Y-6361928D01*
X6225518Y-6374188D01*
X6105820Y-6410498D01*
X6100000Y-6413609D01*
X6094180Y-6410498D01*
X5985000Y-6377379D01*
X5985000Y-3905752D01*
X5990491Y-3850000D01*
X5968577Y-3627501D01*
X5903676Y-3413553D01*
X5798284Y-3216377D01*
X5691989Y-3086856D01*
X5691987Y-3086854D01*
X5656449Y-3043551D01*
X5613145Y-3008013D01*
X4841995Y-2236864D01*
X4806449Y-2193551D01*
X4633623Y-2051716D01*
X4436447Y-1946324D01*
X4222499Y-1881423D01*
X4055752Y-1865000D01*
X4055751Y-1865000D01*
X4000000Y-1859509D01*
X3944249Y-1865000D01*
X2794286Y-1865000D01*
X2656043Y-1772629D01*
X2403989Y-1668225D01*
X2136411Y-1615000D01*
X1863589Y-1615000D01*
X1596011Y-1668225D01*
X1343957Y-1772629D01*
X1117114Y-1924201D01*
X924201Y-2117114D01*
X772629Y-2343957D01*
X710000Y-2495157D01*
X710000Y-1127000D01*
X13290000Y-1127000D01*
X13290001Y-19290000D01*
G37*
X13290001Y-19290000D02*
X10470010Y-19290000D01*
X10494502Y-19244180D01*
X10530812Y-19124482D01*
X10543072Y-19000000D01*
X10540000Y-17285750D01*
X10381250Y-17127000D01*
X9032000Y-17127000D01*
X9032000Y-17147000D01*
X8778000Y-17147000D01*
X8778000Y-17127000D01*
X7428750Y-17127000D01*
X7270000Y-17285750D01*
X7266928Y-19000000D01*
X7279188Y-19124482D01*
X7315498Y-19244180D01*
X7339990Y-19290000D01*
X6660010Y-19290000D01*
X6684502Y-19244180D01*
X6720812Y-19124482D01*
X6733072Y-19000000D01*
X6733072Y-15000000D01*
X7266928Y-15000000D01*
X7270000Y-16714250D01*
X7428750Y-16873000D01*
X8778000Y-16873000D01*
X8778000Y-14523750D01*
X9032000Y-14523750D01*
X9032000Y-16873000D01*
X10381250Y-16873000D01*
X10540000Y-16714250D01*
X10543072Y-15000000D01*
X10530812Y-14875518D01*
X10494502Y-14755820D01*
X10435537Y-14645506D01*
X10356185Y-14548815D01*
X10259494Y-14469463D01*
X10149180Y-14410498D01*
X10029482Y-14374188D01*
X9905000Y-14361928D01*
X9190750Y-14365000D01*
X9032000Y-14523750D01*
X8778000Y-14523750D01*
X8619250Y-14365000D01*
X7905000Y-14361928D01*
X7780518Y-14374188D01*
X7660820Y-14410498D01*
X7550506Y-14469463D01*
X7453815Y-14548815D01*
X7374463Y-14645506D01*
X7315498Y-14755820D01*
X7279188Y-14875518D01*
X7266928Y-15000000D01*
X6733072Y-15000000D01*
X6720812Y-14875518D01*
X6684502Y-14755820D01*
X6625537Y-14645506D01*
X6546185Y-14548815D01*
X6449494Y-14469463D01*
X6339180Y-14410498D01*
X6230000Y-14377379D01*
X6230000Y-13626253D01*
X6350000Y-13638072D01*
X6714250Y-13635000D01*
X6873000Y-13476250D01*
X6873000Y-10127000D01*
X7127000Y-10127000D01*
X7127000Y-13476250D01*
X7285750Y-13635000D01*
X7650000Y-13638072D01*
X7774482Y-13625812D01*
X7894180Y-13589502D01*
X7900000Y-13586391D01*
X7905820Y-13589502D01*
X8025518Y-13625812D01*
X8150000Y-13638072D01*
X8864250Y-13635000D01*
X9023000Y-13476250D01*
X9023000Y-10127000D01*
X9277000Y-10127000D01*
X9277000Y-13476250D01*
X9435750Y-13635000D01*
X10150000Y-13638072D01*
X10274482Y-13625812D01*
X10394180Y-13589502D01*
X10504494Y-13530537D01*
X10601185Y-13451185D01*
X10680537Y-13354494D01*
X10739502Y-13244180D01*
X10775812Y-13124482D01*
X10788072Y-13000000D01*
X10785000Y-10285750D01*
X10626250Y-10127000D01*
X9277000Y-10127000D01*
X9023000Y-10127000D01*
X7127000Y-10127000D01*
X6873000Y-10127000D01*
X6853000Y-10127000D01*
X6853000Y-9873000D01*
X6873000Y-9873000D01*
X6873000Y-6523750D01*
X7127000Y-6523750D01*
X7127000Y-9873000D01*
X9023000Y-9873000D01*
X9023000Y-6523750D01*
X9277000Y-6523750D01*
X9277000Y-9873000D01*
X10626250Y-9873000D01*
X10785000Y-9714250D01*
X10788072Y-7000000D01*
X10775812Y-6875518D01*
X10739502Y-6755820D01*
X10680537Y-6645506D01*
X10601185Y-6548815D01*
X10504494Y-6469463D01*
X10394180Y-6410498D01*
X10274482Y-6374188D01*
X10150000Y-6361928D01*
X9435750Y-6365000D01*
X9277000Y-6523750D01*
X9023000Y-6523750D01*
X8864250Y-6365000D01*
X8150000Y-6361928D01*
X8025518Y-6374188D01*
X7905820Y-6410498D01*
X7900000Y-6413609D01*
X7894180Y-6410498D01*
X7774482Y-6374188D01*
X7650000Y-6361928D01*
X7285750Y-6365000D01*
X7127000Y-6523750D01*
X6873000Y-6523750D01*
X6714250Y-6365000D01*
X6350000Y-6361928D01*
X6225518Y-6374188D01*
X6105820Y-6410498D01*
X6100000Y-6413609D01*
X6094180Y-6410498D01*
X5985000Y-6377379D01*
X5985000Y-3905752D01*
X5990491Y-3850000D01*
X5968577Y-3627501D01*
X5903676Y-3413553D01*
X5798284Y-3216377D01*
X5691989Y-3086856D01*
X5691987Y-3086854D01*
X5656449Y-3043551D01*
X5613145Y-3008013D01*
X4841995Y-2236864D01*
X4806449Y-2193551D01*
X4633623Y-2051716D01*
X4436447Y-1946324D01*
X4222499Y-1881423D01*
X4055752Y-1865000D01*
X4055751Y-1865000D01*
X4000000Y-1859509D01*
X3944249Y-1865000D01*
X2794286Y-1865000D01*
X2656043Y-1772629D01*
X2403989Y-1668225D01*
X2136411Y-1615000D01*
X1863589Y-1615000D01*
X1596011Y-1668225D01*
X1343957Y-1772629D01*
X1117114Y-1924201D01*
X924201Y-2117114D01*
X772629Y-2343957D01*
X710000Y-2495157D01*
X710000Y-1127000D01*
X13290000Y-1127000D01*
X13290001Y-19290000D01*
M02*
