G04 #@! TF.GenerationSoftware,KiCad,Pcbnew,(5.1.6)-1*
G04 #@! TF.CreationDate,2020-10-13T20:44:43+02:00*
G04 #@! TF.ProjectId,DiodeAdapterSmd,44696f64-6541-4646-9170-746572536d64,0*
G04 #@! TF.SameCoordinates,PX5f5e100PY2faf080*
G04 #@! TF.FileFunction,Copper,L2,Bot*
G04 #@! TF.FilePolarity,Positive*
%FSLAX46Y46*%
G04 Gerber Fmt 4.6, Leading zero omitted, Abs format (unit mm)*
G04 Created by KiCad (PCBNEW (5.1.6)-1) date 2020-10-13 20:44:43*
%MOMM*%
%LPD*%
G01*
G04 APERTURE LIST*
G04 #@! TA.AperFunction,ConnectorPad*
%ADD10R,2.000000X4.000000*%
G04 #@! TD*
G04 #@! TA.AperFunction,SMDPad,CuDef*
%ADD11R,3.000000X5.200000*%
G04 #@! TD*
G04 #@! TA.AperFunction,SMDPad,CuDef*
%ADD12R,4.000000X5.200000*%
G04 #@! TD*
G04 #@! TA.AperFunction,ViaPad*
%ADD13C,1.500000*%
G04 #@! TD*
G04 #@! TA.AperFunction,Conductor*
%ADD14C,1.000000*%
G04 #@! TD*
G04 #@! TA.AperFunction,Conductor*
%ADD15C,0.254000*%
G04 #@! TD*
G04 APERTURE END LIST*
D10*
X5095000Y-3000000D03*
X8905000Y-3000000D03*
D11*
X10000000Y-10000000D03*
D12*
X4500000Y-10000000D03*
D13*
X2000000Y-3000000D03*
X12000000Y-3000000D03*
D14*
X5095000Y-3000000D02*
X2000000Y-3000000D01*
X5095000Y-3000000D02*
X5095000Y-5905000D01*
X4500000Y-6500000D02*
X4500000Y-10000000D01*
X5095000Y-5905000D02*
X4500000Y-6500000D01*
X8905000Y-3000000D02*
X12000000Y-3000000D01*
X10000000Y-10000000D02*
X10000000Y-7000000D01*
X8905000Y-5905000D02*
X8905000Y-3000000D01*
X10000000Y-7000000D02*
X8905000Y-5905000D01*
D15*
G36*
X7270000Y-2714250D02*
G01*
X7428750Y-2873000D01*
X8778000Y-2873000D01*
X8778000Y-2853000D01*
X9032000Y-2853000D01*
X9032000Y-2873000D01*
X10381250Y-2873000D01*
X10540000Y-2714250D01*
X10542844Y-1127000D01*
X13290000Y-1127000D01*
X13290001Y-19290000D01*
X710000Y-19290000D01*
X710000Y-3504843D01*
X772629Y-3656043D01*
X924201Y-3882886D01*
X1117114Y-4075799D01*
X1343957Y-4227371D01*
X1596011Y-4331775D01*
X1863589Y-4385000D01*
X2136411Y-4385000D01*
X2403989Y-4331775D01*
X2656043Y-4227371D01*
X2794286Y-4135000D01*
X3456928Y-4135000D01*
X3456928Y-5000000D01*
X3469188Y-5124482D01*
X3505498Y-5244180D01*
X3564463Y-5354494D01*
X3643815Y-5451185D01*
X3740506Y-5530537D01*
X3821200Y-5573669D01*
X3736865Y-5658004D01*
X3693551Y-5693551D01*
X3551716Y-5866377D01*
X3446325Y-6063553D01*
X3446324Y-6063554D01*
X3381423Y-6277502D01*
X3359509Y-6500000D01*
X3365000Y-6555752D01*
X3365000Y-6761928D01*
X2500000Y-6761928D01*
X2375518Y-6774188D01*
X2255820Y-6810498D01*
X2145506Y-6869463D01*
X2048815Y-6948815D01*
X1969463Y-7045506D01*
X1910498Y-7155820D01*
X1874188Y-7275518D01*
X1861928Y-7400000D01*
X1861928Y-12600000D01*
X1874188Y-12724482D01*
X1910498Y-12844180D01*
X1969463Y-12954494D01*
X2048815Y-13051185D01*
X2145506Y-13130537D01*
X2255820Y-13189502D01*
X2375518Y-13225812D01*
X2500000Y-13238072D01*
X6500000Y-13238072D01*
X6624482Y-13225812D01*
X6744180Y-13189502D01*
X6854494Y-13130537D01*
X6951185Y-13051185D01*
X7030537Y-12954494D01*
X7089502Y-12844180D01*
X7125812Y-12724482D01*
X7138072Y-12600000D01*
X7861928Y-12600000D01*
X7874188Y-12724482D01*
X7910498Y-12844180D01*
X7969463Y-12954494D01*
X8048815Y-13051185D01*
X8145506Y-13130537D01*
X8255820Y-13189502D01*
X8375518Y-13225812D01*
X8500000Y-13238072D01*
X9714250Y-13235000D01*
X9873000Y-13076250D01*
X9873000Y-10127000D01*
X10127000Y-10127000D01*
X10127000Y-13076250D01*
X10285750Y-13235000D01*
X11500000Y-13238072D01*
X11624482Y-13225812D01*
X11744180Y-13189502D01*
X11854494Y-13130537D01*
X11951185Y-13051185D01*
X12030537Y-12954494D01*
X12089502Y-12844180D01*
X12125812Y-12724482D01*
X12138072Y-12600000D01*
X12135000Y-10285750D01*
X11976250Y-10127000D01*
X10127000Y-10127000D01*
X9873000Y-10127000D01*
X8023750Y-10127000D01*
X7865000Y-10285750D01*
X7861928Y-12600000D01*
X7138072Y-12600000D01*
X7138072Y-7400000D01*
X7861928Y-7400000D01*
X7865000Y-9714250D01*
X8023750Y-9873000D01*
X9873000Y-9873000D01*
X9873000Y-6923750D01*
X10127000Y-6923750D01*
X10127000Y-9873000D01*
X11976250Y-9873000D01*
X12135000Y-9714250D01*
X12138072Y-7400000D01*
X12125812Y-7275518D01*
X12089502Y-7155820D01*
X12030537Y-7045506D01*
X11951185Y-6948815D01*
X11854494Y-6869463D01*
X11744180Y-6810498D01*
X11624482Y-6774188D01*
X11500000Y-6761928D01*
X10285750Y-6765000D01*
X10127000Y-6923750D01*
X9873000Y-6923750D01*
X9714250Y-6765000D01*
X8500000Y-6761928D01*
X8375518Y-6774188D01*
X8255820Y-6810498D01*
X8145506Y-6869463D01*
X8048815Y-6948815D01*
X7969463Y-7045506D01*
X7910498Y-7155820D01*
X7874188Y-7275518D01*
X7861928Y-7400000D01*
X7138072Y-7400000D01*
X7125812Y-7275518D01*
X7089502Y-7155820D01*
X7030537Y-7045506D01*
X6951185Y-6948815D01*
X6854494Y-6869463D01*
X6744180Y-6810498D01*
X6624482Y-6774188D01*
X6500000Y-6761928D01*
X5843203Y-6761928D01*
X5858135Y-6746996D01*
X5901449Y-6711449D01*
X6043284Y-6538623D01*
X6148676Y-6341447D01*
X6213577Y-6127499D01*
X6230000Y-5960752D01*
X6235491Y-5905001D01*
X6230000Y-5849249D01*
X6230000Y-5622621D01*
X6339180Y-5589502D01*
X6449494Y-5530537D01*
X6546185Y-5451185D01*
X6625537Y-5354494D01*
X6684502Y-5244180D01*
X6720812Y-5124482D01*
X6733072Y-5000000D01*
X7266928Y-5000000D01*
X7279188Y-5124482D01*
X7315498Y-5244180D01*
X7374463Y-5354494D01*
X7453815Y-5451185D01*
X7550506Y-5530537D01*
X7660820Y-5589502D01*
X7780518Y-5625812D01*
X7905000Y-5638072D01*
X8619250Y-5635000D01*
X8778000Y-5476250D01*
X8778000Y-3127000D01*
X9032000Y-3127000D01*
X9032000Y-5476250D01*
X9190750Y-5635000D01*
X9905000Y-5638072D01*
X10029482Y-5625812D01*
X10149180Y-5589502D01*
X10259494Y-5530537D01*
X10356185Y-5451185D01*
X10435537Y-5354494D01*
X10494502Y-5244180D01*
X10530812Y-5124482D01*
X10543072Y-5000000D01*
X10540000Y-3285750D01*
X10381250Y-3127000D01*
X9032000Y-3127000D01*
X8778000Y-3127000D01*
X7428750Y-3127000D01*
X7270000Y-3285750D01*
X7266928Y-5000000D01*
X6733072Y-5000000D01*
X6733072Y-1127000D01*
X7267156Y-1127000D01*
X7270000Y-2714250D01*
G37*
X7270000Y-2714250D02*
X7428750Y-2873000D01*
X8778000Y-2873000D01*
X8778000Y-2853000D01*
X9032000Y-2853000D01*
X9032000Y-2873000D01*
X10381250Y-2873000D01*
X10540000Y-2714250D01*
X10542844Y-1127000D01*
X13290000Y-1127000D01*
X13290001Y-19290000D01*
X710000Y-19290000D01*
X710000Y-3504843D01*
X772629Y-3656043D01*
X924201Y-3882886D01*
X1117114Y-4075799D01*
X1343957Y-4227371D01*
X1596011Y-4331775D01*
X1863589Y-4385000D01*
X2136411Y-4385000D01*
X2403989Y-4331775D01*
X2656043Y-4227371D01*
X2794286Y-4135000D01*
X3456928Y-4135000D01*
X3456928Y-5000000D01*
X3469188Y-5124482D01*
X3505498Y-5244180D01*
X3564463Y-5354494D01*
X3643815Y-5451185D01*
X3740506Y-5530537D01*
X3821200Y-5573669D01*
X3736865Y-5658004D01*
X3693551Y-5693551D01*
X3551716Y-5866377D01*
X3446325Y-6063553D01*
X3446324Y-6063554D01*
X3381423Y-6277502D01*
X3359509Y-6500000D01*
X3365000Y-6555752D01*
X3365000Y-6761928D01*
X2500000Y-6761928D01*
X2375518Y-6774188D01*
X2255820Y-6810498D01*
X2145506Y-6869463D01*
X2048815Y-6948815D01*
X1969463Y-7045506D01*
X1910498Y-7155820D01*
X1874188Y-7275518D01*
X1861928Y-7400000D01*
X1861928Y-12600000D01*
X1874188Y-12724482D01*
X1910498Y-12844180D01*
X1969463Y-12954494D01*
X2048815Y-13051185D01*
X2145506Y-13130537D01*
X2255820Y-13189502D01*
X2375518Y-13225812D01*
X2500000Y-13238072D01*
X6500000Y-13238072D01*
X6624482Y-13225812D01*
X6744180Y-13189502D01*
X6854494Y-13130537D01*
X6951185Y-13051185D01*
X7030537Y-12954494D01*
X7089502Y-12844180D01*
X7125812Y-12724482D01*
X7138072Y-12600000D01*
X7861928Y-12600000D01*
X7874188Y-12724482D01*
X7910498Y-12844180D01*
X7969463Y-12954494D01*
X8048815Y-13051185D01*
X8145506Y-13130537D01*
X8255820Y-13189502D01*
X8375518Y-13225812D01*
X8500000Y-13238072D01*
X9714250Y-13235000D01*
X9873000Y-13076250D01*
X9873000Y-10127000D01*
X10127000Y-10127000D01*
X10127000Y-13076250D01*
X10285750Y-13235000D01*
X11500000Y-13238072D01*
X11624482Y-13225812D01*
X11744180Y-13189502D01*
X11854494Y-13130537D01*
X11951185Y-13051185D01*
X12030537Y-12954494D01*
X12089502Y-12844180D01*
X12125812Y-12724482D01*
X12138072Y-12600000D01*
X12135000Y-10285750D01*
X11976250Y-10127000D01*
X10127000Y-10127000D01*
X9873000Y-10127000D01*
X8023750Y-10127000D01*
X7865000Y-10285750D01*
X7861928Y-12600000D01*
X7138072Y-12600000D01*
X7138072Y-7400000D01*
X7861928Y-7400000D01*
X7865000Y-9714250D01*
X8023750Y-9873000D01*
X9873000Y-9873000D01*
X9873000Y-6923750D01*
X10127000Y-6923750D01*
X10127000Y-9873000D01*
X11976250Y-9873000D01*
X12135000Y-9714250D01*
X12138072Y-7400000D01*
X12125812Y-7275518D01*
X12089502Y-7155820D01*
X12030537Y-7045506D01*
X11951185Y-6948815D01*
X11854494Y-6869463D01*
X11744180Y-6810498D01*
X11624482Y-6774188D01*
X11500000Y-6761928D01*
X10285750Y-6765000D01*
X10127000Y-6923750D01*
X9873000Y-6923750D01*
X9714250Y-6765000D01*
X8500000Y-6761928D01*
X8375518Y-6774188D01*
X8255820Y-6810498D01*
X8145506Y-6869463D01*
X8048815Y-6948815D01*
X7969463Y-7045506D01*
X7910498Y-7155820D01*
X7874188Y-7275518D01*
X7861928Y-7400000D01*
X7138072Y-7400000D01*
X7125812Y-7275518D01*
X7089502Y-7155820D01*
X7030537Y-7045506D01*
X6951185Y-6948815D01*
X6854494Y-6869463D01*
X6744180Y-6810498D01*
X6624482Y-6774188D01*
X6500000Y-6761928D01*
X5843203Y-6761928D01*
X5858135Y-6746996D01*
X5901449Y-6711449D01*
X6043284Y-6538623D01*
X6148676Y-6341447D01*
X6213577Y-6127499D01*
X6230000Y-5960752D01*
X6235491Y-5905001D01*
X6230000Y-5849249D01*
X6230000Y-5622621D01*
X6339180Y-5589502D01*
X6449494Y-5530537D01*
X6546185Y-5451185D01*
X6625537Y-5354494D01*
X6684502Y-5244180D01*
X6720812Y-5124482D01*
X6733072Y-5000000D01*
X7266928Y-5000000D01*
X7279188Y-5124482D01*
X7315498Y-5244180D01*
X7374463Y-5354494D01*
X7453815Y-5451185D01*
X7550506Y-5530537D01*
X7660820Y-5589502D01*
X7780518Y-5625812D01*
X7905000Y-5638072D01*
X8619250Y-5635000D01*
X8778000Y-5476250D01*
X8778000Y-3127000D01*
X9032000Y-3127000D01*
X9032000Y-5476250D01*
X9190750Y-5635000D01*
X9905000Y-5638072D01*
X10029482Y-5625812D01*
X10149180Y-5589502D01*
X10259494Y-5530537D01*
X10356185Y-5451185D01*
X10435537Y-5354494D01*
X10494502Y-5244180D01*
X10530812Y-5124482D01*
X10543072Y-5000000D01*
X10540000Y-3285750D01*
X10381250Y-3127000D01*
X9032000Y-3127000D01*
X8778000Y-3127000D01*
X7428750Y-3127000D01*
X7270000Y-3285750D01*
X7266928Y-5000000D01*
X6733072Y-5000000D01*
X6733072Y-1127000D01*
X7267156Y-1127000D01*
X7270000Y-2714250D01*
M02*
