G04 #@! TF.GenerationSoftware,KiCad,Pcbnew,(5.1.6)-1*
G04 #@! TF.CreationDate,2020-10-13T20:44:43+02:00*
G04 #@! TF.ProjectId,DiodeAdapterSmd,44696f64-6541-4646-9170-746572536d64,0*
G04 #@! TF.SameCoordinates,PX5f5e100PY2faf080*
G04 #@! TF.FileFunction,Legend,Bot*
G04 #@! TF.FilePolarity,Positive*
%FSLAX46Y46*%
G04 Gerber Fmt 4.6, Leading zero omitted, Abs format (unit mm)*
G04 Created by KiCad (PCBNEW (5.1.6)-1) date 2020-10-13 20:44:43*
%MOMM*%
%LPD*%
G01*
G04 APERTURE LIST*
%ADD10C,0.150000*%
%ADD11C,0.300000*%
%ADD12C,0.120000*%
G04 APERTURE END LIST*
D10*
X12666666Y-14278571D02*
X12333333Y-14278571D01*
X12190476Y-14802380D02*
X12666666Y-14802380D01*
X12666666Y-13802380D01*
X12190476Y-13802380D01*
X11809523Y-14754761D02*
X11714285Y-14802380D01*
X11523809Y-14802380D01*
X11428571Y-14754761D01*
X11380952Y-14659523D01*
X11380952Y-14611904D01*
X11428571Y-14516666D01*
X11523809Y-14469047D01*
X11666666Y-14469047D01*
X11761904Y-14421428D01*
X11809523Y-14326190D01*
X11809523Y-14278571D01*
X11761904Y-14183333D01*
X11666666Y-14135714D01*
X11523809Y-14135714D01*
X11428571Y-14183333D01*
X11000000Y-14754761D02*
X10904761Y-14802380D01*
X10714285Y-14802380D01*
X10619047Y-14754761D01*
X10571428Y-14659523D01*
X10571428Y-14611904D01*
X10619047Y-14516666D01*
X10714285Y-14469047D01*
X10857142Y-14469047D01*
X10952380Y-14421428D01*
X11000000Y-14326190D01*
X11000000Y-14278571D01*
X10952380Y-14183333D01*
X10857142Y-14135714D01*
X10714285Y-14135714D01*
X10619047Y-14183333D01*
X9761904Y-14754761D02*
X9857142Y-14802380D01*
X10047619Y-14802380D01*
X10142857Y-14754761D01*
X10190476Y-14659523D01*
X10190476Y-14278571D01*
X10142857Y-14183333D01*
X10047619Y-14135714D01*
X9857142Y-14135714D01*
X9761904Y-14183333D01*
X9714285Y-14278571D01*
X9714285Y-14373809D01*
X10190476Y-14469047D01*
X9285714Y-14802380D02*
X9285714Y-14135714D01*
X9285714Y-13802380D02*
X9333333Y-13850000D01*
X9285714Y-13897619D01*
X9238095Y-13850000D01*
X9285714Y-13802380D01*
X9285714Y-13897619D01*
X8904761Y-14135714D02*
X8666666Y-14802380D01*
X8428571Y-14135714D01*
X7619047Y-14802380D02*
X7619047Y-14278571D01*
X7666666Y-14183333D01*
X7761904Y-14135714D01*
X7952380Y-14135714D01*
X8047619Y-14183333D01*
X7619047Y-14754761D02*
X7714285Y-14802380D01*
X7952380Y-14802380D01*
X8047619Y-14754761D01*
X8095238Y-14659523D01*
X8095238Y-14564285D01*
X8047619Y-14469047D01*
X7952380Y-14421428D01*
X7714285Y-14421428D01*
X7619047Y-14373809D01*
X6380952Y-14802380D02*
X6380952Y-13802380D01*
X5809523Y-14802380D01*
X5809523Y-13802380D01*
X5333333Y-14802380D02*
X5333333Y-14135714D01*
X5333333Y-13802380D02*
X5380952Y-13850000D01*
X5333333Y-13897619D01*
X5285714Y-13850000D01*
X5333333Y-13802380D01*
X5333333Y-13897619D01*
X4428571Y-14754761D02*
X4523809Y-14802380D01*
X4714285Y-14802380D01*
X4809523Y-14754761D01*
X4857142Y-14707142D01*
X4904761Y-14611904D01*
X4904761Y-14326190D01*
X4857142Y-14230952D01*
X4809523Y-14183333D01*
X4714285Y-14135714D01*
X4523809Y-14135714D01*
X4428571Y-14183333D01*
X3857142Y-14802380D02*
X3952380Y-14754761D01*
X4000000Y-14707142D01*
X4047619Y-14611904D01*
X4047619Y-14326190D01*
X4000000Y-14230952D01*
X3952380Y-14183333D01*
X3857142Y-14135714D01*
X3714285Y-14135714D01*
X3619047Y-14183333D01*
X3571428Y-14230952D01*
X3523809Y-14326190D01*
X3523809Y-14611904D01*
X3571428Y-14707142D01*
X3619047Y-14754761D01*
X3714285Y-14802380D01*
X3857142Y-14802380D01*
X2952380Y-14802380D02*
X3047619Y-14754761D01*
X3095238Y-14659523D01*
X3095238Y-13802380D01*
X2142857Y-14802380D02*
X2142857Y-14278571D01*
X2190476Y-14183333D01*
X2285714Y-14135714D01*
X2476190Y-14135714D01*
X2571428Y-14183333D01*
X2142857Y-14754761D02*
X2238095Y-14802380D01*
X2476190Y-14802380D01*
X2571428Y-14754761D01*
X2619047Y-14659523D01*
X2619047Y-14564285D01*
X2571428Y-14469047D01*
X2476190Y-14421428D01*
X2238095Y-14421428D01*
X2142857Y-14373809D01*
X1714285Y-14754761D02*
X1619047Y-14802380D01*
X1428571Y-14802380D01*
X1333333Y-14754761D01*
X1285714Y-14659523D01*
X1285714Y-14611904D01*
X1333333Y-14516666D01*
X1428571Y-14469047D01*
X1571428Y-14469047D01*
X1666666Y-14421428D01*
X1714285Y-14326190D01*
X1714285Y-14278571D01*
X1666666Y-14183333D01*
X1571428Y-14135714D01*
X1428571Y-14135714D01*
X1333333Y-14183333D01*
X12047619Y-16452380D02*
X12047619Y-15452380D01*
X11809523Y-15452380D01*
X11666666Y-15500000D01*
X11571428Y-15595238D01*
X11523809Y-15690476D01*
X11476190Y-15880952D01*
X11476190Y-16023809D01*
X11523809Y-16214285D01*
X11571428Y-16309523D01*
X11666666Y-16404761D01*
X11809523Y-16452380D01*
X12047619Y-16452380D01*
X11047619Y-16452380D02*
X11047619Y-15785714D01*
X11047619Y-15452380D02*
X11095238Y-15500000D01*
X11047619Y-15547619D01*
X11000000Y-15500000D01*
X11047619Y-15452380D01*
X11047619Y-15547619D01*
X10428571Y-16452380D02*
X10523809Y-16404761D01*
X10571428Y-16357142D01*
X10619047Y-16261904D01*
X10619047Y-15976190D01*
X10571428Y-15880952D01*
X10523809Y-15833333D01*
X10428571Y-15785714D01*
X10285714Y-15785714D01*
X10190476Y-15833333D01*
X10142857Y-15880952D01*
X10095238Y-15976190D01*
X10095238Y-16261904D01*
X10142857Y-16357142D01*
X10190476Y-16404761D01*
X10285714Y-16452380D01*
X10428571Y-16452380D01*
X9238095Y-16452380D02*
X9238095Y-15452380D01*
X9238095Y-16404761D02*
X9333333Y-16452380D01*
X9523809Y-16452380D01*
X9619047Y-16404761D01*
X9666666Y-16357142D01*
X9714285Y-16261904D01*
X9714285Y-15976190D01*
X9666666Y-15880952D01*
X9619047Y-15833333D01*
X9523809Y-15785714D01*
X9333333Y-15785714D01*
X9238095Y-15833333D01*
X8380952Y-16404761D02*
X8476190Y-16452380D01*
X8666666Y-16452380D01*
X8761904Y-16404761D01*
X8809523Y-16309523D01*
X8809523Y-15928571D01*
X8761904Y-15833333D01*
X8666666Y-15785714D01*
X8476190Y-15785714D01*
X8380952Y-15833333D01*
X8333333Y-15928571D01*
X8333333Y-16023809D01*
X8809523Y-16119047D01*
X6714285Y-16452380D02*
X6714285Y-15928571D01*
X6761904Y-15833333D01*
X6857142Y-15785714D01*
X7047619Y-15785714D01*
X7142857Y-15833333D01*
X6714285Y-16404761D02*
X6809523Y-16452380D01*
X7047619Y-16452380D01*
X7142857Y-16404761D01*
X7190476Y-16309523D01*
X7190476Y-16214285D01*
X7142857Y-16119047D01*
X7047619Y-16071428D01*
X6809523Y-16071428D01*
X6714285Y-16023809D01*
X5809523Y-16452380D02*
X5809523Y-15452380D01*
X5809523Y-16404761D02*
X5904761Y-16452380D01*
X6095238Y-16452380D01*
X6190476Y-16404761D01*
X6238095Y-16357142D01*
X6285714Y-16261904D01*
X6285714Y-15976190D01*
X6238095Y-15880952D01*
X6190476Y-15833333D01*
X6095238Y-15785714D01*
X5904761Y-15785714D01*
X5809523Y-15833333D01*
X4904761Y-16452380D02*
X4904761Y-15928571D01*
X4952380Y-15833333D01*
X5047619Y-15785714D01*
X5238095Y-15785714D01*
X5333333Y-15833333D01*
X4904761Y-16404761D02*
X5000000Y-16452380D01*
X5238095Y-16452380D01*
X5333333Y-16404761D01*
X5380952Y-16309523D01*
X5380952Y-16214285D01*
X5333333Y-16119047D01*
X5238095Y-16071428D01*
X5000000Y-16071428D01*
X4904761Y-16023809D01*
X4428571Y-15785714D02*
X4428571Y-16785714D01*
X4428571Y-15833333D02*
X4333333Y-15785714D01*
X4142857Y-15785714D01*
X4047619Y-15833333D01*
X4000000Y-15880952D01*
X3952380Y-15976190D01*
X3952380Y-16261904D01*
X4000000Y-16357142D01*
X4047619Y-16404761D01*
X4142857Y-16452380D01*
X4333333Y-16452380D01*
X4428571Y-16404761D01*
X3666666Y-15785714D02*
X3285714Y-15785714D01*
X3523809Y-15452380D02*
X3523809Y-16309523D01*
X3476190Y-16404761D01*
X3380952Y-16452380D01*
X3285714Y-16452380D01*
X2571428Y-16404761D02*
X2666666Y-16452380D01*
X2857142Y-16452380D01*
X2952380Y-16404761D01*
X3000000Y-16309523D01*
X3000000Y-15928571D01*
X2952380Y-15833333D01*
X2857142Y-15785714D01*
X2666666Y-15785714D01*
X2571428Y-15833333D01*
X2523809Y-15928571D01*
X2523809Y-16023809D01*
X3000000Y-16119047D01*
X2095238Y-16452380D02*
X2095238Y-15785714D01*
X2095238Y-15976190D02*
X2047619Y-15880952D01*
X2000000Y-15833333D01*
X1904761Y-15785714D01*
X1809523Y-15785714D01*
X12452380Y-17197619D02*
X12404761Y-17150000D01*
X12309523Y-17102380D01*
X12071428Y-17102380D01*
X11976190Y-17150000D01*
X11928571Y-17197619D01*
X11880952Y-17292857D01*
X11880952Y-17388095D01*
X11928571Y-17530952D01*
X12500000Y-18102380D01*
X11880952Y-18102380D01*
X11023809Y-17435714D02*
X11023809Y-18102380D01*
X11261904Y-17054761D02*
X11500000Y-17769047D01*
X10880952Y-17769047D01*
X10309523Y-17102380D02*
X10214285Y-17102380D01*
X10119047Y-17150000D01*
X10071428Y-17197619D01*
X10023809Y-17292857D01*
X9976190Y-17483333D01*
X9976190Y-17721428D01*
X10023809Y-17911904D01*
X10071428Y-18007142D01*
X10119047Y-18054761D01*
X10214285Y-18102380D01*
X10309523Y-18102380D01*
X10404761Y-18054761D01*
X10452380Y-18007142D01*
X10500000Y-17911904D01*
X10547619Y-17721428D01*
X10547619Y-17483333D01*
X10500000Y-17292857D01*
X10452380Y-17197619D01*
X10404761Y-17150000D01*
X10309523Y-17102380D01*
X9500000Y-18102380D02*
X9309523Y-18102380D01*
X9214285Y-18054761D01*
X9166666Y-18007142D01*
X9071428Y-17864285D01*
X9023809Y-17673809D01*
X9023809Y-17292857D01*
X9071428Y-17197619D01*
X9119047Y-17150000D01*
X9214285Y-17102380D01*
X9404761Y-17102380D01*
X9500000Y-17150000D01*
X9547619Y-17197619D01*
X9595238Y-17292857D01*
X9595238Y-17530952D01*
X9547619Y-17626190D01*
X9500000Y-17673809D01*
X9404761Y-17721428D01*
X9214285Y-17721428D01*
X9119047Y-17673809D01*
X9071428Y-17626190D01*
X9023809Y-17530952D01*
X8642857Y-17197619D02*
X8595238Y-17150000D01*
X8500000Y-17102380D01*
X8261904Y-17102380D01*
X8166666Y-17150000D01*
X8119047Y-17197619D01*
X8071428Y-17292857D01*
X8071428Y-17388095D01*
X8119047Y-17530952D01*
X8690476Y-18102380D01*
X8071428Y-18102380D01*
X7452380Y-17102380D02*
X7357142Y-17102380D01*
X7261904Y-17150000D01*
X7214285Y-17197619D01*
X7166666Y-17292857D01*
X7119047Y-17483333D01*
X7119047Y-17721428D01*
X7166666Y-17911904D01*
X7214285Y-18007142D01*
X7261904Y-18054761D01*
X7357142Y-18102380D01*
X7452380Y-18102380D01*
X7547619Y-18054761D01*
X7595238Y-18007142D01*
X7642857Y-17911904D01*
X7690476Y-17721428D01*
X7690476Y-17483333D01*
X7642857Y-17292857D01*
X7595238Y-17197619D01*
X7547619Y-17150000D01*
X7452380Y-17102380D01*
X6738095Y-17197619D02*
X6690476Y-17150000D01*
X6595238Y-17102380D01*
X6357142Y-17102380D01*
X6261904Y-17150000D01*
X6214285Y-17197619D01*
X6166666Y-17292857D01*
X6166666Y-17388095D01*
X6214285Y-17530952D01*
X6785714Y-18102380D01*
X6166666Y-18102380D01*
X5547619Y-17102380D02*
X5452380Y-17102380D01*
X5357142Y-17150000D01*
X5309523Y-17197619D01*
X5261904Y-17292857D01*
X5214285Y-17483333D01*
X5214285Y-17721428D01*
X5261904Y-17911904D01*
X5309523Y-18007142D01*
X5357142Y-18054761D01*
X5452380Y-18102380D01*
X5547619Y-18102380D01*
X5642857Y-18054761D01*
X5690476Y-18007142D01*
X5738095Y-17911904D01*
X5785714Y-17721428D01*
X5785714Y-17483333D01*
X5738095Y-17292857D01*
X5690476Y-17197619D01*
X5642857Y-17150000D01*
X5547619Y-17102380D01*
X3452380Y-18102380D02*
X3785714Y-17626190D01*
X4023809Y-18102380D02*
X4023809Y-17102380D01*
X3642857Y-17102380D01*
X3547619Y-17150000D01*
X3500000Y-17197619D01*
X3452380Y-17292857D01*
X3452380Y-17435714D01*
X3500000Y-17530952D01*
X3547619Y-17578571D01*
X3642857Y-17626190D01*
X4023809Y-17626190D01*
X2833333Y-17102380D02*
X2738095Y-17102380D01*
X2642857Y-17150000D01*
X2595238Y-17197619D01*
X2547619Y-17292857D01*
X2500000Y-17483333D01*
X2500000Y-17721428D01*
X2547619Y-17911904D01*
X2595238Y-18007142D01*
X2642857Y-18054761D01*
X2738095Y-18102380D01*
X2833333Y-18102380D01*
X2928571Y-18054761D01*
X2976190Y-18007142D01*
X3023809Y-17911904D01*
X3071428Y-17721428D01*
X3071428Y-17483333D01*
X3023809Y-17292857D01*
X2976190Y-17197619D01*
X2928571Y-17150000D01*
X2833333Y-17102380D01*
X1880952Y-17102380D02*
X1785714Y-17102380D01*
X1690476Y-17150000D01*
X1642857Y-17197619D01*
X1595238Y-17292857D01*
X1547619Y-17483333D01*
X1547619Y-17721428D01*
X1595238Y-17911904D01*
X1642857Y-18007142D01*
X1690476Y-18054761D01*
X1785714Y-18102380D01*
X1880952Y-18102380D01*
X1976190Y-18054761D01*
X2023809Y-18007142D01*
X2071428Y-17911904D01*
X2119047Y-17721428D01*
X2119047Y-17483333D01*
X2071428Y-17292857D01*
X2023809Y-17197619D01*
X1976190Y-17150000D01*
X1880952Y-17102380D01*
D11*
X12571428Y-1357142D02*
X11428571Y-1357142D01*
X2571428Y-1357142D02*
X1428571Y-1357142D01*
X2000000Y-1928571D02*
X2000000Y-785714D01*
D12*
X10500000Y-5500000D02*
X10500000Y-500000D01*
X3500000Y-5500000D02*
X3500000Y-500000D01*
X3500000Y-500000D02*
X6000000Y-500000D01*
X3500000Y-5500000D02*
X6000000Y-5500000D01*
M02*
