G04 #@! TF.GenerationSoftware,KiCad,Pcbnew,(5.1.6)-1*
G04 #@! TF.CreationDate,2020-10-13T17:39:25+02:00*
G04 #@! TF.ProjectId,DiodeAdapterSmd,44696f64-6541-4646-9170-746572536d64,0*
G04 #@! TF.SameCoordinates,Original*
G04 #@! TF.FileFunction,Copper,L2,Bot*
G04 #@! TF.FilePolarity,Positive*
%FSLAX46Y46*%
G04 Gerber Fmt 4.6, Leading zero omitted, Abs format (unit mm)*
G04 Created by KiCad (PCBNEW (5.1.6)-1) date 2020-10-13 17:39:25*
%MOMM*%
%LPD*%
G01*
G04 APERTURE LIST*
G04 #@! TA.AperFunction,ConnectorPad*
%ADD10R,2.000000X4.000000*%
G04 #@! TD*
G04 #@! TA.AperFunction,SMDPad,CuDef*
%ADD11R,3.000000X5.200000*%
G04 #@! TD*
G04 #@! TA.AperFunction,SMDPad,CuDef*
%ADD12R,4.000000X5.200000*%
G04 #@! TD*
G04 #@! TA.AperFunction,ViaPad*
%ADD13C,1.500000*%
G04 #@! TD*
G04 #@! TA.AperFunction,Conductor*
%ADD14C,1.000000*%
G04 #@! TD*
G04 #@! TA.AperFunction,Conductor*
%ADD15C,0.254000*%
G04 #@! TD*
G04 APERTURE END LIST*
D10*
X105095000Y-53000000D03*
X108905000Y-53000000D03*
D11*
X110000000Y-60000000D03*
D12*
X104500000Y-60000000D03*
D13*
X102000000Y-53000000D03*
X112000000Y-53000000D03*
D14*
X105095000Y-53000000D02*
X102000000Y-53000000D01*
X105095000Y-53000000D02*
X105095000Y-55905000D01*
X104500000Y-56500000D02*
X104500000Y-60000000D01*
X105095000Y-55905000D02*
X104500000Y-56500000D01*
X108905000Y-53000000D02*
X112000000Y-53000000D01*
X110000000Y-60000000D02*
X110000000Y-57000000D01*
X108905000Y-55905000D02*
X108905000Y-53000000D01*
X110000000Y-57000000D02*
X108905000Y-55905000D01*
D15*
G36*
X107270000Y-52714250D02*
G01*
X107428750Y-52873000D01*
X108778000Y-52873000D01*
X108778000Y-52853000D01*
X109032000Y-52853000D01*
X109032000Y-52873000D01*
X110381250Y-52873000D01*
X110540000Y-52714250D01*
X110542844Y-51127000D01*
X113290000Y-51127000D01*
X113290001Y-69290000D01*
X100710000Y-69290000D01*
X100710000Y-53504843D01*
X100772629Y-53656043D01*
X100924201Y-53882886D01*
X101117114Y-54075799D01*
X101343957Y-54227371D01*
X101596011Y-54331775D01*
X101863589Y-54385000D01*
X102136411Y-54385000D01*
X102403989Y-54331775D01*
X102656043Y-54227371D01*
X102794286Y-54135000D01*
X103456928Y-54135000D01*
X103456928Y-55000000D01*
X103469188Y-55124482D01*
X103505498Y-55244180D01*
X103564463Y-55354494D01*
X103643815Y-55451185D01*
X103740506Y-55530537D01*
X103821200Y-55573669D01*
X103736865Y-55658004D01*
X103693551Y-55693551D01*
X103551716Y-55866377D01*
X103446325Y-56063553D01*
X103446324Y-56063554D01*
X103381423Y-56277502D01*
X103359509Y-56500000D01*
X103365000Y-56555752D01*
X103365000Y-56761928D01*
X102500000Y-56761928D01*
X102375518Y-56774188D01*
X102255820Y-56810498D01*
X102145506Y-56869463D01*
X102048815Y-56948815D01*
X101969463Y-57045506D01*
X101910498Y-57155820D01*
X101874188Y-57275518D01*
X101861928Y-57400000D01*
X101861928Y-62600000D01*
X101874188Y-62724482D01*
X101910498Y-62844180D01*
X101969463Y-62954494D01*
X102048815Y-63051185D01*
X102145506Y-63130537D01*
X102255820Y-63189502D01*
X102375518Y-63225812D01*
X102500000Y-63238072D01*
X106500000Y-63238072D01*
X106624482Y-63225812D01*
X106744180Y-63189502D01*
X106854494Y-63130537D01*
X106951185Y-63051185D01*
X107030537Y-62954494D01*
X107089502Y-62844180D01*
X107125812Y-62724482D01*
X107138072Y-62600000D01*
X107861928Y-62600000D01*
X107874188Y-62724482D01*
X107910498Y-62844180D01*
X107969463Y-62954494D01*
X108048815Y-63051185D01*
X108145506Y-63130537D01*
X108255820Y-63189502D01*
X108375518Y-63225812D01*
X108500000Y-63238072D01*
X109714250Y-63235000D01*
X109873000Y-63076250D01*
X109873000Y-60127000D01*
X110127000Y-60127000D01*
X110127000Y-63076250D01*
X110285750Y-63235000D01*
X111500000Y-63238072D01*
X111624482Y-63225812D01*
X111744180Y-63189502D01*
X111854494Y-63130537D01*
X111951185Y-63051185D01*
X112030537Y-62954494D01*
X112089502Y-62844180D01*
X112125812Y-62724482D01*
X112138072Y-62600000D01*
X112135000Y-60285750D01*
X111976250Y-60127000D01*
X110127000Y-60127000D01*
X109873000Y-60127000D01*
X108023750Y-60127000D01*
X107865000Y-60285750D01*
X107861928Y-62600000D01*
X107138072Y-62600000D01*
X107138072Y-57400000D01*
X107861928Y-57400000D01*
X107865000Y-59714250D01*
X108023750Y-59873000D01*
X109873000Y-59873000D01*
X109873000Y-56923750D01*
X110127000Y-56923750D01*
X110127000Y-59873000D01*
X111976250Y-59873000D01*
X112135000Y-59714250D01*
X112138072Y-57400000D01*
X112125812Y-57275518D01*
X112089502Y-57155820D01*
X112030537Y-57045506D01*
X111951185Y-56948815D01*
X111854494Y-56869463D01*
X111744180Y-56810498D01*
X111624482Y-56774188D01*
X111500000Y-56761928D01*
X110285750Y-56765000D01*
X110127000Y-56923750D01*
X109873000Y-56923750D01*
X109714250Y-56765000D01*
X108500000Y-56761928D01*
X108375518Y-56774188D01*
X108255820Y-56810498D01*
X108145506Y-56869463D01*
X108048815Y-56948815D01*
X107969463Y-57045506D01*
X107910498Y-57155820D01*
X107874188Y-57275518D01*
X107861928Y-57400000D01*
X107138072Y-57400000D01*
X107125812Y-57275518D01*
X107089502Y-57155820D01*
X107030537Y-57045506D01*
X106951185Y-56948815D01*
X106854494Y-56869463D01*
X106744180Y-56810498D01*
X106624482Y-56774188D01*
X106500000Y-56761928D01*
X105843203Y-56761928D01*
X105858135Y-56746996D01*
X105901449Y-56711449D01*
X106043284Y-56538623D01*
X106148676Y-56341447D01*
X106213577Y-56127499D01*
X106230000Y-55960752D01*
X106235491Y-55905001D01*
X106230000Y-55849249D01*
X106230000Y-55622621D01*
X106339180Y-55589502D01*
X106449494Y-55530537D01*
X106546185Y-55451185D01*
X106625537Y-55354494D01*
X106684502Y-55244180D01*
X106720812Y-55124482D01*
X106733072Y-55000000D01*
X107266928Y-55000000D01*
X107279188Y-55124482D01*
X107315498Y-55244180D01*
X107374463Y-55354494D01*
X107453815Y-55451185D01*
X107550506Y-55530537D01*
X107660820Y-55589502D01*
X107780518Y-55625812D01*
X107905000Y-55638072D01*
X108619250Y-55635000D01*
X108778000Y-55476250D01*
X108778000Y-53127000D01*
X109032000Y-53127000D01*
X109032000Y-55476250D01*
X109190750Y-55635000D01*
X109905000Y-55638072D01*
X110029482Y-55625812D01*
X110149180Y-55589502D01*
X110259494Y-55530537D01*
X110356185Y-55451185D01*
X110435537Y-55354494D01*
X110494502Y-55244180D01*
X110530812Y-55124482D01*
X110543072Y-55000000D01*
X110540000Y-53285750D01*
X110381250Y-53127000D01*
X109032000Y-53127000D01*
X108778000Y-53127000D01*
X107428750Y-53127000D01*
X107270000Y-53285750D01*
X107266928Y-55000000D01*
X106733072Y-55000000D01*
X106733072Y-51127000D01*
X107267156Y-51127000D01*
X107270000Y-52714250D01*
G37*
X107270000Y-52714250D02*
X107428750Y-52873000D01*
X108778000Y-52873000D01*
X108778000Y-52853000D01*
X109032000Y-52853000D01*
X109032000Y-52873000D01*
X110381250Y-52873000D01*
X110540000Y-52714250D01*
X110542844Y-51127000D01*
X113290000Y-51127000D01*
X113290001Y-69290000D01*
X100710000Y-69290000D01*
X100710000Y-53504843D01*
X100772629Y-53656043D01*
X100924201Y-53882886D01*
X101117114Y-54075799D01*
X101343957Y-54227371D01*
X101596011Y-54331775D01*
X101863589Y-54385000D01*
X102136411Y-54385000D01*
X102403989Y-54331775D01*
X102656043Y-54227371D01*
X102794286Y-54135000D01*
X103456928Y-54135000D01*
X103456928Y-55000000D01*
X103469188Y-55124482D01*
X103505498Y-55244180D01*
X103564463Y-55354494D01*
X103643815Y-55451185D01*
X103740506Y-55530537D01*
X103821200Y-55573669D01*
X103736865Y-55658004D01*
X103693551Y-55693551D01*
X103551716Y-55866377D01*
X103446325Y-56063553D01*
X103446324Y-56063554D01*
X103381423Y-56277502D01*
X103359509Y-56500000D01*
X103365000Y-56555752D01*
X103365000Y-56761928D01*
X102500000Y-56761928D01*
X102375518Y-56774188D01*
X102255820Y-56810498D01*
X102145506Y-56869463D01*
X102048815Y-56948815D01*
X101969463Y-57045506D01*
X101910498Y-57155820D01*
X101874188Y-57275518D01*
X101861928Y-57400000D01*
X101861928Y-62600000D01*
X101874188Y-62724482D01*
X101910498Y-62844180D01*
X101969463Y-62954494D01*
X102048815Y-63051185D01*
X102145506Y-63130537D01*
X102255820Y-63189502D01*
X102375518Y-63225812D01*
X102500000Y-63238072D01*
X106500000Y-63238072D01*
X106624482Y-63225812D01*
X106744180Y-63189502D01*
X106854494Y-63130537D01*
X106951185Y-63051185D01*
X107030537Y-62954494D01*
X107089502Y-62844180D01*
X107125812Y-62724482D01*
X107138072Y-62600000D01*
X107861928Y-62600000D01*
X107874188Y-62724482D01*
X107910498Y-62844180D01*
X107969463Y-62954494D01*
X108048815Y-63051185D01*
X108145506Y-63130537D01*
X108255820Y-63189502D01*
X108375518Y-63225812D01*
X108500000Y-63238072D01*
X109714250Y-63235000D01*
X109873000Y-63076250D01*
X109873000Y-60127000D01*
X110127000Y-60127000D01*
X110127000Y-63076250D01*
X110285750Y-63235000D01*
X111500000Y-63238072D01*
X111624482Y-63225812D01*
X111744180Y-63189502D01*
X111854494Y-63130537D01*
X111951185Y-63051185D01*
X112030537Y-62954494D01*
X112089502Y-62844180D01*
X112125812Y-62724482D01*
X112138072Y-62600000D01*
X112135000Y-60285750D01*
X111976250Y-60127000D01*
X110127000Y-60127000D01*
X109873000Y-60127000D01*
X108023750Y-60127000D01*
X107865000Y-60285750D01*
X107861928Y-62600000D01*
X107138072Y-62600000D01*
X107138072Y-57400000D01*
X107861928Y-57400000D01*
X107865000Y-59714250D01*
X108023750Y-59873000D01*
X109873000Y-59873000D01*
X109873000Y-56923750D01*
X110127000Y-56923750D01*
X110127000Y-59873000D01*
X111976250Y-59873000D01*
X112135000Y-59714250D01*
X112138072Y-57400000D01*
X112125812Y-57275518D01*
X112089502Y-57155820D01*
X112030537Y-57045506D01*
X111951185Y-56948815D01*
X111854494Y-56869463D01*
X111744180Y-56810498D01*
X111624482Y-56774188D01*
X111500000Y-56761928D01*
X110285750Y-56765000D01*
X110127000Y-56923750D01*
X109873000Y-56923750D01*
X109714250Y-56765000D01*
X108500000Y-56761928D01*
X108375518Y-56774188D01*
X108255820Y-56810498D01*
X108145506Y-56869463D01*
X108048815Y-56948815D01*
X107969463Y-57045506D01*
X107910498Y-57155820D01*
X107874188Y-57275518D01*
X107861928Y-57400000D01*
X107138072Y-57400000D01*
X107125812Y-57275518D01*
X107089502Y-57155820D01*
X107030537Y-57045506D01*
X106951185Y-56948815D01*
X106854494Y-56869463D01*
X106744180Y-56810498D01*
X106624482Y-56774188D01*
X106500000Y-56761928D01*
X105843203Y-56761928D01*
X105858135Y-56746996D01*
X105901449Y-56711449D01*
X106043284Y-56538623D01*
X106148676Y-56341447D01*
X106213577Y-56127499D01*
X106230000Y-55960752D01*
X106235491Y-55905001D01*
X106230000Y-55849249D01*
X106230000Y-55622621D01*
X106339180Y-55589502D01*
X106449494Y-55530537D01*
X106546185Y-55451185D01*
X106625537Y-55354494D01*
X106684502Y-55244180D01*
X106720812Y-55124482D01*
X106733072Y-55000000D01*
X107266928Y-55000000D01*
X107279188Y-55124482D01*
X107315498Y-55244180D01*
X107374463Y-55354494D01*
X107453815Y-55451185D01*
X107550506Y-55530537D01*
X107660820Y-55589502D01*
X107780518Y-55625812D01*
X107905000Y-55638072D01*
X108619250Y-55635000D01*
X108778000Y-55476250D01*
X108778000Y-53127000D01*
X109032000Y-53127000D01*
X109032000Y-55476250D01*
X109190750Y-55635000D01*
X109905000Y-55638072D01*
X110029482Y-55625812D01*
X110149180Y-55589502D01*
X110259494Y-55530537D01*
X110356185Y-55451185D01*
X110435537Y-55354494D01*
X110494502Y-55244180D01*
X110530812Y-55124482D01*
X110543072Y-55000000D01*
X110540000Y-53285750D01*
X110381250Y-53127000D01*
X109032000Y-53127000D01*
X108778000Y-53127000D01*
X107428750Y-53127000D01*
X107270000Y-53285750D01*
X107266928Y-55000000D01*
X106733072Y-55000000D01*
X106733072Y-51127000D01*
X107267156Y-51127000D01*
X107270000Y-52714250D01*
M02*
